<!-- Generated by IcoMoon.io -->
<svg version="1.1" xmlns="http://www.w3.org/2000/svg" width="39" height="32" viewBox="0 0 39 32">
<title>arrow-right</title>
<path fill="#d41443" d="M37.797 13.468l-14.061-12.784c-1.276-0.957-3.195-0.957-4.471 0.324-0.957 1.276-0.957 3.195 0.319 4.471l8.268 7.58h-24.872c-1.645 0-2.981 1.335-2.981 2.981s1.335 2.981 2.981 2.981h24.835l-8.231 7.548c-1.276 1.276-1.595 3.195-0.319 4.471 0.638 0.638 1.276 0.957 2.238 0.957s1.595 0 2.238-1.276l14.061-12.785c0.638-0.319 0.957-1.595 0.957-2.238 0-0.629-0.324-1.591-0.962-2.229z"></path>
</svg>
