<!-- Generated by IcoMoon.io -->
<svg version="1.1" xmlns="http://www.w3.org/2000/svg" width="29" height="32" viewBox="0 0 29 32">
<title>stat-heart</title>
<path fill="#ffa5ba" d="M23.428 12.952v0M5.722 17.267v0 0zM5.022 19.11v0 0zM5.087 19.045v0 0z"></path>
<path fill="#ffa5ba" d="M22.92 0.261c-0.697-0.254-1.078-0.254-2.41-0.254-0.697 0-1.078 0-1.459 0.062s-0.762 0.127-1.27 0.316v0c-1.205 0.381-2.41 1.016-3.237 1.713v0l-0.381 0.316-0.381-0.316c-0.824-0.635-2.032-1.27-3.237-1.713v0c-0.508-0.189-0.889-0.254-1.27-0.316s-0.824-0.062-1.459-0.062c-1.27 0-1.651 0-2.41 0.254-3.299 1.078-5.393 4.38-5.393 8.314 0 3.618 1.459 6.917 4.38 9.835v0c1.778 1.84 3.68 3.11 6.22 4.253v0l1.143 0.57v8.757h1.895v-8.187l0.189 0.062c0.254 0.062 0.57 0.062 0.824 0v0l0.189-0.062v8.187h1.902v-8.757l1.205-0.57c2.537-1.143 4.38-2.475 6.22-4.253v0c2.856-2.918 4.38-6.22 4.38-9.835-0.247-3.934-2.341-7.171-5.64-8.314zM26.154 11.431c-0.062 0.254-0.189 0.57-0.316 0.951-0.254 0.697-0.635 1.524-0.889 1.967v0c-0.824 1.459-1.524 2.286-2.791 3.491-1.84 1.713-4.442 3.237-7.044 4.126v0l-0.889 0.316-0.889-0.316c-2.791-0.951-5.266-2.475-7.233-4.38v0c-2.537-2.413-3.807-4.95-4.188-7.995-0.062-0.57-0.062-1.332 0-2.032 0.062-0.316 0.062-0.635 0.127-0.951 0.062-0.254 0.127-0.443 0.127-0.508v0c0.062 0 0.127 0 0.189 0 0.189 0 0.443 0 0.762 0.062 0.57 0.062 1.27 0.189 1.84 0.316 1.205 0.316 2.602 1.016 3.872 1.967v0c0.508 0.381 1.205 0.889 1.524 1.143 0.824 0.635 2.221 1.397 3.237 1.84 0.254 0.127 0.508 0.189 0.697 0.316 0.062 0.062 0.189 0.127 0.254 0.127l0.062 0.062c0 0 0 0.062 0 0.127 0 0.127 0.062 0.254 0.062 0.508 0 0.443 0.062 1.078 0.062 2.032 0 1.143 0 1.778 0.062 2.221s0.127 0.635 0.189 0.889v0c0.189 0.443 0.508 0.762 0.889 1.016s0.824 0.316 1.332 0.316c0.316 0 0.635-0.062 0.889-0.189s0.508-0.316 0.762-0.57c0.127-0.127 0.254-0.254 0.316-0.443s0.127-0.316 0.189-0.57c0.062-0.443 0.127-1.143 0.127-2.221 0-0.062 0-0.062 0-0.127 0-0.57 0-1.016 0-1.332 0-0.381 0.062-0.57 0.127-0.697 0.062-0.127 0.127-0.189 0.316-0.254 0.189-0.062 0.381-0.062 0.762-0.062h0.062c1.459-0.127 3.299-0.508 4.569-0.951v0c0.316-0.127 0.57-0.189 0.762-0.254 0.062 0 0.127 0 0.127-0.062 0.010-0.072 0.010-0.007-0.055 0.12zM26.408 9.083c-0.062 0.062-0.189 0.189-0.443 0.254-0.254 0.127-0.508 0.254-0.951 0.381v0c-1.332 0.508-2.41 0.762-4.38 0.951v0c-0.635 0.062-1.016 0.127-1.27 0.189-0.316 0.062-0.443 0.189-0.697 0.316v0c-0.189 0.127-0.381 0.316-0.508 0.443-0.127 0.189-0.254 0.381-0.316 0.635-0.127 0.508-0.189 1.27-0.189 2.475 0 0.889 0 1.459-0.062 1.778 0 0.316-0.062 0.443-0.127 0.443v0 0c-0.189 0.189-0.508 0.189-0.762 0-0.062-0.062-0.062-0.062-0.127-0.127 0-0.062-0.062-0.189-0.062-0.316 0-0.381-0.062-1.016-0.062-2.221 0-1.332 0-2.094-0.127-2.664-0.062-0.254-0.127-0.443-0.189-0.635-0.062-0.189-0.189-0.316-0.316-0.443 0 0-0.062-0.062-0.127-0.062-0.062 0-0.062-0.062-0.127-0.062-0.127-0.062-0.254-0.127-0.443-0.254-0.381-0.189-0.824-0.443-1.27-0.635v0 0c-1.078-0.508-2.094-1.078-2.729-1.586v0c-1.524-1.143-2.664-1.905-3.68-2.413-1.078-0.508-2.032-0.762-3.299-0.951-0.381-0.062-0.697-0.127-0.951-0.189-0.127 0-0.189-0.062-0.254-0.062 0.062-0.062 0.127-0.189 0.254-0.316 0.189-0.254 0.508-0.635 0.824-0.889v0c1.397-1.205 2.918-1.651 4.95-1.27 0.508 0.062 1.205 0.316 1.524 0.443 0.381 0.127 0.889 0.443 1.397 0.762 0.508 0.316 0.951 0.635 1.205 0.889v0c0.189 0.189 0.381 0.316 0.508 0.443 0.189 0.127 0.316 0.189 0.508 0.127 0.189 0 0.316-0.062 0.508-0.189 0.189-0.127 0.381-0.254 0.57-0.443v0c1.397-1.27 3.618-2.094 5.458-2.094 2.475 0 4.761 1.967 5.458 4.696v0c0.127 0.508 0.254 1.27 0.254 1.778v0 0c0 0.254 0 0.443 0 0.635 0.175-0.010 0.113 0.117 0.048 0.182z"></path>
</svg>
