<!-- Generated by IcoMoon.io -->
<svg version="1.1" xmlns="http://www.w3.org/2000/svg" width="32" height="32" viewBox="0 0 32 32">
<title>stat-apples</title>
<path fill="#ffa5ba" d="M29.632 21.376c-1.28-0.448-2.368-0.32-3.264 0 0.128-0.896 0.448-1.856 1.152-2.496 0.448-0.384 0.448-1.088 0.064-1.536s-1.088-0.448-1.536-0.064c-1.216 1.152-1.728 2.752-1.856 4.096-0.32-0.128-0.704-0.256-1.088-0.32l1.92-9.856c0.064-0.32 0-0.64-0.256-0.896-0.192-0.256-0.512-0.384-0.832-0.384h-0.192c0.064-0.512 0.128-1.024 0.128-1.472 0-1.984-0.896-3.52-2.368-4.032-1.408-0.512-2.56-0.32-3.52 0.064 0.128-0.96 0.512-2.048 1.28-2.816 0.448-0.384 0.448-1.088 0.064-1.536s-1.088-0.448-1.536-0.064c-1.344 1.216-1.792 2.944-1.984 4.416-0.704-0.32-1.664-0.512-2.688-0.32-1.088-1.6-2.624-2.304-4.096-1.92-1.472 0.32-2.368 1.088-2.88 1.984-0.384-0.896-0.704-1.984-0.448-3.008 0.128-0.576-0.192-1.152-0.768-1.28s-1.152 0.192-1.28 0.768c-0.448 1.728 0.064 3.456 0.704 4.736-1.024 0.128-2.112 0.64-3.072 1.856-0.576 0.768-0.768 1.728-0.576 2.688-0.192 0.064-0.32 0.192-0.448 0.32-0.192 0.256-0.256 0.576-0.256 0.896l3.84 19.84c0.128 0.512 0.512 0.832 1.024 0.832h15.232c0.512 0 0.96-0.384 1.024-0.832l0.064-0.192c0.256 0.192 0.576 0.384 0.896 0.512 1.28 0.448 2.432 0.256 3.072 0.128 0.32 0.064 0.768 0.192 1.344 0.192 0.512 0 1.088-0.064 1.664-0.32 2.368-0.896 3.584-3.84 3.584-6.208 0.128-1.856-0.704-3.264-2.112-3.776zM22.656 12.16c-0.512 4.736-4.48 7.936-9.984 7.936s-9.472-3.2-9.984-7.936h19.968zM16.064 7.488c0.192 0.32 0.512 0.576 0.96 0.576 0.384 0 0.768-0.192 0.96-0.576 0-0.064 0.32-0.448 0.768-0.768 0.64-0.384 1.344-0.448 2.176-0.128s0.96 1.536 0.96 2.048c0 0.448-0.064 0.96-0.192 1.472h-7.104c0.256-1.216 0.064-2.496-0.32-3.648 0.384 0 0.704 0.128 1.024 0.32 0.448 0.256 0.704 0.64 0.768 0.704zM3.072 8.704c0.576-0.704 1.152-1.088 1.92-1.088v0c0.576 0 1.024 0.192 1.088 0.256 0.32 0.192 0.768 0.192 1.088-0.064 0.32-0.192 0.512-0.576 0.512-0.96 0-0.064-0.128-1.92 1.984-2.368 0.896-0.192 1.6 0.768 1.92 1.152 0.832 1.216 1.216 3.136 0.768 4.416h-9.344c-0.192-0.448-0.256-0.96 0.064-1.344zM5.824 29.824l-2.112-11.008c0.128 0.128 0.256 0.256 0.448 0.384 2.176 1.92 5.248 2.944 8.512 2.944 3.328 0 6.336-1.024 8.512-2.944 0.064-0.064 0.128-0.064 0.128-0.128l-0.448 2.24c0 0-0.064 0-0.064 0-1.408 0.512-2.24 1.92-2.304 3.84 0 1.152 0.32 2.496 0.896 3.648l-0.192 1.024h-13.376zM27.584 29.376c-0.96 0.32-1.856 0-1.92 0-0.256-0.128-0.512-0.128-0.768 0 0 0-0.96 0.32-1.92 0-1.344-0.512-2.24-2.56-2.24-4.16 0-0.448 0.064-1.6 0.832-1.856 0.32-0.128 0.64-0.192 0.96-0.192 1.088 0 1.664 0.832 1.792 1.024 0.192 0.32 0.512 0.576 0.96 0.576 0.384 0 0.768-0.192 0.96-0.576 0.128-0.256 0.96-1.472 2.752-0.832 0.768 0.256 0.832 1.408 0.832 1.856-0.064 1.6-0.896 3.712-2.24 4.16z"></path>
</svg>
