<svg xmlns="http://www.w3.org/2000/svg" viewBox="0 0 128350 844" width="128350" height="844"><path d="M425.2 175C357.35 79.45 251.05 54.575 161.713 82.75 72.375 110.925 0 192.15 0 308.8c0 77.833 28.6 152.267 72.948 217.941 44.348 65.674 104.445 122.589 167.437 165.385C303.378 734.922 369.267 763.6 425.2 772.8c55.933-9.2 121.822-37.878 184.815-80.674 62.992-42.796 123.089-99.711 167.437-165.385C821.8 461.067 850.4 386.633 850.4 308.8c0-116.65-72.375-197.875-161.712-226.05C599.35 54.575 493.05 79.45 425.2 175z" fill="#ffa5ba"/><path d="M1275.2 174.984c-67.852-95.541-174.15-120.411-263.486-92.234-89.336 28.177-161.709 109.401-161.712 226.048-.003 77.834 28.595 152.269 72.941 217.945 44.347 65.676 104.443 122.592 167.436 165.39 62.994 42.797 128.884 71.475 184.821 80.674 55.936-9.199 121.827-37.877 184.821-80.674 62.993-42.798 123.089-99.714 167.436-165.39 44.346-65.676 72.944-140.111 72.941-217.945-.003-116.647-72.376-197.871-161.712-226.048-89.336-28.177-195.634-3.307-263.486 92.234z" fill="#ffa5ba"/><path d="M2125.2 174.933c-67.858-95.513-174.151-120.368-263.482-92.184-89.332 28.184-161.7 109.407-161.71 226.045-.011 77.836 28.578 152.275 72.92 217.957 44.342 65.681 104.436 122.602 167.432 165.402 62.997 42.8 128.894 71.478 184.84 80.674 55.946-9.196 121.843-37.874 184.839-80.674 62.997-42.8 123.091-99.721 167.433-165.402 44.341-65.682 72.93-140.121 72.92-217.957-.011-116.638-72.379-197.861-161.71-226.045-89.331-28.184-195.624-3.329-263.482 92.184z" fill="#ffa5ba"/><path d="M2975.2 174.848c-67.869-95.467-174.153-120.296-263.476-92.1-89.323 28.196-161.682 109.415-161.706 226.037-.024 77.84 28.551 152.288 72.885 217.979 44.334 65.69 104.425 122.62 167.426 165.424 63.001 42.805 128.908 71.483 184.871 80.675 55.962-9.192 121.87-37.87 184.871-80.675 63.001-42.804 123.092-99.734 167.426-165.424 44.333-65.691 72.909-140.139 72.885-217.979-.024-116.622-72.384-197.841-161.707-226.037-89.323-28.196-195.606-3.367-263.475 92.1z" fill="#ffa5ba"/><path d="M3825.2 174.727c-67.885-95.401-174.155-120.193-263.466-91.98-89.312 28.213-161.658 109.426-161.701 226.027-.044 77.844 28.511 152.304 72.834 218.008 44.322 65.704 104.409 122.645 167.416 165.457 63.008 42.811 128.931 71.488 184.917 80.674 55.986-9.186 121.908-37.863 184.916-80.674 63.008-42.812 123.095-99.753 167.417-165.457s72.877-140.164 72.834-218.008c-.043-116.601-72.39-197.814-161.701-226.027-89.312-28.213-195.582-3.421-263.466 91.98z" fill="#ffa5ba"/><path d="M4675.2 174.567c-67.905-95.314-174.158-120.057-263.454-91.822-89.296 28.235-161.626 109.442-161.695 226.013-.068 77.851 28.461 152.326 72.768 218.048 44.307 65.721 104.388 122.678 167.405 165.498 63.016 42.821 128.958 71.497 184.976 80.675 56.017-9.178 121.959-37.854 184.975-80.675 63.017-42.82 123.098-99.777 167.405-165.498 44.307-65.722 72.836-140.197 72.768-218.048-.069-116.571-72.399-197.778-161.695-226.013-89.296-28.235-195.549-3.492-263.453 91.822z" fill="#ffa5ba"/><path d="M5525.199 174.367c-67.929-95.204-174.161-119.887-263.438-91.624-89.277 28.262-161.586 109.461-161.686 225.996-.1 77.859 28.397 152.353 72.685 218.097 44.288 65.743 104.362 122.719 167.39 165.551 63.027 42.831 128.994 71.507 185.049 80.674 56.056-9.167 122.023-37.843 185.05-80.674 63.027-42.832 123.102-99.808 167.39-165.551 44.288-65.744 72.785-140.238 72.684-218.097-.1-116.535-72.409-197.734-161.686-225.996-89.277-28.263-195.509-3.58-263.438 91.624z" fill="#ffa5ba"/><path d="M6375.199 174.127C6307.24 79.053 6201.034 54.444 6111.78 82.74c-89.254 28.296-161.538 109.484-161.676 225.976-.139 77.868 28.319 152.386 72.584 218.156 44.265 65.77 104.331 122.769 167.372 165.614 63.04 42.844 129.037 71.52 185.139 80.674 56.102-9.154 122.099-37.83 185.139-80.674 63.041-42.845 123.107-99.844 167.372-165.614 44.265-65.77 72.723-140.288 72.584-218.156-.138-116.492-72.422-197.68-161.676-225.976-89.254-28.296-195.46-3.687-263.419 91.387z" fill="#ffa5ba"/><path d="M7225.199 173.843c-67.995-94.918-174.171-119.442-263.397-91.107-89.227 28.336-161.481 109.513-161.664 225.952-.184 77.88 28.227 152.426 72.465 218.226 44.239 65.801 104.295 122.829 167.351 165.689s129.088 71.535 185.245 80.674c56.157-9.139 122.188-37.814 185.244-80.674 63.056-42.86 123.113-99.888 167.351-165.689 44.238-65.8 72.649-140.346 72.466-218.226-.184-116.439-72.437-197.616-161.664-225.952-89.227-28.335-195.403-3.811-263.397 91.107z" fill="#ffa5ba"/><path d="M8075.198 173.514c-68.036-94.739-174.176-119.163-263.371-90.782s-161.415 109.545-161.65 225.925c-.236 77.892 28.121 152.47 72.328 218.307 44.207 65.837 104.252 122.896 167.327 165.774 63.074 42.878 129.146 71.553 185.366 80.675 56.221-9.122 122.293-37.797 185.367-80.675 63.074-42.878 123.119-99.937 167.326-165.774 44.207-65.837 72.564-140.415 72.329-218.307-.236-116.38-72.455-197.544-161.65-225.925-89.196-28.381-195.336-3.957-263.372 90.782z" fill="#ffa5ba"/><path d="M8925.198 173.138c-68.083-94.533-174.183-118.843-263.342-90.41-89.159 28.433-161.34 109.581-161.635 225.892-.295 77.908 28.001 152.522 72.172 218.4 44.172 65.878 104.204 122.974 167.298 165.873 63.095 42.899 129.214 71.572 185.507 80.674 56.293-9.102 122.411-37.775 185.506-80.674 63.095-42.899 123.127-99.995 167.298-165.873 44.172-65.878 72.467-140.492 72.172-218.4-.295-116.311-72.475-197.459-161.634-225.892-89.16-28.433-195.259-4.123-263.342 90.41z" fill="#ffa5ba"/><path d="M9775.197 172.713c-68.136-94.301-174.19-118.482-263.308-89.99-89.119 28.492-161.255 109.622-161.617 225.856-.363 77.925 27.864 152.581 71.995 218.505 44.131 65.925 104.148 123.062 167.266 165.984 63.118 42.923 129.289 71.595 185.664 80.675 56.376-9.08 122.547-37.752 185.665-80.675 63.118-42.922 123.135-100.059 167.266-165.984 44.131-65.924 72.357-140.58 71.995-218.505-.363-116.234-72.498-197.364-161.617-225.856-89.119-28.492-195.173-4.311-263.309 89.99z" fill="#ffa5ba"/><path d="M10625.197 172.236c-68.196-94.041-174.199-118.077-263.272-89.519-89.073 28.558-161.159 109.669-161.596 225.816-.438 77.944 27.71 152.646 71.796 218.623 44.085 65.976 104.086 123.16 167.231 166.109 63.144 42.948 129.374 71.619 185.841 80.674 56.467-9.055 122.697-37.726 185.841-80.674 63.144-42.949 123.145-100.133 167.231-166.109 44.086-65.977 72.234-140.679 71.796-218.623-.438-116.147-72.524-197.258-161.597-225.816-89.073-28.558-195.075-4.522-263.271 89.519z" fill="#ffa5ba"/><path d="M11475.196 171.706c-68.262-93.752-174.207-117.626-263.23-88.995-89.022 28.632-161.052 109.72-161.574 225.771-.522 77.965 27.539 152.718 71.575 218.753 44.035 66.035 104.018 123.271 167.191 166.248 63.173 42.978 129.469 71.648 186.038 80.675 56.57-9.027 122.865-37.697 186.038-80.675 63.174-42.977 123.157-100.213 167.192-166.248 44.035-66.035 72.097-140.788 71.575-218.753-.522-116.051-72.552-197.139-161.575-225.771-89.022-28.631-194.968-4.757-263.23 88.995z" fill="#ffa5ba"/><path d="M12325.196 171.119c-68.336-93.431-174.218-117.128-263.185-88.415-88.966 28.713-160.935 109.777-161.55 225.722-.615 77.988 27.351 152.798 71.331 218.897 43.979 66.099 103.942 123.392 167.148 166.402 63.205 43.01 129.573 71.678 186.256 80.674 56.682-8.996 123.05-37.664 186.256-80.674 63.205-43.01 123.168-100.303 167.147-166.402 43.98-66.099 71.946-140.909 71.331-218.897-.615-115.945-72.584-197.009-161.55-225.722-88.967-28.713-194.849-5.016-263.184 88.415z" fill="#ffa5ba"/><path d="M13175.195 170.474c-68.416-93.079-174.229-116.58-263.134-87.777-88.905 28.802-160.806 109.839-161.523 225.666-.717 78.015 27.143 152.888 71.061 219.057 43.919 66.17 103.859 123.526 167.1 166.571 63.241 43.046 129.688 71.712 186.496 80.674 56.807-8.962 123.255-37.628 186.496-80.674 63.241-43.045 123.181-100.401 167.099-166.571 43.919-66.169 71.779-141.042 71.062-219.057-.718-115.827-72.619-196.864-161.523-225.666-88.905-28.803-194.718-5.302-263.134 87.777z" fill="#ffa5ba"/><path d="M14025.194 169.767c-68.504-92.693-174.242-115.979-263.078-87.079-88.837 28.901-160.665 109.908-161.494 225.607-.829 78.043 26.916 152.984 70.767 219.231 43.851 66.247 103.767 123.672 167.047 166.756 63.279 43.085 129.814 71.75 186.758 80.675 56.944-8.925 123.479-37.59 186.758-80.675 63.28-43.084 123.196-100.509 167.047-166.756s71.596-141.188 70.767-219.231c-.829-115.699-72.657-196.706-161.494-225.607-88.836-28.9-194.573-5.614-263.078 87.079zM14875.193 168.995c-68.601-92.271-174.255-115.323-263.018-86.316-88.763 29.007-160.51 109.983-161.461 225.542-.952 78.073 26.667 153.09 70.445 219.421 43.778 66.332 103.667 123.831 166.989 166.958 63.322 43.127 129.952 71.79 187.045 80.675 57.093-8.885 123.723-37.548 187.045-80.675 63.322-43.127 123.211-100.626 166.989-166.958 43.778-66.331 71.397-141.348 70.446-219.421-.952-115.559-72.699-196.535-161.462-225.542-88.763-29.007-194.417-5.955-263.018 86.316zM15725.192 168.156c-68.706-91.813-174.27-114.61-262.952-85.487-88.683 29.124-160.342 110.065-161.427 225.471-1.084 78.107 26.398 153.205 70.096 219.628 43.698 66.424 103.558 124.005 166.927 167.178 63.368 43.173 130.101 71.834 187.356 80.675 57.256-8.841 123.989-37.502 187.357-80.675 63.368-43.173 123.228-100.754 166.927-167.178 43.698-66.423 71.179-141.521 70.095-219.628-1.085-115.406-72.743-196.347-161.426-225.471-88.683-29.123-194.247-6.326-262.953 85.487zM16575.191 167.246c-68.82-91.316-174.285-113.837-262.881-84.588-88.596 29.25-160.16 110.153-161.388 225.394-1.229 78.143 26.104 153.33 69.716 219.853 43.611 66.523 103.44 124.193 166.859 167.416 63.418 43.223 130.263 71.882 187.694 80.675 57.431-8.793 124.277-37.452 187.695-80.675 63.418-43.223 123.247-100.893 166.859-167.416 43.611-66.523 70.944-141.71 69.716-219.853-1.229-115.241-72.793-196.144-161.388-225.394-88.596-29.249-194.062-6.728-262.882 84.588zM17425.19 166.262c-68.943-90.779-174.303-113.001-262.805-83.615-88.501 29.386-159.962 110.248-161.346 225.31-1.385 78.183 25.787 153.465 69.305 220.095 43.519 66.631 103.314 124.397 166.786 167.675 63.472 43.277 130.439 71.934 188.06 80.674 57.621-8.74 124.588-37.397 188.06-80.674 63.472-43.278 123.267-101.044 166.786-167.675 43.518-66.63 70.69-141.912 69.305-220.095-1.384-115.062-72.845-195.924-161.346-225.31-88.502-29.386-193.862-7.164-262.805 83.615zM18275.189 165.201c-69.076-90.2-174.322-112.1-262.722-82.567-88.4 29.534-159.749 110.352-161.302 225.22-1.553 78.226 25.445 153.611 68.863 220.358 43.418 66.747 103.176 124.616 166.707 167.952 63.53 43.336 130.628 71.99 188.454 80.675 57.826-8.685 124.924-37.339 188.454-80.675 63.531-43.336 123.289-101.205 166.707-167.952 43.417-66.747 70.416-142.132 68.863-220.358-1.553-114.868-72.902-195.686-161.303-225.22-88.4-29.533-193.646-7.633-262.721 82.567zM19125.187 164.058c-69.218-89.576-174.341-111.129-262.632-81.437-88.291 29.691-159.521 110.462-161.254 225.123-1.734 78.271 25.077 153.767 68.387 220.639 43.309 66.873 103.028 124.853 166.621 168.252 63.593 43.399 130.832 72.05 188.878 80.675 58.047-8.625 125.286-37.276 188.879-80.675 63.593-43.399 123.312-101.379 166.621-168.252 43.309-66.872 70.121-142.368 68.387-220.639-1.733-114.661-72.963-195.432-161.254-225.123-88.291-29.692-193.414-8.139-262.633 81.437zM19975.186 162.83c-69.372-88.905-174.363-110.085-262.536-80.224-88.174 29.862-159.275 110.582-161.203 225.02-1.929 78.32 24.682 153.935 67.875 220.942 43.192 67.006 102.869 125.107 166.53 168.573 63.66 43.466 131.05 72.114 189.334 80.675 58.284-8.561 125.674-37.209 189.335-80.675 63.66-43.466 123.337-101.567 166.529-168.573 43.193-67.007 69.804-142.622 67.876-220.942-1.929-114.438-73.03-195.158-161.204-225.02-88.173-29.861-193.164-8.681-262.536 80.224zM20825.185 161.515c-69.537-88.187-174.386-108.968-262.434-78.924-88.048 30.044-159.011 110.709-161.148 224.908-2.137 78.373 24.259 154.115 67.327 221.266 43.067 67.151 102.698 125.379 166.431 168.918 63.733 43.539 131.285 72.184 189.824 80.675 58.538-8.491 126.09-37.136 189.823-80.675 63.733-43.539 123.364-101.767 166.431-168.918 43.068-67.151 69.464-142.893 67.327-221.266-2.137-114.199-73.1-194.864-161.148-224.908-88.048-30.044-192.897-9.263-262.433 78.924zM21675.183 160.107c-69.713-87.419-174.411-107.772-262.323-77.533-87.913 30.239-158.73 110.846-161.09 224.789-2.36 78.429 23.806 154.309 66.74 221.613 42.934 67.305 102.517 125.671 166.327 169.287 63.81 43.617 131.536 72.258 190.346 80.675 58.81-8.417 126.536-37.058 190.346-80.675 63.81-43.616 123.393-101.982 166.327-169.287 42.934-67.304 69.1-143.184 66.74-221.613-2.36-113.943-73.177-194.55-161.09-224.789-87.913-30.239-192.61-9.886-262.323 77.533zM22525.181 158.603c-69.901-86.597-174.437-106.494-262.206-76.047-87.769 30.448-158.428 110.993-161.026 224.662-2.598 78.489 23.322 154.515 66.113 221.984 42.791 67.47 102.322 125.982 166.215 169.681 63.892 43.699 131.804 72.337 190.904 80.675 59.101-8.338 127.012-36.976 190.905-80.675s123.423-102.211 166.215-169.681c42.791-67.469 68.711-143.495 66.112-221.984-2.598-113.669-73.257-194.214-161.026-224.662-87.769-30.447-192.305-10.55-262.206 76.047zM23375.179 156.999c-70.101-85.721-174.464-105.132-262.08-74.462-87.616 30.67-158.107 111.149-160.959 224.526-2.853 78.554 22.805 154.735 65.444 222.38 42.639 67.645 102.114 126.313 166.095 170.101 63.981 43.787 132.09 72.421 191.5 80.675 59.411-8.254 127.52-36.888 191.501-80.675 63.98-43.788 123.456-102.456 166.095-170.101 42.638-67.645 68.297-143.826 65.444-222.38-2.852-113.377-73.343-193.856-160.959-224.526-87.616-30.67-191.979-11.259-262.081 74.462zM24225.177 155.293c-70.314-84.79-174.494-103.682-261.947-72.776-87.452 30.907-157.765 111.314-160.888 224.382-3.122 78.621 22.257 154.968 64.734 222.8 42.477 67.832 101.893 126.667 165.968 170.548 64.074 43.881 132.393 72.511 192.133 80.675 59.74-8.164 128.06-36.794 192.134-80.675 64.075-43.881 123.491-102.716 165.968-170.548 42.477-67.832 67.856-144.179 64.734-222.8-3.123-113.068-73.436-193.475-160.888-224.382-87.453-30.906-191.633-12.014-261.948 72.776zM25075.175 153.481c-70.541-83.801-174.526-102.143-261.805-70.985s-157.402 111.49-160.812 224.228c-3.41 78.694 21.673 155.217 63.978 223.247 42.304 68.031 101.658 127.042 165.832 171.023 64.174 43.981 132.717 72.606 192.807 80.675 60.091-8.069 128.634-36.694 192.807-80.675 64.174-43.981 123.528-102.992 165.833-171.023 42.305-68.03 67.388-144.553 63.978-223.247-3.41-112.738-73.533-193.07-160.812-224.228-87.279-31.158-191.264-12.816-261.806 70.985zM25925.173 151.559c-70.781-82.751-174.56-100.51-261.655-69.086-87.096 31.424-157.017 111.677-160.732 224.065-3.714 78.771 21.055 155.481 63.177 223.721 42.122 68.241 101.41 127.44 165.69 171.527 64.279 44.086 133.059 72.707 193.52 80.675 60.461-7.968 129.242-36.589 193.521-80.675 64.279-44.087 123.567-103.286 165.689-171.527 42.122-68.24 66.892-144.95 63.177-223.721-3.714-112.388-73.636-192.641-160.731-224.065-87.096-31.424-190.874-13.665-261.656 69.086zM26775.171 149.527c-71.036-81.642-174.596-98.783-261.497-67.078-86.901 31.706-156.61 111.874-160.646 223.893-4.037 78.853 20.4 155.759 62.33 224.223 41.929 68.463 101.146 127.859 165.538 172.058 64.39 44.199 133.421 72.815 194.275 80.676 60.854-7.861 129.885-36.477 194.275-80.676 64.391-44.199 123.609-103.595 165.538-172.058 41.929-68.464 66.366-145.37 62.33-224.223-4.036-112.019-73.745-192.187-160.647-223.893-86.901-31.705-190.46-14.564-261.496 67.078zM27625.168 147.382c-71.304-80.471-174.633-96.961-261.328-64.958-86.696 32.003-156.181 112.082-160.557 223.711-4.377 78.939 19.71 156.053 61.435 224.751 41.726 68.699 100.87 128.304 165.378 172.621 64.509 44.317 133.804 72.928 195.072 80.676 61.269-7.748 130.564-36.359 195.072-80.676 64.509-44.317 123.653-103.922 165.378-172.621 41.726-68.698 65.812-145.812 61.436-224.751-4.376-111.629-73.861-191.708-160.557-223.711-86.695-32.003-190.024-15.513-261.329 64.958zM28475.166 145.124c-71.587-79.238-174.673-95.043-261.152-62.727-86.48 32.316-155.729 112.302-160.463 223.52-4.734 79.029 18.983 156.363 60.494 225.309 41.511 68.945 100.577 128.77 165.21 173.212 64.633 44.441 134.206 73.046 195.911 80.675 61.704-7.629 131.278-36.234 195.911-80.675 64.632-44.442 123.698-104.267 165.209-173.212 41.511-68.946 65.229-146.28 60.495-225.309-4.735-111.218-73.983-191.204-160.463-223.52-86.48-32.316-189.566-16.511-261.152 62.727zM29325.163 142.752c-71.883-77.943-174.714-93.027-260.967-60.383-86.253 32.645-155.253 112.532-160.363 223.32-5.11 79.123 18.22 156.688 59.506 225.892 41.286 69.206 100.27 129.262 165.033 173.834 64.762 44.572 134.629 73.171 196.791 80.676 62.163-7.505 132.029-36.104 196.792-80.676s123.747-104.628 165.032-173.834c41.286-69.204 64.616-146.769 59.506-225.892-5.11-110.788-74.11-190.675-160.363-223.32-86.253-32.644-189.084-17.56-260.967 60.383zM30175.16 140.269c-72.193-76.587-174.757-90.918-260.773-57.929-86.015 32.989-154.755 112.773-160.259 223.109-5.503 79.223 17.421 157.028 58.471 226.505 41.05 69.478 99.948 129.776 164.848 174.484 64.899 44.708 135.071 73.302 197.713 80.676 62.642-7.374 132.815-35.968 197.714-80.676s123.798-105.006 164.848-174.484c41.05-69.477 63.974-147.282 58.47-226.505-5.503-110.336-74.243-190.12-160.259-223.109-86.015-32.989-188.579-18.658-260.773 57.929zM31025.157 137.678c-72.518-75.172-174.802-88.717-260.57-55.369s-154.237 113.025-160.151 222.89c-5.914 79.327 16.587 157.384 57.391 227.144 40.804 69.761 99.613 130.312 164.654 175.163s135.534 73.438 198.676 80.676c63.143-7.238 133.635-35.825 198.677-80.676 65.041-44.851 123.85-105.402 164.654-175.163 40.804-69.76 63.304-147.817 57.39-227.144-5.914-109.865-74.382-189.542-160.15-222.89-85.768-33.348-188.053-19.803-260.571 55.369zM31875.154 134.982c-72.855-73.7-174.85-86.426-260.359-52.704-85.51 33.721-153.697 113.286-160.038 222.661-6.341 79.434 15.718 157.753 56.266 227.809 40.548 70.056 99.264 130.869 164.454 175.869 65.189 44.999 136.014 73.58 199.677 80.676 63.664-7.096 134.488-35.677 199.678-80.676 65.189-45 123.905-105.813 164.453-175.869s62.608-148.375 56.267-227.809c-6.341-109.375-74.528-188.94-160.038-222.661-85.51-33.722-187.505-20.996-260.36 52.704zM32725.151 132.189c-73.204-72.175-174.899-84.053-260.141-49.944-85.243 34.108-153.138 113.557-159.921 222.424-6.784 79.547 14.819 158.137 55.102 228.498 40.283 70.362 98.902 131.448 164.245 176.601 65.343 45.153 136.512 73.727 200.715 80.676 64.203-6.949 135.372-35.523 200.715-80.676 65.343-45.153 123.962-106.239 164.245-176.601 40.283-70.361 61.886-148.951 55.102-228.498-6.783-108.867-74.678-188.316-159.921-222.424-85.242-34.109-186.937-22.231-260.141 49.944zM33575.148 129.305c-73.565-70.601-174.949-81.603-259.916-47.094-84.967 34.508-152.56 113.837-159.801 222.18-7.24 79.662 13.892 158.532 53.901 229.209 40.009 70.678 98.529 132.044 164.03 177.356 65.501 45.312 137.026 73.879 201.786 80.677 64.76-6.798 136.285-35.365 201.785-80.677 65.502-45.312 124.022-106.678 164.031-177.356 40.009-70.677 61.141-149.547 53.9-229.209-7.241-108.343-74.833-187.672-159.8-222.18-84.967-34.509-186.351-23.507-259.916 47.094zM34425.144 126.341c-73.935-68.982-175.001-79.085-259.684-44.165-84.683 34.919-151.966 114.125-159.676 221.929-7.711 79.78 12.937 158.938 52.664 229.94 39.728 71.003 98.146 132.658 163.81 178.133 65.663 45.475 137.554 74.035 202.886 80.677 65.333-6.642 137.224-35.202 202.887-80.677 65.664-45.475 124.082-107.13 163.809-178.133 39.728-71.002 60.375-150.16 52.665-229.94-7.71-107.804-74.993-187.01-159.676-221.929-84.683-34.92-185.749-24.817-259.685 44.165zM35275.141 123.306c-74.315-67.325-175.054-76.506-259.447-41.166s-151.358 114.42-159.55 221.672c-8.191 79.902 11.961 159.354 51.4 230.688 39.44 71.335 97.753 133.286 163.583 178.928 65.83 45.643 138.095 74.195 204.014 80.677 65.919-6.482 138.184-35.034 204.014-80.677 65.83-45.642 124.143-107.593 163.583-178.928 39.439-71.334 59.591-150.786 51.399-230.688-8.191-107.252-75.156-186.332-159.549-221.672s-185.132-26.159-259.447 41.166zM36125.137 120.214c-74.702-65.637-175.108-73.879-259.205-38.111-84.098 35.769-150.739 114.72-159.42 221.411-8.681 80.025 10.965 159.778 50.111 231.451 39.145 71.673 97.352 133.925 163.352 179.737 66 45.813 138.646 74.358 205.162 80.678 66.516-6.32 139.163-34.865 205.162-80.678 66.001-45.812 124.207-108.064 163.353-179.737 39.146-71.673 58.792-151.426 50.111-231.451-8.681-106.691-75.323-185.642-159.42-221.411-84.097-35.768-184.504-27.526-259.206 38.111zM36975.134 117.077c-75.095-63.924-175.163-71.214-258.96-35.011-83.798 36.204-150.111 115.025-159.289 221.145-9.178 80.151 9.955 160.208 48.803 232.225s96.946 134.574 163.119 180.559c66.172 45.985 139.205 74.523 206.327 80.678 67.122-6.155 140.155-34.693 206.327-80.678s124.271-108.542 163.119-180.559c38.847-72.017 57.981-152.074 48.803-232.225-9.179-106.12-75.492-184.941-159.289-221.145-83.797-36.203-183.866-28.913-258.96 35.011zM37825.13 113.909c-75.49-62.194-175.218-68.523-258.712-31.88-83.495 36.642-149.476 115.332-159.157 220.877-9.68 80.277 8.936 160.642 47.483 233.005 38.547 72.364 96.536 135.23 162.882 181.39 66.346 46.159 139.77 74.689 207.504 80.677 67.734-5.988 141.158-34.518 207.504-80.677 66.346-46.16 124.335-109.026 162.882-181.39 38.547-72.363 57.163-152.728 47.483-233.005-9.68-105.545-75.662-184.235-159.156-220.877-83.494-36.643-183.222-30.314-258.713 31.88zM38675.127 110.723c-75.889-60.455-175.275-65.816-258.464-28.732-83.19 37.084-148.838 115.642-159.023 220.607-10.185 80.405 7.91 161.08 46.155 233.791 38.244 72.713 96.123 135.889 162.645 182.224 66.52 46.336 140.337 74.857 208.687 80.678 68.349-5.821 142.166-34.342 208.686-80.678 66.522-46.335 124.401-109.511 162.645-182.224 38.245-72.711 56.34-153.386 46.155-233.791-10.185-104.965-75.833-183.523-159.023-220.607-83.189-37.084-182.574-31.723-258.463 28.732zM39525.123 107.534c-76.288-58.714-175.33-63.107-258.214-25.58-82.885 37.526-148.199 115.951-158.89 220.336-10.69 80.533 6.884 161.517 44.825 234.578 37.942 73.062 95.711 136.549 162.407 183.06 66.696 46.511 140.907 75.025 209.872 80.678 68.965-5.653 143.176-34.167 209.871-80.678 66.697-46.511 124.466-109.998 162.407-183.06 37.942-73.061 55.516-154.045 44.826-234.578-10.691-104.385-76.005-182.81-158.89-220.336-82.884-37.527-181.926-33.134-258.214 25.58zM40375.119 104.353c-76.685-56.977-175.385-60.404-257.965-22.437-82.581 37.967-147.562 116.26-158.757 220.068-11.194 80.659 5.86 161.952 43.5 235.362 37.639 73.41 95.299 137.207 162.17 183.892 66.87 46.686 141.473 75.193 211.052 80.679 69.58-5.486 144.183-33.993 211.053-80.679 66.871-46.685 124.53-110.482 162.17-183.892 37.639-73.41 54.694-154.703 43.499-235.362-11.194-103.808-76.176-182.101-158.756-220.068-82.58-37.967-181.28-34.54-257.966 22.437zM41225.116 101.194c-77.081-55.252-175.441-57.72-257.719-19.315-82.278 38.405-146.929 116.567-158.624 219.8-11.695 80.786 4.843 162.386 42.182 236.141 37.34 73.756 94.89 137.861 161.935 184.72 67.043 46.86 142.036 75.359 212.226 80.679 70.19-5.32 145.182-33.819 212.226-80.679 67.044-46.859 124.595-110.964 161.934-184.72 37.34-73.755 53.878-155.355 42.182-236.141-11.695-103.233-76.345-181.395-158.624-219.8-82.277-38.405-180.638-35.937-257.718 19.315zM42075.112 98.067c-77.472-53.545-175.496-55.064-257.474-16.225-81.979 38.838-146.303 116.871-158.493 219.535-12.191 80.911 3.836 162.815 40.878 236.912 37.043 74.099 94.485 138.508 161.702 185.54 67.215 47.032 142.593 75.523 213.387 80.679 70.794-5.156 146.172-33.647 213.388-80.679 67.216-47.032 124.658-111.441 161.701-185.54 37.042-74.097 53.069-156.001 40.879-236.912-12.191-102.664-76.514-180.697-158.494-219.535-81.978-38.839-180.002-37.32-257.474 16.225zM42925.109 94.981c-77.858-51.86-175.55-52.442-257.233-13.176-81.685 39.266-145.685 117.171-158.365 219.274-12.679 81.035 2.843 163.238 39.593 237.673 36.749 74.437 94.085 139.147 161.471 186.349 67.385 47.201 143.143 75.685 214.534 80.678 71.39-4.993 147.148-33.477 214.533-80.678 67.386-47.202 124.722-111.912 161.471-186.349 36.75-74.435 52.272-156.638 39.593-237.673-12.68-102.103-76.68-180.008-158.364-219.274-81.684-39.266-179.376-38.684-257.233 13.176zM43775.105 91.945c-78.237-50.202-175.603-49.862-256.996-10.176-81.394 39.687-145.076 117.466-158.237 219.017-13.16 81.157 1.866 163.654 38.327 238.422 36.461 74.769 93.693 139.775 161.245 187.144 67.551 47.369 143.685 75.845 215.661 80.678 71.977-4.833 148.11-33.309 215.661-80.678 67.552-47.369 124.784-112.375 161.245-187.144 36.461-74.768 51.488-157.265 38.327-238.422-13.161-101.551-76.843-179.33-158.237-219.017-81.393-39.686-178.758-40.026-256.996 10.176zM44625.102 88.966c-78.61-48.575-175.655-47.331-256.763-7.232-81.109 40.1-144.48 117.755-158.113 218.765-13.632 81.275.907 164.062 37.086 239.156 36.178 75.096 93.307 140.391 161.022 187.924 67.715 47.533 144.216 76.002 216.768 80.679 72.552-4.677 149.052-33.146 216.767-80.679 67.716-47.533 124.845-112.828 161.023-187.924 36.178-75.094 50.718-157.881 37.085-239.156-13.633-101.01-77.003-178.665-158.112-218.765-81.108-40.099-178.153-41.343-256.763 7.232zM45475.098 86.05c-78.975-46.983-175.706-44.854-256.535-4.35-80.83 40.504-143.895 118.038-157.99 218.518-14.095 81.392-.032 164.462 35.869 239.875 35.902 75.415 92.93 140.995 160.806 188.688 67.875 47.694 144.735 76.155 217.85 80.679 73.116-4.524 149.976-32.985 217.851-80.679 67.876-47.693 124.904-113.273 160.805-188.688 35.902-75.413 49.965-158.483 35.87-239.875-14.095-100.48-77.161-178.014-157.991-218.518-80.829-40.504-177.56-42.633-256.535 4.35zM46325.095 83.2c-79.331-45.427-175.756-42.433-256.312-1.534-80.558 40.899-143.325 118.315-157.871 218.277-14.547 81.506-.949 164.852 34.681 240.578 35.631 75.727 92.561 141.584 160.593 189.434 68.032 47.851 145.243 76.306 218.909 80.68 73.666-4.374 150.878-32.829 218.909-80.68 68.032-47.85 124.962-113.707 160.593-189.434 35.631-75.726 49.228-159.072 34.682-240.578-14.547-99.962-77.314-177.378-157.872-218.277-80.556-40.899-176.981-43.893-256.312 1.534zM47175.092 80.42c-79.679-43.909-175.804-40.071-256.095 1.213-80.292 41.285-142.768 118.585-157.755 218.041-14.987 81.618-1.844 165.234 33.523 241.264 35.367 76.031 92.201 142.159 160.386 190.163 68.184 48.003 145.738 76.452 219.941 80.679 74.203-4.227 151.757-32.676 219.941-80.679 68.185-48.004 125.019-114.132 160.386-190.163 35.367-76.03 48.51-159.646 33.523-241.264-14.987-99.456-77.464-176.756-157.755-218.041-80.291-41.284-176.416-45.122-256.095-1.213zM48025.089 77.713c-80.018-42.431-175.852-37.771-255.883 3.888-80.033 41.66-142.226 118.848-157.642 217.812-15.416 81.726-2.716 165.605 32.394 241.932s91.85 142.719 160.184 190.872c68.332 48.152 146.221 76.594 220.947 80.679 74.726-4.085 152.614-32.527 220.947-80.679 68.333-48.153 125.074-114.545 160.184-190.872 35.109-76.327 47.81-160.206 32.394-241.932-15.416-98.964-77.609-176.152-157.642-217.812-80.031-41.659-175.866-46.319-255.883-3.888zM48875.086 75.079c-80.347-40.993-175.898-35.533-255.678 6.491-79.78 42.025-141.698 119.104-157.531 217.589-15.833 81.831-3.563 165.966 31.296 242.581 34.86 76.616 91.509 143.265 159.988 191.562 68.477 48.298 146.69 76.733 221.925 80.68 75.234-3.947 153.448-32.382 221.925-80.68 68.478-48.297 125.128-114.946 159.987-191.562 34.86-76.615 47.13-160.75 31.297-242.581-15.834-98.485-77.751-175.564-157.532-217.589-79.779-42.024-175.33-47.484-255.677-6.491zM49725.083 72.519c-80.667-39.596-175.943-33.358-255.477 9.021-79.536 42.38-141.186 119.352-157.425 217.372-16.239 81.934-4.387 166.317 30.229 243.212 34.617 76.897 91.178 143.795 159.797 192.233 68.618 48.439 147.147 76.868 222.876 80.68 75.729-3.812 154.258-32.241 222.876-80.68 68.619-48.438 125.18-115.336 159.796-192.233 34.617-76.895 46.468-161.278 30.23-243.212-16.239-98.02-77.889-174.992-157.425-217.372-79.535-42.379-174.81-48.617-255.477-9.021zM50575.08 70.033c-80.978-38.238-175.986-31.246-255.283 11.478-79.298 42.724-140.688 119.593-157.32 217.161-16.633 82.033-5.188 166.658 29.193 243.825 34.38 77.169 90.856 144.309 159.611 192.884 68.754 48.576 147.59 76.999 223.799 80.68 76.209-3.681 155.045-32.104 223.799-80.68 68.755-48.575 125.231-115.715 159.611-192.884 34.381-77.167 45.826-161.792 29.193-243.825-16.632-97.568-78.022-174.437-157.32-217.161-79.297-42.724-174.305-49.716-255.283-11.478zM51425.077 67.621c-81.279-36.921-176.028-29.197-255.094 13.861-79.068 43.059-140.205 119.828-157.22 216.957-17.015 82.13-5.963 166.989 28.188 244.42 34.151 77.433 90.544 144.808 159.431 193.516 68.887 48.708 148.02 77.126 224.695 80.681 76.675-3.555 155.809-31.973 224.695-80.681 68.888-48.708 125.28-116.083 159.432-193.516 34.151-77.431 45.202-162.29 28.187-244.42-17.015-97.129-78.152-173.898-157.219-216.957-79.067-43.058-173.815-50.782-255.095-13.861zM52275.075 65.282c-81.573-35.644-176.07-27.21-254.912 16.173-78.844 43.382-139.736 120.054-157.122 216.759-17.385 82.223-6.716 167.309 27.213 244.997 33.929 77.689 90.241 145.291 159.257 194.128 69.015 48.837 148.437 77.249 225.564 80.681 77.127-3.432 156.548-31.844 225.563-80.681 69.016-48.837 125.328-116.439 159.257-194.128 33.93-77.688 44.598-162.774 27.213-244.997-17.386-96.705-78.278-173.377-157.122-216.759-78.842-43.383-173.339-51.817-254.911-16.173zM53125.072 63.014c-81.856-34.406-176.109-25.283-254.734 18.414-78.627 43.697-139.282 120.275-157.027 216.567-17.745 82.314-7.447 167.62 26.267 245.556 33.714 77.937 89.948 145.761 159.088 194.723 69.139 48.961 148.841 77.367 226.406 80.68 77.565-3.313 157.267-31.719 226.406-80.68 69.14-48.962 125.374-116.786 159.088-194.723 33.714-77.936 44.012-163.242 26.267-245.556-17.745-96.292-78.4-172.87-157.027-216.567-78.625-43.697-172.878-52.82-254.734-18.414zM53975.07 60.817c-82.131-33.206-176.148-23.416-254.563 20.585-78.417 44.001-138.842 120.488-156.935 216.381-18.093 82.402-8.154 167.922 25.351 246.098 33.506 78.178 89.663 146.215 158.925 195.298 69.26 49.083 149.232 77.483 227.222 80.681 77.989-3.198 157.961-31.598 227.221-80.681 69.262-49.083 125.419-117.12 158.925-195.298 33.505-78.176 43.444-163.696 25.351-246.098-18.093-95.893-78.518-172.38-156.935-216.381-78.415-44.001-172.432-53.791-254.562-20.585zM54825.067 58.688c-82.397-32.044-176.184-21.608-254.396 22.689-78.213 44.296-138.415 120.695-156.846 216.201-18.43 82.486-8.839 168.213 24.464 246.622 33.303 78.411 89.388 146.656 158.766 195.856 69.376 49.2 149.612 77.596 228.012 80.681 78.401-3.085 158.636-31.481 228.013-80.681 69.378-49.2 125.462-117.445 158.765-195.856 33.303-78.409 42.894-164.136 24.464-246.622-18.43-95.506-78.633-171.905-156.846-216.201-78.211-44.297-171.999-54.733-254.396-22.689z" fill="#ffa5ba"/><path d="M55675.065 56.627c-82.655-30.919-176.221-19.857-254.235 24.726-78.016 44.582-138.003 120.895-156.76 216.026-18.757 82.569-9.503 168.496 23.605 247.131 33.107 78.637 89.12 147.083 158.612 196.396 69.489 49.313 149.979 77.704 228.778 80.681 78.799-2.977 159.288-31.368 228.778-80.681 69.491-49.313 125.504-117.759 158.612-196.396 33.107-78.635 42.361-164.562 23.604-247.131-18.757-95.131-78.743-171.444-156.759-216.026-78.015-44.583-171.58-55.645-254.235-24.726z" fill="#ffa5ba"/><path d="M56525.062 54.63c-82.904-29.828-176.255-18.16-254.079 26.699-77.825 44.859-137.602 121.089-156.675 215.857-19.074 82.649-10.146 168.77 22.772 247.624 32.917 78.855 88.862 147.495 158.463 196.919 69.599 49.423 150.335 77.809 229.519 80.681 79.185-2.872 159.921-31.258 229.52-80.681 69.601-49.424 125.545-118.064 158.463-196.919 32.918-78.854 41.846-164.975 22.772-247.624-19.073-94.768-78.851-170.998-156.676-215.857-77.823-44.859-171.174-56.527-254.079-26.699z" fill="#ffa5ba"/><path d="M57375.06 52.696c-83.146-28.772-176.289-16.517-253.928 28.61-77.64 45.127-137.215 121.277-156.595 215.693-19.38 82.727-10.767 169.036 21.967 248.101 32.734 79.067 88.611 147.896 158.318 197.426 69.706 49.529 150.68 77.91 230.238 80.681 79.558-2.771 160.532-31.152 230.238-80.681 69.707-49.53 125.585-118.359 158.319-197.426 32.734-79.065 41.346-165.374 21.966-248.101-19.38-94.416-78.955-170.566-156.595-215.693-77.639-45.127-170.781-57.382-253.928-28.61z" fill="#ffa5ba"/><path d="M58225.058 50.824c-83.38-27.75-176.322-14.926-253.781 30.46-77.461 45.387-136.841 121.459-156.517 215.535-19.677 82.801-11.371 169.292 21.186 248.562 32.556 79.272 88.369 148.283 158.179 197.916 69.808 49.633 151.013 78.009 230.933 80.681 79.92-2.672 161.125-31.048 230.933-80.681 69.81-49.633 125.623-118.644 158.179-197.916 32.557-79.27 40.863-165.761 21.186-248.562-19.676-94.076-79.055-170.148-156.516-215.535-77.46-45.386-170.401-58.21-253.782-30.46z" fill="#ffa5ba"/><path d="M59075.056 49.011c-83.607-26.76-176.354-13.386-253.64 32.252-77.287 45.637-136.477 121.634-156.441 215.381-19.963 82.874-11.954 169.54 20.431 249.009 32.384 79.471 88.134 148.659 158.044 198.391 69.907 49.733 151.336 78.105 231.606 80.681 80.27-2.576 161.699-30.948 231.607-80.681 69.909-49.732 125.659-118.92 158.044-198.391 32.384-79.469 40.393-166.135 20.43-249.009-19.964-93.747-79.154-169.744-156.441-215.381-77.286-45.638-170.033-59.012-253.64-32.252z" fill="#ffa5ba"/><path d="M59925.054 47.256c-83.827-25.802-176.384-11.895-253.503 33.986s-136.125 121.805-156.367 215.233c-20.242 82.944-12.519 169.781 19.698 249.441 32.218 79.664 87.908 149.022 157.914 198.852 70.004 49.829 151.649 78.197 232.258 80.681 80.609-2.484 162.254-30.852 232.258-80.681 70.006-49.83 125.696-119.188 157.914-198.852 32.217-79.66 39.94-166.497 19.698-249.441-20.242-93.428-79.248-169.352-156.367-215.233-77.119-45.881-169.676-59.788-253.503-33.986z" fill="#ffa5ba"/><path d="M60775.052 45.556c-84.039-24.874-176.414-10.451-253.37 35.666-76.957 46.117-135.785 121.97-156.296 215.088-20.511 83.013-13.066 170.015 18.99 249.862 32.056 79.849 87.687 149.373 157.786 199.296 70.098 49.923 151.953 78.287 232.89 80.681 80.937-2.394 162.792-30.758 232.89-80.681 70.099-49.923 125.73-119.447 157.786-199.296 32.056-79.847 39.501-166.849 18.99-249.862-20.511-93.118-79.339-168.971-156.296-215.088-76.956-46.117-169.331-60.54-253.37-35.666z" fill="#ffa5ba"/><path d="M61625.05 43.91c-84.245-23.975-176.443-9.052-253.241 37.292-76.8 46.345-135.455 122.13-156.227 214.95-20.772 83.078-13.596 170.239 18.303 250.267 31.9 80.029 87.475 149.714 157.664 199.727 70.188 50.014 152.246 78.373 233.501 80.682 81.255-2.309 163.313-30.668 233.501-80.682 70.19-50.013 125.764-119.698 157.664-199.727 31.9-80.028 39.076-167.189 18.304-250.267-20.773-92.82-79.428-168.605-156.228-214.95-76.798-46.344-168.996-61.267-253.241-37.292z" fill="#ffa5ba"/><path d="M62475.048 42.316c-84.444-23.105-176.47-7.698-253.116 38.868-76.647 46.565-135.136 122.284-156.161 214.814-21.025 83.142-14.109 170.458 17.639 250.66 31.749 80.204 87.268 150.044 157.545 200.145 70.276 50.102 152.53 78.457 234.093 80.682 81.563-2.225 163.818-30.58 234.093-80.682 70.277-50.101 125.797-119.941 157.545-200.145 31.749-80.202 38.664-167.518 17.639-250.66-21.024-92.53-79.513-168.249-156.16-214.814-76.646-46.566-168.672-61.973-253.117-38.868z" fill="#ffa5ba"/><path d="M63325.047 40.772c-84.638-22.262-176.498-6.386-252.996 40.393-76.5 46.78-134.827 122.435-156.096 214.684-21.27 83.204-14.606 170.67 16.995 251.041 31.602 80.373 87.068 150.363 157.43 200.549 70.36 50.187 152.805 78.539 234.667 80.682 81.861-2.143 164.306-30.495 234.666-80.682 70.362-50.186 125.828-120.176 157.43-200.549 31.602-80.371 38.265-167.837 16.995-251.041-21.269-92.249-79.596-167.904-156.096-214.684-76.498-46.779-168.358-62.655-252.995-40.393z" fill="#ffa5ba"/><path d="M64175.045 39.277c-84.825-21.445-176.524-5.116-252.879 41.871-76.357 46.987-134.527 122.58-156.034 214.557-21.506 83.263-15.087 170.875 16.373 251.409 31.46 80.537 86.874 150.673 157.318 200.942 70.442 50.268 153.072 78.617 235.222 80.681 82.15-2.064 164.78-30.413 235.222-80.681 70.443-50.269 125.858-120.405 157.318-200.942 31.46-80.534 37.879-168.146 16.372-251.409-21.506-91.977-79.677-167.57-156.033-214.557-76.355-46.987-168.054-63.316-252.879-41.871z" fill="#ffa5ba"/><path d="M65025.043 37.828c-85.006-20.654-176.549-3.885-252.766 43.303-76.218 47.187-134.237 122.72-155.972 214.434-21.736 83.321-15.554 171.073 15.768 251.767 31.323 80.695 86.687 150.972 157.211 201.32 70.521 50.349 153.329 78.694 235.759 80.682 82.43-1.988 165.238-30.333 235.76-80.682 70.523-50.348 125.888-120.625 157.21-201.32 31.322-80.694 37.505-168.446 15.769-251.767-21.736-91.714-79.755-167.247-155.973-214.434-76.216-47.188-167.76-63.957-252.766-43.303z" fill="#ffa5ba"/><path d="M65875.042 36.426c-85.182-19.889-176.574-2.694-252.657 44.688-76.083 47.382-133.956 122.857-155.914 214.316-21.958 83.377-16.005 171.265 15.184 252.112 31.189 80.849 86.506 151.263 157.106 201.689 70.599 50.425 153.58 78.767 236.281 80.681 82.701-1.914 165.682-30.256 236.28-80.681 70.601-50.426 125.917-120.84 157.106-201.689 31.189-80.847 37.142-168.735 15.184-252.112-21.958-91.459-79.83-166.934-155.914-214.316-76.083-47.382-167.475-64.577-252.656-44.688z" fill="#ffa5ba"/><path d="M66725.04 35.067c-85.351-19.147-176.598-1.54-252.55 46.031-75.954 47.571-133.684 122.989-155.857 214.2-22.174 83.432-16.443 171.453 14.617 252.448 31.06 80.998 86.33 151.544 157.005 202.045 70.673 50.5 153.822 78.838 236.785 80.682 82.963-1.844 166.112-30.182 236.786-80.682 70.674-50.501 125.944-121.047 157.004-202.045 31.06-80.995 36.791-169.016 14.617-252.448-22.173-91.211-79.903-166.629-155.857-214.2-75.952-47.571-167.199-65.178-252.55-46.031z" fill="#ffa5ba"/><path d="M67575.039 33.75c-85.516-18.428-176.621-.421-252.447 47.332-75.828 47.754-133.421 123.117-155.803 214.089-22.382 83.485-16.866 171.633 14.069 252.773 30.935 81.142 86.159 151.816 156.906 202.389 70.746 50.573 154.057 78.908 237.275 80.682 83.217-1.774 166.528-30.109 237.274-80.682 70.747-50.573 125.971-121.247 156.906-202.389 30.935-81.14 36.451-169.288 14.069-252.773-22.382-90.972-79.974-166.335-155.802-214.089-75.827-47.753-166.931-65.76-252.447-47.332z" fill="#ffa5ba"/><path d="M68425.037 32.474c-85.675-17.731-176.643.664-252.347 48.593-75.706 47.93-133.165 123.241-155.749 213.981-22.584 83.536-17.277 171.808 13.537 253.087 30.814 81.282 85.994 152.081 156.811 202.724 70.816 50.643 154.284 78.975 237.748 80.682 83.464-1.707 166.933-30.039 237.748-80.682 70.817-50.643 125.998-121.442 156.811-202.724 30.814-81.279 36.121-169.551 13.537-253.087-22.584-90.74-80.043-166.051-155.749-213.981-75.704-47.929-166.671-66.324-252.347-48.593z" fill="#ffa5ba"/><path d="M69275.036 31.239c-85.83-17.057-176.665 1.713-252.251 49.814-75.588 48.101-132.917 123.36-155.697 213.876-22.78 83.585-17.675 171.977 13.022 253.392 30.696 81.417 85.834 152.336 156.719 203.047 70.883 50.711 154.504 79.04 238.207 80.682 83.703-1.642 167.323-29.971 238.207-80.682 70.885-50.711 126.022-121.63 156.719-203.047 30.696-81.415 35.802-169.807 13.022-253.392-22.781-90.516-80.11-165.775-155.698-213.876-75.586-48.101-166.42-66.871-252.25-49.814z" fill="#ffa5ba"/><path d="M70125.034 30.041c-85.979-16.402-176.685 2.731-252.157 50.998-75.473 48.267-132.677 123.476-155.647 213.775-22.97 83.633-18.06 172.141 12.523 253.687 30.582 81.548 85.679 152.583 156.629 203.361 70.95 50.777 154.718 79.103 238.652 80.682 83.934-1.579 167.703-29.905 238.652-80.682 70.951-50.778 126.047-121.813 156.63-203.361 30.583-81.546 35.492-170.054 12.522-253.687-22.969-90.299-80.173-165.508-155.647-213.775-75.471-48.267-166.177-67.4-252.157-50.998z" fill="#ffa5ba"/><path d="M70975.033 28.881c-86.125-15.769-176.706 3.716-252.066 52.144-75.363 48.428-132.445 123.589-155.599 213.677-23.153 83.679-18.434 172.3 12.039 253.973 30.473 81.675 85.529 152.824 156.543 203.665 71.013 50.841 154.925 79.164 239.083 80.682 84.158-1.518 168.07-29.841 239.083-80.682 71.014-50.841 126.071-121.99 156.543-203.665 30.473-81.673 35.193-170.294 12.039-253.973-23.154-90.088-80.236-165.249-155.599-213.677-75.36-48.428-165.941-67.913-252.066-52.144z" fill="#ffa5ba"/><path d="M71825.032 27.756c-86.266-15.155-176.726 4.672-251.979 53.256-75.254 48.583-132.219 123.698-155.551 213.581-23.332 83.725-18.796 172.455 11.57 254.25 30.366 81.799 85.383 153.057 156.459 203.96 71.075 50.903 155.125 79.223 239.501 80.682 84.375-1.459 168.426-29.779 239.5-80.682 71.076-50.903 126.094-122.161 156.46-203.96 30.365-81.795 34.901-170.525 11.57-254.25-23.332-89.883-80.297-164.998-155.552-213.581-75.253-48.584-165.713-68.411-251.978-53.256z" fill="#ffa5ba"/><path d="M72675.03 26.667c-86.401-14.56-176.744 5.597-251.893 54.332-75.15 48.735-132.001 123.804-155.506 213.489-23.504 83.768-19.146 172.604 11.116 254.519 30.263 81.918 85.242 153.282 156.378 204.245 71.135 50.963 155.32 79.281 239.905 80.682 84.586-1.401 168.771-29.719 239.906-80.682 71.136-50.963 126.115-122.327 156.378-204.245 30.262-81.915 34.62-170.751 11.116-254.519-23.505-89.685-80.356-164.754-155.506-213.489-75.149-48.735-165.492-68.892-251.894-54.332z" fill="#ffa5ba"/><path d="M73525.029 25.611c-86.534-13.984-176.763 6.494-251.811 55.375-75.049 48.882-131.789 123.907-155.461 213.4-23.672 83.81-19.486 172.749 10.676 254.78 30.162 82.033 85.105 153.5 156.299 204.521 71.192 51.021 155.507 79.336 240.297 80.683 84.79-1.347 169.105-29.662 240.297-80.683 71.194-51.021 126.138-122.488 156.3-204.521 30.162-82.031 34.347-170.97 10.676-254.78-23.672-89.493-80.412-164.518-155.462-213.4-75.048-48.881-165.277-69.359-251.811-55.375z" fill="#ffa5ba"/><path d="M74375.028 24.588c-86.662-13.425-176.781 7.363-251.731 56.386-74.951 49.023-131.585 124.007-155.419 213.313-23.833 83.852-19.815 172.889 10.25 255.032 30.065 82.145 84.973 153.712 156.223 204.79 71.248 51.077 155.69 79.39 240.677 80.682 84.988-1.292 169.429-29.605 240.677-80.682 71.25-51.078 126.158-122.645 156.223-204.79 30.065-82.143 34.084-171.18 10.25-255.032-23.834-89.306-80.467-164.29-155.419-213.313-74.95-49.023-165.069-69.811-251.731-56.386z" fill="#ffa5ba"/><path d="M75225.027 23.597c-86.786-12.884-176.798 8.205-251.653 57.366-74.857 49.16-131.387 124.102-155.378 213.229-23.991 83.891-20.134 173.025 9.836 255.276 29.971 82.254 84.845 153.917 156.15 205.049 71.303 51.132 155.866 79.442 241.045 80.683 85.179-1.241 169.742-29.551 241.045-80.683 71.305-51.132 126.179-122.795 156.149-205.049 29.971-82.251 33.828-171.385 9.837-255.276-23.991-89.127-80.521-164.069-155.378-213.229-74.855-49.161-164.867-70.25-251.653-57.366z" fill="#ffa5ba"/><path d="M76075.026 22.636c-86.906-12.359-176.815 9.022-251.578 58.315-74.765 49.294-131.194 124.196-155.338 213.148-24.143 83.929-20.443 173.157 9.436 255.513 29.88 82.359 84.721 154.116 156.078 205.301 71.355 51.185 156.037 79.493 241.402 80.683 85.364-1.19 170.046-29.498 241.402-80.683 71.357-51.185 126.198-122.942 156.077-205.301 29.88-82.356 33.579-171.584 9.436-255.513-24.143-88.952-80.572-163.854-155.337-213.148-74.763-49.293-164.672-70.674-251.578-58.315z" fill="#ffa5ba"/><path d="M76925.025 21.706c-87.023-11.852-176.832 9.812-251.506 59.234-74.676 49.423-131.007 124.286-155.298 213.069-24.291 83.967-20.743 173.284 9.048 255.743 29.791 82.461 84.6 154.308 156.008 205.544 71.407 51.236 156.204 79.542 241.748 80.683 85.544-1.141 170.341-29.447 241.747-80.683 71.409-51.236 126.218-123.083 156.009-205.544 29.791-82.459 33.338-171.776 9.048-255.743-24.291-88.783-80.623-163.646-155.299-213.069-74.674-49.422-164.483-71.086-251.505-59.234z" fill="#ffa5ba"/><path d="M77775.024 20.804c-87.135-11.359-176.847 10.578-251.435 60.126-74.59 49.547-130.827 124.373-155.261 212.992-24.433 84.003-21.033 173.408 8.672 255.965 29.706 82.56 84.483 154.495 155.941 205.781 71.456 51.286 156.364 79.589 242.083 80.683 85.718-1.094 170.626-29.397 242.082-80.683 71.458-51.286 126.236-123.221 155.941-205.781 29.706-82.557 33.106-171.962 8.672-255.965-24.433-88.619-80.67-163.445-155.26-212.992-74.588-49.548-164.3-71.485-251.435-60.126z" fill="#ffa5ba"/><path d="M78625.023 19.93c-87.245-10.882-176.863 11.321-251.367 60.989-74.506 49.669-130.652 124.459-155.224 212.919-24.572 84.038-21.315 173.527 8.308 256.18 29.623 82.656 84.37 154.676 155.876 206.01 71.504 51.334 156.52 79.635 242.407 80.683 85.887-1.048 170.903-29.349 242.407-80.683 71.506-51.334 126.253-123.354 155.876-206.01 29.622-82.653 32.879-172.142 8.308-256.18-24.572-88.46-80.718-163.25-155.224-212.919-74.505-49.668-164.123-71.871-251.367-60.989z" fill="#ffa5ba"/><path d="M79475.022 19.084c-87.35-10.42-176.877 12.039-251.301 61.825-74.425 49.786-130.482 124.541-155.188 212.847-24.706 84.072-21.587 173.644 7.955 256.389 29.542 82.748 84.26 154.851 155.813 206.232 71.55 51.38 156.67 79.679 242.721 80.683 86.05-1.004 171.171-29.303 242.721-80.683 71.552-51.381 126.271-123.484 155.813-206.232 29.542-82.745 32.661-172.317 7.955-256.389-24.706-88.306-80.763-163.061-155.189-212.847-74.423-49.786-163.95-72.245-251.3-61.825z" fill="#ffa5ba"/><path d="M80325.021 18.264c-87.453-9.972-176.892 12.736-251.237 62.636-74.347 49.899-130.318 124.62-155.154 212.777-24.836 84.105-21.851 173.756 7.614 256.591 29.464 82.838 84.154 155.021 155.751 206.446 71.596 51.426 156.817 79.723 243.026 80.683 86.209-.96 171.43-29.257 243.026-80.683 71.597-51.425 126.287-123.608 155.751-206.446 29.465-82.835 32.45-172.486 7.614-256.591-24.836-88.157-80.808-162.878-155.155-212.777-74.345-49.9-163.783-72.608-251.236-62.636z" fill="#ffa5ba"/><path d="M81175.02 17.471c-87.552-9.539-176.905 13.41-251.175 63.419-74.271 50.01-130.159 124.698-155.121 212.711-24.961 84.136-22.106 173.864 7.283 256.786 29.389 82.925 84.052 155.185 155.692 206.655 71.64 51.469 156.959 79.764 243.321 80.683 86.362-.919 171.681-29.214 243.32-80.683 71.641-51.47 126.304-123.73 155.693-206.655 29.389-82.922 32.244-172.65 7.283-256.786-24.962-88.013-80.851-162.701-155.121-212.711-74.27-50.009-163.623-72.958-251.175-63.419z" fill="#ffa5ba"/><path d="M82025.019 16.702c-87.648-9.119-176.919 14.063-251.114 64.179-74.198 50.116-130.006 124.772-155.089 212.645-25.084 84.167-22.354 173.971 6.962 256.977 29.316 83.009 83.952 155.344 155.635 206.855 71.681 51.512 157.095 79.805 243.606 80.683 86.511-.878 171.925-29.171 243.606-80.683 71.683-51.511 126.319-123.846 155.635-206.855 29.316-83.006 32.046-172.81 6.962-256.977-25.083-87.873-80.891-162.529-155.088-212.645-74.196-50.116-163.467-73.298-251.115-64.179z" fill="#ffa5ba"/><path d="M82875.018 15.957c-87.741-8.712-176.932 14.696-251.056 64.915-74.126 50.22-129.856 124.845-155.058 212.583-25.201 84.196-22.593 174.072 6.652 257.16 29.245 83.09 83.856 155.498 155.58 207.05 71.722 51.553 157.228 79.844 243.882 80.683 86.655-.839 172.161-29.13 243.883-80.683 71.724-51.552 126.334-123.96 155.579-207.05 29.246-83.088 31.854-172.964 6.652-257.16-25.201-87.738-80.931-162.363-155.057-212.583-74.125-50.219-163.316-73.627-251.057-64.915z" fill="#ffa5ba"/><path d="M83725.017 15.237c-87.831-8.32-176.944 15.308-251 65.627-74.057 50.319-129.711 124.914-155.027 212.521-25.316 84.226-22.826 174.171 6.351 257.338 29.177 83.169 83.763 155.647 155.526 207.239 71.762 51.592 157.357 79.882 244.15 80.683 86.794-.801 172.389-29.091 244.151-80.683 71.763-51.592 126.349-124.07 155.526-207.239 29.176-83.167 31.667-173.112 6.351-257.338-25.316-87.607-80.97-162.202-155.028-212.521-74.055-50.319-163.168-73.947-251-65.627z" fill="#ffa5ba"/><path d="M84575.017 14.539c-87.919-7.938-176.957 15.901-250.946 66.317-73.99 50.415-129.572 124.982-154.998 212.462-25.426 84.253-23.05 174.266 6.06 257.51 29.111 83.245 83.673 155.791 155.474 207.422 71.8 51.63 157.481 79.918 244.41 80.683 86.928-.765 172.609-29.053 244.409-80.683 71.802-51.631 126.363-124.177 155.474-207.422 29.11-83.244 31.487-173.257 6.06-257.51-25.426-87.48-81.007-162.047-154.998-212.462-73.989-50.416-163.027-74.255-250.945-66.317z" fill="#ffa5ba"/><path d="M85425.016 13.864c-88.003-7.57-176.969 16.474-250.893 66.984-73.926 50.509-129.437 125.047-154.97 212.405-25.533 84.28-23.267 174.359 5.779 257.676 29.047 83.32 83.585 155.931 155.424 207.599 71.837 51.667 157.601 79.954 244.66 80.683 87.059-.729 172.823-29.016 244.66-80.683 71.839-51.668 126.377-124.279 155.423-207.599 29.047-83.317 31.313-173.396 5.78-257.676-25.533-87.358-81.044-161.896-154.97-212.405-73.925-50.51-162.89-74.554-250.893-66.984z" fill="#ffa5ba"/><path d="M86275.015 13.211c-88.085-7.213-176.98 17.029-250.842 67.629-73.863 50.6-129.306 125.111-154.942 212.35-25.637 84.306-23.478 174.448 5.507 257.837 28.984 83.391 83.5 156.066 155.375 207.77 71.873 51.704 157.717 79.989 244.902 80.683 87.185-.694 173.03-28.979 244.903-80.683 71.874-51.704 126.39-124.379 155.374-207.77 28.985-83.389 31.144-173.531 5.508-257.837-25.637-87.239-81.08-161.75-154.943-212.35-73.862-50.6-162.757-74.842-250.842-67.629z" fill="#ffa5ba"/><path d="M87125.014 12.579c-88.163-6.868-176.991 17.566-250.792 68.254-73.803 50.687-129.18 125.172-154.916 212.296-25.737 84.331-23.681 174.535 5.243 257.993 28.925 83.46 83.419 156.197 155.328 207.935 71.908 51.739 157.83 80.022 245.137 80.683 87.307-.661 173.23-28.944 245.137-80.683 71.91-51.738 126.404-124.475 155.328-207.935 28.925-83.458 30.981-173.662 5.244-257.993-25.737-87.124-81.113-161.609-154.916-212.296-73.802-50.688-162.629-75.122-250.793-68.254z" fill="#ffa5ba"/><path d="M87975.014 11.968c-88.24-6.534-177.002 18.085-250.745 68.857-73.745 50.772-129.057 125.232-154.891 212.245-25.833 84.356-23.877 174.619 4.989 258.143 28.867 83.528 83.34 156.324 155.283 208.096 71.941 51.772 157.939 80.054 245.364 80.683 87.425-.629 173.423-28.911 245.364-80.683 71.943-51.772 126.415-124.568 155.282-208.096 28.866-83.524 30.822-173.787 4.989-258.143-25.834-87.013-81.146-161.473-154.891-212.245-73.743-50.772-162.504-75.391-250.744-68.857z" fill="#ffa5ba"/><path d="M88825.013 11.378c-88.314-6.212-177.012 18.586-250.698 69.44-73.689 50.854-128.939 125.289-154.866 212.195-25.928 84.38-24.068 174.7 4.742 258.289 28.811 83.592 83.263 156.446 155.239 208.25 71.973 51.805 158.044 80.086 245.583 80.684 87.539-.598 173.61-28.879 245.583-80.684 71.976-51.804 126.428-124.658 155.239-208.25 28.81-83.589 30.67-173.909 4.742-258.289-25.927-86.906-81.177-161.341-154.866-212.195-73.686-50.854-162.384-75.652-250.698-69.44z" fill="#ffa5ba"/><path d="M89675.012 10.807c-88.385-5.901-177.022 19.072-250.653 70.005-73.634 50.933-128.825 125.344-154.843 212.146-26.017 84.402-24.251 174.778 4.505 258.43 28.757 83.654 83.189 156.564 155.196 208.4 72.005 51.836 158.146 80.115 245.795 80.683 87.65-.568 173.791-28.847 245.796-80.683 72.006-51.836 126.439-124.746 155.195-208.4 28.757-83.652 30.523-174.028 4.505-258.43-26.017-86.802-81.208-161.213-154.842-212.146-73.632-50.933-162.268-75.906-250.654-70.005z" fill="#ffa5ba"/><path d="M90525.012 10.256c-88.455-5.6-177.032 19.54-250.611 70.549-73.581 51.01-128.714 125.398-154.819 212.1-26.105 84.424-24.429 174.853 4.275 258.566 28.704 83.714 83.118 156.677 155.155 208.544 72.035 51.866 158.244 80.144 246 80.683 87.756-.539 173.965-28.817 246-80.683 72.037-51.867 126.451-124.83 155.154-208.544 28.704-83.713 30.38-174.142 4.275-258.566-26.104-86.702-81.238-161.09-154.819-212.1-73.579-51.009-162.156-76.149-250.61-70.549z" fill="#ffa5ba"/><path d="M91375.011 9.723c-88.521-5.309-177.041 19.992-250.569 71.076-73.53 51.083-128.607 125.45-154.797 212.054-26.189 84.446-24.6 174.927 4.053 258.698 28.654 83.773 83.049 156.788 155.115 208.683 72.064 51.896 158.339 80.173 246.198 80.684 87.859-.511 174.134-28.788 246.198-80.684 72.066-51.895 126.462-124.91 155.115-208.683 28.653-83.771 30.242-174.252 4.053-258.698-26.189-86.604-81.267-160.971-154.797-212.054-73.528-51.084-162.048-76.385-250.569-71.076z" fill="#ffa5ba"/><path d="M92225.011 9.209c-88.586-5.028-177.05 20.429-250.529 71.584-73.481 51.154-128.505 125.499-154.776 212.01-26.27 84.467-24.765 174.998 3.839 258.825 28.604 83.829 82.982 156.894 155.077 208.818 72.092 51.924 158.43 80.2 246.389 80.684 87.958-.484 174.296-28.76 246.389-80.684 72.094-51.924 126.472-124.989 155.076-208.818 28.604-83.827 30.109-174.358 3.839-258.825-26.271-86.511-81.295-160.856-154.776-212.01-73.479-51.155-161.943-76.612-250.528-71.584z" fill="#ffa5ba"/><path d="M93075.01 8.712c-88.647-4.757-177.059 20.851-250.49 72.075-73.433 51.223-128.405 125.548-154.755 211.969-26.349 84.486-24.925 175.065 3.632 258.946 28.557 83.884 82.918 156.997 155.04 208.949 72.119 51.951 158.519 80.225 246.573 80.683 88.054-.458 174.453-28.732 246.573-80.683 72.122-51.952 126.482-125.065 155.04-208.949 28.557-83.881 29.981-174.46 3.631-258.946-26.349-86.421-81.321-160.746-154.754-211.969-73.431-51.224-161.843-76.832-250.49-72.075z" fill="#ffa5ba"/><path d="M93925.009 8.233c-88.707-4.495-177.067 21.258-250.452 72.548-73.388 51.29-128.309 125.595-154.735 211.928-26.425 84.506-25.079 175.132 3.432 259.065 28.512 83.936 82.856 157.096 155.004 209.074 72.146 51.978 158.605 80.251 246.751 80.684 88.147-.433 174.605-28.706 246.752-80.684 72.148-51.978 126.492-125.138 155.003-209.074 28.512-83.933 29.858-174.559 3.432-259.065-26.425-86.333-81.347-160.638-154.734-211.928-73.386-51.29-161.745-77.043-250.453-72.548z" fill="#ffa5ba"/><path d="M94775.009 7.772c-88.765-4.244-177.075 21.65-250.417 73.004-73.343 51.354-128.216 125.639-154.715 211.889-26.498 84.524-25.228 175.194 3.24 259.178 28.468 83.987 82.796 157.192 154.969 209.195 72.172 52.003 158.687 80.275 246.923 80.684 88.236-.409 174.751-28.681 246.922-80.684 72.174-52.003 126.502-125.208 154.97-209.195 28.468-83.984 29.738-174.654 3.24-259.178-26.499-86.25-81.372-160.535-154.716-211.889-73.341-51.354-161.651-77.248-250.416-73.004z" fill="#ffa5ba"/><path d="M95625.008 7.327c-88.82-4.001-177.082 22.028-250.381 73.443-73.301 51.416-128.128 125.683-154.697 211.852-26.569 84.542-25.371 175.255 3.054 259.288 28.426 84.036 82.739 157.284 154.937 209.312 72.195 52.027 158.766 80.298 247.087 80.683 88.322-.385 174.892-28.656 247.088-80.683 72.198-52.028 126.511-125.276 154.936-209.312 28.426-84.033 29.624-174.746 3.055-259.288-26.569-86.169-81.396-160.436-154.697-211.852-73.299-51.415-161.561-77.444-250.382-73.443z" fill="#ffa5ba"/><path d="M96475.008 6.898c-88.874-3.766-177.09 22.393-250.348 73.867-73.26 51.475-128.042 125.725-154.679 211.816-26.637 84.559-25.509 175.314 2.876 259.393 28.385 84.083 82.683 157.373 154.904 209.424 72.219 52.051 158.842 80.321 247.247 80.684 88.404-.363 175.027-28.633 247.247-80.684 72.221-52.051 126.519-125.341 154.904-209.424 28.385-84.079 29.513-174.834 2.876-259.393-26.637-86.091-81.419-160.341-154.679-211.816-73.258-51.474-161.474-77.633-250.348-73.867z" fill="#ffa5ba"/><path d="M97325.007 6.486c-88.925-3.541-177.097 22.743-250.316 74.275-73.22 51.532-127.959 125.764-154.661 211.78-26.702 84.575-25.642 175.371 2.704 259.495 28.346 84.128 82.629 157.458 154.873 209.532 72.242 52.074 158.916 80.343 247.4 80.684 88.485-.341 175.159-28.61 247.401-80.684 72.244-52.074 126.527-125.404 154.873-209.532 28.346-84.124 29.406-174.92 2.704-259.495-26.703-86.016-81.441-160.248-154.662-211.78-73.218-51.532-161.39-77.816-250.316-74.275z" fill="#ffa5ba"/><path d="M98175.007 6.089c-88.975-3.325-177.105 23.08-250.285 74.667-73.182 51.587-127.88 125.803-154.645 211.747-26.765 84.591-25.77 175.425 2.538 259.593 28.309 84.171 82.579 157.54 154.844 209.636 72.264 52.096 158.987 80.363 247.548 80.683 88.561-.32 175.284-28.587 247.548-80.683 72.265-52.096 126.535-125.465 154.843-209.636 28.309-84.168 29.304-175.002 2.539-259.593-26.765-85.944-81.463-160.16-154.645-211.747-73.181-51.587-161.31-77.992-250.285-74.667z" fill="#ffa5ba"/><path d="M99025.007 5.708c-89.024-3.117-177.112 23.403-250.256 75.043-73.145 51.64-127.803 125.84-154.628 211.715-26.826 84.606-25.893 175.477 2.379 259.687 28.272 84.213 82.529 157.619 154.815 209.736 72.285 52.117 159.055 80.384 247.69 80.684 88.634-.3 175.404-28.567 247.689-80.684 72.286-52.117 126.543-125.523 154.815-209.736 28.272-84.21 29.205-175.081 2.379-259.687-26.825-85.875-81.482-160.075-154.628-211.715-73.144-51.64-161.232-78.16-250.255-75.043z" fill="#ffa5ba"/><path d="M99875.006 5.341c-89.069-2.916-177.117 23.715-250.226 75.406-73.111 51.691-127.73 125.875-154.614 211.683-26.884 84.622-26.011 175.528 2.227 259.778 28.237 84.253 82.481 157.695 154.788 209.832 72.305 52.137 159.12 80.403 247.825 80.684 88.705-.281 175.521-28.547 247.825-80.684 72.307-52.137 126.551-125.579 154.789-209.832 28.237-84.25 29.11-175.156 2.226-259.778-26.884-85.808-81.503-159.992-154.613-211.683-73.109-51.691-161.158-78.322-250.227-75.406z" fill="#ffa5ba"/><path d="M100725.006 4.989c-89.113-2.724-177.124 24.014-250.199 75.754-73.077 51.739-127.66 125.909-154.599 211.653-26.939 84.636-26.124 175.576 2.08 259.865 28.203 84.292 82.436 157.768 154.762 209.924 72.324 52.156 159.182 80.421 247.956 80.684 88.773-.263 175.632-28.528 247.956-80.684 72.326-52.156 126.558-125.632 154.762-209.924 28.203-84.289 29.019-175.229 2.079-259.865-26.939-85.744-81.521-159.914-154.598-211.653-73.076-51.74-161.086-78.478-250.199-75.754z" fill="#ffa5ba"/><path d="M101575.005 4.652c-89.155-2.54-177.129 24.301-250.172 76.087-73.045 51.786-127.592 125.942-154.585 211.625-26.993 84.649-26.233 175.622 1.939 259.948 28.172 84.328 82.392 157.837 154.737 210.012 72.343 52.175 159.243 80.439 248.081 80.684 88.839-.245 175.739-28.509 248.082-80.684 72.344-52.175 126.565-125.684 154.737-210.012 28.171-84.326 28.931-175.299 1.939-259.948-26.993-85.683-81.54-159.839-154.585-211.625-73.043-51.786-161.017-78.627-250.173-76.087z" fill="#ffa5ba"/><path d="M102425.005 4.328c-89.196-2.363-177.135 24.576-250.147 76.407-73.014 51.831-127.527 125.974-154.571 211.598-27.045 84.661-26.337 175.666 1.804 260.027 28.141 84.364 82.35 157.905 154.712 210.097 72.361 52.193 159.301 80.457 248.202 80.684 88.901-.227 175.841-28.491 248.201-80.684 72.363-52.192 126.572-125.733 154.713-210.097 28.141-84.361 28.849-175.366 1.804-260.027-27.044-85.624-81.557-159.767-154.571-211.598-73.012-51.831-160.951-78.77-250.147-76.407z" fill="#ffa5ba"/><path d="M103275.005 4.019c-89.235-2.195-177.141 24.838-250.124 76.712-72.984 51.874-127.464 126.004-154.558 211.572-27.093 84.674-26.436 175.709 1.675 260.104 28.112 84.398 82.311 157.968 154.69 210.178 72.377 52.21 159.356 80.473 248.317 80.684 88.96-.211 175.939-28.474 248.316-80.684 72.38-52.21 126.578-125.78 154.69-210.178 28.111-84.395 28.768-175.43 1.675-260.104-27.093-85.568-81.574-159.698-154.558-211.572-72.983-51.874-160.889-78.907-250.123-76.712z" fill="#ffa5ba"/><path d="M104125.004 3.722c-89.271-2.032-177.146 25.091-250.1 77.006-72.956 51.915-127.405 126.032-154.545 211.546-27.141 84.686-26.532 175.75 1.551 260.177 28.084 84.431 82.272 158.03 154.668 210.256 72.393 52.226 159.408 80.488 248.426 80.684 89.018-.196 176.033-28.458 248.427-80.684 72.395-52.226 126.584-125.825 154.667-210.256 28.084-84.427 28.692-175.491 1.552-260.177-27.14-85.514-81.59-159.631-154.546-211.546-72.954-51.915-160.828-79.038-250.1-77.006z" fill="#ffa5ba"/><path d="M104975.004 3.439c-89.307-1.877-177.151 25.331-250.078 77.286-72.929 51.954-127.349 126.06-154.534 211.522-27.185 84.697-26.623 175.788 1.434 260.247 28.057 84.461 82.235 158.088 154.646 210.33 72.41 52.241 159.459 80.503 248.532 80.683 89.073-.18 176.122-28.442 248.532-80.683 72.411-52.242 126.589-125.869 154.646-210.33 28.057-84.459 28.619-175.55 1.434-260.247-27.185-85.462-81.605-159.568-154.534-211.522-72.927-51.955-160.771-79.163-250.078-77.286z" fill="#ffa5ba"/><path d="M105825.004 3.169c-89.341-1.73-177.156 25.561-250.057 77.552-72.903 51.992-127.295 126.087-154.523 211.5-27.228 84.708-26.71 175.825 1.321 260.313 28.031 84.491 82.201 158.144 154.627 210.401 72.424 52.256 159.507 80.517 248.632 80.684 89.124-.167 176.207-28.428 248.631-80.684 72.426-52.257 126.596-125.91 154.627-210.401 28.031-84.488 28.549-175.605 1.321-260.313-27.228-85.413-81.62-159.508-154.523-211.5-72.901-51.991-160.716-79.282-250.056-77.552z" fill="#ffa5ba"/><path d="M106675.003 2.912c-89.372-1.59-177.16 25.779-250.036 77.806-72.879 52.028-127.244 126.112-154.512 211.478-27.269 84.718-26.793 175.861 1.214 260.377 28.006 84.519 82.167 158.197 154.607 210.468 72.438 52.271 159.553 80.531 248.727 80.684 89.175-.153 176.29-28.413 248.728-80.684 72.44-52.271 126.6-125.949 154.607-210.468 28.006-84.516 28.482-175.659 1.214-260.377-27.269-85.366-81.634-159.45-154.512-211.478-72.877-52.027-160.664-79.396-250.037-77.806z" fill="#ffa5ba"/><path d="M107525.003 2.667c-89.403-1.456-177.164 25.987-250.017 78.048-72.856 52.062-127.195 126.135-154.502 211.457-27.307 84.729-26.871 175.895 1.112 260.438 27.983 84.545 82.135 158.248 154.589 210.532 72.451 52.284 159.596 80.543 248.818 80.684 89.222-.141 176.367-28.4 248.818-80.684 72.454-52.284 126.606-125.987 154.589-210.532 27.984-84.543 28.419-175.709 1.112-260.438-27.307-85.322-81.646-159.395-154.501-211.457-72.854-52.061-160.615-79.504-250.018-78.048z" fill="#ffa5ba"/><path d="M108375.003 2.435c-89.433-1.33-177.169 26.184-250 78.278-72.832 52.093-127.147 126.157-154.491 211.437-27.345 84.738-26.947 175.926 1.015 260.494 27.961 84.572 82.105 158.297 154.571 210.594 72.464 52.297 159.638 80.555 248.905 80.683 89.266-.128 176.44-28.386 248.904-80.683 72.467-52.297 126.611-126.022 154.572-210.594 27.961-84.568 28.359-175.756 1.015-260.494-27.344-85.28-81.659-159.344-154.492-211.437-72.831-52.094-160.567-79.608-249.999-78.278z" fill="#ffa5ba"/><path d="M109225.003 2.214c-89.461-1.209-177.173 26.372-249.983 78.496-72.811 52.124-127.103 126.179-154.482 211.419-27.379 84.746-27.017 175.956.923 260.549 27.94 84.595 82.076 158.341 154.555 210.651 72.476 52.309 159.677 80.567 248.987 80.683 89.309-.116 176.51-28.374 248.986-80.683 72.479-52.31 126.615-126.056 154.555-210.651 27.941-84.593 28.302-175.803.923-260.549-27.379-85.24-81.671-159.295-154.482-211.419-72.81-52.124-160.522-79.705-249.982-78.496z" fill="#ffa5ba"/><path d="M110075.002 2.006c-89.486-1.095-177.176 26.549-249.965 78.702-72.792 52.153-127.062 126.199-154.474 211.401-27.413 84.754-27.085 175.985.836 260.6 27.92 84.618 82.049 158.385 154.539 210.706 72.488 52.32 159.715 80.578 249.064 80.683 89.35-.105 176.577-28.363 249.064-80.683 72.49-52.321 126.62-126.088 154.54-210.706 27.92-84.615 28.248-175.846.836-260.6-27.412-85.202-81.682-159.248-154.474-211.401-72.79-52.153-160.48-79.797-249.966-78.702z" fill="#ffa5ba"/><path d="M110925.002 1.808c-89.511-.987-177.179 26.717-249.95 78.897-72.773 52.181-127.022 126.219-154.466 211.384-27.443 84.763-27.148 176.013.754 260.65 27.902 84.64 82.024 158.425 154.525 210.757 72.498 52.331 159.749 80.589 249.137 80.684 89.388-.095 176.639-28.353 249.137-80.684 72.501-52.332 126.624-126.117 154.525-210.757 27.902-84.637 28.198-175.887.754-260.65-27.443-85.165-81.693-159.203-154.466-211.384-72.771-52.18-160.439-79.884-249.95-78.897z" fill="#ffa5ba"/><path d="M111775.002 1.622c-89.534-.885-177.183 26.875-249.936 79.081-72.755 52.206-126.985 126.237-154.458 211.369-27.473 84.77-27.208 176.037.676 260.694 27.885 84.661 82 158.465 154.511 210.806 72.509 52.342 159.783 80.599 249.207 80.684 89.423-.085 176.697-28.342 249.206-80.684 72.511-52.341 126.627-126.145 154.511-210.806 27.884-84.657 28.149-175.924.677-260.694-27.473-85.132-81.703-159.163-154.458-211.369-72.754-52.206-160.402-79.966-249.936-79.081z" fill="#ffa5ba"/><path d="M112625.002 1.448c-89.556-.791-177.186 27.023-249.922 79.253-72.739 52.23-126.95 126.254-154.451 211.354-27.501 84.777-27.264 176.061.603 260.738 27.868 84.679 81.978 158.5 154.498 210.851 72.519 52.352 159.814 80.608 249.272 80.684 89.457-.076 176.752-28.332 249.271-80.684 72.521-52.351 126.63-126.172 154.498-210.851 27.867-84.677 28.104-175.961.603-260.738-27.5-85.1-81.712-159.124-154.45-211.354-72.737-52.23-160.366-80.044-249.922-79.253z" fill="#ffa5ba"/><path d="M113475.001 1.284c-89.576-.701-177.188 27.162-249.909 79.415-72.723 52.253-126.917 126.269-154.444 211.34-27.526 84.784-27.316 176.084.536 260.778 27.851 84.698 81.956 158.535 154.485 210.895 72.528 52.36 159.843 80.616 249.332 80.684 89.489-.068 176.805-28.324 249.333-80.684 72.529-52.36 126.633-126.197 154.485-210.895 27.852-84.694 28.062-175.994.536-260.778-27.527-85.071-81.721-159.087-154.444-211.34-72.721-52.253-160.333-80.116-249.91-79.415z" fill="#ffa5ba"/><path d="M114325.001 1.131c-89.595-.618-177.191 27.292-249.897 79.566-72.708 52.275-126.887 126.285-154.437 211.327-27.551 84.79-27.366 176.105.471 260.816 27.837 84.714 81.936 158.566 154.474 210.935 72.536 52.369 159.871 80.625 249.389 80.684 89.519-.059 176.853-28.315 249.389-80.684 72.538-52.369 126.637-126.221 154.475-210.935 27.837-84.711 28.022-176.026.471-260.816-27.551-85.042-81.729-159.052-154.437-211.327-72.706-52.274-160.302-80.184-249.898-79.566z" fill="#ffa5ba"/><path d="M115175.001.988c-89.613-.539-177.194 27.414-249.886 79.708-72.695 52.294-126.858 126.298-154.431 211.314-27.574 84.796-27.412 176.125.411 260.852 27.824 84.729 81.918 158.595 154.464 210.972 72.544 52.376 159.896 80.632 249.442 80.684 89.546-.052 176.898-28.308 249.442-80.684 72.546-52.377 126.64-126.243 154.464-210.972 27.824-84.727 27.985-176.056.412-260.852-27.574-85.016-81.737-159.02-154.432-211.314-72.692-52.294-160.272-80.247-249.886-79.708z" fill="#ffa5ba"/><path d="M116025.001.856c-89.63-.467-177.196 27.526-249.876 79.838-72.682 52.312-126.831 126.311-154.426 211.304-27.594 84.8-27.454 176.142.357 260.884 27.811 84.744 81.901 158.622 154.454 211.006 72.551 52.384 159.919 80.639 249.491 80.684 89.572-.045 176.94-28.3 249.491-80.684 72.553-52.384 126.643-126.262 154.454-211.006 27.811-84.742 27.951-176.084.357-260.884-27.595-84.993-81.744-158.992-154.426-211.304-72.68-52.312-160.246-80.305-249.876-79.838z" fill="#ffa5ba"/><path d="M116875.001.734c-89.645-.401-177.198 27.629-249.867 79.959-72.67 52.329-126.807 126.322-154.42 211.293-27.614 84.805-27.494 176.159.306 260.914 27.799 84.757 81.885 158.648 154.444 211.039 72.558 52.39 159.942 80.645 249.537 80.684 89.595-.039 176.979-28.294 249.536-80.684 72.56-52.391 126.645-126.282 154.445-211.039 27.8-84.755 27.92-176.109.306-260.914-27.614-84.971-81.751-158.964-154.421-211.293-72.668-52.33-160.221-80.36-249.866-79.959z" fill="#ffa5ba"/><path d="M117725.001.622c-89.66-.34-177.2 27.725-249.858 80.069-72.659 52.345-126.784 126.334-154.416 211.284-27.631 84.81-27.53 176.175.259 260.942 27.789 84.77 81.871 158.671 154.437 211.068 72.564 52.397 159.961 80.651 249.578 80.684 89.617-.033 177.014-28.287 249.578-80.684 72.566-52.397 126.647-126.298 154.436-211.068 27.789-84.767 27.891-176.132.259-260.942-27.631-84.95-81.756-158.939-154.416-211.284-72.657-52.344-160.198-80.409-249.857-80.069z" fill="#ffa5ba"/><path d="M118575.001.52c-89.672-.284-177.202 27.811-249.85 80.17-72.65 52.359-126.764 126.344-154.412 211.275-27.647 84.814-27.563 176.189.217 260.967 27.779 84.781 81.857 158.692 154.429 211.095 72.569 52.402 159.979 80.657 249.616 80.684 89.636-.027 177.046-28.282 249.616-80.684 72.571-52.403 126.649-126.314 154.428-211.095 27.78-84.778 27.865-176.153.217-260.967-27.648-84.931-81.762-158.916-154.412-211.275-72.647-52.359-160.177-80.454-249.849-80.17z" fill="#ffa5ba"/><path d="M119425 .427c-89.683-.233-177.203 27.89-249.842 80.262-72.641 52.372-126.745 126.353-154.408 211.267-27.662 84.818-27.592 176.202.178 260.99 27.771 84.791 81.846 158.712 154.422 211.119 72.575 52.408 159.996 80.662 249.65 80.684 89.655-.022 177.076-28.276 249.651-80.684 72.576-52.407 126.651-126.328 154.422-211.119 27.77-84.788 27.84-176.172.178-260.99-27.663-84.914-81.767-158.895-154.408-211.267-72.639-52.372-160.159-80.495-249.843-80.262z" fill="#ffa5ba"/><path d="M120275 .344c-89.694-.188-177.205 27.961-249.835 80.344-72.633 52.383-126.729 126.361-154.405 211.26-27.675 84.821-27.619 176.213.144 261.01 27.762 84.801 81.834 158.729 154.415 211.141 72.579 52.412 160.011 80.666 249.681 80.684 89.671-.018 177.103-28.272 249.682-80.684 72.581-52.412 126.653-126.34 154.415-211.141 27.763-84.797 27.819-176.189.144-261.01-27.676-84.899-81.772-158.877-154.405-211.26-72.631-52.383-160.142-80.532-249.836-80.344z" fill="#ffa5ba"/><path d="M121125 .27c-89.703-.147-177.206 28.024-249.83 80.417-72.626 52.394-126.714 126.368-154.401 211.254-27.687 84.824-27.643 176.223.113 261.028 27.755 84.809 81.825 158.744 154.41 211.161 72.583 52.416 160.024 80.669 249.708 80.684 89.685-.015 177.126-28.268 249.709-80.684 72.585-52.417 126.654-126.352 154.41-211.161 27.756-84.805 27.8-176.204.113-261.028-27.687-84.886-81.776-158.86-154.402-211.254-72.623-52.393-160.127-80.564-249.83-80.417z" fill="#ffa5ba"/><path d="M121975 .206c-89.711-.113-177.207 28.078-249.825 80.48-72.62 52.403-126.701 126.374-154.398 211.249-27.698 84.827-27.664 176.232.085 261.044 27.75 84.816 81.817 158.757 154.406 211.177 72.586 52.42 160.035 80.673 249.732 80.684 89.697-.011 177.146-28.264 249.733-80.684 72.588-52.42 126.656-126.361 154.405-211.177 27.75-84.812 27.783-176.217.086-261.044-27.697-84.875-81.779-158.846-154.399-211.249-72.617-52.402-160.114-80.593-249.825-80.48z" fill="#ffa5ba"/><path d="M122825 .15c-89.718-.082-177.208 28.126-249.821 80.536-72.614 52.41-126.69 126.379-154.396 211.244-27.706 84.828-27.681 176.239.063 261.057 27.744 84.822 81.809 158.769 154.401 211.192 72.59 52.423 160.045 80.676 249.753 80.684 89.708-.008 177.164-28.261 249.753-80.684 72.592-52.423 126.657-126.37 154.402-211.192 27.744-84.818 27.768-176.229.062-261.057-27.706-84.865-81.782-158.834-154.396-211.244-72.612-52.41-160.103-80.618-249.821-80.536z" fill="#ffa5ba"/><path d="M123675 .104c-89.724-.057-177.209 28.165-249.817 80.581-72.61 52.417-126.681 126.384-154.394 211.24-27.714 84.831-27.697 176.246.043 261.069 27.74 84.827 81.803 158.779 154.398 211.204 72.592 52.425 160.053 80.679 249.77 80.684 89.717-.005 177.178-28.259 249.771-80.684 72.594-52.425 126.657-126.377 154.397-211.204 27.74-84.823 27.757-176.238.044-261.069-27.714-84.856-81.785-158.823-154.395-211.24-72.608-52.416-160.093-80.638-249.817-80.581z" fill="#ffa5ba"/><path d="M124525 .066c-89.729-.036-177.21 28.197-249.814 80.619-72.606 52.422-126.673 126.387-154.393 211.236-27.719 84.833-27.709 176.251.028 261.079 27.736 84.831 81.798 158.786 154.395 211.214 72.594 52.427 160.06 80.68 249.784 80.684 89.724-.004 177.19-28.257 249.785-80.684 72.596-52.428 126.658-126.383 154.394-211.214 27.737-84.828 27.748-176.246.028-261.079-27.719-84.849-81.786-158.814-154.393-211.236C124702.21 28.263 124614.729.03 124525 .066z" fill="#ffa5ba"/><path d="M125375 .037c-89.732-.02-177.21 28.222-249.812 80.647-72.603 52.426-126.667 126.391-154.391 211.235-27.725 84.833-27.718 176.254.015 261.085 27.734 84.834 81.795 158.793 154.393 211.222 72.596 52.429 160.065 80.682 249.795 80.684 89.73-.002 177.199-28.255 249.795-80.684 72.598-52.429 126.66-126.388 154.393-211.222 27.734-84.831 27.74-176.252.015-261.085-27.724-84.844-81.788-158.809-154.391-211.235-72.602-52.425-160.08-80.667-249.812-80.647z" fill="#ffa5ba"/><path d="M126225 .016c-89.735-.009-177.211 28.239-249.81 80.668-72.602 52.429-126.664 126.393-154.391 211.233-27.727 84.834-27.725 176.257.007 261.091 27.731 84.836 81.792 158.796 154.391 211.226 72.597 52.43 160.069 80.683 249.803 80.684 89.734-.001 177.206-28.254 249.803-80.684 72.599-52.43 126.66-126.39 154.391-211.226 27.732-84.834 27.734-176.257.007-261.091-27.727-84.84-81.789-158.804-154.391-211.233-72.599-52.429-160.075-80.677-249.81-80.668z" fill="#ffa5ba"/><path d="M127075 .004c-89.736-.002-177.211 28.25-249.809 80.68-72.601 52.43-126.661 126.394-154.39 211.231-27.73 84.835-27.729 176.26.001 261.094 27.731 84.838 81.791 158.8 154.391 211.23 72.597 52.431 160.071 80.684 249.807 80.684 89.736 0 177.21-28.253 249.807-80.684 72.6-52.43 126.66-126.392 154.391-211.23 27.73-84.834 27.731-176.259.001-261.094-27.729-84.837-81.789-158.801-154.39-211.231-72.598-52.43-160.073-80.682-249.809-80.68z" fill="#ffa5ba"/><path d="M127925 0c-89.737 0-177.211 28.253-249.809 80.684-72.6 52.431-126.66 126.394-154.39 211.231-27.73 84.835-27.73 176.26 0 261.095 27.73 84.838 81.79 158.8 154.39 211.231 72.598 52.431 160.072 80.684 249.809 80.684s177.211-28.253 249.809-80.684c72.6-52.431 126.66-126.393 154.39-211.231 27.73-84.835 27.73-176.26 0-261.095-27.73-84.837-81.79-158.8-154.39-211.231C128102.211 28.253 128014.737 0 127925 0z" fill="#ffa5ba"/></svg>