<svg xmlns="http://www.w3.org/2000/svg" viewBox="0 0 60635 333" width="60635" height="333"><path d="M167.5 63.8c21.35-41.35 63.225-52.25 99.762-41.325C303.8 33.4 335 66.15 335 112.1c0 46-29.65 89.575-65.413 125.213C233.825 272.95 191.95 300.65 167.5 314.9c-24.45-14.25-66.325-41.95-102.088-77.587C29.65 201.675 0 158.1 0 112.1c0-45.95 31.2-78.7 67.737-89.625C104.275 11.55 146.15 22.45 167.5 63.8M502.5 63.796c21.351-41.347 63.227-52.246 99.764-41.319C638.801 33.403 670 66.154 670 112.104c0 45.999-29.649 89.574-65.411 125.212-35.763 35.637-77.638 63.336-102.089 77.585-24.451-14.249-66.326-41.948-102.089-77.585C364.649 201.678 335 158.103 335 112.104c0-45.95 31.199-78.701 67.736-89.627 36.537-10.927 78.413-.028 99.764 41.319M837.5 63.783c21.356-41.339 63.231-52.231 99.767-41.301C973.804 33.412 1005 66.165 1005 112.114c0 46-29.647 89.574-65.408 125.211-35.762 35.636-77.637 63.334-102.092 77.58-24.455-14.246-66.33-41.944-102.092-77.58C699.647 201.688 670 158.114 670 112.114c0-45.949 31.196-78.702 67.733-89.632 36.536-10.93 78.411-.038 99.767 41.301M1172.5 63.762c21.364-41.325 63.239-52.208 99.774-41.271C1308.808 33.428 1340 66.184 1340 112.133c0 45.998-29.643 89.573-65.403 125.208-35.76 35.634-77.635 63.328-102.097 77.57-24.462-14.242-66.337-41.936-102.097-77.57-35.76-35.635-65.403-79.21-65.403-125.208 0-45.949 31.192-78.705 67.726-89.642 36.535-10.937 78.41-.054 99.774 41.271M1507.5 63.731c21.375-41.305 63.251-52.175 99.783-41.228C1643.815 33.45 1675 66.21 1675 112.158c0 45.998-29.637 89.572-65.395 125.205-35.758 35.633-77.634 63.322-102.105 77.556-24.471-14.234-66.347-41.923-102.105-77.556C1369.637 201.73 1340 158.156 1340 112.158c0-45.948 31.185-78.708 67.717-89.655 36.532-10.947 78.408-.077 99.783 41.228M1842.5 63.692c21.389-41.28 63.265-52.132 99.794-41.172C1978.823 33.479 2010 66.246 2010 112.192c0 45.997-29.63 89.57-65.385 125.2-35.755 35.63-77.631 63.313-102.115 77.539-24.484-14.226-66.36-41.909-102.115-77.539-35.755-35.63-65.385-79.203-65.385-125.2 0-45.946 31.177-78.713 67.706-89.672 36.529-10.96 78.405-.108 99.794 41.172M2177.5 63.642c21.407-41.248 63.284-52.077 99.809-41.102C2313.834 33.515 2345 66.289 2345 112.235c0 45.995-29.62 89.567-65.372 125.194-35.752 35.626-77.629 63.301-102.128 77.516-24.499-14.215-66.376-41.89-102.128-77.516C2039.62 201.802 2010 158.23 2010 112.235c0-45.946 31.166-78.72 67.691-89.695 36.525-10.975 78.402-.146 99.809 41.102M2512.5 63.583c21.429-41.21 63.306-52.013 99.826-41.018 36.52 10.994 67.674 43.777 67.674 89.72 0 45.994-29.609 89.565-65.357 125.187-35.747 35.623-77.625 63.288-102.143 77.49-24.518-14.202-66.396-41.867-102.143-77.49C2374.609 201.85 2345 158.279 2345 112.285c0-45.943 31.154-78.726 67.674-89.72 36.52-10.995 78.397-.192 99.826 41.018M2847.5 63.513c21.454-41.164 63.332-51.936 99.847-40.92C2983.861 33.61 3015 66.403 3015 112.345c0 45.992-29.596 89.561-65.339 125.179-35.743 35.617-77.621 63.272-102.161 77.458-24.54-14.186-66.418-41.841-102.161-77.458-35.743-35.618-65.339-79.187-65.339-125.179 0-45.942 31.139-78.735 67.653-89.752 36.515-11.016 78.393-.244 99.847 40.92M3182.5 63.432c21.483-41.112 63.362-51.847 99.87-40.805 36.508 11.042 67.63 43.847 67.63 89.787 0 45.989-29.581 89.557-65.318 125.169-35.737 35.612-77.617 63.254-102.182 77.421-24.565-14.167-66.445-41.809-102.182-77.421-35.737-35.612-65.318-79.18-65.318-125.169 0-45.94 31.122-78.745 67.63-89.787 36.508-11.042 78.387-.307 99.87 40.805M3517.5 63.34c21.516-41.052 63.397-51.747 99.897-40.675 36.501 11.071 67.603 43.89 67.603 89.827 0 45.987-29.564 89.553-65.295 125.159-35.731 35.605-77.611 63.232-102.205 77.38-24.594-14.148-66.474-41.775-102.205-77.38-35.731-35.606-65.295-79.172-65.295-125.159 0-45.937 31.102-78.756 67.603-89.827 36.5-11.072 78.381-.377 99.897 40.675M3852.5 63.237c21.554-40.985 63.435-51.634 99.927-40.53C3988.92 33.811 4020 66.646 4020 112.58c0 45.984-29.544 89.548-65.268 125.147-35.724 35.598-77.606 63.209-102.232 77.333-24.626-14.124-66.508-41.735-102.232-77.333C3714.544 202.128 3685 158.564 3685 112.58c0-45.934 31.08-78.769 67.573-89.873 36.492-11.104 78.373-.455 99.927 40.53M4187.5 63.121c21.595-40.91 63.478-51.507 99.961-40.366C4323.944 33.896 4355 66.748 4355 112.679c0 45.98-29.522 89.542-65.238 125.133-35.717 35.59-77.6 63.182-102.262 77.281-24.662-14.099-66.545-41.691-102.262-77.281-35.716-35.591-65.238-79.153-65.238-125.133 0-45.931 31.056-78.783 67.539-89.924 36.483-11.141 78.366-.544 99.961 40.366M4522.5 62.993c21.642-40.827 63.526-51.367 99.999-40.186C4658.971 33.989 4690 66.861 4690 112.788c0 45.976-29.498 89.536-65.206 125.118-35.707 35.581-77.592 63.153-102.294 77.223-24.702-14.07-66.587-41.642-102.294-77.223-35.708-35.582-65.206-79.142-65.206-125.118 0-45.927 31.029-78.799 67.501-89.981 36.473-11.181 78.357-.641 99.999 40.186M4857.5 62.852c21.692-40.735 63.579-51.213 100.04-39.987 36.461 11.227 67.46 44.12 67.46 90.043 0 45.972-29.472 89.53-65.17 125.101-35.697 35.572-77.584 63.121-102.33 77.16-24.746-14.039-66.633-41.588-102.33-77.16-35.698-35.571-65.17-79.129-65.17-125.101 0-45.923 30.999-78.816 67.46-90.043 36.461-11.226 78.348-.748 100.04 39.987M5192.5 62.698c21.748-40.636 63.636-51.044 100.085-39.769 36.449 11.275 67.415 44.192 67.415 90.11 0 45.968-29.443 89.523-65.13 125.084-35.687 35.561-77.575 63.086-102.37 77.09-24.795-14.004-66.683-41.529-102.37-77.09S5025 159.007 5025 113.039c0-45.918 30.966-78.835 67.415-90.11 36.449-11.275 78.337-.867 100.085 39.769M5527.5 62.53c21.809-40.527 63.699-50.86 100.134-39.532C5664.07 34.327 5695 67.269 5695 113.183c0 45.963-29.411 89.514-65.087 125.063-35.676 35.55-77.566 63.048-102.413 77.014-24.847-13.966-66.737-41.464-102.413-77.014-35.676-35.549-65.087-79.1-65.087-125.063 0-45.914 30.93-78.856 67.366-90.185 36.435-11.328 78.325-.995 100.134 39.532M5862.5 62.348c21.875-40.409 63.767-50.661 100.188-39.274C5999.108 34.46 6030 67.43 6030 113.338c0 45.958-29.377 89.506-65.04 125.043-35.663 35.536-77.556 63.005-102.46 76.931-24.904-13.926-66.797-41.395-102.46-76.931-35.663-35.537-65.04-79.085-65.04-125.043 0-45.908 30.892-78.878 67.312-90.264 36.421-11.387 78.313-1.135 100.188 39.274M6197.5 62.15c21.946-40.281 63.841-50.445 100.246-38.995C6334.15 34.605 6365 67.604 6365 113.507c0 45.952-29.34 89.496-64.99 125.019-35.649 35.523-77.544 62.961-102.51 76.842-24.966-13.881-66.861-41.319-102.51-76.842-35.65-35.523-64.99-79.067-64.99-125.019 0-45.903 30.85-78.902 67.254-90.352 36.405-11.45 78.3-1.286 100.246 38.995M6532.5 61.937c22.023-40.143 63.921-50.212 100.308-38.694C6669.195 34.76 6700 67.792 6700 113.689c0 45.945-29.3 89.486-64.935 124.994-35.635 35.508-77.532 62.912-102.565 76.746-25.033-13.834-66.93-41.238-102.565-76.746C6394.3 203.175 6365 159.634 6365 113.689c0-45.897 30.805-78.929 67.192-90.446 36.387-11.518 78.285-1.449 100.308 38.694M6867.5 61.707c22.106-39.993 64.006-49.96 100.375-38.37C7004.244 34.928 7035 67.994 7035 113.884c0 45.939-29.257 89.475-64.876 124.968-35.62 35.492-77.519 62.859-102.624 76.642-25.105-13.783-67.004-41.15-102.624-76.642-35.619-35.493-64.876-79.029-64.876-124.968 0-45.89 30.756-78.956 67.125-90.547 36.369-11.59 78.269-1.623 100.375 38.37M7202.5 61.461c22.195-39.834 64.098-49.691 100.447-38.022C7339.296 35.108 7370 68.211 7370 114.094c0 45.932-29.21 89.463-64.813 124.939-35.603 35.475-77.505 62.803-102.687 76.531-25.182-13.728-67.084-41.056-102.687-76.531C7064.21 203.557 7035 160.026 7035 114.094c0-45.883 30.704-78.986 67.053-90.655 36.349-11.669 78.252-1.812 100.447 38.022M7537.5 61.197c22.291-39.663 64.197-49.402 100.524-37.649C7674.352 35.3 7705 68.443 7705 114.319c0 45.924-29.161 89.451-64.745 124.908-35.585 35.457-77.491 62.743-102.755 76.411-25.264-13.668-67.17-40.954-102.755-76.411C7399.161 203.77 7370 160.243 7370 114.319c0-45.876 30.648-79.019 66.976-90.771 36.327-11.753 78.233-2.014 100.524 37.649M7872.5 60.915c22.393-39.48 64.302-49.094 100.607-37.251C8009.412 35.506 8040 68.691 8040 114.56c0 45.916-29.108 89.437-64.673 124.874s-77.475 62.679-102.827 76.284c-25.352-13.605-67.262-40.847-102.827-76.284C7734.108 203.997 7705 160.476 7705 114.56c0-45.869 30.588-79.054 66.893-90.896 36.305-11.843 78.214-2.229 100.607 37.251M8207.5 60.614c22.501-39.285 64.414-48.764 100.695-36.826C8344.476 35.726 8375 68.957 8375 114.816c0 45.907-29.051 89.423-64.596 124.839-35.545 35.417-77.458 62.61-102.904 76.149-25.446-13.539-67.359-40.732-102.904-76.149-35.545-35.416-64.596-78.932-64.596-124.839 0-45.859 30.524-79.09 66.805-91.028 36.281-11.938 78.194-2.459 100.695 36.826M8542.5 60.294c22.617-39.078 64.534-48.414 100.789-36.374C8679.544 35.96 8710 69.239 8710 115.09c0 45.897-28.991 89.407-64.514 124.801-35.523 35.394-77.439 62.537-102.986 76.004-25.547-13.467-67.463-40.61-102.986-76.004C8403.991 204.497 8375 160.987 8375 115.09c0-45.851 30.456-79.13 66.711-91.17 36.255-12.04 78.172-2.704 100.789 36.374M8877.5 59.953c22.74-38.857 64.661-48.041 100.889-35.893C9014.616 36.209 9045 69.539 9045 115.38c0 45.888-28.927 89.391-64.426 124.762-35.5 35.37-77.421 62.459-103.074 75.849-25.653-13.39-67.574-40.479-103.074-75.849C8738.927 204.771 8710 161.268 8710 115.38c0-45.841 30.384-79.171 66.611-91.32 36.228-12.148 78.149-2.964 100.889 35.893M9212.5 59.591c22.871-38.622 64.796-47.645 100.995-35.381C9349.693 36.473 9380 69.858 9380 115.689c0 45.877-28.859 89.373-64.334 124.719-35.474 35.346-77.399 62.376-103.166 75.686-25.767-13.31-67.692-40.34-103.166-75.686-35.475-35.346-64.334-78.842-64.334-124.719 0-45.831 30.307-79.216 66.505-91.479 36.199-12.264 78.124-3.241 100.995 35.381M9547.5 59.207c23.01-38.373 64.939-47.225 101.107-34.839C9684.775 36.753 9715 70.196 9715 116.016c0 45.866-28.787 89.355-64.235 124.674-35.449 35.319-77.378 62.289-103.265 75.513-25.887-13.224-67.816-40.194-103.265-75.513-35.448-35.319-64.235-78.808-64.235-124.674 0-45.82 30.225-79.263 66.393-91.648 36.168-12.386 78.097-3.534 101.107 34.839M9882.5 58.8c23.157-38.109 65.091-46.78 101.226-34.265 36.135 12.515 66.274 46.02 66.274 91.828 0 45.854-28.71 89.336-64.131 124.626-35.421 35.291-77.355 62.196-103.369 75.329-26.014-13.133-67.948-40.038-103.369-75.329-35.421-35.29-64.131-78.772-64.131-124.626 0-45.808 30.139-79.313 66.274-91.828 36.135-12.515 78.069-3.844 101.226 34.265M10217.5 58.37c23.312-37.831 65.252-46.309 101.352-33.657 36.1 12.651 66.148 46.221 66.148 92.017 0 45.842-28.63 89.315-64.021 124.576-35.391 35.261-77.331 62.097-103.479 75.134-26.148-13.037-68.088-39.873-103.479-75.134-35.391-35.261-64.021-78.734-64.021-124.576 0-45.796 30.048-79.366 66.148-92.017 36.1-12.652 78.04-4.174 101.352 33.657M10552.5 57.916c23.477-37.537 65.421-45.812 101.485-33.016 36.064 12.796 66.015 46.434 66.015 92.217 0 45.829-28.544 89.293-63.904 124.523-35.36 35.229-77.305 61.994-103.596 74.929-26.291-12.935-68.236-39.7-103.596-74.929-35.36-35.23-63.904-78.694-63.904-124.523 0-45.783 29.951-79.421 66.015-92.217 36.064-12.796 78.008-4.521 101.485 33.016M10887.5 57.436c23.65-37.225 65.6-45.287 101.625-32.339 36.026 12.949 65.875 46.659 65.875 92.429 0 45.815-28.454 89.27-63.781 124.466-35.328 35.197-77.278 61.885-103.719 74.713-26.441-12.828-68.391-39.516-103.719-74.713-35.327-35.196-63.781-78.651-63.781-124.466 0-45.77 29.849-79.48 65.875-92.429 36.025-12.948 77.975-4.886 101.625 32.339M11222.5 56.931c23.832-36.898 65.789-44.735 101.773-31.625 35.985 13.109 65.727 46.895 65.727 92.651 0 45.8-28.359 89.246-63.652 124.407s-77.249 61.769-103.848 74.485c-26.599-12.716-68.555-39.324-103.848-74.485-35.293-35.161-63.652-78.607-63.652-124.407 0-45.756 29.742-79.542 65.727-92.651 35.984-13.11 77.941-5.273 101.773 31.625M11557.5 56.399c24.025-36.553 65.987-44.153 101.929-30.874 35.942 13.278 65.571 47.145 65.571 92.885 0 45.785-28.259 89.221-63.516 124.345-35.256 35.124-77.219 61.647-103.984 74.245-26.765-12.598-68.728-39.121-103.984-74.245-35.257-35.124-63.516-78.56-63.516-124.345 0-45.74 29.629-79.607 65.571-92.885 35.942-13.279 77.904-5.679 101.929 30.874M11892.5 55.841c24.226-36.192 66.196-43.542 102.093-30.086 35.896 13.456 65.407 47.407 65.407 93.132 0 45.768-28.154 89.194-63.372 124.279-35.219 35.086-77.188 61.52-104.128 73.992-26.94-12.472-68.909-38.906-104.128-73.992-35.218-35.085-63.372-78.511-63.372-124.279 0-45.725 29.511-79.676 65.407-93.132 35.897-13.456 77.867-6.106 102.093 30.086M12227.5 55.254c24.438-35.811 66.415-42.9 102.264-29.257 35.85 13.642 65.236 47.682 65.236 93.39 0 45.751-28.044 89.165-63.222 124.21-35.178 35.045-77.155 61.386-104.278 73.727-27.123-12.341-69.1-38.682-104.278-73.727-35.178-35.045-63.222-78.459-63.222-124.21 0-45.708 29.386-79.748 65.236-93.39 35.849-13.643 77.826-6.554 102.264 29.257M12562.5 54.64c24.661-35.413 66.644-42.228 102.444-28.39 35.8 13.838 65.056 47.97 65.056 93.661 0 45.733-27.928 89.136-63.065 124.138-35.136 35.003-77.12 61.246-104.435 73.45-27.315-12.204-69.299-38.447-104.435-73.45-35.137-35.002-63.065-78.405-63.065-124.138 0-45.691 29.256-79.823 65.056-93.661 35.8-13.838 77.783-7.023 102.444 28.39M12897.5 53.996c24.893-34.996 66.884-41.523 102.632-27.481 35.749 14.042 64.868 48.272 64.868 93.944 0 45.715-27.807 89.106-62.9 124.063-35.092 34.958-77.083 61.099-104.6 73.159-27.517-12.06-69.508-38.201-104.6-73.159-35.093-34.957-62.9-78.348-62.9-124.063 0-45.672 29.119-79.902 64.868-93.944 35.748-14.042 77.739-7.515 102.632 27.481M13232.5 53.325c25.136-34.561 67.135-40.789 102.829-26.533 35.694 14.256 64.671 48.587 64.671 94.24 0 45.695-27.681 89.073-62.728 123.984-35.046 34.911-77.045 60.946-104.772 72.856-27.727-11.91-69.726-37.945-104.772-72.856-35.047-34.911-62.728-78.289-62.728-123.984 0-45.653 28.977-79.984 64.671-94.24s77.693-8.028 102.829 26.533M13567.5 52.624c25.389-34.107 67.397-40.022 103.034-25.543 35.638 14.478 64.466 48.915 64.466 94.548 0 45.675-27.55 89.04-62.548 123.902-34.998 34.863-77.006 60.786-104.952 72.54-27.946-11.754-69.954-37.677-104.952-72.54-34.998-34.862-62.548-78.227-62.548-123.902 0-45.633 28.828-80.07 64.466-94.548 35.637-14.479 77.645-8.564 103.034 25.543M13902.5 51.895c25.652-33.634 67.669-39.225 103.248-24.514 35.579 14.711 64.252 49.257 64.252 94.87 0 45.653-27.413 89.005-62.361 123.817-34.949 34.812-76.965 60.618-105.139 72.209-28.174-11.591-70.19-37.397-105.139-72.209-34.948-34.812-62.361-78.164-62.361-123.817 0-45.613 28.673-80.159 64.252-94.87 35.579-14.711 77.596-9.12 103.248 24.514M14237.5 51.138c25.926-33.143 67.951-38.396 103.469-23.445S14405 77.305 14405 122.896c0 45.632-27.27 88.969-62.167 123.728-34.897 34.76-76.922 60.446-105.333 71.868-28.411-11.422-70.436-37.108-105.333-71.868-34.897-34.759-62.167-78.096-62.167-123.728 0-45.591 28.513-80.252 64.031-95.203 35.518-14.951 77.543-9.698 103.469 23.445M14572.5 50.353c26.21-32.635 68.244-37.538 103.699-22.337 35.455 15.201 63.801 49.98 63.801 95.549 0 45.609-27.123 88.931-61.966 123.636s-76.878 60.267-105.534 71.514c-28.656-11.247-70.691-36.809-105.534-71.514S14405 169.174 14405 123.565c0-45.569 28.346-80.348 63.801-95.549 35.455-15.201 77.489-10.298 103.699 22.337M14907.5 49.542c26.503-32.109 68.547-36.65 103.936-21.191 35.39 15.458 63.564 50.36 63.564 95.906 0 45.585-26.97 88.892-61.758 123.541-34.788 34.649-76.832 60.081-105.742 71.147-28.91-11.066-70.954-36.498-105.742-71.147-34.788-34.649-61.758-77.956-61.758-123.541 0-45.546 28.174-80.448 63.564-95.906 35.389-15.459 77.433-10.918 103.936 21.191M15242.5 48.706c26.805-31.567 68.859-35.736 104.181-20.011 35.323 15.725 63.319 50.753 63.319 96.275 0 45.561-26.813 88.853-61.544 123.443-34.73 34.591-76.784 59.891-105.956 70.769-29.172-10.878-71.226-36.178-105.956-70.769-34.731-34.59-61.544-77.882-61.544-123.443 0-45.522 27.996-80.55 63.319-96.275 35.322-15.725 77.376-11.556 104.181 20.011M15577.5 47.845c27.116-31.009 69.181-34.794 104.433-18.795 35.253 15.998 63.067 51.156 63.067 96.654 0 45.535-26.651 88.811-61.323 123.342-34.672 34.531-76.736 59.694-106.177 70.38-29.441-10.686-71.505-35.849-106.177-70.38-34.672-34.531-61.323-77.807-61.323-123.342 0-45.498 27.814-80.656 63.067-96.654 35.252-15.999 77.317-12.214 104.433 18.795M15912.5 46.963c27.435-30.438 69.51-33.829 104.692-17.549 35.182 16.279 62.808 51.57 62.808 97.043 0 45.509-26.485 88.768-61.097 123.238-34.611 34.47-76.686 59.492-106.403 69.982-29.717-10.49-71.792-35.512-106.403-69.982-34.612-34.47-61.097-77.729-61.097-123.238 0-45.473 27.626-80.764 62.808-97.043 35.182-16.28 77.257-12.889 104.692 17.549M16247.5 46.06c27.761-29.852 69.847-32.841 104.956-16.274 35.109 16.566 62.544 51.993 62.544 97.44 0 45.483-26.316 88.726-60.866 123.133-34.549 34.407-76.635 59.286-106.634 69.574-29.999-10.288-72.085-35.167-106.634-69.574-34.55-34.407-60.866-77.65-60.866-123.133 0-45.447 27.435-80.874 62.544-97.44 35.109-16.567 77.195-13.578 104.956 16.274M16582.5 45.14c28.094-29.256 70.19-31.834 105.225-14.975S16750 82.59 16750 128.011c0 45.456-26.143 88.681-60.63 123.025-34.486 34.343-76.583 59.076-106.87 69.158-30.287-10.082-72.384-34.815-106.87-69.158-34.487-34.344-60.63-77.569-60.63-123.025 0-45.421 27.24-80.987 62.275-97.846 35.035-16.859 77.131-14.281 105.225 14.975M16917.5 44.204c28.432-28.649 70.54-30.81 105.499-13.654 34.96 17.157 62.001 52.864 62.001 98.258 0 45.43-25.967 88.637-60.39 122.916-34.423 34.278-76.53 58.862-107.11 68.735-30.58-9.873-72.687-34.457-107.11-68.735-34.423-34.279-60.39-77.486-60.39-122.916 0-45.394 27.041-81.101 62.001-98.258 34.959-17.156 77.067-14.995 105.499 13.654M17252.5 43.257c28.774-28.036 70.893-29.774 105.777-12.316 34.883 17.458 61.723 53.308 61.723 98.676 0 45.401-25.789 88.591-60.147 122.804-34.358 34.213-76.477 58.646-107.353 68.307-30.876-9.661-72.995-34.094-107.353-68.307-34.358-34.213-60.147-77.403-60.147-122.804 0-45.368 26.84-81.218 61.723-98.676 34.884-17.458 77.003-15.72 105.777 12.316M17587.5 42.299c29.12-27.415 71.251-28.726 106.057-10.963 34.806 17.762 61.443 53.756 61.443 99.097 0 45.374-25.609 88.546-59.902 122.692-34.292 34.146-76.422 58.427-107.598 67.875-31.176-9.448-73.306-33.729-107.598-67.875-34.293-34.146-59.902-77.318-59.902-122.692 0-45.341 26.637-81.335 61.443-99.097 34.806-17.763 76.937-16.452 106.057 10.963M17922.5 41.335c29.469-26.79 71.611-27.671 106.339-9.602 34.729 18.069 61.161 54.209 61.161 99.522 0 45.346-25.428 88.5-59.654 122.579-34.227 34.08-76.369 58.207-107.846 67.439-31.477-9.232-73.619-33.359-107.846-67.439-34.226-34.079-59.654-77.233-59.654-122.579 0-45.313 26.432-81.453 61.161-99.522 34.728-18.069 76.87-17.188 106.339 9.602M18257.5 40.367c29.819-26.163 71.972-26.612 106.623-8.235 34.651 18.377 60.877 54.663 60.877 99.949 0 45.317-25.246 88.453-59.406 122.465-34.16 34.013-76.314 57.986-108.094 67.002-31.78-9.016-73.934-32.989-108.094-67.002-34.16-34.012-59.406-77.148-59.406-122.465 0-45.286 26.226-81.572 60.877-99.949 34.651-18.377 76.804-17.928 106.623 8.235M18592.5 39.397c30.169-25.534 72.334-25.551 106.906-6.866 34.573 18.685 60.594 55.118 60.594 100.376 0 45.29-25.064 88.407-59.158 122.352-34.094 33.945-76.259 57.764-108.342 66.564-32.083-8.8-74.248-32.619-108.342-66.564-34.094-33.945-59.158-77.062-59.158-122.352 0-45.258 26.021-81.691 60.594-100.376 34.572-18.685 76.737-18.668 106.906 6.866M18927.5 38.43c30.519-24.907 72.695-24.493 107.19-5.5 34.495 18.992 60.31 55.571 60.31 100.802 0 45.261-24.882 88.36-58.91 122.238-34.028 33.878-76.204 57.544-108.59 66.127-32.386-8.583-74.562-32.249-108.59-66.127-34.028-33.878-58.91-76.977-58.91-122.238 0-45.231 25.815-81.81 60.31-100.802 34.495-18.993 76.671-19.407 107.19 5.5M19262.5 37.467c30.867-24.283 73.054-23.439 107.471-4.14 34.418 19.298 60.029 56.022 60.029 101.226 0 45.233-24.701 88.314-58.663 122.126-33.962 33.811-76.15 57.323-108.837 65.692-32.687-8.369-74.875-31.881-108.837-65.692-33.962-33.812-58.663-76.893-58.663-122.126 0-45.204 25.611-81.928 60.029-101.226 34.417-19.299 76.604-20.143 107.471 4.14M19597.5 36.511c31.212-23.664 73.411-22.393 107.751-2.79 34.341 19.603 59.749 56.471 59.749 101.647 0 45.206-24.521 88.269-58.418 122.014-33.897 33.745-76.096 57.105-109.082 65.26-32.986-8.155-75.185-31.515-109.082-65.26-33.897-33.745-58.418-76.808-58.418-122.014 0-45.176 25.408-82.044 59.749-101.647 34.34-19.603 76.539-20.874 107.751 2.79M19932.5 35.564c31.554-23.05 73.765-21.357 108.029-1.453 34.264 19.904 59.471 56.915 59.471 102.065 0 45.178-24.343 88.223-58.175 121.902-33.832 33.68-76.043 56.889-109.325 64.833-33.282-7.944-75.493-31.153-109.325-64.833-33.832-33.679-58.175-76.724-58.175-121.902 0-45.15 25.207-82.161 59.471-102.065 34.264-19.904 76.475-21.597 108.029 1.453M20267.5 34.627c31.893-22.442 74.114-20.332 108.303-.13 34.189 20.202 59.197 57.354 59.197 102.477 0 45.151-24.167 88.179-57.935 121.793-33.768 33.614-75.99 56.675-109.565 64.409-33.575-7.734-75.797-30.795-109.565-64.409-33.768-33.614-57.935-76.642-57.935-121.793 0-45.123 25.008-82.275 59.197-102.477 34.189-20.202 76.41-22.312 108.303.13M20602.5 33.704c32.227-21.844 74.459-19.322 108.573 1.174 34.115 20.495 58.927 57.787 58.927 102.884 0 45.124-23.993 88.134-57.699 121.684-33.704 33.551-75.937 56.464-109.801 63.992-33.864-7.528-76.097-30.441-109.801-63.992-33.706-33.55-57.699-76.56-57.699-121.684 0-45.097 24.812-82.389 58.927-102.884 34.114-20.496 76.346-23.018 108.573-1.174M20937.5 32.794c32.555-21.254 74.799-18.326 108.839 2.459 34.042 20.784 58.661 58.213 58.661 103.285 0 45.097-23.823 88.09-57.465 121.577-33.643 33.487-75.886 56.257-110.035 63.581-34.149-7.324-76.392-30.094-110.035-63.581-33.642-33.487-57.465-76.48-57.465-121.577 0-45.072 24.619-82.501 58.661-103.285 34.04-20.785 76.284-23.713 108.839-2.459M21272.5 31.9c32.879-20.675 75.132-17.348 109.101 3.721C21415.57 56.69 21440 94.254 21440 139.3c0 45.071-23.654 88.047-57.236 121.473-33.581 33.425-75.835 56.052-110.264 63.177-34.429-7.125-76.683-29.752-110.264-63.177-33.582-33.426-57.236-76.402-57.236-121.473 0-45.046 24.43-82.61 58.399-103.679 33.969-21.069 76.222-24.396 109.101-3.721M21607.5 31.022c33.196-20.106 75.46-16.387 109.358 4.961 33.899 21.348 58.142 59.044 58.142 104.065 0 45.046-23.49 88.006-57.011 121.37-33.522 33.365-75.786 55.852-110.489 62.781-34.703-6.929-76.967-29.416-110.489-62.781-33.521-33.364-57.011-76.324-57.011-121.37 0-45.021 24.243-82.717 58.142-104.065 33.898-21.348 76.162-25.067 109.358-4.961M21942.5 30.162c33.507-19.549 75.781-15.446 109.61 6.175 33.829 21.622 57.89 59.448 57.89 104.445 0 45.021-23.328 87.964-56.791 121.269-33.462 33.305-75.737 55.655-110.709 62.392-34.972-6.737-77.247-29.087-110.709-62.392-33.463-33.305-56.791-76.248-56.791-121.269 0-44.997 24.061-82.823 57.89-104.445 33.829-21.621 76.103-25.724 109.61-6.175M22277.5 29.319c33.811-19.002 76.096-14.524 109.857 7.366 33.761 21.889 57.643 59.843 57.643 104.816 0 44.996-23.169 87.924-56.575 121.17-33.404 33.246-75.689 55.463-110.925 62.011-35.236-6.548-77.521-28.765-110.925-62.011-33.406-33.246-56.575-76.174-56.575-121.17 0-44.973 23.882-82.927 57.643-104.816 33.761-21.89 76.046-26.368 109.857-7.366M22612.5 28.494c34.109-18.467 76.404-13.622 110.098 8.53 33.695 22.152 57.402 60.23 57.402 105.18 0 44.972-23.014 87.884-56.363 121.073-33.349 33.189-75.643 55.275-111.137 61.639-35.494-6.364-77.788-28.45-111.137-61.639-33.349-33.189-56.363-76.101-56.363-121.073 0-44.95 23.707-83.028 57.402-105.18 33.694-22.152 75.989-26.997 110.098-8.53M22947.5 27.689c34.4-17.946 76.705-12.741 110.334 9.668 33.63 22.408 57.166 60.607 57.166 105.534 0 44.948-22.863 87.846-56.157 120.979-33.293 33.133-75.597 55.09-111.343 61.275-35.746-6.185-78.05-28.142-111.343-61.275-33.294-33.133-56.157-76.031-56.157-120.979 0-44.927 23.536-83.126 57.166-105.534 33.629-22.409 75.934-27.614 110.334-9.668M23282.5 26.901c34.685-17.435 76.998-11.879 110.565 10.78 33.566 22.658 56.935 60.977 56.935 105.881 0 44.925-22.715 87.808-55.955 120.887-33.24 33.078-75.553 54.911-111.545 60.919-35.992-6.008-78.305-27.841-111.545-60.919-33.24-33.079-55.955-75.962-55.955-120.887 0-44.904 23.369-83.223 56.935-105.881 33.567-22.659 75.88-28.215 110.565-10.78M23617.5 26.133c34.963-16.937 77.285-11.038 110.789 11.865C23761.794 60.9 23785 99.335 23785 144.217c0 44.903-22.571 87.772-55.758 120.797-33.187 33.025-75.51 54.735-111.742 60.572-36.232-5.837-78.555-27.547-111.742-60.572-33.187-33.025-55.758-75.894-55.758-120.797 0-44.882 23.206-83.317 56.711-106.219 33.504-22.903 75.826-28.802 110.789-11.865M23952.5 25.384c35.233-16.452 77.565-10.219 111.009 12.922 33.445 23.142 56.491 61.689 56.491 106.55 0 44.882-22.43 87.736-55.566 120.709s-75.467 54.564-111.934 60.234c-36.467-5.67-78.798-27.261-111.934-60.234-33.136-32.973-55.566-75.827-55.566-120.709 0-44.861 23.046-83.408 56.491-106.55 33.444-23.141 75.776-29.374 111.009-12.922M24287.5 24.653c35.498-15.978 77.838-9.419 111.223 13.955 33.386 23.373 56.277 62.031 56.277 106.872 0 44.859-22.292 87.7-55.379 120.623-33.085 32.922-75.425 54.397-112.121 59.903-36.696-5.506-79.036-26.981-112.121-59.903-33.087-32.923-55.379-75.764-55.379-120.623 0-44.841 22.891-83.499 56.277-106.872 33.385-23.374 75.725-29.933 111.223-13.955M24622.5 23.94c35.755-15.516 78.104-8.639 111.431 14.961 33.329 23.6 56.069 62.366 56.069 107.186 0 44.839-22.158 87.666-55.196 120.54-33.037 32.873-75.386 54.234-112.304 59.581-36.918-5.347-79.267-26.708-112.304-59.581-33.038-32.874-55.196-75.701-55.196-120.54 0-44.82 22.74-83.586 56.069-107.186 33.327-23.6 75.676-30.477 111.431-14.961M24957.5 23.246c36.006-15.066 78.363-7.88 111.635 15.941 33.272 23.821 55.865 62.691 55.865 107.492 0 44.819-22.028 87.633-55.018 120.458s-75.346 54.076-112.482 59.268c-37.136-5.192-79.492-26.443-112.482-59.268-32.99-32.825-55.018-75.639-55.018-120.458 0-44.801 22.593-83.671 55.865-107.492 33.272-23.821 75.629-31.007 111.635-15.941M25292.5 22.569c36.25-14.627 78.615-7.139 111.833 16.897 33.218 24.036 55.667 63.008 55.667 107.79 0 44.799-21.901 87.601-54.845 120.379-32.943 32.778-75.308 53.921-112.655 58.962-37.347-5.041-79.712-26.184-112.655-58.962-32.944-32.778-54.845-75.58-54.845-120.379 0-44.782 22.449-83.754 55.667-107.79s75.583-31.524 111.833-16.897M25627.5 21.911c36.489-14.201 78.861-6.419 112.026 17.827 33.165 24.245 55.474 63.317 55.474 108.08 0 44.78-21.777 87.569-54.676 120.301-32.898 32.733-75.271 53.771-112.824 58.665-37.553-4.894-79.926-25.932-112.824-58.665-32.899-32.732-54.676-75.521-54.676-120.301 0-44.763 22.309-83.835 55.474-108.08 33.165-24.246 75.537-32.028 112.026-17.827M25962.5 21.269c36.72-13.785 79.101-5.717 112.213 18.733 33.114 24.45 55.287 63.618 55.287 108.363 0 44.761-21.656 87.538-54.511 120.226-32.855 32.688-75.235 53.624-112.989 58.375-37.754-4.751-80.134-25.687-112.989-58.375-32.855-32.688-54.511-75.465-54.511-120.226 0-44.745 22.173-83.913 55.287-108.363 33.112-24.45 75.493-32.518 112.213-18.733M26297.5 20.644c36.946-13.38 79.334-5.033 112.396 19.615 33.063 24.649 55.104 63.911 55.104 108.638 0 44.743-21.539 87.509-54.351 120.153-32.812 32.645-75.2 53.482-113.149 58.093-37.949-4.611-80.337-25.448-113.149-58.093-32.812-32.644-54.351-75.41-54.351-120.153 0-44.727 22.041-83.989 55.104-108.638 33.062-24.648 75.45-32.995 112.396-19.615M26632.5 20.036c37.166-12.986 79.561-4.368 112.574 20.474 33.014 24.842 54.926 64.196 54.926 108.906 0 44.725-21.425 87.479-54.195 120.082-32.77 32.602-75.165 53.343-113.305 57.818-38.14-4.475-80.535-25.216-113.305-57.818-32.77-32.603-54.195-75.357-54.195-120.082 0-44.71 21.912-84.064 54.926-108.906 33.013-24.842 75.408-33.46 112.574-20.474M26967.5 19.444c37.38-12.602 79.782-3.72 112.748 21.31 32.966 25.03 54.752 64.474 54.752 109.167 0 44.708-21.313 87.451-54.044 120.012-32.729 32.562-75.131 53.208-113.456 57.551-38.325-4.343-80.727-24.989-113.456-57.551-32.731-32.561-54.044-75.304-54.044-120.012 0-44.693 21.786-84.137 54.752-109.167s75.368-33.912 112.748-21.31M27302.5 18.868c37.588-12.229 79.997-3.09 112.917 22.124 32.92 25.213 54.583 64.744 54.583 109.42 0 44.692-21.205 87.424-53.896 119.945-32.69 32.522-75.099 53.076-113.604 57.29-38.505-4.214-80.914-24.768-113.604-57.29-32.691-32.521-53.896-75.253-53.896-119.945 0-44.676 21.663-84.207 54.583-109.42 32.92-25.214 75.329-34.353 112.917-22.124M27637.5 18.306c37.791-11.864 80.207-2.475 113.081 22.917 32.875 25.392 54.419 65.007 54.419 109.668 0 44.675-21.1 87.396-53.752 119.879-32.652 32.483-75.067 52.948-113.748 57.037-38.681-4.089-81.096-24.554-113.748-57.037-32.652-32.483-53.752-75.204-53.752-119.879 0-44.661 21.544-84.276 54.419-109.668 32.874-25.392 75.29-34.781 113.081-22.917M27972.5 17.76c37.989-11.511 80.411-1.877 113.241 23.688 32.831 25.566 54.259 65.263 54.259 109.909 0 44.659-20.997 87.37-53.612 119.815-32.614 32.444-75.036 52.823-113.888 56.79-38.852-3.967-81.274-24.346-113.888-56.79-32.615-32.445-53.612-75.156-53.612-119.815 0-44.646 21.428-84.343 54.259-109.909 32.83-25.565 75.252-35.199 113.241-23.688M28307.5 17.228c38.181-11.166 80.609-1.295 113.396 24.439 32.788 25.735 54.104 65.513 54.104 110.143 0 44.644-20.897 87.345-53.476 119.753-32.578 32.408-75.006 52.701-114.024 56.549-39.018-3.848-81.446-24.141-114.024-56.549-32.579-32.408-53.476-75.109-53.476-119.753 0-44.63 21.316-84.408 54.104-110.143 32.787-25.734 75.215-35.605 113.396-24.439M28642.5 16.71c38.368-10.83 80.802-.729 113.548 25.171 32.746 25.899 53.952 65.755 53.952 110.371 0 44.628-20.8 87.32-53.343 119.692-32.543 32.372-74.977 52.583-114.157 56.315-39.18-3.732-81.614-23.943-114.157-56.315-32.543-32.372-53.343-75.064-53.343-119.692 0-44.616 21.206-84.472 53.952-110.371 32.746-25.9 75.18-36.001 113.548-25.171M28977.5 16.206c38.55-10.503 80.991-.177 113.696 25.882 32.705 26.06 53.804 65.992 53.804 110.594 0 44.614-20.705 87.296-53.214 119.632-32.508 32.337-74.948 52.469-114.286 56.088-39.338-3.619-81.778-23.751-114.286-56.088-32.509-32.336-53.214-75.018-53.214-119.632 0-44.602 21.099-84.534 53.804-110.594 32.705-26.059 75.146-36.385 113.696-25.882M29312.5 15.715c38.728-10.185 81.174.36 113.839 26.576 32.667 26.215 53.661 66.222 53.661 110.809 0 44.6-20.613 87.273-53.088 119.575-32.475 32.303-74.921 52.356-114.412 55.867-39.491-3.511-81.937-23.564-114.412-55.867C29165.613 240.373 29145 197.7 29145 153.1c0-44.587 20.994-84.594 53.661-110.809 32.665-26.216 75.111-36.761 113.839-26.576M29647.5 15.238c38.9-9.876 81.352.882 113.979 27.25 32.628 26.367 53.521 66.446 53.521 111.02 0 44.585-20.523 87.249-52.966 119.519-32.441 32.27-74.893 52.247-114.534 55.65-39.641-3.403-82.093-23.38-114.534-55.65-32.443-32.27-52.966-74.934-52.966-119.519 0-44.574 20.893-84.653 53.521-111.02 32.627-26.368 75.079-37.126 113.979-27.25M29982.5 14.772c39.068-9.574 81.526 1.392 114.115 27.907 32.591 26.516 53.385 66.665 53.385 111.225 0 44.572-20.435 87.228-52.846 119.465-32.41 32.237-74.868 52.141-114.654 55.44-39.786-3.299-82.244-23.203-114.654-55.44-32.411-32.237-52.846-74.893-52.846-119.465 0-44.56 20.794-84.709 53.385-111.225 32.589-26.515 75.047-37.481 114.115-27.907M30317.5 14.319c39.232-9.28 81.695 1.887 114.248 28.547 32.554 26.66 53.252 66.877 53.252 111.425 0 44.559-20.35 87.205-52.73 119.411-32.379 32.206-74.842 52.037-114.77 55.236-39.928-3.199-82.391-23.03-114.77-55.236-32.38-32.206-52.73-74.852-52.73-119.411 0-44.548 20.698-84.765 53.252-111.425 32.553-26.66 75.016-37.827 114.248-28.547M30652.5 13.878c39.392-8.995 81.86 2.37 114.377 29.17 32.519 26.8 53.123 67.083 53.123 111.619 0 44.546-20.267 87.184-52.617 119.36-32.349 32.175-74.817 51.936-114.883 55.036-40.066-3.1-82.534-22.861-114.883-55.036-32.35-32.176-52.617-74.814-52.617-119.36 0-44.536 20.604-84.819 53.123-111.619 32.517-26.8 74.985-38.165 114.377-29.17M30987.5 13.448c39.547-8.716 82.02 2.84 114.503 29.777 32.484 26.936 52.997 67.285 52.997 111.808 0 44.534-20.187 87.164-52.507 119.31-32.32 32.145-74.793 51.838-114.993 54.842-40.2-3.004-82.673-22.697-114.993-54.842-32.32-32.146-52.507-74.776-52.507-119.31 0-44.523 20.513-84.872 52.997-111.808 32.483-26.937 74.956-38.493 114.503-29.777M31322.5 13.03c39.698-8.445 82.176 3.298 114.625 30.367 32.45 27.07 52.875 67.481 52.875 111.993 0 44.521-20.108 87.144-52.4 119.26-32.291 32.117-74.769 51.743-115.1 54.653-40.331-2.91-82.809-22.536-115.1-54.653-32.292-32.116-52.4-74.739-52.4-119.26 0-44.512 20.425-84.923 52.875-111.993 32.449-27.069 74.927-38.812 114.625-30.367M31657.5 12.623c39.845-8.181 82.328 3.743 114.745 30.942S31825 111.237 31825 155.737c0 44.51-20.031 87.125-52.295 119.213-32.263 32.088-74.746 51.65-115.205 54.469-40.459-2.819-82.942-22.381-115.205-54.469-32.264-32.088-52.295-74.703-52.295-119.213 0-44.5 20.338-84.973 52.755-112.172 32.417-27.199 74.9-39.123 114.745-30.942M31992.5 12.226c39.989-7.924 82.476 4.177 114.861 31.503 32.385 27.325 52.639 67.858 52.639 112.347 0 44.498-19.957 87.105-52.194 119.166-32.236 32.061-74.723 51.559-115.306 54.29-40.583-2.731-83.07-22.229-115.306-54.29-32.237-32.061-52.194-74.668-52.194-119.166 0-44.489 20.254-85.022 52.639-112.347 32.385-27.326 74.872-39.427 114.861-31.503M32327.5 11.839c40.128-7.673 82.621 4.601 114.974 32.049 32.354 27.448 52.526 68.04 52.526 112.517 0 44.487-19.884 87.087-52.095 119.121-32.209 32.034-74.701 51.471-115.405 54.115-40.704-2.644-83.196-22.081-115.405-54.115-32.211-32.034-52.095-74.634-52.095-119.121 0-44.477 20.172-85.069 52.526-112.517 32.353-27.448 74.846-39.722 114.974-32.049M32662.5 11.463c40.264-7.429 82.761 5.012 115.084 32.58 32.324 27.568 52.416 68.216 52.416 112.683 0 44.476-19.813 87.069-51.998 119.077-32.184 32.008-74.681 51.385-115.502 53.945-40.821-2.56-83.318-21.937-115.502-53.945-32.185-32.008-51.998-74.601-51.998-119.077 0-44.467 20.092-85.115 52.416-112.683 32.323-27.568 74.82-40.009 115.084-32.58M32997.5 11.096c40.397-7.191 82.898 5.414 115.192 33.098 32.294 27.685 52.308 68.388 52.308 112.845 0 44.465-19.744 87.051-51.904 119.034-32.159 31.982-74.66 51.301-115.596 53.779-40.936-2.478-83.437-21.797-115.596-53.779-32.16-31.983-51.904-74.569-51.904-119.034 0-44.457 20.014-85.16 52.308-112.845 32.294-27.684 74.795-40.289 115.192-33.098M33332.5 10.739c40.526-6.96 83.031 5.804 115.296 33.602 32.266 27.799 52.204 68.556 52.204 113.002 0 44.455-19.677 87.035-51.812 118.992-32.135 31.958-74.64 51.22-115.688 53.618-41.048-2.398-83.553-21.66-115.688-53.618-32.135-31.957-51.812-74.537-51.812-118.992 0-44.446 19.938-85.203 52.204-113.002 32.265-27.798 74.77-40.562 115.296-33.602M33667.5 10.391c40.652-6.735 83.161 6.185 115.398 34.094 32.238 27.909 52.102 68.718 52.102 113.155 0 44.445-19.612 87.018-51.723 118.951-32.111 31.934-74.62 51.14-115.777 53.461-41.157-2.321-83.666-21.527-115.777-53.461-32.111-31.933-51.723-74.506-51.723-118.951 0-44.437 19.864-85.246 52.102-113.155 32.237-27.909 74.746-40.829 115.398-34.094M34002.5 10.052c40.774-6.515 83.288 6.556 115.497 34.573 32.211 28.016 52.003 68.877 52.003 113.304 0 44.435-19.548 87.001-51.636 118.911-32.088 31.91-74.601 51.063-115.864 53.308-41.263-2.245-83.776-21.398-115.864-53.308-32.088-31.91-51.636-74.476-51.636-118.911 0-44.427 19.792-85.288 52.003-113.304 32.209-28.017 74.723-41.088 115.497-34.573M34337.5 9.722c40.894-6.301 83.411 6.917 115.594 35.039 32.184 28.121 51.906 69.032 51.906 113.449 0 44.426-19.486 86.986-51.552 118.873-32.065 31.887-74.582 50.987-115.948 53.159-41.366-2.172-83.883-21.272-115.948-53.159-32.066-31.887-51.552-74.447-51.552-118.873 0-44.417 19.722-85.328 51.906-113.449 32.183-28.122 74.7-41.34 115.594-35.039M34672.5 9.4c41.01-6.092 83.531 7.269 115.688 35.493 32.158 28.224 51.812 69.183 51.812 113.592 0 44.415-19.426 86.97-51.469 118.835-32.043 31.865-74.564 50.914-116.031 53.013-41.467-2.099-83.988-21.148-116.031-53.013-32.043-31.865-51.469-74.42-51.469-118.835 0-44.409 19.654-85.368 51.812-113.592 32.157-28.224 74.678-41.585 115.688-35.493M35007.5 9.087c41.123-5.889 83.648 7.612 115.78 35.935 32.132 28.324 51.72 69.33 51.72 113.73 0 44.406-19.367 86.955-51.389 118.798-32.021 31.843-74.547 50.842-116.111 52.872-41.564-2.03-84.09-21.029-116.111-52.872-32.022-31.843-51.389-74.392-51.389-118.798 0-44.4 19.588-85.406 51.72-113.73 32.132-28.323 74.657-41.824 115.78-35.935M35342.5 8.782c41.233-5.692 83.762 7.946 115.869 36.366 32.108 28.42 51.631 69.473 51.631 113.864 0 44.398-19.31 86.94-51.311 118.762-32 31.822-74.529 50.773-116.189 52.735-41.66-1.962-84.189-20.913-116.189-52.735-32.001-31.822-51.311-74.364-51.311-118.762 0-44.391 19.523-85.444 51.631-113.864 32.107-28.42 74.636-42.058 115.869-36.366M35677.5 8.485c41.341-5.499 83.873 8.271 115.956 36.785 32.084 28.515 51.544 69.613 51.544 113.995 0 44.389-19.254 86.927-51.235 118.728-31.98 31.801-74.512 50.705-116.265 52.6-41.753-1.895-84.285-20.799-116.265-52.6-31.981-31.801-51.235-74.339-51.235-118.728 0-44.382 19.46-85.48 51.544-113.995 32.083-28.514 74.615-42.284 115.956-36.785M36012.5 8.195c41.445-5.311 83.981 8.588 116.041 37.195 32.061 28.607 51.459 69.748 51.459 114.122 0 44.381-19.199 86.913-51.161 118.694-31.96 31.781-74.496 50.639-116.339 52.469-41.843-1.83-84.379-20.688-116.339-52.469-31.962-31.781-51.161-74.313-51.161-118.694 0-44.374 19.398-85.515 51.459-114.122 32.06-28.607 74.596-42.506 116.041-37.195M36347.5 7.913c41.547-5.128 84.086 8.896 116.123 37.593 32.038 28.697 51.377 69.88 51.377 114.247 0 44.372-19.146 86.899-51.088 118.66-31.941 31.762-74.48 50.575-116.412 52.342-41.932-1.767-84.471-20.58-116.412-52.342-31.942-31.761-51.088-74.288-51.088-118.66 0-44.367 19.339-85.55 51.377-114.247 32.037-28.697 74.576-42.721 116.123-37.593M36682.5 7.639c41.646-4.951 84.189 9.196 116.204 37.98 32.016 28.784 51.296 70.009 51.296 114.368 0 44.364-19.095 86.886-51.018 118.628-31.922 31.743-74.464 50.512-116.482 52.218-42.018-1.706-84.56-20.475-116.482-52.218-31.923-31.742-51.018-74.264-51.018-118.628 0-44.359 19.28-85.584 51.296-114.368 32.015-28.784 74.558-42.931 116.204-37.98M37017.5 7.371c41.743-4.777 84.289 9.489 116.282 38.358 31.995 28.869 51.218 70.135 51.218 114.486 0 44.357-19.044 86.873-50.949 118.597-31.904 31.724-74.45 50.45-116.551 52.097-42.101-1.647-84.647-20.373-116.551-52.097-31.905-31.724-50.949-74.24-50.949-118.597 0-44.351 19.223-85.617 51.218-114.486 31.993-28.869 74.539-43.135 116.282-38.358M37352.5 7.111c41.837-4.609 84.386 9.774 116.358 38.726 31.974 28.952 51.142 70.257 51.142 114.6 0 44.349-18.995 86.861-50.882 118.567-31.887 31.706-74.435 50.391-116.618 51.979-42.183-1.588-84.731-20.273-116.618-51.979S37185 204.786 37185 160.437c0-44.343 19.168-85.648 51.142-114.6 31.972-28.952 74.521-43.335 116.358-38.726M37687.5 6.857c41.929-4.444 84.481 10.052 116.433 39.084 31.953 29.033 51.067 70.376 51.067 114.712 0 44.342-18.948 86.849-50.817 118.537-31.869 31.689-74.421 50.333-116.683 51.865-42.262-1.532-84.814-20.176-116.683-51.865-31.869-31.688-50.817-74.195-50.817-118.537 0-44.336 19.114-85.679 51.067-114.712 31.952-29.032 74.504-43.528 116.433-39.084M38022.5 6.61c42.018-4.284 84.573 10.322 116.505 39.433 31.933 29.111 50.995 70.492 50.995 114.821 0 44.335-18.901 86.837-50.754 118.508-31.852 31.671-74.407 50.276-116.746 51.753-42.339-1.477-84.894-20.082-116.746-51.753-31.853-31.671-50.754-74.173-50.754-118.508 0-44.329 19.062-85.71 50.995-114.821 31.932-29.111 74.487-43.717 116.505-39.433M38357.5 6.369c42.105-4.128 84.663 10.586 116.575 39.773 31.914 29.188 50.925 70.605 50.925 114.927 0 44.328-18.856 86.825-50.693 118.48-31.835 31.655-74.392 50.221-116.807 51.644-42.415-1.423-84.972-19.989-116.807-51.644-31.837-31.655-50.693-74.152-50.693-118.48 0-44.322 19.011-85.739 50.925-114.927 31.912-29.187 74.47-43.901 116.575-39.773M38692.5 6.135c42.19-3.976 84.75 10.842 116.644 40.104 31.895 29.262 50.856 70.714 50.856 115.03 0 44.321-18.812 86.814-50.632 118.452-31.82 31.639-74.38 50.168-116.868 51.538-42.488-1.37-85.048-19.899-116.868-51.538-31.82-31.638-50.632-74.131-50.632-118.452 0-44.316 18.961-85.768 50.856-115.03 31.894-29.262 74.454-44.08 116.644-40.104M39027.5 5.907c42.272-3.828 84.835 11.091 116.711 40.426 31.876 29.334 50.789 70.821 50.789 115.13 0 44.314-18.769 86.803-50.574 118.426-31.804 31.622-74.367 50.116-116.926 51.435-42.559-1.319-85.122-19.813-116.926-51.435-31.805-31.623-50.574-74.112-50.574-118.426 0-44.309 18.913-85.796 50.789-115.13 31.876-29.335 74.439-44.254 116.711-40.426M39362.5 5.685c42.352-3.684 84.918 11.334 116.776 40.739 31.858 29.405 50.724 70.925 50.724 115.228 0 44.308-18.728 86.793-50.517 118.4s-74.354 50.065-116.983 51.335c-42.629-1.27-85.194-19.728-116.983-51.335S39195 205.96 39195 161.652c0-44.303 18.866-85.823 50.724-115.228 31.858-29.405 74.424-44.423 116.776-40.739M39697.5 5.469c42.43-3.544 84.998 11.57 116.839 41.044 31.841 29.474 50.661 71.027 50.661 115.324 0 44.301-18.687 86.781-50.462 118.374-31.774 31.592-74.342 50.016-117.038 51.237-42.696-1.221-85.264-19.645-117.038-51.237-31.775-31.593-50.462-74.073-50.462-118.374 0-44.297 18.82-85.85 50.661-115.324 31.841-29.474 74.409-44.588 116.839-41.044M40032.5 5.259c42.506-3.408 85.077 11.8 116.9 41.341 31.825 29.54 50.6 71.125 50.6 115.416 0 44.295-18.647 86.772-50.408 118.349-31.76 31.578-74.33 49.968-117.092 51.143-42.762-1.175-85.332-19.565-117.092-51.143-31.761-31.577-50.408-74.054-50.408-118.349 0-44.291 18.775-85.876 50.6-115.416 31.823-29.541 74.394-44.749 116.9-41.341M40367.5 5.055c42.58-3.276 85.153 12.023 116.96 41.629 31.808 29.606 50.54 71.221 50.54 115.506 0 44.289-18.609 86.762-50.356 118.326-31.745 31.563-74.318 49.921-117.144 51.05-42.826-1.129-85.399-19.487-117.144-51.05-31.747-31.564-50.356-74.037-50.356-118.326 0-44.285 18.732-85.9 50.54-115.506 31.807-29.606 74.38-44.905 116.96-41.629M40702.5 4.856c42.652-3.147 85.228 12.241 117.019 41.91C40851.31 76.435 40870 118.08 40870 162.36c0 44.283-18.572 86.752-50.305 118.302-31.732 31.55-74.307 49.876-117.195 50.96-42.888-1.084-85.463-19.41-117.195-50.96-31.733-31.55-50.305-74.019-50.305-118.302 0-44.28 18.69-85.925 50.481-115.594 31.791-29.669 74.367-45.057 117.019-41.91M41037.5 4.662c42.722-3.022 85.3 12.453 117.075 42.184 31.777 29.73 50.425 71.405 50.425 115.679 0 44.278-18.535 86.743-50.255 118.279-31.719 31.537-74.296 49.832-117.245 50.873-42.949-1.041-85.526-19.336-117.245-50.873-31.72-31.536-50.255-74.001-50.255-118.279 0-44.274 18.648-85.949 50.425-115.679 31.775-29.731 74.353-45.206 117.075-42.184M41372.5 4.474c42.79-2.9 85.37 12.659 117.13 42.449 31.761 29.791 50.37 71.494 50.37 115.762 0 44.273-18.5 86.735-50.207 118.258-31.706 31.523-74.285 49.789-117.293 50.788-43.008-.999-85.587-19.265-117.293-50.788-31.707-31.523-50.207-73.985-50.207-118.258 0-44.268 18.609-85.971 50.37-115.762 31.76-29.79 74.34-45.349 117.13-42.449M41707.5 4.291c42.856-2.781 85.438 12.859 117.184 42.708 31.746 29.848 50.316 71.579 50.316 115.842 0 44.267-18.465 86.726-50.16 118.236-31.693 31.511-74.275 49.747-117.34 50.706-43.065-.959-85.647-19.195-117.34-50.706-31.695-31.51-50.16-73.969-50.16-118.236 0-44.263 18.57-85.994 50.316-115.842 31.746-29.849 74.328-45.489 117.184-42.708M42042.5 4.113c42.921-2.666 85.505 13.054 117.236 42.959 31.732 29.905 50.264 71.663 50.264 115.921 0 44.262-18.432 86.717-50.114 118.215-31.681 31.498-74.266 49.707-117.386 50.625-43.12-.918-85.705-19.127-117.386-50.625-31.682-31.498-50.114-73.953-50.114-118.215 0-44.258 18.532-86.016 50.264-115.921 31.731-29.905 74.315-45.625 117.236-42.959M42377.5 3.94c42.983-2.554 85.569 13.243 117.287 43.203 31.718 29.96 50.213 71.744 50.213 115.998 0 44.256-18.399 86.708-50.07 118.194-31.669 31.487-74.255 49.667-117.43 50.547-43.175-.88-85.761-19.06-117.43-50.547-31.671-31.486-50.07-73.938-50.07-118.194 0-44.254 18.495-86.038 50.213-115.998 31.718-29.96 74.304-45.757 117.287-43.203M42712.5 3.772c43.044-2.445 85.632 13.427 117.336 43.441 31.704 30.013 50.164 71.822 50.164 116.071 0 44.252-18.368 86.7-50.027 118.175-31.658 31.475-74.246 49.628-117.473 50.471-43.227-.843-85.815-18.996-117.473-50.471-31.659-31.475-50.027-73.923-50.027-118.175 0-44.249 18.46-86.058 50.164-116.071 31.704-30.014 74.292-45.886 117.336-43.441M43047.5 3.609c43.103-2.339 85.693 13.605 117.384 43.671 31.691 30.065 50.116 71.899 50.116 116.143 0 44.247-18.337 86.693-49.985 118.156-31.647 31.463-74.237 49.591-117.515 50.397-43.278-.806-85.868-18.934-117.515-50.397-31.648-31.463-49.985-73.909-49.985-118.156 0-44.244 18.425-86.078 50.116-116.143 31.691-30.066 74.281-46.01 117.384-43.671M43382.5 3.45c43.16-2.236 85.752 13.779 117.43 43.895 31.679 30.116 50.07 71.973 50.07 116.213 0 44.243-18.307 86.685-49.944 118.138-31.636 31.452-74.228 49.555-117.556 50.325-43.328-.77-85.92-18.873-117.556-50.325-31.637-31.453-49.944-73.895-49.944-118.138 0-44.24 18.391-86.097 50.07-116.213 31.678-30.116 74.27-46.131 117.43-43.895M43717.5 3.296c43.216-2.136 85.81 13.948 117.475 44.113 31.666 30.165 50.025 72.045 50.025 116.28 0 44.238-18.278 86.678-49.905 118.12-31.625 31.442-74.219 49.52-117.595 50.256-43.376-.736-85.97-18.814-117.595-50.256-31.627-31.442-49.905-73.882-49.905-118.12 0-44.235 18.359-86.115 50.025-116.28 31.665-30.165 74.259-46.249 117.475-44.113M44052.5 3.147c43.27-2.04 85.865 14.111 117.519 44.323 31.654 30.213 49.981 72.116 49.981 116.347 0 44.234-18.25 86.671-49.867 118.102-31.615 31.431-74.21 49.485-117.633 50.188-43.423-.703-86.018-18.757-117.633-50.188-31.617-31.431-49.867-73.868-49.867-118.102 0-44.231 18.327-86.134 49.981-116.347 31.654-30.212 74.249-46.363 117.519-44.323M44387.5 3.002c43.322-1.946 85.92 14.27 117.561 44.528 31.643 30.258 49.939 72.184 49.939 116.411 0 44.229-18.223 86.663-49.829 118.084-31.606 31.422-74.203 49.453-117.671 50.123-43.468-.67-86.065-18.701-117.671-50.123-31.606-31.421-49.829-73.855-49.829-118.084 0-44.227 18.296-86.153 49.939-116.411 31.641-30.258 74.239-46.474 117.561-44.528M44722.5 2.861c43.373-1.854 85.972 14.424 117.602 44.727 31.632 30.303 49.898 72.249 49.898 116.473 0 44.225-18.197 86.657-49.793 118.068s-74.195 49.42-117.707 50.059c-43.512-.639-86.111-18.648-117.707-50.059-31.596-31.411-49.793-73.843-49.793-118.068 0-44.224 18.266-86.17 49.898-116.473 31.63-30.303 74.229-46.581 117.602-44.727M45057.5 2.725c43.422-1.766 86.023 14.573 117.642 44.919 31.621 30.347 49.858 72.314 49.858 116.533 0 44.221-18.171 86.65-49.758 118.052-31.587 31.402-74.187 49.389-117.742 49.998-43.555-.609-86.155-18.596-117.742-49.998-31.587-31.402-49.758-73.831-49.758-118.052 0-44.219 18.237-86.186 49.858-116.533 31.619-30.346 74.22-46.685 117.642-44.919M45392.5 2.592c43.47-1.68 86.072 14.718 117.681 45.107 31.61 30.388 49.819 72.375 49.819 116.591 0 44.217-18.146 86.644-49.724 118.037-31.578 31.392-74.18 49.359-117.776 49.938-43.596-.579-86.198-18.546-117.776-49.938-31.578-31.393-49.724-73.82-49.724-118.037 0-44.216 18.209-86.203 49.819-116.591 31.609-30.389 74.211-46.787 117.681-45.107M45727.5 2.464c43.516-1.597 86.12 14.858 117.719 45.288 31.599 30.429 49.781 72.435 49.781 116.647 0 44.214-18.122 86.638-49.692 118.022-31.568 31.384-74.172 49.33-117.808 49.88-43.636-.55-86.24-18.496-117.808-49.88-31.57-31.384-49.692-73.808-49.692-118.022 0-44.212 18.182-86.218 49.781-116.647 31.599-30.43 74.203-46.885 117.719-45.288M46062.5 2.34c43.561-1.517 86.167 14.994 117.755 45.463 31.589 30.469 49.745 72.493 49.745 116.702 0 44.21-18.099 86.632-49.66 118.007-31.56 31.375-74.165 49.301-117.84 49.824-43.675-.523-86.28-18.449-117.84-49.824-31.561-31.375-49.66-73.797-49.66-118.007 0-44.209 18.156-86.233 49.745-116.702 31.588-30.469 74.194-46.98 117.755-45.463M46397.5 2.22c43.605-1.439 86.211 15.125 117.79 45.632 31.58 30.507 49.71 72.55 49.71 116.755 0 44.207-18.076 86.626-49.629 117.993-31.552 31.367-74.158 49.274-117.871 49.77-43.713-.496-86.319-18.403-117.871-49.77-31.553-31.367-49.629-73.786-49.629-117.993 0-44.205 18.13-86.248 49.71-116.755 31.579-30.507 74.185-47.071 117.79-45.632M46732.5 2.104c43.647-1.364 86.255 15.252 117.824 45.796 31.571 30.544 49.676 72.605 49.676 116.806 0 44.204-18.054 86.621-49.599 117.98-31.544 31.359-74.152 49.247-117.901 49.717-43.749-.47-86.357-18.358-117.901-49.717-31.545-31.359-49.599-73.776-49.599-117.98 0-44.201 18.105-86.262 49.676-116.806 31.569-30.544 74.177-47.16 117.824-45.796M47067.5 1.991c43.687-1.29 86.297 15.376 117.857 45.955 31.561 30.58 49.643 72.658 49.643 116.856 0 44.2-18.033 86.616-49.57 117.967-31.536 31.351-74.146 49.221-117.93 49.666-43.784-.445-86.394-18.315-117.93-49.666-31.537-31.351-49.57-73.767-49.57-117.967 0-44.198 18.082-86.276 49.643-116.856 31.56-30.579 74.17-47.245 117.857-45.955M47402.5 1.882c43.727-1.22 86.337 15.495 117.889 46.109 31.552 30.615 49.611 72.709 49.611 116.904 0 44.197-18.013 86.61-49.542 117.954-31.529 31.343-74.14 49.197-117.958 49.617-43.818-.42-86.429-18.274-117.958-49.617-31.529-31.344-49.542-73.757-49.542-117.954 0-44.195 18.059-86.289 49.611-116.904 31.552-30.614 74.162-47.329 117.889-46.109M47737.5 1.777c43.765-1.152 86.377 15.61 117.92 46.258 31.544 30.647 49.58 72.757 49.58 116.95s-17.993 86.605-49.516 117.941c-31.521 31.336-74.133 49.173-117.984 49.57-43.851-.397-86.463-18.234-117.984-49.57-31.523-31.336-49.516-73.748-49.516-117.941s18.036-86.303 49.58-116.95c31.543-30.648 74.155-47.41 117.92-46.258M48072.5 1.676c43.801-1.086 86.414 15.72 117.949 46.4 31.536 30.68 49.551 72.806 49.551 116.995 0 44.191-17.974 86.6-49.49 117.93-31.514 31.329-74.127 49.149-118.01 49.524-43.883-.375-86.496-18.195-118.01-49.524-31.516-31.33-49.49-73.739-49.49-117.93 0-44.189 18.015-86.315 49.551-116.995 31.535-30.68 74.148-47.486 117.949-46.4M48407.5 1.578c43.837-1.023 86.451 15.828 117.978 46.539 31.528 30.711 49.522 72.851 49.522 117.038 0 44.188-17.956 86.595-49.464 117.918-31.508 31.322-74.123 49.127-118.036 49.479-43.913-.352-86.528-18.157-118.036-49.479-31.508-31.323-49.464-73.73-49.464-117.918 0-44.187 17.994-86.327 49.522-117.038 31.527-30.711 74.141-47.562 117.978-46.539M48742.5 1.484c43.871-.962 86.486 15.93 118.006 46.672 31.52 30.741 49.494 72.895 49.494 117.079 0 44.185-17.938 86.591-49.44 117.907-31.502 31.316-74.117 49.106-118.06 49.437-43.943-.331-86.558-18.121-118.06-49.437-31.502-31.316-49.44-73.722-49.44-117.907 0-44.184 17.974-86.338 49.494-117.079 31.52-30.742 74.135-47.634 118.006-46.672M49077.5 1.393c43.904-.903 86.52 16.03 118.032 46.8 31.513 30.77 49.468 72.938 49.468 117.12s-17.921 86.586-49.417 117.896c-31.495 31.309-74.112 49.085-118.083 49.396-43.971-.311-86.588-18.087-118.083-49.396-31.496-31.31-49.417-73.714-49.417-117.896s17.955-86.35 49.468-117.12c31.512-30.77 74.128-47.703 118.032-46.8M49412.5 1.305c43.935-.846 86.553 16.126 118.058 46.924 31.506 30.798 49.442 72.979 49.442 117.158 0 44.18-17.904 86.583-49.394 117.886-31.49 31.304-74.107 49.065-118.106 49.357-43.999-.292-86.616-18.053-118.106-49.357-31.49-31.303-49.394-73.706-49.394-117.886 0-44.179 17.936-86.36 49.442-117.158 31.505-30.798 74.123-47.77 118.058-46.924M49747.5 1.221c43.966-.791 86.584 16.218 118.083 47.043 31.499 30.825 49.417 73.019 49.417 117.195 0 44.178-17.888 86.579-49.373 117.876-31.483 31.298-74.102 49.046-118.127 49.319-44.025-.273-86.644-18.021-118.127-49.319-31.485-31.297-49.373-73.698-49.373-117.876 0-44.176 17.918-86.37 49.417-117.195 31.499-30.825 74.117-47.834 118.083-47.043M50082.5 1.14c43.995-.739 86.615 16.307 118.106 47.157 31.493 30.851 49.394 73.057 49.394 117.231 0 44.176-17.873 86.575-49.352 117.867-31.478 31.292-74.097 49.027-118.148 49.282-44.051-.255-86.67-17.99-118.148-49.282-31.479-31.292-49.352-73.691-49.352-117.867 0-44.174 17.901-86.38 49.394-117.231 31.491-30.85 74.111-47.896 118.106-47.157M50417.5 1.062c44.023-.688 86.644 16.392 118.129 47.267 31.487 30.876 49.371 73.094 49.371 117.266 0 44.173-17.859 86.571-49.332 117.857-31.473 31.287-74.093 49.01-118.168 49.247-44.075-.237-86.695-17.96-118.168-49.247-31.473-31.286-49.332-73.684-49.332-117.857 0-44.172 17.884-86.39 49.371-117.266 31.485-30.875 74.106-47.955 118.129-47.267M50752.5.987c44.05-.64 86.672 16.474 118.151 47.373 31.481 30.899 49.349 73.128 49.349 117.298 0 44.171-17.845 86.568-49.313 117.849-31.467 31.282-74.089 48.993-118.187 49.213-44.098-.22-86.72-17.931-118.187-49.213-31.468-31.281-49.313-73.678-49.313-117.849 0-44.17 17.868-86.399 49.349-117.298C50665.828 17.461 50708.45.347 50752.5.987M51087.5.915c44.076-.593 86.698 16.553 118.172 47.475 31.475 30.922 49.328 73.161 49.328 117.329 0 44.169-17.831 86.564-49.295 117.841-31.462 31.276-74.084 48.976-118.205 49.18-44.121-.204-86.743-17.904-118.205-49.18-31.464-31.277-49.295-73.672-49.295-117.841 0-44.168 17.853-86.407 49.328-117.329 31.474-30.922 74.096-48.068 118.172-47.475M51422.5.847c44.101-.549 86.724 16.627 118.192 47.571 31.469 30.944 49.308 73.194 49.308 117.36 0 44.167-17.818 86.56-49.277 117.832-31.458 31.272-74.081 48.961-118.223 49.15-44.142-.189-86.765-17.878-118.223-49.15-31.459-31.272-49.277-73.665-49.277-117.832 0-44.166 17.839-86.416 49.308-117.36 31.468-30.944 74.091-48.12 118.192-47.571M51757.5.781c44.125-.506 86.748 16.699 118.211 47.664 31.464 30.964 49.289 73.225 49.289 117.389s-17.806 86.557-49.26 117.824c-31.454 31.267-74.077 48.946-118.24 49.12-44.163-.174-86.786-17.853-118.24-49.12-31.454-31.267-49.26-73.66-49.26-117.824s17.825-86.425 49.289-117.389c31.463-30.965 74.086-48.17 118.211-47.664M52092.5.719c44.147-.466 86.772 16.767 118.23 47.752 31.458 30.984 49.27 73.254 49.27 117.416 0 44.163-17.794 86.554-49.244 117.817-31.449 31.263-74.074 48.931-118.256 49.092-44.182-.161-86.807-17.829-118.256-49.092-31.45-31.263-49.244-73.654-49.244-117.817 0-44.162 17.812-86.432 49.27-117.416 31.458-30.985 74.083-48.218 118.23-47.752M52427.5.659c44.169-.427 86.794 16.833 118.247 47.836 31.454 31.004 49.253 73.282 49.253 117.443s-17.783 86.551-49.229 117.81c-31.445 31.259-74.07 48.918-118.271 49.065-44.201-.147-86.826-17.806-118.271-49.065-31.446-31.259-49.229-73.649-49.229-117.81s17.799-86.439 49.253-117.443c31.453-31.003 74.078-48.263 118.247-47.836M52762.5.602c44.189-.39 86.815 16.895 118.264 47.917 31.449 31.021 49.236 73.308 49.236 117.467 0 44.16-17.772 86.549-49.214 117.804-31.442 31.255-74.067 48.905-118.286 49.039-44.219-.134-86.844-17.784-118.286-49.039-31.442-31.255-49.214-73.644-49.214-117.804 0-44.159 17.787-86.446 49.236-117.467 31.449-31.022 74.075-48.307 118.264-47.917M53097.5.549c44.209-.356 86.835 16.953 118.279 47.992 31.446 31.039 49.221 73.334 49.221 117.491 0 44.158-17.762 86.547-49.201 117.798-31.437 31.251-74.064 48.892-118.299 49.014-44.235-.122-86.862-17.763-118.299-49.014-31.439-31.251-49.201-73.64-49.201-117.798 0-44.157 17.775-86.452 49.221-117.491 31.444-31.039 74.07-48.348 118.279-47.992M53432.5.497c44.227-.322 86.854 17.01 118.294 48.065 31.441 31.055 49.206 73.358 49.206 117.514 0 44.156-17.752 86.544-49.187 117.791-31.434 31.248-74.062 48.881-118.313 48.992-44.251-.111-86.879-17.744-118.313-48.992-31.435-31.247-49.187-73.635-49.187-117.791 0-44.156 17.765-86.459 49.206-117.514 31.44-31.055 74.067-48.387 118.294-48.065M53767.5.449c44.245-.291 86.872 17.063 118.309 48.133 31.437 31.07 49.191 73.38 49.191 117.535s-17.743 86.542-49.175 117.786c-31.431 31.244-74.058 48.869-118.325 48.97-44.267-.101-86.894-17.726-118.325-48.97-31.432-31.244-49.175-73.631-49.175-117.786s17.754-86.465 49.191-117.535c31.437-31.07 74.064-48.424 118.309-48.133M54102.5.403c44.261-.261 86.889 17.113 118.322 48.198 31.433 31.085 49.178 73.402 49.178 117.555 0 44.154-17.735 86.539-49.163 117.78-31.428 31.241-74.056 48.86-118.337 48.95-44.281-.09-86.909-17.709-118.337-48.95-31.428-31.241-49.163-73.626-49.163-117.78 0-44.153 17.745-86.47 49.178-117.555 31.433-31.085 74.061-48.459 118.322-48.198M54437.5.36c44.277-.233 86.906 17.16 118.335 48.259 31.43 31.098 49.165 73.422 49.165 117.574s-17.727 86.537-49.152 117.775-74.054 48.849-118.348 48.93c-44.294-.081-86.923-17.692-118.348-48.93-31.425-31.238-49.152-73.623-49.152-117.775s17.735-86.476 49.165-117.574C54350.594 17.52 54393.223.127 54437.5.36M54772.5.32c44.291-.207 86.921 17.204 118.346 48.315 31.427 31.112 49.154 73.441 49.154 117.592 0 44.152-17.719 86.536-49.142 117.771-31.422 31.235-74.051 48.84-118.358 48.911-44.307-.071-86.936-17.676-118.358-48.911-31.423-31.235-49.142-73.619-49.142-117.771 0-44.151 17.727-86.48 49.154-117.592C54685.579 17.524 54728.209.113 54772.5.32M55107.5.282c44.305-.183 86.935 17.245 118.357 48.369 31.424 31.123 49.143 73.459 49.143 117.609 0 44.15-17.712 86.533-49.132 117.766-31.42 31.232-74.049 48.831-118.368 48.894-44.319-.063-86.948-17.662-118.368-48.894-31.42-31.233-49.132-73.616-49.132-117.766 0-44.15 17.719-86.486 49.143-117.609 31.422-31.124 74.052-48.552 118.357-48.369M55442.5.247c44.318-.16 86.948 17.284 118.368 48.418C55592.289 79.8 55610 122.141 55610 166.29s-17.705 86.531-49.123 117.762c-31.417 31.23-74.047 48.823-118.377 48.878-44.33-.055-86.96-17.648-118.377-48.878-31.418-31.231-49.123-73.613-49.123-117.762s17.711-86.49 49.132-117.625c31.42-31.134 74.05-48.578 118.368-48.418M55777.5.214c44.33-.139 86.96 17.32 118.377 48.465 31.419 31.145 49.123 73.491 49.123 117.639 0 44.148-17.699 86.53-49.115 117.758-31.414 31.228-74.045 48.816-118.385 48.863-44.34-.047-86.971-17.635-118.385-48.863-31.416-31.228-49.115-73.61-49.115-117.758 0-44.148 17.704-86.494 49.123-117.639C55690.54 17.534 55733.17.075 55777.5.214M56112.5.184c44.341-.119 86.971 17.353 118.386 48.507 31.416 31.155 49.114 73.505 49.114 117.652 0 44.148-17.693 86.529-49.107 117.755-31.413 31.226-74.043 48.809-118.393 48.85-44.35-.041-86.98-17.624-118.393-48.85-31.414-31.226-49.107-73.607-49.107-117.755 0-44.147 17.698-86.497 49.114-117.652 31.415-31.154 74.045-48.626 118.386-48.507M56447.5.156c44.351-.101 86.982 17.383 118.394 48.547 31.414 31.163 49.106 73.518 49.106 117.664 0 44.147-17.688 86.528-49.1 117.751-31.411 31.224-74.042 48.803-118.4 48.838-44.358-.035-86.989-17.614-118.4-48.838-31.412-31.223-49.1-73.604-49.1-117.751 0-44.146 17.692-86.501 49.106-117.664 31.412-31.164 74.043-48.648 118.394-48.547M56782.5.13c44.36-.084 86.991 17.412 118.402 48.583 31.411 31.172 49.098 73.53 49.098 117.676s-17.683 86.526-49.093 117.748c-31.409 31.222-74.041 48.797-118.407 48.826-44.366-.029-86.998-17.604-118.407-48.826-31.41-31.222-49.093-73.602-49.093-117.748s17.687-86.504 49.098-117.676C56695.509 17.542 56738.14.046 56782.5.13M57117.5.107c44.368-.069 87 17.437 118.409 48.616 31.409 31.179 49.091 73.541 49.091 117.686 0 44.145-17.679 86.525-49.087 117.745-31.408 31.221-74.04 48.792-118.413 48.816-44.373-.024-87.005-17.595-118.413-48.816-31.408-31.22-49.087-73.6-49.087-117.745 0-44.145 17.682-86.507 49.091-117.686C57030.5 17.544 57073.132.038 57117.5.107M57452.5.086c44.376-.056 87.008 17.46 118.415 48.645 31.408 31.186 49.085 73.551 49.085 117.695 0 44.145-17.675 86.524-49.082 117.743-31.406 31.219-74.038 48.787-118.418 48.806-44.38-.019-87.012-17.587-118.418-48.806-31.407-31.219-49.082-73.598-49.082-117.743 0-44.144 17.677-86.509 49.085-117.695C57365.492 17.546 57408.124.03 57452.5.086M57787.5.068c44.382-.044 87.015 17.48 118.42 48.671 31.407 31.191 49.08 73.559 49.08 117.703 0 44.144-17.672 86.523-49.077 117.741-31.405 31.218-74.037 48.783-118.423 48.798-44.386-.015-87.018-17.58-118.423-48.798-31.405-31.218-49.077-73.597-49.077-117.741 0-44.144 17.673-86.512 49.08-117.703 31.405-31.191 74.038-48.715 118.42-48.671M58122.5.052c44.388-.034 87.021 17.497 118.425 48.694 31.405 31.196 49.075 73.566 49.075 117.71 0 44.143-17.669 86.522-49.073 117.739-31.404 31.216-74.036 48.779-118.427 48.79-44.391-.011-87.023-17.574-118.427-48.79-31.404-31.217-49.073-73.596-49.073-117.739 0-44.144 17.67-86.514 49.075-117.71 31.404-31.197 74.037-48.728 118.425-48.694M58457.5.038c44.393-.025 87.026 17.512 118.429 48.713 31.404 31.201 49.071 73.574 49.071 117.717s-17.666 86.522-49.07 117.737c-31.402 31.216-74.035 48.776-118.43 48.784-44.395-.008-87.028-17.568-118.43-48.784-31.404-31.215-49.07-73.594-49.07-117.737s17.667-86.516 49.071-117.717C58370.474 17.55 58413.107.013 58457.5.038M58792.5.026c44.398-.017 87.03 17.526 118.432 48.73 31.403 31.205 49.068 73.579 49.068 117.722 0 44.142-17.664 86.521-49.067 117.736-31.402 31.215-74.034 48.773-118.433 48.779-44.399-.006-87.031-17.564-118.433-48.779-31.403-31.215-49.067-73.594-49.067-117.736 0-44.143 17.665-86.517 49.068-117.722 31.402-31.204 74.034-48.747 118.432-48.73M59127.5.017c44.401-.011 87.034 17.535 118.435 48.743 31.402 31.208 49.065 73.583 49.065 117.726 0 44.142-17.662 86.521-49.064 117.735-31.401 31.214-74.034 48.771-118.436 48.774-44.402-.003-87.035-17.56-118.436-48.774-31.402-31.214-49.064-73.593-49.064-117.735 0-44.143 17.663-86.518 49.065-117.726 31.401-31.208 74.034-48.754 118.435-48.743M59462.5.009c44.404-.006 87.037 17.544 118.437 48.754 31.402 31.21 49.063 73.587 49.063 117.729 0 44.142-17.661 86.52-49.062 117.734-31.401 31.214-74.034 48.769-118.438 48.771-44.404-.002-87.037-17.557-118.438-48.771-31.401-31.214-49.062-73.592-49.062-117.734 0-44.142 17.661-86.519 49.063-117.729 31.4-31.21 74.033-48.76 118.437-48.754M59797.5.004c44.406-.003 87.038 17.55 118.439 48.761 31.401 31.212 49.061 73.589 49.061 117.731 0 44.143-17.66 86.521-49.061 117.734-31.4 31.213-74.033 48.768-118.439 48.769-44.406-.001-87.039-17.556-118.439-48.769-31.401-31.213-49.061-73.591-49.061-117.734 0-44.142 17.66-86.519 49.061-117.731 31.401-31.211 74.033-48.764 118.439-48.761M60132.5.001c44.407-.001 87.04 17.553 118.44 48.766 31.401 31.212 49.06 73.59 49.06 117.732 0 44.142-17.659 86.52-49.06 117.733-31.4 31.213-74.033 48.767-118.44 48.768-44.407-.001-87.04-17.555-118.44-48.768-31.401-31.213-49.06-73.591-49.06-117.733 0-44.142 17.659-86.52 49.06-117.732 31.4-31.213 74.033-48.767 118.44-48.766M60467.5 0c44.407 0 87.04 17.554 118.44 48.767 31.401 31.213 49.06 73.591 49.06 117.733 0 44.142-17.659 86.52-49.06 117.733-31.4 31.213-74.033 48.767-118.44 48.767s-87.04-17.554-118.44-48.767c-31.401-31.213-49.06-73.591-49.06-117.733 0-44.142 17.659-86.52 49.06-117.733C60380.46 17.554 60423.093 0 60467.5 0" fill="#ffa5ba"/></svg>