<svg xmlns="http://www.w3.org/2000/svg" viewBox="0 0 30485 333" width="30485" height="333"><path d="M167.5 63.8c21.35-41.35 63.225-52.25 99.762-41.325C303.8 33.4 335 66.15 335 112.1c0 46-29.65 89.575-65.413 125.213C233.825 272.95 191.95 300.65 167.5 314.9c-24.45-14.25-66.325-41.95-102.088-77.587C29.65 201.675 0 158.1 0 112.1c0-45.95 31.2-78.7 67.737-89.625C104.275 11.55 146.15 22.45 167.5 63.8M502.5 63.783c21.356-41.339 63.231-52.231 99.767-41.301C638.804 33.412 670 66.165 670 112.114c0 46-29.647 89.574-65.408 125.211-35.762 35.636-77.637 63.334-102.092 77.58-24.455-14.246-66.33-41.944-102.092-77.58C364.647 201.688 335 158.114 335 112.114c0-45.949 31.196-78.702 67.733-89.632 36.536-10.93 78.411-.038 99.767 41.301M837.5 63.731c21.375-41.305 63.251-52.175 99.783-41.228C973.815 33.45 1005 66.21 1005 112.158c0 45.998-29.637 89.572-65.395 125.205-35.758 35.633-77.634 63.322-102.105 77.556-24.471-14.234-66.347-41.923-102.105-77.556C699.637 201.73 670 158.156 670 112.158c0-45.948 31.185-78.708 67.717-89.655 36.532-10.947 78.408-.077 99.783 41.228M1172.5 63.642c21.407-41.248 63.284-52.077 99.809-41.102C1308.834 33.515 1340 66.289 1340 112.235c0 45.995-29.62 89.567-65.372 125.194-35.752 35.626-77.629 63.301-102.128 77.516-24.499-14.215-66.376-41.89-102.128-77.516C1034.62 201.802 1005 158.23 1005 112.235c0-45.946 31.166-78.72 67.691-89.695 36.525-10.975 78.402-.146 99.809 41.102M1507.5 63.513c21.454-41.164 63.332-51.936 99.847-40.92C1643.861 33.61 1675 66.403 1675 112.345c0 45.992-29.596 89.561-65.339 125.179-35.743 35.617-77.621 63.272-102.161 77.458-24.54-14.186-66.418-41.841-102.161-77.458-35.743-35.618-65.339-79.187-65.339-125.179 0-45.942 31.139-78.735 67.653-89.752 36.515-11.016 78.393-.244 99.847 40.92M1842.5 63.34c21.516-41.052 63.397-51.747 99.897-40.675 36.501 11.071 67.603 43.89 67.603 89.827 0 45.987-29.564 89.553-65.295 125.159-35.731 35.605-77.611 63.232-102.205 77.38-24.594-14.148-66.474-41.775-102.205-77.38-35.731-35.606-65.295-79.172-65.295-125.159 0-45.937 31.102-78.756 67.603-89.827 36.5-11.072 78.381-.377 99.897 40.675" fill="#ffa5ba"/><path d="M2177.5 63.121c21.595-40.91 63.478-51.507 99.961-40.366C2313.944 33.896 2345 66.748 2345 112.679c0 45.98-29.522 89.542-65.238 125.133-35.717 35.59-77.6 63.182-102.262 77.281-24.662-14.099-66.545-41.691-102.262-77.281-35.716-35.591-65.238-79.153-65.238-125.133 0-45.931 31.056-78.783 67.539-89.924 36.483-11.141 78.366-.544 99.961 40.366M2512.5 62.852c21.692-40.735 63.579-51.213 100.04-39.987 36.461 11.227 67.46 44.12 67.46 90.043 0 45.972-29.472 89.53-65.17 125.101-35.697 35.572-77.584 63.121-102.33 77.16-24.746-14.039-66.633-41.588-102.33-77.16-35.698-35.571-65.17-79.129-65.17-125.101 0-45.923 30.999-78.816 67.46-90.043 36.461-11.226 78.348-.748 100.04 39.987M2847.5 62.53c21.809-40.527 63.699-50.86 100.134-39.532C2984.07 34.327 3015 67.269 3015 113.183c0 45.963-29.411 89.514-65.087 125.063-35.676 35.55-77.566 63.048-102.413 77.014-24.847-13.966-66.737-41.464-102.413-77.014-35.676-35.549-65.087-79.1-65.087-125.063 0-45.914 30.93-78.856 67.366-90.185 36.435-11.328 78.325-.995 100.134 39.532M3182.5 62.15c21.946-40.281 63.841-50.445 100.246-38.995C3319.15 34.605 3350 67.604 3350 113.507c0 45.952-29.34 89.496-64.99 125.019-35.649 35.523-77.544 62.961-102.51 76.842-24.966-13.881-66.861-41.319-102.51-76.842-35.65-35.523-64.99-79.067-64.99-125.019 0-45.903 30.85-78.902 67.254-90.352 36.405-11.45 78.3-1.286 100.246 38.995M3517.5 61.707c22.106-39.993 64.006-49.96 100.375-38.37C3654.244 34.928 3685 67.994 3685 113.884c0 45.939-29.257 89.475-64.876 124.968-35.62 35.492-77.519 62.859-102.624 76.642-25.105-13.783-67.004-41.15-102.624-76.642-35.619-35.493-64.876-79.029-64.876-124.968 0-45.89 30.756-78.956 67.125-90.547 36.369-11.59 78.269-1.623 100.375 38.37M3852.5 61.197c22.291-39.663 64.197-49.402 100.524-37.649C3989.352 35.3 4020 68.443 4020 114.319c0 45.924-29.161 89.451-64.745 124.908-35.585 35.457-77.491 62.743-102.755 76.411-25.264-13.668-67.17-40.954-102.755-76.411C3714.161 203.77 3685 160.243 3685 114.319c0-45.876 30.648-79.019 66.976-90.771 36.327-11.753 78.233-2.014 100.524 37.649M4187.5 60.614c22.501-39.285 64.414-48.764 100.695-36.826C4324.476 35.726 4355 68.957 4355 114.816c0 45.907-29.051 89.423-64.596 124.839-35.545 35.417-77.458 62.61-102.904 76.149-25.446-13.539-67.359-40.732-102.904-76.149-35.545-35.416-64.596-78.932-64.596-124.839 0-45.859 30.524-79.09 66.805-91.028 36.281-11.938 78.194-2.459 100.695 36.826M4522.5 59.953c22.74-38.857 64.661-48.041 100.889-35.893C4659.616 36.209 4690 69.539 4690 115.38c0 45.888-28.927 89.391-64.426 124.762-35.5 35.37-77.421 62.459-103.074 75.849-25.653-13.39-67.574-40.479-103.074-75.849C4383.927 204.771 4355 161.268 4355 115.38c0-45.841 30.384-79.171 66.611-91.32 36.228-12.148 78.149-2.964 100.889 35.893M4857.5 59.207c23.01-38.373 64.939-47.225 101.107-34.839C4994.775 36.753 5025 70.196 5025 116.016c0 45.866-28.787 89.355-64.235 124.674-35.449 35.319-77.378 62.289-103.265 75.513-25.887-13.224-67.816-40.194-103.265-75.513-35.448-35.319-64.235-78.808-64.235-124.674 0-45.82 30.225-79.263 66.393-91.648 36.168-12.386 78.097-3.534 101.107 34.839M5192.5 58.37c23.312-37.831 65.252-46.309 101.352-33.657 36.1 12.651 66.148 46.221 66.148 92.017 0 45.842-28.63 89.315-64.021 124.576-35.391 35.261-77.331 62.097-103.479 75.134-26.148-13.037-68.088-39.873-103.479-75.134C5053.63 206.045 5025 162.572 5025 116.73c0-45.796 30.048-79.366 66.148-92.017 36.1-12.652 78.04-4.174 101.352 33.657M5527.5 57.436c23.65-37.225 65.6-45.287 101.625-32.339C5665.151 38.046 5695 71.756 5695 117.526c0 45.815-28.454 89.27-63.781 124.466-35.328 35.197-77.278 61.885-103.719 74.713-26.441-12.828-68.391-39.516-103.719-74.713-35.327-35.196-63.781-78.651-63.781-124.466 0-45.77 29.849-79.48 65.875-92.429 36.025-12.948 77.975-4.886 101.625 32.339M5862.5 56.399c24.025-36.553 65.987-44.153 101.929-30.874C6000.371 38.803 6030 72.67 6030 118.41c0 45.785-28.259 89.221-63.516 124.345-35.256 35.124-77.219 61.647-103.984 74.245-26.765-12.598-68.728-39.121-103.984-74.245-35.257-35.124-63.516-78.56-63.516-124.345 0-45.74 29.629-79.607 65.571-92.885 35.942-13.279 77.904-5.679 101.929 30.874M6197.5 55.254c24.438-35.811 66.415-42.9 102.264-29.257 35.85 13.642 65.236 47.682 65.236 93.39 0 45.751-28.044 89.165-63.222 124.21-35.178 35.045-77.155 61.386-104.278 73.727-27.123-12.341-69.1-38.682-104.278-73.727-35.178-35.045-63.222-78.459-63.222-124.21 0-45.708 29.386-79.748 65.236-93.39 35.849-13.643 77.826-6.554 102.264 29.257M6532.5 53.996c24.893-34.996 66.884-41.523 102.632-27.481C6670.881 40.557 6700 74.787 6700 120.459c0 45.715-27.807 89.106-62.9 124.063-35.092 34.958-77.083 61.099-104.6 73.159-27.517-12.06-69.508-38.201-104.6-73.159-35.093-34.957-62.9-78.348-62.9-124.063 0-45.672 29.119-79.902 64.868-93.944 35.748-14.042 77.739-7.515 102.632 27.481M6867.5 52.624c25.389-34.107 67.397-40.022 103.034-25.543C7006.172 41.559 7035 75.996 7035 121.629c0 45.675-27.55 89.04-62.548 123.902-34.998 34.863-77.006 60.786-104.952 72.54-27.946-11.754-69.954-37.677-104.952-72.54C6727.55 210.669 6700 167.304 6700 121.629c0-45.633 28.828-80.07 64.466-94.548 35.637-14.479 77.645-8.564 103.034 25.543M7202.5 51.138c25.926-33.143 67.951-38.396 103.469-23.445S7370 77.305 7370 122.896c0 45.632-27.27 88.969-62.167 123.728-34.897 34.76-76.922 60.446-105.333 71.868-28.411-11.422-70.436-37.108-105.333-71.868C7062.27 211.865 7035 168.528 7035 122.896c0-45.591 28.513-80.252 64.031-95.203 35.518-14.951 77.543-9.698 103.469 23.445M7537.5 49.542c26.503-32.109 68.547-36.65 103.936-21.191 35.39 15.458 63.564 50.36 63.564 95.906 0 45.585-26.97 88.892-61.758 123.541-34.788 34.649-76.832 60.081-105.742 71.147-28.91-11.066-70.954-36.498-105.742-71.147C7396.97 213.149 7370 169.842 7370 124.257c0-45.546 28.174-80.448 63.564-95.906 35.389-15.459 77.433-10.918 103.936 21.191M7872.5 47.845c27.116-31.009 69.181-34.794 104.433-18.795C8012.186 45.048 8040 80.206 8040 125.704c0 45.535-26.651 88.811-61.323 123.342-34.672 34.531-76.736 59.694-106.177 70.38-29.441-10.686-71.505-35.849-106.177-70.38-34.672-34.531-61.323-77.807-61.323-123.342 0-45.498 27.814-80.656 63.067-96.654 35.252-15.999 77.317-12.214 104.433 18.795M8207.5 46.06c27.761-29.852 69.847-32.841 104.956-16.274 35.109 16.566 62.544 51.993 62.544 97.44 0 45.483-26.316 88.726-60.866 123.133-34.549 34.407-76.635 59.286-106.634 69.574-29.999-10.288-72.085-35.167-106.634-69.574-34.55-34.407-60.866-77.65-60.866-123.133 0-45.447 27.435-80.874 62.544-97.44 35.109-16.567 77.195-13.578 104.956 16.274M8542.5 44.204c28.432-28.649 70.54-30.81 105.499-13.654 34.96 17.157 62.001 52.864 62.001 98.258 0 45.43-25.967 88.637-60.39 122.916-34.423 34.278-76.53 58.862-107.11 68.735-30.58-9.873-72.687-34.457-107.11-68.735-34.423-34.279-60.39-77.486-60.39-122.916 0-45.394 27.041-81.101 62.001-98.258 34.959-17.156 77.067-14.995 105.499 13.654M8877.5 42.299c29.12-27.415 71.251-28.726 106.057-10.963C9018.363 49.098 9045 85.092 9045 130.433c0 45.374-25.609 88.546-59.902 122.692-34.292 34.146-76.422 58.427-107.598 67.875-31.176-9.448-73.306-33.729-107.598-67.875-34.293-34.146-59.902-77.318-59.902-122.692 0-45.341 26.637-81.335 61.443-99.097 34.806-17.763 76.937-16.452 106.057 10.963M9212.5 40.367c29.819-26.163 71.972-26.612 106.623-8.235C9353.774 50.509 9380 86.795 9380 132.081c0 45.317-25.246 88.453-59.406 122.465-34.16 34.013-76.314 57.986-108.094 67.002-31.78-9.016-73.934-32.989-108.094-67.002-34.16-34.012-59.406-77.148-59.406-122.465 0-45.286 26.226-81.572 60.877-99.949 34.651-18.377 76.804-17.928 106.623 8.235M9547.5 38.43c30.519-24.907 72.695-24.493 107.19-5.5 34.495 18.992 60.31 55.571 60.31 100.802 0 45.261-24.882 88.36-58.91 122.238-34.028 33.878-76.204 57.544-108.59 66.127-32.386-8.583-74.562-32.249-108.59-66.127-34.028-33.878-58.91-76.977-58.91-122.238 0-45.231 25.815-81.81 60.31-100.802 34.495-18.993 76.671-19.407 107.19 5.5M9882.5 36.511c31.212-23.664 73.411-22.393 107.751-2.79 34.341 19.603 59.749 56.471 59.749 101.647 0 45.206-24.521 88.269-58.418 122.014-33.897 33.745-76.096 57.105-109.082 65.26-32.986-8.155-75.185-31.515-109.082-65.26-33.897-33.745-58.418-76.808-58.418-122.014 0-45.176 25.408-82.044 59.749-101.647 34.34-19.603 76.539-20.874 107.751 2.79M10217.5 34.627c31.893-22.442 74.114-20.332 108.303-.13 34.189 20.202 59.197 57.354 59.197 102.477 0 45.151-24.167 88.179-57.935 121.793-33.768 33.614-75.99 56.675-109.565 64.409-33.575-7.734-75.797-30.795-109.565-64.409-33.768-33.614-57.935-76.642-57.935-121.793 0-45.123 25.008-82.275 59.197-102.477 34.189-20.202 76.41-22.312 108.303.13M10552.5 32.794c32.555-21.254 74.799-18.326 108.839 2.459 34.042 20.784 58.661 58.213 58.661 103.285 0 45.097-23.823 88.09-57.465 121.577-33.643 33.487-75.886 56.257-110.035 63.581-34.149-7.324-76.392-30.094-110.035-63.581-33.642-33.487-57.465-76.48-57.465-121.577 0-45.072 24.619-82.501 58.661-103.285 34.04-20.785 76.284-23.713 108.839-2.459M10887.5 31.022c33.196-20.106 75.46-16.387 109.358 4.961 33.899 21.348 58.142 59.044 58.142 104.065 0 45.046-23.49 88.006-57.011 121.37-33.522 33.365-75.786 55.852-110.489 62.781-34.703-6.929-76.967-29.416-110.489-62.781-33.521-33.364-57.011-76.324-57.011-121.37 0-45.021 24.243-82.717 58.142-104.065 33.898-21.348 76.162-25.067 109.358-4.961M11222.5 29.319c33.811-19.002 76.096-14.524 109.857 7.366 33.761 21.889 57.643 59.843 57.643 104.816 0 44.996-23.169 87.924-56.575 121.17-33.404 33.246-75.689 55.463-110.925 62.011-35.236-6.548-77.521-28.765-110.925-62.011-33.406-33.246-56.575-76.174-56.575-121.17 0-44.973 23.882-82.927 57.643-104.816 33.761-21.89 76.046-26.368 109.857-7.366M11557.5 27.689c34.4-17.946 76.705-12.741 110.334 9.668 33.63 22.408 57.166 60.607 57.166 105.534 0 44.948-22.863 87.846-56.157 120.979-33.293 33.133-75.597 55.09-111.343 61.275-35.746-6.185-78.05-28.142-111.343-61.275-33.294-33.133-56.157-76.031-56.157-120.979 0-44.927 23.536-83.126 57.166-105.534 33.629-22.409 75.934-27.614 110.334-9.668M11892.5 26.133c34.963-16.937 77.285-11.038 110.789 11.865C12036.794 60.9 12060 99.335 12060 144.217c0 44.903-22.571 87.772-55.758 120.797-33.187 33.025-75.51 54.735-111.742 60.572-36.232-5.837-78.555-27.547-111.742-60.572-33.187-33.025-55.758-75.894-55.758-120.797 0-44.882 23.206-83.317 56.711-106.219 33.504-22.903 75.826-28.802 110.789-11.865M12227.5 24.653c35.498-15.978 77.838-9.419 111.223 13.955 33.386 23.373 56.277 62.031 56.277 106.872 0 44.859-22.292 87.7-55.379 120.623-33.085 32.922-75.425 54.397-112.121 59.903-36.696-5.506-79.036-26.981-112.121-59.903-33.087-32.923-55.379-75.764-55.379-120.623 0-44.841 22.891-83.499 56.277-106.872 33.385-23.374 75.725-29.933 111.223-13.955M12562.5 23.246c36.006-15.066 78.363-7.88 111.635 15.941 33.272 23.821 55.865 62.691 55.865 107.492 0 44.819-22.028 87.633-55.018 120.458s-75.346 54.076-112.482 59.268c-37.136-5.192-79.492-26.443-112.482-59.268-32.99-32.825-55.018-75.639-55.018-120.458 0-44.801 22.593-83.671 55.865-107.492 33.272-23.821 75.629-31.007 111.635-15.941M12897.5 21.911c36.489-14.201 78.861-6.419 112.026 17.827 33.165 24.245 55.474 63.317 55.474 108.08 0 44.78-21.777 87.569-54.676 120.301-32.898 32.733-75.271 53.771-112.824 58.665-37.553-4.894-79.926-25.932-112.824-58.665-32.899-32.732-54.676-75.521-54.676-120.301 0-44.763 22.309-83.835 55.474-108.08 33.165-24.246 75.537-32.028 112.026-17.827M13232.5 20.644c36.946-13.38 79.334-5.033 112.396 19.615 33.063 24.649 55.104 63.911 55.104 108.638 0 44.743-21.539 87.509-54.351 120.153-32.812 32.645-75.2 53.482-113.149 58.093-37.949-4.611-80.337-25.448-113.149-58.093-32.812-32.644-54.351-75.41-54.351-120.153 0-44.727 22.041-83.989 55.104-108.638 33.062-24.648 75.45-32.995 112.396-19.615M13567.5 19.444c37.38-12.602 79.782-3.72 112.748 21.31 32.966 25.03 54.752 64.474 54.752 109.167 0 44.708-21.313 87.451-54.044 120.012-32.729 32.562-75.131 53.208-113.456 57.551-38.325-4.343-80.727-24.989-113.456-57.551-32.731-32.561-54.044-75.304-54.044-120.012 0-44.693 21.786-84.137 54.752-109.167s75.368-33.912 112.748-21.31M13902.5 18.306c37.791-11.864 80.207-2.475 113.081 22.917 32.875 25.392 54.419 65.007 54.419 109.668 0 44.675-21.1 87.396-53.752 119.879-32.652 32.483-75.067 52.948-113.748 57.037-38.681-4.089-81.096-24.554-113.748-57.037-32.652-32.483-53.752-75.204-53.752-119.879 0-44.661 21.544-84.276 54.419-109.668 32.874-25.392 75.29-34.781 113.081-22.917M14237.5 17.228c38.181-11.166 80.609-1.295 113.396 24.439 32.788 25.735 54.104 65.513 54.104 110.143 0 44.644-20.897 87.345-53.476 119.753-32.578 32.408-75.006 52.701-114.024 56.549-39.018-3.848-81.446-24.141-114.024-56.549-32.579-32.408-53.476-75.109-53.476-119.753 0-44.63 21.316-84.408 54.104-110.143 32.787-25.734 75.215-35.605 113.396-24.439M14572.5 16.206c38.55-10.503 80.991-.177 113.696 25.882 32.705 26.06 53.804 65.992 53.804 110.594 0 44.614-20.705 87.296-53.214 119.632-32.508 32.337-74.948 52.469-114.286 56.088-39.338-3.619-81.778-23.751-114.286-56.088-32.509-32.336-53.214-75.018-53.214-119.632 0-44.602 21.099-84.534 53.804-110.594 32.705-26.059 75.146-36.385 113.696-25.882M14907.5 15.238c38.9-9.876 81.352.882 113.979 27.25 32.628 26.367 53.521 66.446 53.521 111.02 0 44.585-20.523 87.249-52.966 119.519-32.441 32.27-74.893 52.247-114.534 55.65-39.641-3.403-82.093-23.38-114.534-55.65-32.443-32.27-52.966-74.934-52.966-119.519 0-44.574 20.893-84.653 53.521-111.02 32.627-26.368 75.079-37.126 113.979-27.25M15242.5 14.319c39.232-9.28 81.695 1.887 114.248 28.547 32.554 26.66 53.252 66.877 53.252 111.425 0 44.559-20.35 87.205-52.73 119.411-32.379 32.206-74.842 52.037-114.77 55.236-39.928-3.199-82.391-23.03-114.77-55.236-32.38-32.206-52.73-74.852-52.73-119.411 0-44.548 20.698-84.765 53.252-111.425 32.553-26.66 75.016-37.827 114.248-28.547M15577.5 13.448c39.547-8.716 82.02 2.84 114.503 29.777 32.484 26.936 52.997 67.285 52.997 111.808 0 44.534-20.187 87.164-52.507 119.31-32.32 32.145-74.793 51.838-114.993 54.842-40.2-3.004-82.673-22.697-114.993-54.842-32.32-32.146-52.507-74.776-52.507-119.31 0-44.523 20.513-84.872 52.997-111.808 32.483-26.937 74.956-38.493 114.503-29.777M15912.5 12.623c39.845-8.181 82.328 3.743 114.745 30.942S16080 111.237 16080 155.737c0 44.51-20.031 87.125-52.295 119.213-32.263 32.088-74.746 51.65-115.205 54.469-40.459-2.819-82.942-22.381-115.205-54.469-32.264-32.088-52.295-74.703-52.295-119.213 0-44.5 20.338-84.973 52.755-112.172 32.417-27.199 74.9-39.123 114.745-30.942M16247.5 11.839c40.128-7.673 82.621 4.601 114.974 32.049 32.354 27.448 52.526 68.04 52.526 112.517 0 44.487-19.884 87.087-52.095 119.121-32.209 32.034-74.701 51.471-115.405 54.115-40.704-2.644-83.196-22.081-115.405-54.115-32.211-32.034-52.095-74.634-52.095-119.121 0-44.477 20.172-85.069 52.526-112.517 32.353-27.448 74.846-39.722 114.974-32.049M16582.5 11.096c40.397-7.191 82.898 5.414 115.192 33.098 32.294 27.685 52.308 68.388 52.308 112.845 0 44.465-19.744 87.051-51.904 119.034-32.159 31.982-74.66 51.301-115.596 53.779-40.936-2.478-83.437-21.797-115.596-53.779-32.16-31.983-51.904-74.569-51.904-119.034 0-44.457 20.014-85.16 52.308-112.845 32.294-27.684 74.795-40.289 115.192-33.098M16917.5 10.391c40.652-6.735 83.161 6.185 115.398 34.094 32.238 27.909 52.102 68.718 52.102 113.155 0 44.445-19.612 87.018-51.723 118.951-32.111 31.934-74.62 51.14-115.777 53.461-41.157-2.321-83.666-21.527-115.777-53.461-32.111-31.933-51.723-74.506-51.723-118.951 0-44.437 19.864-85.246 52.102-113.155 32.237-27.909 74.746-40.829 115.398-34.094M17252.5 9.722c40.894-6.301 83.411 6.917 115.594 35.039 32.184 28.121 51.906 69.032 51.906 113.449 0 44.426-19.486 86.986-51.552 118.873-32.065 31.887-74.582 50.987-115.948 53.159-41.366-2.172-83.883-21.272-115.948-53.159-32.066-31.887-51.552-74.447-51.552-118.873 0-44.417 19.722-85.328 51.906-113.449 32.183-28.122 74.7-41.34 115.594-35.039M17587.5 9.087c41.123-5.889 83.648 7.612 115.78 35.935 32.132 28.324 51.72 69.33 51.72 113.73 0 44.406-19.367 86.955-51.389 118.798-32.021 31.843-74.547 50.842-116.111 52.872-41.564-2.03-84.09-21.029-116.111-52.872-32.022-31.843-51.389-74.392-51.389-118.798 0-44.4 19.588-85.406 51.72-113.73 32.132-28.323 74.657-41.824 115.78-35.935M17922.5 8.485c41.341-5.499 83.873 8.271 115.956 36.785 32.084 28.515 51.544 69.613 51.544 113.995 0 44.389-19.254 86.927-51.235 118.728-31.98 31.801-74.512 50.705-116.265 52.6-41.753-1.895-84.285-20.799-116.265-52.6-31.981-31.801-51.235-74.339-51.235-118.728 0-44.382 19.46-85.48 51.544-113.995 32.083-28.514 74.615-42.284 115.956-36.785M18257.5 7.913c41.547-5.128 84.086 8.896 116.123 37.593 32.038 28.697 51.377 69.88 51.377 114.247 0 44.372-19.146 86.899-51.088 118.66-31.941 31.762-74.48 50.575-116.412 52.342-41.932-1.767-84.471-20.58-116.412-52.342-31.942-31.761-51.088-74.288-51.088-118.66 0-44.367 19.339-85.55 51.377-114.247 32.037-28.697 74.576-42.721 116.123-37.593M18592.5 7.371c41.743-4.777 84.289 9.489 116.282 38.358 31.995 28.869 51.218 70.135 51.218 114.486 0 44.357-19.044 86.873-50.949 118.597-31.904 31.724-74.45 50.45-116.551 52.097-42.101-1.647-84.647-20.373-116.551-52.097-31.905-31.724-50.949-74.24-50.949-118.597 0-44.351 19.223-85.617 51.218-114.486 31.993-28.869 74.539-43.135 116.282-38.358M18927.5 6.857c41.929-4.444 84.481 10.052 116.433 39.084 31.953 29.033 51.067 70.376 51.067 114.712 0 44.342-18.948 86.849-50.817 118.537-31.869 31.689-74.421 50.333-116.683 51.865-42.262-1.532-84.814-20.176-116.683-51.865-31.869-31.688-50.817-74.195-50.817-118.537 0-44.336 19.114-85.679 51.067-114.712 31.952-29.032 74.504-43.528 116.433-39.084M19262.5 6.369c42.105-4.128 84.663 10.586 116.575 39.773 31.914 29.188 50.925 70.605 50.925 114.927 0 44.328-18.856 86.825-50.693 118.48-31.835 31.655-74.392 50.221-116.807 51.644-42.415-1.423-84.972-19.989-116.807-51.644-31.837-31.655-50.693-74.152-50.693-118.48 0-44.322 19.011-85.739 50.925-114.927 31.912-29.187 74.47-43.901 116.575-39.773M19597.5 5.907c42.272-3.828 84.835 11.091 116.711 40.426 31.876 29.334 50.789 70.821 50.789 115.13 0 44.314-18.769 86.803-50.574 118.426-31.804 31.622-74.367 50.116-116.926 51.435-42.559-1.319-85.122-19.813-116.926-51.435-31.805-31.623-50.574-74.112-50.574-118.426 0-44.309 18.913-85.796 50.789-115.13 31.876-29.335 74.439-44.254 116.711-40.426M19932.5 5.469c42.43-3.544 84.998 11.57 116.839 41.044 31.841 29.474 50.661 71.027 50.661 115.324 0 44.301-18.687 86.781-50.462 118.374-31.774 31.592-74.342 50.016-117.038 51.237-42.696-1.221-85.264-19.645-117.038-51.237-31.775-31.593-50.462-74.073-50.462-118.374 0-44.297 18.82-85.85 50.661-115.324 31.841-29.474 74.409-44.588 116.839-41.044M20267.5 5.055c42.58-3.276 85.153 12.023 116.96 41.629 31.808 29.606 50.54 71.221 50.54 115.506 0 44.289-18.609 86.762-50.356 118.326-31.745 31.563-74.318 49.921-117.144 51.05-42.826-1.129-85.399-19.487-117.144-51.05-31.747-31.564-50.356-74.037-50.356-118.326 0-44.285 18.732-85.9 50.54-115.506 31.807-29.606 74.38-44.905 116.96-41.629M20602.5 4.662c42.722-3.022 85.3 12.453 117.075 42.184 31.777 29.73 50.425 71.405 50.425 115.679 0 44.278-18.535 86.743-50.255 118.279-31.719 31.537-74.296 49.832-117.245 50.873-42.949-1.041-85.526-19.336-117.245-50.873-31.72-31.536-50.255-74.001-50.255-118.279 0-44.274 18.648-85.949 50.425-115.679 31.775-29.731 74.353-45.206 117.075-42.184M20937.5 4.291c42.856-2.781 85.438 12.859 117.184 42.708 31.746 29.848 50.316 71.579 50.316 115.842 0 44.267-18.465 86.726-50.16 118.236-31.693 31.511-74.275 49.747-117.34 50.706-43.065-.959-85.647-19.195-117.34-50.706-31.695-31.51-50.16-73.969-50.16-118.236 0-44.263 18.57-85.994 50.316-115.842 31.746-29.849 74.328-45.489 117.184-42.708M21272.5 3.94c42.983-2.554 85.569 13.243 117.287 43.203 31.718 29.96 50.213 71.744 50.213 115.998 0 44.256-18.399 86.708-50.07 118.194-31.669 31.487-74.255 49.667-117.43 50.547-43.175-.88-85.761-19.06-117.43-50.547-31.671-31.486-50.07-73.938-50.07-118.194 0-44.254 18.495-86.038 50.213-115.998 31.718-29.96 74.304-45.757 117.287-43.203M21607.5 3.609c43.103-2.339 85.693 13.605 117.384 43.671 31.691 30.065 50.116 71.899 50.116 116.143 0 44.247-18.337 86.693-49.985 118.156-31.647 31.463-74.237 49.591-117.515 50.397-43.278-.806-85.868-18.934-117.515-50.397-31.648-31.463-49.985-73.909-49.985-118.156 0-44.244 18.425-86.078 50.116-116.143 31.691-30.066 74.281-46.01 117.384-43.671M21942.5 3.296c43.216-2.136 85.81 13.948 117.475 44.113 31.666 30.165 50.025 72.045 50.025 116.28 0 44.238-18.278 86.678-49.905 118.12-31.625 31.442-74.219 49.52-117.595 50.256-43.376-.736-85.97-18.814-117.595-50.256-31.627-31.442-49.905-73.882-49.905-118.12 0-44.235 18.359-86.115 50.025-116.28 31.665-30.165 74.259-46.249 117.475-44.113M22277.5 3.002c43.322-1.946 85.92 14.27 117.561 44.528 31.643 30.258 49.939 72.184 49.939 116.411 0 44.229-18.223 86.663-49.829 118.084-31.606 31.422-74.203 49.453-117.671 50.123-43.468-.67-86.065-18.701-117.671-50.123-31.606-31.421-49.829-73.855-49.829-118.084 0-44.227 18.296-86.153 49.939-116.411 31.641-30.258 74.239-46.474 117.561-44.528M22612.5 2.725c43.422-1.766 86.023 14.573 117.642 44.919 31.621 30.347 49.858 72.314 49.858 116.533 0 44.221-18.171 86.65-49.758 118.052-31.587 31.402-74.187 49.389-117.742 49.998-43.555-.609-86.155-18.596-117.742-49.998-31.587-31.402-49.758-73.831-49.758-118.052 0-44.219 18.237-86.186 49.858-116.533 31.619-30.346 74.22-46.685 117.642-44.919M22947.5 2.464c43.516-1.597 86.12 14.858 117.719 45.288 31.599 30.429 49.781 72.435 49.781 116.647 0 44.214-18.122 86.638-49.692 118.022-31.568 31.384-74.172 49.33-117.808 49.88-43.636-.55-86.24-18.496-117.808-49.88-31.57-31.384-49.692-73.808-49.692-118.022 0-44.212 18.182-86.218 49.781-116.647 31.599-30.43 74.203-46.885 117.719-45.288M23282.5 2.22c43.605-1.439 86.211 15.125 117.79 45.632 31.58 30.507 49.71 72.55 49.71 116.755 0 44.207-18.076 86.626-49.629 117.993-31.552 31.367-74.158 49.274-117.871 49.77-43.713-.496-86.319-18.403-117.871-49.77-31.553-31.367-49.629-73.786-49.629-117.993 0-44.205 18.13-86.248 49.71-116.755 31.579-30.507 74.185-47.071 117.79-45.632M23617.5 1.991c43.687-1.29 86.297 15.376 117.857 45.955 31.561 30.58 49.643 72.658 49.643 116.856 0 44.2-18.033 86.616-49.57 117.967-31.536 31.351-74.146 49.221-117.93 49.666-43.784-.445-86.394-18.315-117.93-49.666-31.537-31.351-49.57-73.767-49.57-117.967 0-44.198 18.082-86.276 49.643-116.856 31.56-30.579 74.17-47.245 117.857-45.955M23952.5 1.777c43.765-1.152 86.377 15.61 117.92 46.258 31.544 30.647 49.58 72.757 49.58 116.95s-17.993 86.605-49.516 117.941c-31.521 31.336-74.133 49.173-117.984 49.57-43.851-.397-86.463-18.234-117.984-49.57-31.523-31.336-49.516-73.748-49.516-117.941s18.036-86.303 49.58-116.95c31.543-30.648 74.155-47.41 117.92-46.258M24287.5 1.578c43.837-1.023 86.451 15.828 117.978 46.539 31.528 30.711 49.522 72.851 49.522 117.038 0 44.188-17.956 86.595-49.464 117.918-31.508 31.322-74.123 49.127-118.036 49.479-43.913-.352-86.528-18.157-118.036-49.479-31.508-31.323-49.464-73.73-49.464-117.918 0-44.187 17.994-86.327 49.522-117.038 31.527-30.711 74.141-47.562 117.978-46.539M24622.5 1.393c43.904-.903 86.52 16.03 118.032 46.8 31.513 30.77 49.468 72.938 49.468 117.12s-17.921 86.586-49.417 117.896c-31.495 31.309-74.112 49.085-118.083 49.396-43.971-.311-86.588-18.087-118.083-49.396-31.496-31.31-49.417-73.714-49.417-117.896s17.955-86.35 49.468-117.12c31.512-30.77 74.128-47.703 118.032-46.8M24957.5 1.221c43.966-.791 86.584 16.218 118.083 47.043 31.499 30.825 49.417 73.019 49.417 117.195 0 44.178-17.888 86.579-49.373 117.876-31.483 31.298-74.102 49.046-118.127 49.319-44.025-.273-86.644-18.021-118.127-49.319-31.485-31.297-49.373-73.698-49.373-117.876 0-44.176 17.918-86.37 49.417-117.195 31.499-30.825 74.117-47.834 118.083-47.043M25292.5 1.062c44.023-.688 86.644 16.392 118.129 47.267 31.487 30.876 49.371 73.094 49.371 117.266 0 44.173-17.859 86.571-49.332 117.857-31.473 31.287-74.093 49.01-118.168 49.247-44.075-.237-86.695-17.96-118.168-49.247-31.473-31.286-49.332-73.684-49.332-117.857 0-44.172 17.884-86.39 49.371-117.266 31.485-30.875 74.106-47.955 118.129-47.267M25627.5.915c44.076-.593 86.698 16.553 118.172 47.475 31.475 30.922 49.328 73.161 49.328 117.329 0 44.169-17.831 86.564-49.295 117.841-31.462 31.276-74.084 48.976-118.205 49.18-44.121-.204-86.743-17.904-118.205-49.18-31.464-31.277-49.295-73.672-49.295-117.841 0-44.168 17.853-86.407 49.328-117.329 31.474-30.922 74.096-48.068 118.172-47.475M25962.5.781c44.125-.506 86.748 16.699 118.211 47.664 31.464 30.964 49.289 73.225 49.289 117.389s-17.806 86.557-49.26 117.824c-31.454 31.267-74.077 48.946-118.24 49.12-44.163-.174-86.786-17.853-118.24-49.12-31.454-31.267-49.26-73.66-49.26-117.824s17.825-86.425 49.289-117.389c31.463-30.965 74.086-48.17 118.211-47.664M26297.5.659c44.169-.427 86.794 16.833 118.247 47.836 31.454 31.004 49.253 73.282 49.253 117.443s-17.783 86.551-49.229 117.81c-31.445 31.259-74.07 48.918-118.271 49.065-44.201-.147-86.826-17.806-118.271-49.065-31.446-31.259-49.229-73.649-49.229-117.81s17.799-86.439 49.253-117.443c31.453-31.003 74.078-48.263 118.247-47.836M26632.5.549c44.209-.356 86.835 16.953 118.279 47.992 31.446 31.039 49.221 73.334 49.221 117.491 0 44.158-17.762 86.547-49.201 117.798-31.437 31.251-74.064 48.892-118.299 49.014-44.235-.122-86.862-17.763-118.299-49.014-31.439-31.251-49.201-73.64-49.201-117.798 0-44.157 17.775-86.452 49.221-117.491 31.444-31.039 74.07-48.348 118.279-47.992M26967.5.449c44.245-.291 86.872 17.063 118.309 48.133 31.437 31.07 49.191 73.38 49.191 117.535s-17.743 86.542-49.175 117.786c-31.431 31.244-74.058 48.869-118.325 48.97-44.267-.101-86.894-17.726-118.325-48.97-31.432-31.244-49.175-73.631-49.175-117.786s17.754-86.465 49.191-117.535c31.437-31.07 74.064-48.424 118.309-48.133M27302.5.36c44.277-.233 86.906 17.16 118.335 48.259 31.43 31.098 49.165 73.422 49.165 117.574s-17.727 86.537-49.152 117.775-74.054 48.849-118.348 48.93c-44.294-.081-86.923-17.692-118.348-48.93-31.425-31.238-49.152-73.623-49.152-117.775s17.735-86.476 49.165-117.574C27215.594 17.52 27258.223.127 27302.5.36M27637.5.282c44.305-.183 86.935 17.245 118.357 48.369 31.424 31.123 49.143 73.459 49.143 117.609 0 44.15-17.712 86.533-49.132 117.766-31.42 31.232-74.049 48.831-118.368 48.894-44.319-.063-86.948-17.662-118.368-48.894-31.42-31.233-49.132-73.616-49.132-117.766 0-44.15 17.719-86.486 49.143-117.609 31.422-31.124 74.052-48.552 118.357-48.369M27972.5.214c44.33-.139 86.96 17.32 118.377 48.465 31.419 31.145 49.123 73.491 49.123 117.639 0 44.148-17.699 86.53-49.115 117.758-31.414 31.228-74.045 48.816-118.385 48.863-44.34-.047-86.971-17.635-118.385-48.863-31.416-31.228-49.115-73.61-49.115-117.758 0-44.148 17.704-86.494 49.123-117.639C27885.54 17.534 27928.17.075 27972.5.214M28307.5.156c44.351-.101 86.982 17.383 118.394 48.547 31.414 31.163 49.106 73.518 49.106 117.664 0 44.147-17.688 86.528-49.1 117.751-31.411 31.224-74.042 48.803-118.4 48.838-44.358-.035-86.989-17.614-118.4-48.838-31.412-31.223-49.1-73.604-49.1-117.751 0-44.146 17.692-86.501 49.106-117.664 31.412-31.164 74.043-48.648 118.394-48.547M28642.5.107c44.368-.069 87 17.437 118.409 48.616 31.409 31.179 49.091 73.541 49.091 117.686 0 44.145-17.679 86.525-49.087 117.745-31.408 31.221-74.04 48.792-118.413 48.816-44.373-.024-87.005-17.595-118.413-48.816-31.408-31.22-49.087-73.6-49.087-117.745 0-44.145 17.682-86.507 49.091-117.686C28555.5 17.544 28598.132.038 28642.5.107M28977.5.068c44.382-.044 87.015 17.48 118.42 48.671 31.407 31.191 49.08 73.559 49.08 117.703 0 44.144-17.672 86.523-49.077 117.741-31.405 31.218-74.037 48.783-118.423 48.798-44.386-.015-87.018-17.58-118.423-48.798-31.405-31.218-49.077-73.597-49.077-117.741 0-44.144 17.673-86.512 49.08-117.703 31.405-31.191 74.038-48.715 118.42-48.671M29312.5.038c44.393-.025 87.026 17.512 118.429 48.713 31.404 31.201 49.071 73.574 49.071 117.717s-17.666 86.522-49.07 117.737c-31.402 31.216-74.035 48.776-118.43 48.784-44.395-.008-87.028-17.568-118.43-48.784-31.404-31.215-49.07-73.594-49.07-117.737s17.667-86.516 49.071-117.717C29225.474 17.55 29268.107.013 29312.5.038M29647.5.017c44.401-.011 87.034 17.535 118.435 48.743 31.402 31.208 49.065 73.583 49.065 117.726 0 44.142-17.662 86.521-49.064 117.735-31.401 31.214-74.034 48.771-118.436 48.774-44.402-.003-87.035-17.56-118.436-48.774-31.402-31.214-49.064-73.593-49.064-117.735 0-44.143 17.663-86.518 49.065-117.726 31.401-31.208 74.034-48.754 118.435-48.743M29982.5.004c44.406-.003 87.038 17.55 118.439 48.761 31.401 31.212 49.061 73.589 49.061 117.731 0 44.143-17.66 86.521-49.061 117.734-31.4 31.213-74.033 48.768-118.439 48.769-44.406-.001-87.039-17.556-118.439-48.769-31.401-31.213-49.061-73.591-49.061-117.734 0-44.142 17.66-86.519 49.061-117.731 31.401-31.211 74.033-48.764 118.439-48.761M30317.5 0c44.407 0 87.04 17.554 118.44 48.767 31.401 31.213 49.06 73.591 49.06 117.733 0 44.142-17.659 86.52-49.06 117.733-31.4 31.213-74.033 48.767-118.44 48.767s-87.04-17.554-118.44-48.767c-31.401-31.213-49.06-73.591-49.06-117.733 0-44.142 17.659-86.52 49.06-117.733C30230.46 17.554 30273.093 0 30317.5 0" fill="#ffa5ba"/></svg>