<svg xmlns="http://www.w3.org/2000/svg" viewBox="0 0 52246 344" width="52246" height="344"><path d="M173 71.4c-27.6-38.9-70.85-49.025-107.2-37.563C29.45 45.3 0 78.35 0 125.8c0 47.5 26.175 91.9 60.888 125.825C95.6 285.55 138.85 309 173 314.6c34.15-5.6 77.4-29.05 112.113-62.975C319.825 217.7 346 173.3 346 125.8c0-47.45-29.45-80.5-65.8-91.963C243.85 22.375 200.6 32.5 173 71.4zM519 71.381c-27.605-38.89-70.855-49.007-107.204-37.539C375.447 45.31 346 78.363 346 125.812c0 47.5 26.173 91.899 60.885 125.824S484.847 309.009 519 314.608c34.153-5.599 77.403-29.047 112.115-62.972C665.827 217.711 692 173.312 692 125.812c0-47.449-29.447-80.502-65.796-91.97C589.855 22.374 546.605 32.491 519 71.381zM865 71.323c-27.62-38.858-70.87-48.953-107.216-37.468C721.438 45.34 692 78.402 692 125.85c0 47.498 26.166 91.897 60.877 125.82 34.71 33.923 77.96 57.368 112.123 62.962 34.163-5.594 77.413-29.039 112.123-62.962 34.711-33.923 60.877-78.322 60.877-125.82 0-47.448-29.438-80.51-65.784-91.995C935.87 22.37 892.62 32.465 865 71.323zM1211 71.223c-27.645-38.803-70.897-48.858-107.237-37.345C1067.422 45.392 1038 78.469 1038 125.914c0 47.496 26.155 91.894 60.862 125.815 34.707 33.921 77.959 57.358 112.138 62.944 34.179-5.586 77.431-29.023 112.138-62.944C1357.845 217.808 1384 173.41 1384 125.914c0-47.445-29.422-80.522-65.763-92.036-36.34-11.513-79.592-1.458-107.237 37.345zM1557 71.078c-27.682-38.724-70.936-48.722-107.268-37.166C1413.399 45.468 1384 78.566 1384 126.008c0 47.492 26.139 91.889 60.841 125.806 34.703 33.918 77.956 57.344 112.159 62.918 34.203-5.574 77.456-29 112.159-62.918C1703.861 217.897 1730 173.5 1730 126.008c0-47.442-29.399-80.54-65.732-92.096-36.332-11.556-79.586-1.558-107.268 37.166zM1903 70.885c-27.732-38.619-70.987-48.541-107.309-36.928C1759.369 45.569 1730 78.696 1730 126.133c0 47.486 26.118 91.882 60.814 125.795s77.952 57.324 112.186 62.884c34.234-5.56 77.49-28.971 112.186-62.884 34.696-33.913 60.814-78.309 60.814-125.795 0-47.437-29.369-80.564-65.691-92.176-36.322-11.613-79.577-1.691-107.309 36.928zM2249 70.64c-27.794-38.486-71.053-48.31-107.361-36.626C2105.331 45.697 2076 78.861 2076 126.292c0 47.479 26.091 91.873 60.779 125.78s77.946 57.3 112.221 62.841c34.275-5.541 77.533-28.934 112.221-62.841S2422 173.771 2422 126.292c0-47.431-29.331-80.595-65.639-92.278-36.308-11.684-79.567-1.86-107.361 36.626zM2595 70.34c-27.871-38.323-71.133-48.028-107.425-36.257S2422 79.064 2422 126.486c0 47.472 26.057 91.863 60.736 125.763 34.678 33.9 77.94 57.271 112.264 62.788 34.324-5.517 77.586-28.888 112.264-62.788 34.679-33.9 60.736-78.291 60.736-125.763 0-47.422-29.283-80.632-65.575-92.403S2622.871 32.017 2595 70.34zM2941 69.979c-27.964-38.126-71.229-47.688-107.501-35.812C2797.227 46.043 2768 79.306 2768 126.72c0 47.462 26.017 91.849 60.684 125.741 34.667 33.891 77.933 57.236 112.316 62.724 34.383-5.488 77.649-28.833 112.316-62.724C3087.983 218.569 3114 174.182 3114 126.72c0-47.414-29.227-80.677-65.499-92.553-36.272-11.876-79.537-2.314-107.501 35.812zM3287 69.553c-28.072-37.894-71.343-47.288-107.591-35.288-36.249 12-65.409 45.328-65.409 92.73 0 47.451 25.97 91.835 60.623 125.716 34.654 33.882 77.924 57.194 112.377 62.649 34.453-5.455 77.723-28.767 112.377-62.649C3434.03 218.83 3460 174.446 3460 126.995c0-47.402-29.16-80.73-65.409-92.73-36.248-12-79.519-2.606-107.591 35.288zM3633 69.058c-28.199-37.624-71.475-46.822-107.696-34.678C3489.082 46.524 3460 79.926 3460 127.315c0 47.438 25.915 91.818 60.552 125.688 34.638 33.869 77.914 57.145 112.448 62.561 34.534-5.416 77.81-28.692 112.448-62.561 34.637-33.87 60.552-78.25 60.552-125.688 0-47.389-29.082-80.791-65.304-92.935-36.221-12.144-79.497-2.946-107.696 34.678zM3979 68.487c-28.345-37.313-71.627-46.285-107.817-33.975C3834.993 46.823 3806 80.31 3806 127.685c0 47.422 25.851 91.797 60.471 125.653 34.619 33.857 77.901 57.09 112.529 62.461 34.628-5.371 77.91-28.604 112.529-62.461 34.62-33.856 60.471-78.231 60.471-125.653 0-47.375-28.993-80.862-65.183-93.173-36.19-12.31-79.472-3.338-107.817 33.975zM4325 67.835c-28.512-36.958-71.801-45.672-107.955-33.172-36.155 12.5-65.045 46.086-65.045 93.444 0 47.405 25.779 91.774 60.377 125.615 34.599 33.841 77.888 57.026 112.623 62.346 34.735-5.32 78.024-28.505 112.623-62.346 34.598-33.841 60.377-78.21 60.377-125.615 0-47.358-28.89-80.944-65.045-93.444-36.154-12.5-79.443-3.786-107.955 33.172zM4671 67.095c-28.701-36.555-71.999-44.976-108.112-32.26C4526.774 47.55 4498 81.247 4498 128.586c0 47.385 25.696 91.748 60.271 125.571 34.575 33.824 77.873 56.953 112.729 62.216 34.856-5.263 78.154-28.392 112.729-62.216 34.575-33.823 60.271-78.186 60.271-125.571 0-47.339-28.774-81.036-64.888-93.751-36.113-12.716-79.411-4.295-108.112 32.26zM5017 66.26c-28.915-36.1-72.221-44.19-108.289-31.232C4872.643 47.987 4844 81.809 4844 129.126c0 47.363 25.604 91.718 60.152 125.522s77.855 56.872 112.848 62.068c34.993-5.196 78.3-28.264 112.848-62.068S5190 176.489 5190 129.126c0-47.317-28.643-81.139-64.711-94.098C5089.221 22.07 5045.915 30.16 5017 66.26zM5363 65.323c-29.154-35.589-72.471-43.309-108.488-30.078C5218.496 48.476 5190 82.439 5190 129.732c0 47.338 25.5 91.685 60.018 125.467s77.835 56.78 112.982 61.903c35.147-5.123 78.464-28.121 112.982-61.903S5536 177.07 5536 129.732c0-47.293-28.496-81.256-64.512-94.487-36.017-13.231-79.334-5.511-108.488 30.078zM5709 64.278c-29.422-35.02-72.75-42.326-108.709-28.791C5564.332 49.023 5536 83.143 5536 130.408c0 47.311 25.383 91.649 59.868 125.406 34.485 33.757 77.814 56.677 113.132 61.718 35.318-5.041 78.647-27.961 113.132-61.718 34.485-33.757 59.868-78.095 59.868-125.406 0-47.265-28.332-81.385-64.291-94.921-35.959-13.535-79.287-6.229-108.709 28.791zM6055 63.118c-29.719-34.388-73.059-41.235-108.955-27.362C5910.15 49.629 5882 83.924 5882 131.159c0 47.28 25.254 91.607 59.702 125.337 34.448 33.73 77.789 56.564 113.298 61.514 35.509-4.95 78.85-27.784 113.298-61.514 34.448-33.73 59.702-78.057 59.702-125.337 0-47.235-28.15-81.53-64.045-95.403-35.896-13.873-79.236-7.026-108.955 27.362zM6401 61.836c-30.047-33.689-73.401-40.029-109.226-25.783C6255.948 50.299 6228 84.786 6228 131.988c0 47.246 25.112 91.563 59.519 125.262 34.407 33.7 77.762 56.438 113.481 61.288 35.719-4.85 79.074-27.588 113.481-61.288 34.407-33.699 59.519-78.016 59.519-125.262 0-47.202-27.948-81.689-63.774-95.935-35.825-14.246-79.179-7.906-109.226 25.783zM6747 60.429c-30.407-32.923-73.777-38.706-109.525-24.05-35.748 14.656-63.475 49.354-63.475 96.52 0 47.208 24.956 91.513 59.318 125.179 34.362 33.667 77.732 56.3 113.682 61.04 35.95-4.74 79.32-27.373 113.682-61.04 34.362-33.666 59.318-77.971 59.318-125.179 0-47.166-27.727-81.864-63.475-96.52-35.748-14.656-79.118-8.873-109.525 24.05zM7093 58.893c-30.799-32.086-74.187-37.261-109.85-22.158-35.664 15.102-63.15 50.032-63.15 97.158 0 47.167 24.785 91.458 59.098 125.089 34.313 33.63 77.7 56.149 113.902 60.768 36.202-4.619 79.589-27.138 113.902-60.768C7241.215 225.351 7266 181.06 7266 133.893c0-47.126-27.486-82.056-63.15-97.158-35.663-15.103-79.051-9.928-109.85 22.158zM7439 57.23c-31.225-31.18-74.63-35.697-110.203-20.11C7293.225 52.707 7266 87.886 7266 134.969c0 47.123 24.6 91.399 58.86 124.991 34.26 33.591 77.665 55.986 114.14 60.475 36.475-4.489 79.88-26.884 114.14-60.475 34.26-33.592 58.86-77.868 58.86-124.991 0-47.083-27.225-82.262-62.797-97.849-35.573-15.587-78.978-11.07-110.203 20.11zM7785 55.444c-31.682-30.207-75.107-34.017-110.581-17.91C7638.945 53.64 7612 89.088 7612 136.125c0 47.075 24.402 91.336 58.604 124.885 34.203 33.55 77.628 55.812 114.396 60.16 36.768-4.348 80.193-26.61 114.396-60.16C7933.598 227.461 7958 183.2 7958 136.125c0-47.037-26.945-82.485-62.419-98.591-35.474-16.107-78.899-12.297-110.581 17.91zM8131 53.545c-32.168-29.172-75.613-32.231-110.983-15.571C7984.646 54.633 7958 90.366 7958 137.353c0 47.025 24.19 91.27 58.333 124.774 34.142 33.505 77.587 55.626 114.667 59.825 37.08-4.199 80.525-26.32 114.667-59.825C8279.81 228.623 8304 184.378 8304 137.353c0-46.987-26.646-82.72-62.017-99.379-35.37-16.66-78.815-13.601-110.983 15.571zM8477 51.547c-32.679-28.084-76.146-30.351-111.407-13.11C8330.333 55.677 8304 91.71 8304 138.646c0 46.972 23.968 91.199 58.047 124.656 34.078 33.458 77.546 55.43 114.953 59.473 37.407-4.043 80.875-26.015 114.953-59.473 34.079-33.457 58.047-77.684 58.047-124.656 0-46.936-26.333-82.969-61.593-100.209-35.261-17.241-78.728-14.974-111.407 13.11zM8823 49.47c-33.21-26.952-76.7-28.398-111.847-10.552C8676.007 56.763 8650 93.108 8650 139.99c0 46.916 23.738 91.125 57.75 124.534 34.011 33.409 77.502 55.226 115.25 59.106 37.748-3.88 81.239-25.697 115.25-59.106 34.012-33.409 57.75-77.618 57.75-124.534 0-46.882-26.007-83.227-61.153-101.072C8899.7 21.072 8856.21 22.518 8823 49.47zM9169 47.338c-33.755-25.791-77.269-26.392-112.299-7.926C9021.672 57.877 8996 94.543 8996 141.37c0 46.859 23.501 91.05 57.444 124.408 33.944 33.359 77.458 55.017 115.556 58.73 38.098-3.713 81.612-25.371 115.556-58.73C9318.499 232.42 9342 188.229 9342 141.37c0-46.827-25.672-83.493-60.701-101.958-35.03-18.466-78.544-17.865-112.299 7.926zM9515 45.175c-34.309-24.612-77.846-24.358-112.757-5.262C9367.332 59.008 9342 95.999 9342 142.769c0 46.802 23.26 90.974 57.135 124.281 33.875 33.308 77.412 54.805 115.865 58.348 38.453-3.543 81.99-25.04 115.865-58.348C9664.74 233.743 9688 189.571 9688 142.769c0-46.77-25.332-83.761-60.243-102.856-34.911-19.096-78.448-19.35-112.757 5.262zM9861 43.008c-34.863-23.432-78.424-22.319-113.216-2.593C9712.992 60.141 9688 97.457 9688 144.171c0 46.745 23.019 90.897 56.825 124.154 33.805 33.257 77.367 54.593 116.175 57.966 38.808-3.373 82.37-24.709 116.175-57.966 33.806-33.257 56.825-77.409 56.825-124.154 0-46.714-24.992-84.03-59.784-103.756S9895.863 19.576 9861 43.008zM10207 40.86c-35.412-22.261-78.997-20.299-113.671.052-34.674 20.351-59.329 57.99-59.329 104.649 0 46.687 22.781 90.821 56.518 124.027 33.736 33.206 77.321 54.383 116.482 57.587 39.161-3.204 82.746-24.381 116.482-57.587 33.737-33.206 56.518-77.34 56.518-124.027 0-46.659-24.655-84.298-59.329-104.649s-78.259-22.313-113.671-.052zM10553 38.752c-35.952-21.113-79.56-18.316-114.118 2.649-34.558 20.964-58.882 58.92-58.882 105.524 0 46.631 22.546 90.747 56.216 123.903 33.669 33.157 77.277 54.176 116.784 57.215 39.507-3.039 83.115-24.058 116.784-57.215 33.67-33.156 56.216-77.272 56.216-123.903 0-46.604-24.324-84.56-58.882-105.524-34.558-20.965-78.166-23.762-114.118-2.649zM10899 36.701c-36.477-19.996-80.107-16.387-114.552 5.175-34.446 21.561-58.448 59.826-58.448 106.377 0 46.576 22.318 90.674 55.922 123.782 33.604 33.108 77.235 53.974 117.078 56.853 39.843-2.879 83.474-23.745 117.078-56.853 33.604-33.108 55.922-77.206 55.922-123.782 0-46.551-24.002-84.816-58.448-106.377-34.445-21.562-78.075-25.171-114.552-5.175zM11245 34.718c-36.984-18.915-80.636-14.522-114.973 7.617S11072 103.036 11072 149.536c0 46.523 22.098 90.604 55.639 123.665 33.54 33.062 77.192 53.781 117.361 56.503 40.169-2.722 83.821-23.441 117.361-56.503 33.541-33.061 55.639-77.142 55.639-123.665 0-46.5-23.69-85.062-58.027-107.201-34.337-22.139-77.989-26.532-114.973-7.617zM11591 32.811c-37.471-17.876-81.145-12.728-115.377 9.966-34.232 22.693-57.623 61.542-57.623 107.992 0 46.473 21.886 90.537 55.366 123.554 33.479 33.016 77.153 53.593 117.634 56.166 40.481-2.573 84.155-23.15 117.634-56.166 33.48-33.017 55.366-77.081 55.366-123.554 0-46.45-23.391-85.299-57.623-107.992-34.232-22.694-77.906-27.842-115.377-9.966zM11937 30.987c-37.938-16.882-81.631-11.012-115.763 12.213-34.133 23.224-57.237 62.347-57.237 108.75 0 46.424 21.683 90.472 55.105 123.446 33.421 32.973 77.114 53.414 117.895 55.845 40.781-2.431 84.474-22.872 117.895-55.845 33.422-32.974 55.105-77.022 55.105-123.446 0-46.403-23.104-85.526-57.237-108.75-34.132-23.225-77.825-29.095-115.763-12.213zM12283 29.246c-38.383-15.934-82.096-9.375-116.132 14.357-34.037 23.731-56.868 63.115-56.868 109.473 0 46.378 21.49 90.411 54.856 123.344 33.365 32.932 77.078 53.244 118.144 55.537 41.066-2.293 84.779-22.605 118.144-55.537 33.366-32.933 54.856-76.966 54.856-123.344 0-46.358-22.831-85.742-56.868-109.473-34.036-23.732-77.749-30.291-116.132-14.357zM12629 27.589c-38.807-15.031-82.538-7.816-116.483 16.398-33.946 24.213-56.517 63.846-56.517 110.161 0 46.334 21.306 90.353 54.619 123.246 33.312 32.894 77.043 53.082 118.381 55.246 41.338-2.164 85.069-22.352 118.381-55.246 33.313-32.893 54.619-76.912 54.619-123.246 0-46.315-22.571-85.948-56.517-110.161-33.945-24.214-77.676-31.429-116.483-16.398zM12975 26.015c-39.21-14.173-82.958-6.336-116.817 18.336-33.859 24.672-56.183 64.542-56.183 110.816 0 46.292 21.131 90.297 54.393 123.153 33.263 32.857 77.01 52.928 118.607 54.968 41.597-2.04 85.344-22.111 118.607-54.968 33.262-32.856 54.393-76.861 54.393-123.153 0-46.274-22.324-86.144-56.183-110.816-33.859-24.672-77.607-32.509-116.817-18.336zM13321 24.521c-39.592-13.36-83.356-4.931-117.133 20.177-33.778 25.106-55.867 65.2-55.867 111.436 0 46.252 20.964 90.244 54.18 123.065 33.214 32.821 76.978 52.781 118.82 54.704 41.842-1.923 85.606-21.883 118.82-54.704 33.216-32.821 54.18-76.813 54.18-123.065 0-46.236-22.089-86.33-55.867-111.436-33.777-25.108-77.541-33.537-117.133-20.177zM13667 23.104c-39.955-12.588-83.734-3.598-117.434 21.922-33.699 25.519-55.566 65.826-55.566 112.025 0 46.214 20.807 90.194 53.977 122.982 33.169 32.788 76.949 52.642 119.023 54.454 42.074-1.812 85.854-21.666 119.023-54.454 33.17-32.788 53.977-76.768 53.977-122.982 0-46.199-21.867-86.506-55.566-112.025-33.7-25.52-77.479-34.51-117.434-21.922zM14013 21.76c-40.298-11.855-84.093-2.333-117.718 23.577-33.626 25.91-55.282 66.419-55.282 112.583 0 46.179 20.658 90.146 53.785 122.903 33.126 32.756 76.92 52.51 119.215 54.217 42.295-1.707 86.089-21.461 119.215-54.217 33.127-32.757 53.785-76.724 53.785-122.903 0-46.164-21.656-86.673-55.282-112.583-33.625-25.91-77.42-35.432-117.718-23.577zM14359 20.487c-40.624-11.162-84.433-1.136-117.988 25.145-33.556 26.28-55.012 66.981-55.012 113.112 0 46.145 20.516 90.101 53.602 122.828 33.086 32.726 76.894 52.385 119.398 53.992 42.504-1.607 86.312-21.266 119.398-53.992 33.086-32.727 53.602-76.683 53.602-122.828 0-46.131-21.456-86.832-55.012-113.112-33.555-26.281-77.364-36.307-117.988-25.145zM14705 19.28c-40.933-10.504-84.754-.001-118.244 26.632-33.49 26.631-54.756 67.513-54.756 113.612 0 46.114 20.382 90.06 53.43 122.757 33.047 32.698 76.868 52.268 119.57 53.78 42.702-1.512 86.523-21.082 119.57-53.78 33.048-32.697 53.43-76.643 53.43-122.757 0-46.099-21.266-86.981-54.756-113.612-33.49-26.633-77.311-37.136-118.244-26.632zM15051 18.137c-41.225-9.882-85.06 1.074-118.486 28.039-33.427 26.965-54.514 68.019-54.514 114.088 0 46.083 20.255 90.019 53.266 122.69 33.011 32.671 76.845 52.155 119.734 53.578 42.889-1.423 86.723-20.907 119.734-53.578 33.011-32.671 53.266-76.607 53.266-122.69 0-46.069-21.087-87.123-54.514-114.088-33.426-26.965-77.261-37.921-118.486-28.039zM15397 17.053c-41.503-9.291-85.349 2.094-118.716 29.375-33.367 27.28-54.284 68.496-54.284 114.538 0 46.054 20.134 89.98 53.111 122.626 32.976 32.645 76.822 52.049 119.889 53.386 43.067-1.337 86.913-20.741 119.889-53.386 32.977-32.646 53.111-76.572 53.111-122.626 0-46.042-20.917-87.258-54.284-114.538-33.367-27.281-77.213-38.666-118.716-29.375zM15743 16.025c-41.766-8.731-85.623 3.061-118.933 30.641-33.312 27.579-54.067 68.95-54.067 114.965 0 46.026 20.02 89.944 52.964 122.565 32.943 32.622 76.8 51.949 120.036 53.206 43.236-1.257 87.093-20.584 120.036-53.206 32.944-32.621 52.964-76.539 52.964-122.565 0-46.015-20.755-87.386-54.067-114.965-33.31-27.58-77.167-39.372-118.933-30.641zM16089 15.05c-42.015-8.199-85.883 3.978-119.14 31.841-33.258 27.863-53.86 69.381-53.86 115.37 0 46.001 19.912 89.91 52.825 122.508 32.911 32.599 76.779 51.853 120.175 53.034 43.396-1.181 87.264-20.435 120.175-53.034 32.913-32.598 52.825-76.507 52.825-122.508 0-45.989-20.602-87.507-53.86-115.37-33.257-27.863-77.125-40.04-119.14-31.841zM16435 14.126c-42.251-7.696-86.129 4.847-119.336 32.98-33.207 28.131-53.664 69.787-53.664 115.754 0 45.975 19.809 89.876 52.692 122.453 32.883 32.577 76.761 51.762 120.308 52.87 43.547-1.108 87.425-20.293 120.308-52.87 32.883-32.577 52.692-76.478 52.692-122.453 0-45.967-20.457-87.623-53.664-115.754-33.207-28.133-77.085-40.676-119.336-32.98zM16781 13.25c-42.476-7.219-86.363 5.671-119.522 34.059-33.159 28.386-53.478 70.174-53.478 116.118 0 45.952 19.712 89.846 52.567 122.402 32.854 32.556 76.742 51.676 120.433 52.715 43.691-1.039 87.579-20.159 120.433-52.715 32.855-32.556 52.567-76.45 52.567-122.402 0-45.944-20.319-87.732-53.478-116.118-33.159-28.388-77.046-41.278-119.522-34.059zM17127 12.418c-42.688-6.766-86.585 6.454-119.698 35.083-33.113 28.629-53.302 70.542-53.302 116.464 0 45.93 19.619 89.817 52.448 122.353 32.828 32.536 76.724 51.595 120.552 52.569 43.828-.974 87.724-20.033 120.552-52.569 32.829-32.536 52.448-76.423 52.448-122.353 0-45.922-20.189-87.835-53.302-116.464-33.113-28.629-77.01-41.849-119.698-35.083zM17473 11.629c-42.89-6.336-86.796 7.196-119.865 36.055-33.07 28.859-53.135 70.89-53.135 116.791 0 45.91 19.532 89.789 52.335 122.307s76.708 51.518 120.665 52.43c43.957-.912 87.862-19.912 120.665-52.43 32.803-32.518 52.335-76.397 52.335-122.307 0-45.901-20.065-87.932-53.135-116.791-33.069-28.859-76.975-42.391-119.865-36.055zM17819 10.88c-43.082-5.928-86.995 7.9-120.024 36.978-33.029 29.076-52.976 71.22-52.976 117.102 0 45.889 19.448 89.762 52.228 122.262 32.778 32.501 76.692 51.445 120.772 52.298 44.08-.853 87.994-19.797 120.772-52.298 32.78-32.5 52.228-76.373 52.228-122.262 0-45.882-19.947-88.026-52.976-117.102-33.029-29.078-76.942-42.906-120.024-36.978zM18165 10.17c-43.263-5.541-87.185 8.568-120.174 37.852-32.99 29.283-52.826 71.534-52.826 117.398 0 45.87 19.369 89.737 52.126 122.22 32.756 32.484 76.678 51.375 120.874 52.173 44.196-.798 88.118-19.689 120.874-52.173 32.757-32.483 52.126-76.35 52.126-122.22 0-45.864-19.836-88.115-52.826-117.398-32.989-29.284-76.911-43.393-120.174-37.852zM18511 9.495c-43.436-5.173-87.365 9.203-120.317 38.683-32.953 29.48-52.683 71.832-52.683 117.678 0 45.853 19.294 89.713 52.03 122.181 32.734 32.467 76.663 51.308 120.97 52.053 44.307-.745 88.236-19.586 120.97-52.053 32.736-32.468 52.03-76.328 52.03-122.181 0-45.846-19.73-88.198-52.683-117.678-32.952-29.48-76.881-43.856-120.317-38.683zM18857 8.856c-43.6-4.825-87.535 9.804-120.453 39.47C18703.63 77.992 18684 120.44 18684 166.27c0 45.835 19.223 89.691 51.938 122.143 32.714 32.453 76.65 51.246 121.062 51.94 44.412-.694 88.348-19.487 121.062-51.94 32.715-32.452 51.938-76.308 51.938-122.143 0-45.83-19.63-88.278-52.547-117.944-32.918-29.666-76.853-44.295-120.453-39.47zM19203 8.249c-43.755-4.494-87.697 10.375-120.581 40.218-32.885 29.842-52.419 72.382-52.419 118.195 0 45.82 19.156 89.67 51.851 122.108s76.637 51.186 121.149 51.833c44.512-.647 88.454-19.395 121.149-51.833 32.695-32.438 51.851-76.288 51.851-122.108 0-45.813-19.534-88.353-52.419-118.195-32.884-29.843-76.826-44.712-120.581-40.218zM19549 7.674c-43.902-4.181-87.851 10.916-120.703 40.926-32.853 30.01-52.297 72.636-52.297 118.435 0 45.804 19.092 89.649 51.769 122.073 32.676 32.425 76.625 51.13 121.231 51.732 44.606-.602 88.555-19.307 121.231-51.732 32.677-32.424 51.769-76.269 51.769-122.073 0-45.799-19.444-88.425-52.297-118.435-32.852-30.01-76.801-45.107-120.703-40.926zM19895 7.128c-44.042-3.883-87.996 11.429-120.819 41.599-32.823 30.168-52.181 72.876-52.181 118.661 0 45.789 19.031 89.63 51.691 122.041 32.659 32.412 76.614 51.077 121.309 51.636 44.695-.559 88.65-19.224 121.309-51.636 32.66-32.411 51.691-76.252 51.691-122.041 0-45.785-19.358-88.493-52.181-118.661-32.823-30.17-76.777-45.482-120.819-41.599zM20241 6.611c-44.174-3.602-88.134 11.916-120.928 42.236-32.795 30.319-52.072 73.104-52.072 118.875 0 45.776 18.974 89.612 51.617 122.012 32.642 32.399 76.603 51.025 121.383 51.544 44.78-.519 88.741-19.145 121.383-51.544 32.643-32.4 51.617-76.236 51.617-122.012 0-45.771-19.277-88.556-52.072-118.875-32.794-30.32-76.754-45.838-120.928-42.236zM20587 6.121c-44.299-3.335-88.265 12.377-121.032 42.839-32.768 30.462-51.968 73.321-51.968 119.08 0 45.762 18.919 89.594 51.547 121.982 32.626 32.388 76.592 50.978 121.453 51.458 44.861-.48 88.827-19.07 121.453-51.458 32.628-32.388 51.547-76.22 51.547-121.982 0-45.759-19.2-88.618-51.968-119.08-32.767-30.462-76.733-46.174-121.032-42.839zM20933 5.657c-44.418-3.082-88.389 12.813-121.13 43.411-32.743 30.596-51.87 73.525-51.87 119.272 0 45.75 18.868 89.578 51.48 121.955 32.612 32.377 76.583 50.932 121.52 51.376 44.937-.444 88.908-18.999 121.52-51.376 32.612-32.377 51.48-76.205 51.48-121.955 0-45.747-19.127-88.676-51.87-119.272-32.741-30.598-76.712-46.493-121.13-43.411zM21279 5.217c-44.53-2.842-88.506 13.227-121.223 43.952-32.719 30.725-51.777 73.72-51.777 119.455 0 45.739 18.819 89.562 51.418 121.929 32.597 32.367 76.573 50.889 121.582 51.299 45.009-.41 88.985-18.932 121.582-51.299 32.599-32.367 51.418-76.19 51.418-121.929 0-45.735-19.058-88.73-51.777-119.455-32.717-30.725-76.693-46.794-121.223-43.952zM21625 4.802c-44.637-2.616-88.617 13.617-121.312 44.464-32.695 30.845-51.688 73.902-51.688 119.627 0 45.728 18.773 89.547 51.358 121.905 32.585 32.357 76.565 50.848 121.642 51.225 45.077-.377 89.057-18.868 121.642-51.225 32.585-32.358 51.358-76.177 51.358-121.905 0-45.725-18.993-88.782-51.688-119.627-32.695-30.847-76.675-47.08-121.312-44.464zM21971 4.409c-44.737-2.402-88.722 13.987-121.395 44.948-32.674 30.959-51.605 74.076-51.605 119.79 0 45.717 18.729 89.534 51.302 121.881 32.572 32.348 76.556 50.811 121.698 51.156 45.142-.345 89.126-18.808 121.698-51.156 32.573-32.347 51.302-76.164 51.302-121.881 0-45.714-18.931-88.831-51.605-119.79-32.673-30.961-76.658-47.35-121.395-44.948zM22317 4.039c-44.832-2.201-88.821 14.335-121.473 45.403-32.654 31.068-51.527 74.24-51.527 119.945 0 45.707 18.688 89.52 51.249 121.86 32.56 32.339 76.549 50.773 121.751 51.09 45.202-.317 89.191-18.751 121.751-51.09 32.561-32.34 51.249-76.153 51.249-121.86 0-45.705-18.873-88.877-51.527-119.945-32.652-31.068-76.641-47.604-121.473-45.403zM22663 3.689c-44.921-2.01-88.914 14.664-121.547 45.834-32.635 31.17-51.453 74.395-51.453 120.09 0 45.698 18.649 89.508 51.199 121.839 32.549 32.331 76.541 50.74 121.801 51.029 45.26-.289 89.252-18.698 121.801-51.029 32.55-32.331 51.199-76.141 51.199-121.839 0-45.695-18.818-88.92-51.453-120.09-32.633-31.17-76.626-47.844-121.547-45.834zM23009 3.359c-45.006-1.83-89.002 14.975-121.617 46.241-32.617 31.265-51.383 74.539-51.383 120.226 0 45.69 18.612 89.497 51.152 121.82 32.538 32.323 76.534 50.707 121.848 50.971 45.314-.264 89.31-18.648 121.848-50.971 32.54-32.323 51.152-76.13 51.152-121.82 0-45.687-18.766-88.961-51.383-120.226-32.615-31.266-76.611-48.071-121.617-46.241zM23355 3.049c-45.085-1.661-89.085 15.266-121.683 46.623-32.599 31.355-51.317 74.676-51.317 120.355 0 45.681 18.578 89.486 51.107 121.802 32.529 32.315 76.528 50.676 121.893 50.915 45.365-.239 89.364-18.6 121.893-50.915 32.529-32.316 51.107-76.121 51.107-121.802 0-45.679-18.718-89-51.317-120.355-32.598-31.357-76.598-48.284-121.683-46.623zM23701 2.758c-45.16-1.503-89.162 15.54-121.745 46.981-32.583 31.441-51.255 74.805-51.255 120.477 0 45.673 18.546 89.475 51.066 121.784 32.519 32.309 76.521 50.648 121.934 50.864 45.413-.216 89.415-18.555 121.934-50.864 32.52-32.309 51.066-76.111 51.066-121.784 0-45.672-18.672-89.036-51.255-120.477-32.583-31.441-76.585-48.484-121.745-46.981zM24047 2.484c-45.229-1.353-89.235 15.798-121.803 47.318-32.568 31.52-51.197 74.926-51.197 120.59 0 45.667 18.515 89.466 51.026 121.769 32.511 32.302 76.517 50.621 121.974 50.816 45.457-.195 89.463-18.514 121.974-50.816 32.511-32.303 51.026-76.102 51.026-121.769 0-45.664-18.629-89.07-51.197-120.59-32.568-31.52-76.574-48.671-121.803-47.318zM24393 2.228c-45.295-1.214-89.304 16.038-121.857 47.634-32.554 31.594-51.143 75.038-51.143 120.696 0 45.659 18.487 89.457 50.99 121.753 32.502 32.297 76.511 50.597 122.01 50.771 45.499-.174 89.508-18.474 122.01-50.771 32.503-32.296 50.99-76.094 50.99-121.753 0-45.658-18.589-89.102-51.143-120.696-32.553-31.596-76.562-48.848-121.857-47.634zM24739 1.989c-45.356-1.084-89.367 16.263-121.908 47.928-32.541 31.664-51.092 75.144-51.092 120.796 0 45.653 18.46 89.448 50.956 121.739 32.494 32.291 76.505 50.573 122.044 50.729 45.539-.156 89.55-18.438 122.044-50.729 32.496-32.291 50.956-76.086 50.956-121.739 0-45.652-18.551-89.132-51.092-120.796-32.541-31.665-76.552-49.012-121.908-47.928zM25085 1.766c-45.413-.962-89.427 16.473-121.955 48.203-32.529 31.729-51.045 75.243-51.045 120.888 0 45.647 18.435 89.441 50.924 121.726 32.487 32.286 76.501 50.551 122.076 50.69 45.575-.139 89.589-18.404 122.076-50.69 32.489-32.285 50.924-76.079 50.924-121.726 0-45.645-18.516-89.159-51.045-120.888-32.528-31.73-76.542-49.165-121.955-48.203zM25431 1.558c-45.466-.849-89.482 16.669-121.999 48.459-32.517 31.789-51.001 75.334-51.001 120.975 0 45.641 18.412 89.433 50.894 121.713 32.481 32.281 76.497 50.531 122.106 50.653 45.609-.122 89.625-18.372 122.106-50.653 32.482-32.28 50.894-76.072 50.894-121.713 0-45.641-18.484-89.186-51.001-120.975-32.517-31.79-76.533-49.308-121.999-48.459zM25777 1.366c-45.516-.744-89.534 16.849-122.04 48.696-32.507 31.845-50.96 75.419-50.96 121.054 0 45.636 18.391 89.426 50.866 121.703 32.475 32.276 76.493 50.511 122.134 50.619 45.641-.108 89.659-18.343 122.134-50.619 32.475-32.277 50.866-76.067 50.866-121.703 0-45.635-18.453-89.209-50.96-121.054-32.506-31.847-76.524-49.44-122.04-48.696zM26123 1.188c-45.561-.647-89.581 17.017-122.077 48.915C25968.426 82 25950 125.6 25950 171.231c0 45.632 18.371 89.42 50.841 121.692 32.469 32.272 76.489 50.495 122.159 50.588 45.67-.093 89.69-18.316 122.159-50.588 32.47-32.272 50.841-76.06 50.841-121.692 0-45.631-18.426-89.231-50.923-121.128-32.496-31.898-76.516-49.562-122.077-48.915zM26469 1.025c-45.603-.559-89.625 17.17-122.112 49.116-32.488 31.944-50.888 75.57-50.888 121.196 0 45.627 18.353 89.414 50.818 121.682 32.463 32.269 76.485 50.479 122.182 50.559 45.697-.08 89.719-18.29 122.182-50.559 32.465-32.268 50.818-76.055 50.818-121.682 0-45.626-18.4-89.252-50.888-121.196-32.487-31.946-76.509-49.675-122.112-49.116zM26815 .875c-45.641-.477-89.665 17.311-122.144 49.3-32.48 31.989-50.856 75.636-50.856 121.259 0 45.623 18.336 89.409 50.796 121.674 32.459 32.264 76.482 50.463 122.204 50.532 45.722-.069 89.745-18.268 122.204-50.532 32.46-32.265 50.796-76.051 50.796-121.674 0-45.623-18.376-89.27-50.856-121.259-32.479-31.989-76.503-49.777-122.144-49.3zM27161 .738c-45.676-.402-89.701 17.44-122.173 49.469-32.472 32.028-50.827 75.696-50.827 121.316 0 45.619 18.321 89.404 50.777 121.665 32.454 32.261 76.479 50.45 122.223 50.508 45.744-.058 89.769-18.247 122.223-50.508 32.456-32.261 50.777-76.046 50.777-121.665 0-45.62-18.355-89.288-50.827-121.316C27250.701 18.178 27206.676.336 27161 .738zM27507 .614c-45.708-.335-89.734 17.556-122.199 49.622-32.466 32.064-50.801 75.751-50.801 121.367s18.307 89.399 50.759 121.658c32.45 32.258 76.477 50.438 122.241 50.486 45.764-.048 89.791-18.228 122.241-50.486 32.452-32.259 50.759-76.042 50.759-121.658s-18.335-89.303-50.801-121.367C27596.734 18.17 27552.708.279 27507 .614zM27853 .502c-45.736-.273-89.764 17.662-122.223 49.76-32.459 32.096-50.777 75.8-50.777 121.413s18.295 89.396 50.743 121.651c32.447 32.256 76.474 50.428 122.257 50.467 45.783-.039 89.81-18.211 122.257-50.467 32.448-32.255 50.743-76.038 50.743-121.651s-18.318-89.317-50.777-121.413C27942.764 18.164 27898.736.229 27853 .502zM28199 .403c-45.762-.22-89.79 17.755-122.244 49.882-32.454 32.125-50.756 75.844-50.756 121.454 0 45.611 18.284 89.392 50.729 121.646 32.444 32.253 76.472 50.417 122.271 50.449 45.799-.032 89.827-18.196 122.271-50.449 32.445-32.254 50.729-76.035 50.729-121.646 0-45.61-18.302-89.329-50.756-121.454C28288.79 18.158 28244.762.183 28199 .403zM28545 .316c-45.784-.172-89.814 17.837-122.262 49.989-32.449 32.151-50.738 75.883-50.738 121.491 0 45.608 18.274 89.389 50.716 121.64 32.441 32.252 76.471 50.409 122.284 50.434 45.813-.025 89.843-18.182 122.284-50.434 32.442-32.251 50.716-76.032 50.716-121.64 0-45.608-18.289-89.34-50.738-121.491C28634.814 18.153 28590.784.144 28545 .316zM28891 .239c-45.804-.13-89.834 17.909-122.278 50.084-32.445 32.173-50.722 75.916-50.722 121.522 0 45.606 18.266 89.387 50.705 121.636 32.439 32.25 76.469 50.402 122.295 50.42 45.826-.018 89.856-18.17 122.295-50.42 32.439-32.249 50.705-76.03 50.705-121.636 0-45.606-18.277-89.349-50.722-121.522C28980.834 18.148 28936.804.109 28891 .239zM29237 .174c-45.82-.095-89.852 17.97-122.292 50.164-32.442 32.192-50.708 75.945-50.708 121.549 0 45.605 18.258 89.384 50.696 121.633 32.436 32.248 76.468 50.395 122.304 50.408 45.836-.013 89.868-18.16 122.304-50.408 32.438-32.249 50.696-76.028 50.696-121.633 0-45.604-18.266-89.357-50.708-121.549C29326.852 18.144 29282.82.079 29237 .174zM29583 .12c-45.834-.065-89.866 18.021-122.304 50.23-32.438 32.208-50.696 75.969-50.696 121.572 0 45.604 18.252 89.383 50.688 121.629 32.435 32.247 76.467 50.39 122.312 50.4 45.845-.01 89.877-18.153 122.312-50.4 32.436-32.246 50.688-76.025 50.688-121.629 0-45.603-18.258-89.364-50.696-121.572-32.438-32.209-76.47-50.295-122.304-50.23zM29929 .076c-45.846-.041-89.878 18.063-122.313 50.284-32.436 32.221-50.687 75.989-50.687 121.591 0 45.602 18.247 89.38 50.682 121.626 32.433 32.246 76.465 50.386 122.318 50.392 45.853-.006 89.885-18.146 122.318-50.392 32.435-32.246 50.682-76.024 50.682-121.626 0-45.602-18.251-89.37-50.687-121.591C30018.878 18.139 29974.846.035 29929 .076zM30275 .042c-45.854-.023-89.887 18.095-122.32 50.326-32.434 32.231-50.68 76.003-50.68 121.605 0 45.601 18.244 89.379 50.677 121.624 32.432 32.245 76.465 50.382 122.323 50.386 45.858-.004 89.891-18.141 122.323-50.386 32.433-32.245 50.677-76.023 50.677-121.624 0-45.602-18.246-89.374-50.68-121.605-32.433-32.231-76.466-50.349-122.32-50.326zM30621 .019c-45.86-.01-89.893 18.116-122.325 50.355-32.433 32.237-50.675 76.013-50.675 121.614 0 45.6 18.241 89.379 50.674 121.623 32.431 32.244 76.464 50.38 122.326 50.381 45.862-.001 89.895-18.137 122.326-50.381 32.433-32.244 50.674-76.023 50.674-121.623 0-45.601-18.242-89.377-50.675-121.614C30710.893 18.135 30666.86.009 30621 .019zM30967 .005c-45.864-.003-89.897 18.129-122.328 50.372-32.432 32.242-50.672 76.02-50.672 121.62 0 45.6 18.24 89.378 50.672 121.622 32.431 32.244 76.464 50.379 122.328 50.379 45.864 0 89.897-18.135 122.328-50.379 32.432-32.244 50.672-76.022 50.672-121.622 0-45.6-18.24-89.378-50.672-121.62C31056.897 18.134 31012.864.002 30967 .005zM31313 0c-45.865 0-89.898 18.134-122.329 50.378C31158.239 82.621 31140 126.4 31140 172c0 45.6 18.239 89.378 50.671 121.622C31223.102 325.866 31267.135 344 31313 344c45.865 0 89.898-18.134 122.329-50.378C31467.761 261.378 31486 217.6 31486 172c0-45.6-18.239-89.379-50.671-121.622C31402.898 18.134 31358.865 0 31313 0zM31659 0c-45.865 0-89.898 18.134-122.329 50.378C31504.239 82.621 31486 126.4 31486 172c0 45.6 18.239 89.378 50.671 121.622C31569.102 325.866 31613.135 344 31659 344c45.865 0 89.898-18.134 122.329-50.378C31813.761 261.378 31832 217.6 31832 172c0-45.6-18.239-89.379-50.671-121.622C31748.898 18.134 31704.865 0 31659 0zM32005 0c-45.865 0-89.898 18.134-122.329 50.378C31850.239 82.621 31832 126.4 31832 172c0 45.6 18.239 89.378 50.671 121.622C31915.102 325.866 31959.135 344 32005 344c45.865 0 89.898-18.134 122.329-50.378C32159.761 261.378 32178 217.6 32178 172c0-45.6-18.239-89.379-50.671-121.622C32094.898 18.134 32050.865 0 32005 0zM32351 0c-45.865 0-89.898 18.134-122.329 50.378C32196.239 82.621 32178 126.4 32178 172c0 45.6 18.239 89.378 50.671 121.622C32261.102 325.866 32305.135 344 32351 344c45.865 0 89.898-18.134 122.329-50.378C32505.761 261.378 32524 217.6 32524 172c0-45.6-18.239-89.379-50.671-121.622C32440.898 18.134 32396.865 0 32351 0zM32697 0c-45.865 0-89.898 18.134-122.329 50.378C32542.239 82.621 32524 126.4 32524 172c0 45.6 18.239 89.378 50.671 121.622C32607.102 325.866 32651.135 344 32697 344c45.865 0 89.898-18.134 122.329-50.378C32851.761 261.378 32870 217.6 32870 172c0-45.6-18.239-89.379-50.671-121.622C32786.898 18.134 32742.865 0 32697 0zM33043 0c-45.865 0-89.898 18.134-122.329 50.378C32888.239 82.621 32870 126.4 32870 172c0 45.6 18.239 89.378 50.671 121.622C32953.102 325.866 32997.135 344 33043 344c45.865 0 89.898-18.134 122.329-50.378C33197.761 261.378 33216 217.6 33216 172c0-45.6-18.239-89.379-50.671-121.622C33132.898 18.134 33088.865 0 33043 0zM33389 0c-45.865 0-89.898 18.134-122.329 50.378C33234.239 82.621 33216 126.4 33216 172c0 45.6 18.239 89.378 50.671 121.622C33299.102 325.866 33343.135 344 33389 344c45.865 0 89.898-18.134 122.329-50.378C33543.761 261.378 33562 217.6 33562 172c0-45.6-18.239-89.379-50.671-121.622C33478.898 18.134 33434.865 0 33389 0zM33735 0c-45.865 0-89.898 18.134-122.329 50.378C33580.239 82.621 33562 126.4 33562 172c0 45.6 18.239 89.378 50.671 121.622C33645.102 325.866 33689.135 344 33735 344c45.865 0 89.898-18.134 122.329-50.378C33889.761 261.378 33908 217.6 33908 172c0-45.6-18.239-89.379-50.671-121.622C33824.898 18.134 33780.865 0 33735 0zM34081 0c-45.865 0-89.898 18.134-122.329 50.378C33926.239 82.621 33908 126.4 33908 172c0 45.6 18.239 89.378 50.671 121.622C33991.102 325.866 34035.135 344 34081 344c45.865 0 89.898-18.134 122.329-50.378C34235.761 261.378 34254 217.6 34254 172c0-45.6-18.239-89.379-50.671-121.622C34170.898 18.134 34126.865 0 34081 0zM34427 0c-45.865 0-89.898 18.134-122.329 50.378C34272.239 82.621 34254 126.4 34254 172c0 45.6 18.239 89.378 50.671 121.622C34337.102 325.866 34381.135 344 34427 344c45.865 0 89.898-18.134 122.329-50.378C34581.761 261.378 34600 217.6 34600 172c0-45.6-18.239-89.379-50.671-121.622C34516.898 18.134 34472.865 0 34427 0zM34773 0c-45.865 0-89.898 18.134-122.329 50.378C34618.239 82.621 34600 126.4 34600 172c0 45.6 18.239 89.378 50.671 121.622C34683.102 325.866 34727.135 344 34773 344c45.865 0 89.898-18.134 122.329-50.378C34927.761 261.378 34946 217.6 34946 172c0-45.6-18.239-89.379-50.671-121.622C34862.898 18.134 34818.865 0 34773 0zM35119 0c-45.865 0-89.898 18.134-122.329 50.378C34964.239 82.621 34946 126.4 34946 172c0 45.6 18.239 89.378 50.671 121.622C35029.102 325.866 35073.135 344 35119 344c45.865 0 89.898-18.134 122.329-50.378C35273.761 261.378 35292 217.6 35292 172c0-45.6-18.239-89.379-50.671-121.622C35208.898 18.134 35164.865 0 35119 0zM35465 0c-45.865 0-89.898 18.134-122.329 50.378C35310.239 82.621 35292 126.4 35292 172c0 45.6 18.239 89.378 50.671 121.622C35375.102 325.866 35419.135 344 35465 344c45.865 0 89.898-18.134 122.329-50.378C35619.761 261.378 35638 217.6 35638 172c0-45.6-18.239-89.379-50.671-121.622C35554.898 18.134 35510.865 0 35465 0zM35811 0c-45.865 0-89.898 18.134-122.329 50.378C35656.239 82.621 35638 126.4 35638 172c0 45.6 18.239 89.378 50.671 121.622C35721.102 325.866 35765.135 344 35811 344c45.865 0 89.898-18.134 122.329-50.378C35965.761 261.378 35984 217.6 35984 172c0-45.6-18.239-89.379-50.671-121.622C35900.898 18.134 35856.865 0 35811 0zM36157 0c-45.865 0-89.898 18.134-122.329 50.378C36002.239 82.621 35984 126.4 35984 172c0 45.6 18.239 89.378 50.671 121.622C36067.102 325.866 36111.135 344 36157 344c45.865 0 89.898-18.134 122.329-50.378C36311.761 261.378 36330 217.6 36330 172c0-45.6-18.239-89.379-50.671-121.622C36246.898 18.134 36202.865 0 36157 0zM36503 0c-45.865 0-89.898 18.134-122.329 50.378C36348.239 82.621 36330 126.4 36330 172c0 45.6 18.239 89.378 50.671 121.622C36413.102 325.866 36457.135 344 36503 344c45.865 0 89.898-18.134 122.329-50.378C36657.761 261.378 36676 217.6 36676 172c0-45.6-18.239-89.379-50.671-121.622C36592.898 18.134 36548.865 0 36503 0zM36849 0c-45.865 0-89.898 18.134-122.329 50.378C36694.239 82.621 36676 126.4 36676 172c0 45.6 18.239 89.378 50.671 121.622C36759.102 325.866 36803.135 344 36849 344c45.865 0 89.898-18.134 122.329-50.378C37003.761 261.378 37022 217.6 37022 172c0-45.6-18.239-89.379-50.671-121.622C36938.898 18.134 36894.865 0 36849 0zM37195 0c-45.865 0-89.898 18.134-122.329 50.378C37040.239 82.621 37022 126.4 37022 172c0 45.6 18.239 89.378 50.671 121.622C37105.102 325.866 37149.135 344 37195 344c45.865 0 89.898-18.134 122.329-50.378C37349.761 261.378 37368 217.6 37368 172c0-45.6-18.239-89.379-50.671-121.622C37284.898 18.134 37240.865 0 37195 0zM37541 0c-45.865 0-89.898 18.134-122.329 50.378C37386.239 82.621 37368 126.4 37368 172c0 45.6 18.239 89.378 50.671 121.622C37451.102 325.866 37495.135 344 37541 344c45.865 0 89.898-18.134 122.329-50.378C37695.761 261.378 37714 217.6 37714 172c0-45.6-18.239-89.379-50.671-121.622C37630.898 18.134 37586.865 0 37541 0zM37887 0c-45.865 0-89.898 18.134-122.329 50.378C37732.239 82.621 37714 126.4 37714 172c0 45.6 18.239 89.378 50.671 121.622C37797.102 325.866 37841.135 344 37887 344c45.865 0 89.898-18.134 122.329-50.378C38041.761 261.378 38060 217.6 38060 172c0-45.6-18.239-89.379-50.671-121.622C37976.898 18.134 37932.865 0 37887 0zM38233 0c-45.865 0-89.898 18.134-122.329 50.378C38078.239 82.621 38060 126.4 38060 172c0 45.6 18.239 89.378 50.671 121.622C38143.102 325.866 38187.135 344 38233 344c45.865 0 89.898-18.134 122.329-50.378C38387.761 261.378 38406 217.6 38406 172c0-45.6-18.239-89.379-50.671-121.622C38322.898 18.134 38278.865 0 38233 0zM38579 0c-45.865 0-89.898 18.134-122.329 50.378C38424.239 82.621 38406 126.4 38406 172c0 45.6 18.239 89.378 50.671 121.622C38489.102 325.866 38533.135 344 38579 344c45.865 0 89.898-18.134 122.329-50.378C38733.761 261.378 38752 217.6 38752 172c0-45.6-18.239-89.379-50.671-121.622C38668.898 18.134 38624.865 0 38579 0zM38925 0c-45.865 0-89.898 18.134-122.329 50.378C38770.239 82.621 38752 126.4 38752 172c0 45.6 18.239 89.378 50.671 121.622C38835.102 325.866 38879.135 344 38925 344c45.865 0 89.898-18.134 122.329-50.378C39079.761 261.378 39098 217.6 39098 172c0-45.6-18.239-89.379-50.671-121.622C39014.898 18.134 38970.865 0 38925 0zM39271 0c-45.865 0-89.898 18.134-122.329 50.378C39116.239 82.621 39098 126.4 39098 172c0 45.6 18.239 89.378 50.671 121.622C39181.102 325.866 39225.135 344 39271 344c45.865 0 89.898-18.134 122.329-50.378C39425.761 261.378 39444 217.6 39444 172c0-45.6-18.239-89.379-50.671-121.622C39360.898 18.134 39316.865 0 39271 0zM39617 0c-45.865 0-89.898 18.134-122.329 50.378C39462.239 82.621 39444 126.4 39444 172c0 45.6 18.239 89.378 50.671 121.622C39527.102 325.866 39571.135 344 39617 344c45.865 0 89.898-18.134 122.329-50.378C39771.761 261.378 39790 217.6 39790 172c0-45.6-18.239-89.379-50.671-121.622C39706.898 18.134 39662.865 0 39617 0zM39963 0c-45.865 0-89.898 18.134-122.329 50.378C39808.239 82.621 39790 126.4 39790 172c0 45.6 18.239 89.378 50.671 121.622C39873.102 325.866 39917.135 344 39963 344c45.865 0 89.898-18.134 122.329-50.378C40117.761 261.378 40136 217.6 40136 172c0-45.6-18.239-89.379-50.671-121.622C40052.898 18.134 40008.865 0 39963 0zM40309 0c-45.865 0-89.898 18.134-122.329 50.378C40154.239 82.621 40136 126.4 40136 172c0 45.6 18.239 89.378 50.671 121.622C40219.102 325.866 40263.135 344 40309 344c45.865 0 89.898-18.134 122.329-50.378C40463.761 261.378 40482 217.6 40482 172c0-45.6-18.239-89.379-50.671-121.622C40398.898 18.134 40354.865 0 40309 0zM40655 0c-45.865 0-89.898 18.134-122.329 50.378C40500.239 82.621 40482 126.4 40482 172c0 45.6 18.239 89.378 50.671 121.622C40565.102 325.866 40609.135 344 40655 344c45.865 0 89.898-18.134 122.329-50.378C40809.761 261.378 40828 217.6 40828 172c0-45.6-18.239-89.379-50.671-121.622C40744.898 18.134 40700.865 0 40655 0zM41001 0c-45.865 0-89.898 18.134-122.329 50.378C40846.239 82.621 40828 126.4 40828 172c0 45.6 18.239 89.378 50.671 121.622C40911.102 325.866 40955.135 344 41001 344c45.865 0 89.898-18.134 122.329-50.378C41155.761 261.378 41174 217.6 41174 172c0-45.6-18.239-89.379-50.671-121.622C41090.898 18.134 41046.865 0 41001 0zM41347 0c-45.865 0-89.898 18.134-122.329 50.378C41192.239 82.621 41174 126.4 41174 172c0 45.6 18.239 89.378 50.671 121.622C41257.102 325.866 41301.135 344 41347 344c45.865 0 89.898-18.134 122.329-50.378C41501.761 261.378 41520 217.6 41520 172c0-45.6-18.239-89.379-50.671-121.622C41436.898 18.134 41392.865 0 41347 0zM41693 0c-45.865 0-89.898 18.134-122.329 50.378C41538.239 82.621 41520 126.4 41520 172c0 45.6 18.239 89.378 50.671 121.622C41603.102 325.866 41647.135 344 41693 344c45.865 0 89.898-18.134 122.329-50.378C41847.761 261.378 41866 217.6 41866 172c0-45.6-18.239-89.379-50.671-121.622C41782.898 18.134 41738.865 0 41693 0zM42039 0c-45.865 0-89.898 18.134-122.329 50.378C41884.239 82.621 41866 126.4 41866 172c0 45.6 18.239 89.378 50.671 121.622C41949.102 325.866 41993.135 344 42039 344c45.865 0 89.898-18.134 122.329-50.378C42193.761 261.378 42212 217.6 42212 172c0-45.6-18.239-89.379-50.671-121.622C42128.898 18.134 42084.865 0 42039 0zM42385 0c-45.865 0-89.898 18.134-122.329 50.378C42230.239 82.621 42212 126.4 42212 172c0 45.6 18.239 89.378 50.671 121.622C42295.102 325.866 42339.135 344 42385 344c45.865 0 89.898-18.134 122.329-50.378C42539.761 261.378 42558 217.6 42558 172c0-45.6-18.239-89.379-50.671-121.622C42474.898 18.134 42430.865 0 42385 0zM42731 0c-45.865 0-89.898 18.134-122.329 50.378C42576.239 82.621 42558 126.4 42558 172c0 45.6 18.239 89.378 50.671 121.622C42641.102 325.866 42685.135 344 42731 344c45.865 0 89.898-18.134 122.329-50.378C42885.761 261.378 42904 217.6 42904 172c0-45.6-18.239-89.379-50.671-121.622C42820.898 18.134 42776.865 0 42731 0zM43077 0c-45.865 0-89.898 18.134-122.329 50.378C42922.239 82.621 42904 126.4 42904 172c0 45.6 18.239 89.378 50.671 121.622C42987.102 325.866 43031.135 344 43077 344c45.865 0 89.898-18.134 122.329-50.378C43231.761 261.378 43250 217.6 43250 172c0-45.6-18.239-89.379-50.671-121.622C43166.898 18.134 43122.865 0 43077 0zM43423 0c-45.865 0-89.898 18.134-122.329 50.378C43268.239 82.621 43250 126.4 43250 172c0 45.6 18.239 89.378 50.671 121.622C43333.102 325.866 43377.135 344 43423 344c45.865 0 89.898-18.134 122.329-50.378C43577.761 261.378 43596 217.6 43596 172c0-45.6-18.239-89.379-50.671-121.622C43512.898 18.134 43468.865 0 43423 0zM43769 0c-45.865 0-89.898 18.134-122.329 50.378C43614.239 82.621 43596 126.4 43596 172c0 45.6 18.239 89.378 50.671 121.622C43679.102 325.866 43723.135 344 43769 344c45.865 0 89.898-18.134 122.329-50.378C43923.761 261.378 43942 217.6 43942 172c0-45.6-18.239-89.379-50.671-121.622C43858.898 18.134 43814.865 0 43769 0zM44115 0c-45.865 0-89.898 18.134-122.329 50.378C43960.239 82.621 43942 126.4 43942 172c0 45.6 18.239 89.378 50.671 121.622C44025.102 325.866 44069.135 344 44115 344c45.865 0 89.898-18.134 122.329-50.378C44269.761 261.378 44288 217.6 44288 172c0-45.6-18.239-89.379-50.671-121.622C44204.898 18.134 44160.865 0 44115 0zM44461 0c-45.865 0-89.898 18.134-122.329 50.378C44306.239 82.621 44288 126.4 44288 172c0 45.6 18.239 89.378 50.671 121.622C44371.102 325.866 44415.135 344 44461 344c45.865 0 89.898-18.134 122.329-50.378C44615.761 261.378 44634 217.6 44634 172c0-45.6-18.239-89.379-50.671-121.622C44550.898 18.134 44506.865 0 44461 0zM44807 0c-45.865 0-89.898 18.134-122.329 50.378C44652.239 82.621 44634 126.4 44634 172c0 45.6 18.239 89.378 50.671 121.622C44717.102 325.866 44761.135 344 44807 344c45.865 0 89.898-18.134 122.329-50.378C44961.761 261.378 44980 217.6 44980 172c0-45.6-18.239-89.379-50.671-121.622C44896.898 18.134 44852.865 0 44807 0zM45153 0c-45.865 0-89.898 18.134-122.329 50.378C44998.239 82.621 44980 126.4 44980 172c0 45.6 18.239 89.378 50.671 121.622C45063.102 325.866 45107.135 344 45153 344c45.865 0 89.898-18.134 122.329-50.378C45307.761 261.378 45326 217.6 45326 172c0-45.6-18.239-89.379-50.671-121.622C45242.898 18.134 45198.865 0 45153 0zM45499 0c-45.865 0-89.898 18.134-122.329 50.378C45344.239 82.621 45326 126.4 45326 172c0 45.6 18.239 89.378 50.671 121.622C45409.102 325.866 45453.135 344 45499 344c45.865 0 89.898-18.134 122.329-50.378C45653.761 261.378 45672 217.6 45672 172c0-45.6-18.239-89.379-50.671-121.622C45588.898 18.134 45544.865 0 45499 0zM45845 0c-45.865 0-89.898 18.134-122.329 50.378C45690.239 82.621 45672 126.4 45672 172c0 45.6 18.239 89.378 50.671 121.622C45755.102 325.866 45799.135 344 45845 344c45.865 0 89.898-18.134 122.329-50.378C45999.761 261.378 46018 217.6 46018 172c0-45.6-18.239-89.379-50.671-121.622C45934.898 18.134 45890.865 0 45845 0zM46191 0c-45.865 0-89.898 18.134-122.329 50.378C46036.239 82.621 46018 126.4 46018 172c0 45.6 18.239 89.378 50.671 121.622C46101.102 325.866 46145.135 344 46191 344c45.865 0 89.898-18.134 122.329-50.378C46345.761 261.378 46364 217.6 46364 172c0-45.6-18.239-89.379-50.671-121.622C46280.898 18.134 46236.865 0 46191 0zM46537 0c-45.865 0-89.898 18.134-122.329 50.378C46382.239 82.621 46364 126.4 46364 172c0 45.6 18.239 89.378 50.671 121.622C46447.102 325.866 46491.135 344 46537 344c45.865 0 89.898-18.134 122.329-50.378C46691.761 261.378 46710 217.6 46710 172c0-45.6-18.239-89.379-50.671-121.622C46626.898 18.134 46582.865 0 46537 0zM46883 0c-45.865 0-89.898 18.134-122.329 50.378C46728.239 82.621 46710 126.4 46710 172c0 45.6 18.239 89.378 50.671 121.622C46793.102 325.866 46837.135 344 46883 344c45.865 0 89.898-18.134 122.329-50.378C47037.761 261.378 47056 217.6 47056 172c0-45.6-18.239-89.379-50.671-121.622C46972.898 18.134 46928.865 0 46883 0zM47229 0c-45.865 0-89.898 18.134-122.329 50.378C47074.239 82.621 47056 126.4 47056 172c0 45.6 18.239 89.378 50.671 121.622C47139.102 325.866 47183.135 344 47229 344c45.865 0 89.898-18.134 122.329-50.378C47383.761 261.378 47402 217.6 47402 172c0-45.6-18.239-89.379-50.671-121.622C47318.898 18.134 47274.865 0 47229 0zM47575 0c-45.865 0-89.898 18.134-122.329 50.378C47420.239 82.621 47402 126.4 47402 172c0 45.6 18.239 89.378 50.671 121.622C47485.102 325.866 47529.135 344 47575 344c45.865 0 89.898-18.134 122.329-50.378C47729.761 261.378 47748 217.6 47748 172c0-45.6-18.239-89.379-50.671-121.622C47664.898 18.134 47620.865 0 47575 0zM47921 0c-45.865 0-89.898 18.134-122.329 50.378C47766.239 82.621 47748 126.4 47748 172c0 45.6 18.239 89.378 50.671 121.622C47831.102 325.866 47875.135 344 47921 344c45.865 0 89.898-18.134 122.329-50.378C48075.761 261.378 48094 217.6 48094 172c0-45.6-18.239-89.379-50.671-121.622C48010.898 18.134 47966.865 0 47921 0zM48267 0c-45.865 0-89.898 18.134-122.329 50.378C48112.239 82.621 48094 126.4 48094 172c0 45.6 18.239 89.378 50.671 121.622C48177.102 325.866 48221.135 344 48267 344c45.865 0 89.898-18.134 122.329-50.378C48421.761 261.378 48440 217.6 48440 172c0-45.6-18.239-89.379-50.671-121.622C48356.898 18.134 48312.865 0 48267 0zM48613 0c-45.865 0-89.898 18.134-122.329 50.378C48458.239 82.621 48440 126.4 48440 172c0 45.6 18.239 89.378 50.671 121.622C48523.102 325.866 48567.135 344 48613 344c45.865 0 89.898-18.134 122.329-50.378C48767.761 261.378 48786 217.6 48786 172c0-45.6-18.239-89.379-50.671-121.622C48702.898 18.134 48658.865 0 48613 0zM48959 0c-45.865 0-89.898 18.134-122.329 50.378C48804.239 82.621 48786 126.4 48786 172c0 45.6 18.239 89.378 50.671 121.622C48869.102 325.866 48913.135 344 48959 344c45.865 0 89.898-18.134 122.329-50.378C49113.761 261.378 49132 217.6 49132 172c0-45.6-18.239-89.379-50.671-121.622C49048.898 18.134 49004.865 0 48959 0zM49305 0c-45.865 0-89.898 18.134-122.329 50.378C49150.239 82.621 49132 126.4 49132 172c0 45.6 18.239 89.378 50.671 121.622C49215.102 325.866 49259.135 344 49305 344c45.865 0 89.898-18.134 122.329-50.378C49459.761 261.378 49478 217.6 49478 172c0-45.6-18.239-89.379-50.671-121.622C49394.898 18.134 49350.865 0 49305 0zM49651 0c-45.865 0-89.898 18.134-122.329 50.378C49496.239 82.621 49478 126.4 49478 172c0 45.6 18.239 89.378 50.671 121.622C49561.102 325.866 49605.135 344 49651 344c45.865 0 89.898-18.134 122.329-50.378C49805.761 261.378 49824 217.6 49824 172c0-45.6-18.239-89.379-50.671-121.622C49740.898 18.134 49696.865 0 49651 0zM49997 0c-45.865 0-89.898 18.134-122.329 50.378C49842.239 82.621 49824 126.4 49824 172c0 45.6 18.239 89.378 50.671 121.622C49907.102 325.866 49951.135 344 49997 344c45.865 0 89.898-18.134 122.329-50.378C50151.761 261.378 50170 217.6 50170 172c0-45.6-18.239-89.379-50.671-121.622C50086.898 18.134 50042.865 0 49997 0zM50343 0c-45.865 0-89.898 18.134-122.329 50.378C50188.239 82.621 50170 126.4 50170 172c0 45.6 18.239 89.378 50.671 121.622C50253.102 325.866 50297.135 344 50343 344c45.865 0 89.898-18.134 122.329-50.378C50497.761 261.378 50516 217.6 50516 172c0-45.6-18.239-89.379-50.671-121.622C50432.898 18.134 50388.865 0 50343 0zM50689 0c-45.865 0-89.898 18.134-122.329 50.378C50534.239 82.621 50516 126.4 50516 172c0 45.6 18.239 89.378 50.671 121.622C50599.102 325.866 50643.135 344 50689 344c45.865 0 89.898-18.134 122.329-50.378C50843.761 261.378 50862 217.6 50862 172c0-45.6-18.239-89.379-50.671-121.622C50778.898 18.134 50734.865 0 50689 0zM51035 0c-45.865 0-89.898 18.134-122.329 50.378C50880.239 82.621 50862 126.4 50862 172c0 45.6 18.239 89.378 50.671 121.622C50945.102 325.866 50989.135 344 51035 344c45.865 0 89.898-18.134 122.329-50.378C51189.761 261.378 51208 217.6 51208 172c0-45.6-18.239-89.379-50.671-121.622C51124.898 18.134 51080.865 0 51035 0zM51381 0c-45.865 0-89.898 18.134-122.329 50.378C51226.239 82.621 51208 126.4 51208 172c0 45.6 18.239 89.378 50.671 121.622C51291.102 325.866 51335.135 344 51381 344c45.865 0 89.898-18.134 122.329-50.378C51535.761 261.378 51554 217.6 51554 172c0-45.6-18.239-89.379-50.671-121.622C51470.898 18.134 51426.865 0 51381 0zM51727 0c-45.865 0-89.898 18.134-122.329 50.378C51572.239 82.621 51554 126.4 51554 172c0 45.6 18.239 89.378 50.671 121.622C51637.102 325.866 51681.135 344 51727 344c45.865 0 89.898-18.134 122.329-50.378C51881.761 261.378 51900 217.6 51900 172c0-45.6-18.239-89.379-50.671-121.622C51816.898 18.134 51772.865 0 51727 0zM52073 0c-45.865 0-89.898 18.134-122.329 50.378C51918.239 82.621 51900 126.4 51900 172c0 45.6 18.239 89.378 50.671 121.622C51983.102 325.866 52027.135 344 52073 344c45.865 0 89.898-18.134 122.329-50.378C52227.761 261.378 52246 217.6 52246 172c0-45.6-18.239-89.379-50.671-121.622C52162.898 18.134 52118.865 0 52073 0z" fill="#ffa5ba"/></svg>