<?xml version="1.0" encoding="utf-8"?>
<!-- Generator: Adobe Illustrator 18.1.1, SVG Export Plug-In . SVG Version: 6.00 Build 0)  -->
<svg version="1.1" id="Layer_1" xmlns="http://www.w3.org/2000/svg" xmlns:xlink="http://www.w3.org/1999/xlink" x="0px" y="0px"
	 viewBox="0 1066.2 850.4 702.1" enable-background="new 0 1066.2 850.4 702.1" xml:space="preserve">
<path fill="#D41443" d="M829.3,1361.7l-308.5-280.5c-28-21-70.1-21-98.1,7.1c-21,28-21,70.1,7,98.1l181.4,166.3H65.4
	c-36.1,0-65.4,29.3-65.4,65.4c0,36.1,29.3,65.4,65.4,65.4h544.9l-180.6,165.6c-28,28-35,70.1-7,98.1c14,14,28,21,49.1,21
	s35,0,49.1-28l308.5-280.5c14-7,21-35,21-49.1C850.4,1396.8,843.3,1375.7,829.3,1361.7z"/>
</svg>
