<?xml version="1.0" encoding="utf-8"?>
<!-- Generator: Adobe Illustrator 18.1.1, SVG Export Plug-In . SVG Version: 6.00 Build 0)  -->
<svg version="1.1" id="Layer_1" xmlns="http://www.w3.org/2000/svg" xmlns:xlink="http://www.w3.org/1999/xlink" x="0px" y="0px"
	 viewBox="0 0 1289.3 1064.5" enable-background="new 0 0 1289.3 1064.5" xml:space="preserve">
<path fill="#D41443" d="M1257.4,447.9L789.7,22.7C747.2-9.2,683.4-9.2,640.9,33.4C609,75.9,609,139.7,651.5,182.2l275.1,252.2H99.2
	C44.4,434.4,0,478.8,0,533.6c0,54.8,44.4,99.2,99.2,99.2h826.1l-273.8,251c-42.5,42.5-53.1,106.3-10.6,148.8
	c21.3,21.3,42.5,31.9,74.4,31.9s53.1,0,74.4-42.5l467.7-425.2c21.3-10.6,31.9-53.1,31.9-74.4
	C1289.3,501.1,1278.6,469.2,1257.4,447.9z"/>
</svg>
