<svg aria-hidden="true" style="position:absolute;width:0;height:0;overflow:hidden" xmlns="http://www.w3.org/2000/svg"><defs>
    
    <symbol id="icon-burger" viewBox="0 0 47 32"><path fill=var(--current-color) d="M0 1h46.7v2.3H0V1zM0 15h46.7v2.3H0V15zM0 28.7h46.7V31H0v-2.3z"/></symbol>
    
    <symbol id="icon-close" viewBox="0 0 32 32"><path fill=var(--current-color) d="M31.8 2.2 30.5.4l-14.6 14L1.9 0 .5 1.5l14 14.4L0 29.9l1.3 1.7 14.6-14 14 14.4 1.4-1.5L17.4 16z"/></symbol>

    <symbol id="icon-arrow-right" viewBox="0 0 39 32"><path fill=var(--current-color)  d="M37.8 13.5 23.8.7c-1.3-1-3.3-1-4.5.3-1 1.3-1 3.2.3 4.5l8.3 7.6h-25a3 3 0 0 0 0 6h25l-8.3 7.5c-1.3 1.2-1.6 3.2-.3 4.4.6.7 1.2 1 2.2 1s1.6 0 2.2-1.3L37.8 18c.6-.3 1-1.6 1-2.2 0-.6-.4-1.6-1-2.2z"/></symbol>
    
    <symbol id="icon-btn-arrow" viewBox="0 0 20 32"><path fill=var(--current-color) d="M3 32c-1 0-1.5-.3-2.2-1-1.3-1.2-1-3.2.3-4.4L12.6 16 1.1 5.5A3.4 3.4 0 0 1 .8 1 3.4 3.4 0 0 1 5.3.7l14 12.8c.7.6 1 1.6 1 2.2s-.3 2-1 2.2l-14 12.8C4.6 32 4 32 3 32z"/></symbol>
    
    <symbol id="icon-stat-apples" viewBox="0 0 32 32"><path fill=var(--current-color) d="M29.6 21.4a4.7 4.7 0 0 0-3.2 0c.1-1 .4-1.9 1.1-2.5.5-.4.5-1.1 0-1.6s-1-.4-1.5 0a6.5 6.5 0 0 0-1.8 4l-1.1-.2 2-9.9c0-.3 0-.6-.3-.9a1 1 0 0 0-.9-.4h-.2l.2-1.5c0-2-1-3.5-2.4-4a4.7 4.7 0 0 0-3.5 0c.1-.9.5-2 1.3-2.7.4-.4.4-1.1 0-1.6s-1-.4-1.5 0a7 7 0 0 0-2 4.4c-.7-.3-1.7-.5-2.7-.3-1-1.6-2.6-2.3-4-2-1.5.4-2.4 1.1-3 2-.3-.9-.7-2-.4-3C5.8.6 5.5.1 4.9 0S3.8.1 3.6.7c-.4 1.7.1 3.5.8 4.7-1 .2-2.2.7-3.1 1.9C.7 8.1.5 9 .7 10c-.2 0-.3.2-.4.3l-.3.9L3.8 31c.2.6.6.9 1 .9h15.3c.5 0 1-.4 1-.9v-.2l1 .6c1.3.4 2.4.2 3 0a4 4 0 0 0 3-.1c2.4-.8 3.6-3.8 3.6-6.1.2-1.9-.7-3.3-2-3.8zm-7-9.2c-.5 4.7-4.4 7.9-10 7.9s-9.4-3.2-10-8h20zm-6.5-4.7c.2.3.5.6 1 .6a1 1 0 0 0 .9-.6s.3-.5.8-.8c.6-.4 1.3-.4 2.1-.1s1 1.5 1 2 0 1-.2 1.5h-7.1a7 7 0 0 0-.3-3.6c.4 0 .7 0 1 .3.4.2.7.6.8.7zM3 8.7c.5-.7 1.1-1 1.9-1 .6 0 1 .1 1 .2.4.2.8.2 1.2 0 .3-.3.5-.7.5-1 0-.1-.1-2 2-2.4.9-.2 1.6.7 1.9 1.1.8 1.2 1.2 3.2.8 4.4H3c-.2-.4-.2-1 0-1.3zm2.7 21.1-2-11 .4.4c2.1 2 5.2 3 8.5 3s6.3-1 8.5-3l.1-.1-.4 2.2h-.1c-1.4.5-2.2 2-2.3 3.9 0 1.1.3 2.4.9 3.6l-.2 1H5.8zm21.8-.4c-1 .3-1.9 0-2 0a.8.8 0 0 0-.7 0s-1 .3-2 0c-1.3-.5-2.2-2.6-2.2-4.2 0-.4.1-1.6.9-1.8.3-.2.6-.2 1-.2 1 0 1.6.8 1.7 1 .2.3.5.6 1 .6a1 1 0 0 0 1-.6c0-.3.9-1.5 2.7-.8.8.2.8 1.4.8 1.8 0 1.6-.9 3.7-2.2 4.2z"/></symbol>
    
    <symbol id="icon-stat-heart" viewBox="0 0 29 32"><path fill=var(--current-color) d="M5.7 17.3zM5 19zm0 0zM23 .3c-.8-.3-1.2-.3-2.5-.3h-1.4c-.4 0-.8.2-1.3.4-1.2.4-2.4 1-3.3 1.7l-.3.3-.4-.3c-.8-.6-2-1.3-3.3-1.7L9.3 0H7.8C6.5 0 6.2 0 5.4.2 2.1 1.3 0 4.6 0 8.6c0 3.6 1.5 6.9 4.4 9.8a19 19 0 0 0 6.2 4.3l1.2.5V32h1.9v-8.2h1.2V32h1.9v-8.8l1.2-.5c2.5-1.2 4.3-2.5 6.2-4.3 2.8-3 4.4-6.2 4.4-9.8-.3-4-2.4-7.2-5.7-8.3zm3.2 11.1-.4 1a13.3 13.3 0 0 1-3.7 5.5 20.5 20.5 0 0 1-7 4l-.9.4-.9-.3c-2.8-1-5.2-2.5-7.2-4.4-2.5-2.4-3.8-5-4.2-8v-2l.1-1 .2-.5H3l1.9.4c1.2.3 2.6 1 3.8 2l1.6 1c.8.7 2.2 1.5 3.2 2l.7.2.2.2h.1v.7l.1 2v2.2c0 .4.2.7.3 1 .2.4.5.7.9 1s.8.2 1.3.2l.9-.1.8-.6.3-.5.2-.5V13.6c0-.4.1-.6.2-.7l.3-.3h.8a21 21 0 0 0 4.6-1l.8-.2h.1c0-.2 0-.1 0 0zm.2-2.3-.4.2-1 .4a15 15 0 0 1-4.4 1l-1.2.2c-.4 0-.5.1-.7.3l-.5.4a2 2 0 0 0-.4.7 11 11 0 0 0-.1 2.4l-.1 1.8-.1.4c-.2.2-.5.2-.8 0h-.1v-.4l-.1-2.2c0-1.3 0-2.1-.2-2.7l-.2-.6c0-.2-.2-.3-.3-.5h-.2l-.5-.3-1.2-.7C12.8 9 11.8 8.5 11 8 9.6 6.8 8.5 6 7.4 5.5c-1-.5-2-.7-3.3-1l-1-.1H3l.3-.4.8-.9C5.4 2 7 1.5 9 2A7.3 7.3 0 0 1 11.9 3l1.2.8.5.5c.2.1.3.2.5.1.2 0 .3 0 .5-.2l.6-.4c1.4-1.3 3.6-2.1 5.4-2.1 2.5 0 4.8 2 5.5 4.7l.3 1.8v.6c.1 0 0 .1 0 .2z"/></symbol>
    
    <symbol id="icon-stat-milk" viewBox="0 0 32 32"><path fill=var(--current-color) d="M8 .1c-.3.2-.5.6-.5 1 0 .9.2 1.6.7 2.3l.1.2L8 4l-.7 1.1c0 .4-.1 1.2 0 1.6a2.7 2.7 0 0 0 4.5 1.2l.3-.3.4.2.7.3.4.2V9c0 1 .2 1.7.8 2.3s1.5 1 2.3.8c.6-.1 1.1-.4 1.5-.8.6-.6.8-1.2.8-2.3v-.7l.4-.2.7-.3.4-.2.4.3c.4.4.7.6 1.2.7 1.4.4 2.8-.5 3.2-2V5.2c-.2-.5-.3-.6-.7-1l-.3-.5.2-.2c.4-.7.6-1.4.6-2.2 0-.5-.2-.9-.6-1l-.2-.2h-16l-.2.1zm14.8 2-.4.7c-.6 1-.6 1.2.3 2.1l.6.8c.2.4-.2 1-.7.9-.2 0-.4-.3-.8-.6-.8-.8-1-.9-1.7-.6l-2 1c-.6.1-.8.3-1 .6L17 8.4c0 1.2 0 1.4-.4 1.6H16c-.3-.2-.4-.4-.4-1.6V7c-.3-.3-.5-.5-1-.6-.6-.2-1.4-.5-1.8-.8-.4-.3-.8-.4-1-.3-.2 0-.4.2-1 .6l-.7.7c-.5.1-1-.5-.8-1L10 5c.8-.9.9-1.1.2-2.1L9.8 2h13zM6.2 13.2a1 1 0 0 0-.4.9c0 .2 3 16.9 3.2 17.2 0 .2.3.4.5.6l6.8.1 6.8-.1.6-.6L26.9 14a1 1 0 0 0-.5-.8l-.2-.1H6.5l-.3.1zm18.3 2.3-.7 2a7.8 7.8 0 0 1-6.8 4c-2.2.2-4.2-.3-5.8-1.3a7 7 0 0 1-3-4.7V15h16.3v.4zm-14.3 6.4c2.6 1.8 6.5 2.3 9.8 1.2 1.1-.4 2.3-1 3.2-1.7.3-.2.3-.2.3 0l-.8 4.2-.8 4.2v.1H10.7v-.1l-.8-4.2a280.2 280.2 0 0 0-.6-4.2l.8.5z"/></symbol>
    
    <symbol id="icon-facebook" viewBox="0 0 32 32"><path fill=var(--current-color) d="M16 32a16 16 0 1 0 0-32 16 16 0 0 0 0 32z"/><path fill="#fff" d="M20.4 16h-2.6v9.6h-4V16H12v-3.4h1.9v-2.2c0-1.5.7-4 4-4h2.9v3.3h-2.1c-.4 0-.9.2-.9 1v1.9h3l-.4 3.4z"/></symbol>
    
    <symbol id="icon-github" viewBox="0 0 32 32"><path fill=var(--current-color) d="M32 16a16 16 0 1 1-32 0 16 16 0 0 1 32 0z"/><path fill="#fff" d="M16 6.6A9.4 9.4 0 0 0 6.6 16c0 4.4 3 8.4 7.2 9.4v-3.1h-1.2c-.6-.2-1-.6-1.3-1.1-.3-.4-.6-.8-1-.8l-.1-1c.8-.1 1.6.5 2 1.2.2.3.4.5.7.6h1c0-.8.3-1 .6-1.4-2.5-.4-3.4-1.7-3.8-2.7-.5-1.4-.3-3 .6-4.1v-.1c-.3-1.3.2-2.3.2-2.5.5.2.5-.1 2 .8l.3.2h.2a8 8 0 0 1 2-.3 8 8 0 0 1 2 .3h.2c1.9-1.2 1.8-.8 2.3-1 0 .2.5 1.2.1 2.5 0 .1 1.7 1.7.7 4.2-.4 1-1.3 2.3-3.8 2.7.3.5.7.7.7 1.7v4c4.1-1 7.2-5 7.2-9.5 0-5.2-4.2-9.4-9.4-9.4z"/></symbol>

    <symbol id="icon-telegram" viewBox="0 0 32 32"><path fill=var(--current-color) d="M32 16a16 16 0 1 1-32 0 16 16 0 0 1 32 0z"/><path fill="#fff"  d="m12.9 18.4-.4 4.1c.5 0 .7-.1 1-.4l2-1.9 4.5 3c.8.5 1.4.3 1.6-.6l2.9-12.7c.2-1.1-.5-1.6-1.2-1.3l-17 6.1C5 15.1 5 15.7 6 16l4.4 1.3 10-6c.6-.2 1 0 .6.2L13 18.4z"/></symbol>
    
    </defs></svg>