<?xml version="1.0" encoding="utf-8"?>
<!-- Generator: Adobe Illustrator 18.1.1, SVG Export Plug-In . SVG Version: 6.00 Build 0)  -->
<svg version="1.1" id="Layer_1" xmlns="http://www.w3.org/2000/svg" xmlns:xlink="http://www.w3.org/1999/xlink" x="0px" y="0px"
	 viewBox="-402 1391.7 46 52" enable-background="new -402 1391.7 46 52" xml:space="preserve">
<path fill="#FFA5BA" stroke="#FFA5BA" stroke-width="0.5" d="M-364.5,1412.8L-364.5,1412.8 M-392.4,1419.6
	C-392.4,1419.6-392.4,1419.6-392.4,1419.6C-392.4,1419.6-392.4,1419.6-392.4,1419.6z M-393.5,1422.5
	C-393.5,1422.5-393.5,1422.5-393.5,1422.5L-393.5,1422.5z M-393.4,1422.4L-393.4,1422.4C-393.4,1422.4-393.4,1422.4-393.4,1422.4z"
	/>
<path fill="#FFA5BA" stroke="#FFA5BA" stroke-width="0.5" d="M-365.3,1392.8c-1.1-0.4-1.7-0.4-3.8-0.4c-1.1,0-1.7,0-2.3,0.1
	c-0.6,0.1-1.2,0.2-2,0.5l0,0c-1.9,0.6-3.8,1.6-5.1,2.7l0,0l-0.6,0.5l-0.6-0.5l0,0c-1.3-1-3.2-2-5.1-2.7l0,0c-0.8-0.3-1.4-0.4-2-0.5
	c-0.6-0.1-1.3-0.1-2.3-0.1c-2,0-2.6,0-3.8,0.4c-5.2,1.7-8.5,6.9-8.5,13.1c0,5.7,2.3,10.9,6.9,15.5l0,0c2.8,2.9,5.8,4.9,9.8,6.7l0,0
	l1.8,0.9v6.7v6.8v0.3h0.3h1.2h1.2h0.3v-0.3v-6.5v-6.1l0.3,0.1l0,0c0.4,0.1,0.9,0.1,1.3,0l0,0l0.3-0.1v6.1v6.5v0.3h0.3h1.2h1.2h0.3
	v-0.3v-6.8v-6.7l1.9-0.9l0,0c4-1.8,6.9-3.9,9.8-6.7l0,0c4.5-4.6,6.9-9.8,6.9-15.5C-356.8,1399.7-360.1,1394.6-365.3,1392.8z
	 M-360.2,1410.4c-0.1,0.4-0.3,0.9-0.5,1.5c-0.4,1.1-1,2.4-1.4,3.1l0,0c-1.3,2.3-2.4,3.6-4.4,5.5c-2.9,2.7-7,5.1-11.1,6.5l0,0
	l-1.4,0.5l-1.4-0.5l0,0c-4.4-1.5-8.3-3.9-11.4-6.9l0,0c-4-3.8-6-7.8-6.6-12.6c-0.1-0.9-0.1-2.1,0-3.2c0.1-0.5,0.1-1,0.2-1.5
	c0.1-0.4,0.2-0.7,0.2-0.8c0,0,0,0,0,0c0.1,0,0.2,0,0.3,0c0.3,0,0.7,0,1.2,0.1c0.9,0.1,2,0.3,2.9,0.5c1.9,0.5,4.1,1.6,6.1,3.1l0,0
	c0.8,0.6,1.9,1.4,2.4,1.8c1.3,1,3.5,2.2,5.1,2.9c0.4,0.2,0.8,0.3,1.1,0.5c0.1,0.1,0.3,0.2,0.4,0.2c0,0,0.1,0.1,0.1,0.1c0,0,0,0,0,0
	c0,0,0,0,0,0c0,0,0,0.1,0,0.2c0,0.2,0.1,0.4,0.1,0.8c0,0.7,0.1,1.7,0.1,3.2c0,1.8,0,2.8,0.1,3.5c0.1,0.7,0.2,1,0.3,1.4l0,0
	c0.3,0.7,0.8,1.2,1.4,1.6c0.6,0.4,1.3,0.5,2.1,0.5c0.5,0,1-0.1,1.4-0.3c0.4-0.2,0.8-0.5,1.2-0.9c0.2-0.2,0.4-0.4,0.5-0.7
	c0.1-0.3,0.2-0.5,0.3-0.9c0.1-0.7,0.2-1.8,0.2-3.5c0-0.1,0-0.1,0-0.2c0-0.9,0-1.6,0-2.1c0-0.6,0.1-0.9,0.2-1.1
	c0.1-0.2,0.2-0.3,0.5-0.4c0.3-0.1,0.6-0.1,1.2-0.1c0,0,0.1,0,0.1,0l0,0c2.3-0.2,5.2-0.8,7.2-1.5l0,0c0.5-0.2,0.9-0.3,1.2-0.4
	c0.1,0,0.2,0,0.2-0.1C-360.1,1410.1-360.1,1410.2-360.2,1410.4z M-359.8,1406.7c-0.1,0.1-0.3,0.3-0.7,0.4c-0.4,0.2-0.8,0.4-1.5,0.6
	h0c-2.1,0.8-3.8,1.2-6.9,1.5l0,0c-1,0.1-1.6,0.2-2,0.3c-0.5,0.1-0.7,0.3-1.1,0.5l0,0c-0.3,0.2-0.6,0.5-0.8,0.7
	c-0.2,0.3-0.4,0.6-0.5,1c-0.2,0.8-0.3,2-0.3,3.9c0,1.4,0,2.3-0.1,2.8c0,0.5-0.1,0.7-0.2,0.7l0,0h0c-0.3,0.3-0.8,0.3-1.2,0
	c-0.1-0.1-0.1-0.1-0.2-0.2c0-0.1-0.1-0.3-0.1-0.5c0-0.6-0.1-1.6-0.1-3.5c0-2.1,0-3.3-0.2-4.2c-0.1-0.4-0.2-0.7-0.3-1
	c-0.1-0.3-0.3-0.5-0.5-0.7c0,0-0.1-0.1-0.2-0.1c-0.1,0-0.1-0.1-0.2-0.1c-0.2-0.1-0.4-0.2-0.7-0.4c-0.6-0.3-1.3-0.7-2-1l0,0h0
	c-1.7-0.8-3.3-1.7-4.3-2.5l0,0c-2.4-1.8-4.2-3-5.8-3.8c-1.7-0.8-3.2-1.2-5.2-1.5c-0.6-0.1-1.1-0.2-1.5-0.3c-0.2,0-0.3-0.1-0.4-0.1
	c0.1-0.1,0.2-0.3,0.4-0.5c0.3-0.4,0.8-1,1.3-1.4l0,0c2.2-1.9,4.6-2.6,7.8-2c0.8,0.1,1.9,0.5,2.4,0.7c0.6,0.2,1.4,0.7,2.2,1.2
	c0.8,0.5,1.5,1,1.9,1.4l0,0c0.3,0.3,0.6,0.5,0.8,0.7c0.3,0.2,0.5,0.3,0.8,0.2c0.3,0,0.5-0.1,0.8-0.3c0.3-0.2,0.6-0.4,0.9-0.7l0,0
	c2.2-2,5.7-3.3,8.6-3.3c3.9,0,7.5,3.1,8.6,7.4l0,0c0.2,0.8,0.4,2,0.4,2.8l0,0h0c0,0.4,0,0.7,0,1
	C-359.6,1406.4-359.7,1406.6-359.8,1406.7z"/>
</svg>
