<?xml version="1.0" encoding="utf-8"?>
<!-- Generator: Adobe Illustrator 18.1.1, SVG Export Plug-In . SVG Version: 6.00 Build 0)  -->
<svg version="1.1" id="Layer_1" xmlns="http://www.w3.org/2000/svg" xmlns:xlink="http://www.w3.org/1999/xlink" x="0px" y="0px"
	 viewBox="-391.2 2341.1 832.4 932.2" enable-background="new -391.2 2341.1 832.4 932.2" xml:space="preserve">
<path fill="#FFA5BA" stroke="#FFA5BA" stroke-width="0.5" d="M291.3,2718.4L291.3,2718.4 M-224.5,2844.1L-224.5,2844.1
	L-224.5,2844.1z M-244.9,2897.8L-244.9,2897.8L-244.9,2897.8z M-243,2895.9L-243,2895.9L-243,2895.9z"/>
<path fill="#FFA5BA" stroke="#FFA5BA" stroke-width="0.5" d="M276.5,2348.7c-20.3-7.4-31.4-7.4-70.2-7.4c-20.3,0-31.4,0-42.5,1.8
	c-11.1,1.8-22.2,3.7-37,9.2l0,0c-35.1,11.1-70.2,29.6-94.3,49.9l0,0l-11.1,9.2l-11.1-9.2l0,0c-24-18.5-59.2-37-94.3-49.9l0,0
	c-14.8-5.5-25.9-7.4-37-9.2c-11.1-1.8-24-1.8-42.5-1.8c-37,0-48.1,0-70.2,7.4c-96.1,31.4-157.1,127.6-157.1,242.2
	c0,105.4,42.5,201.5,127.6,286.5l0,0c51.8,53.6,107.2,90.6,181.2,123.9l0,0l33.3,16.6v123.9v125.7v5.5h5.5h22.2H1h5.5v-5.5v-120.2
	v-112.8l5.5,1.8l0,0c7.4,1.8,16.6,1.8,24,0l0,0l5.5-1.8v112.8v120.2v5.5h5.5h22.2h22.2h5.5v-5.5v-125.7v-123.9l35.1-16.6l0,0
	c73.9-33.3,127.6-72.1,181.2-123.9l0,0c83.2-85,127.6-181.2,127.6-286.5C433.6,2476.3,372.6,2382,276.5,2348.7z M370.7,2674.1
	c-1.8,7.4-5.5,16.6-9.2,27.7c-7.4,20.3-18.5,44.4-25.9,57.3l0,0c-24,42.5-44.4,66.6-81.3,101.7c-53.6,49.9-129.4,94.3-205.2,120.2
	l0,0l-25.9,9.2l-25.9-9.2l0,0c-81.3-27.7-153.4-72.1-210.7-127.6l0,0c-73.9-70.3-110.9-144.2-122-232.9c-1.8-16.6-1.8-38.8,0-59.2
	c1.8-9.2,1.8-18.5,3.7-27.7c1.8-7.4,3.7-12.9,3.7-14.8l0,0c1.8,0,3.7,0,5.5,0c5.5,0,12.9,0,22.2,1.8c16.6,1.8,37,5.5,53.6,9.2
	c35.1,9.2,75.8,29.6,112.8,57.3l0,0c14.8,11.1,35.1,25.9,44.4,33.3c24,18.5,64.7,40.7,94.3,53.6c7.4,3.7,14.8,5.5,20.3,9.2
	c1.8,1.8,5.5,3.7,7.4,3.7l1.8,1.8l0,0l0,0c0,0,0,1.8,0,3.7c0,3.7,1.8,7.4,1.8,14.8c0,12.9,1.8,31.4,1.8,59.2c0,33.3,0,51.8,1.8,64.7
	c1.8,12.9,3.7,18.5,5.5,25.9l0,0c5.5,12.9,14.8,22.2,25.9,29.6c11.1,7.4,24,9.2,38.8,9.2c9.2,0,18.5-1.8,25.9-5.5
	c7.4-3.7,14.8-9.2,22.2-16.6c3.7-3.7,7.4-7.4,9.2-12.9c1.8-5.5,3.7-9.2,5.5-16.6c1.8-12.9,3.7-33.3,3.7-64.7c0-1.8,0-1.8,0-3.7
	c0-16.6,0-29.6,0-38.8c0-11.1,1.8-16.6,3.7-20.3c1.8-3.7,3.7-5.5,9.2-7.4c5.5-1.8,11.1-1.8,22.2-1.8h1.8l0,0
	c42.5-3.7,96.1-14.8,133.1-27.7l0,0c9.2-3.7,16.6-5.5,22.2-7.4c1.8,0,3.7,0,3.7-1.8C372.6,2668.5,372.6,2670.4,370.7,2674.1z
	 M378.1,2605.7c-1.8,1.8-5.5,5.5-12.9,7.4c-7.4,3.7-14.8,7.4-27.7,11.1l0,0c-38.8,14.8-70.2,22.2-127.6,27.7l0,0
	c-18.5,1.8-29.6,3.7-37,5.5c-9.2,1.8-12.9,5.5-20.3,9.2l0,0c-5.5,3.7-11.1,9.2-14.8,12.9c-3.7,5.5-7.4,11.1-9.2,18.5
	c-3.7,14.8-5.5,37-5.5,72.1c0,25.9,0,42.5-1.8,51.8c0,9.2-1.8,12.9-3.7,12.9l0,0l0,0c-5.5,5.5-14.8,5.5-22.2,0
	c-1.8-1.8-1.8-1.8-3.7-3.7c0-1.8-1.8-5.5-1.8-9.2c0-11.1-1.8-29.6-1.8-64.7c0-38.8,0-61-3.7-77.6c-1.8-7.4-3.7-12.9-5.5-18.5
	c-1.8-5.5-5.5-9.2-9.2-12.9c0,0-1.8-1.8-3.7-1.8c-1.8,0-1.8-1.8-3.7-1.8c-3.7-1.8-7.4-3.7-12.9-7.4c-11.1-5.5-24-12.9-37-18.5l0,0
	l0,0c-31.4-14.8-61-31.4-79.5-46.2l0,0c-44.4-33.3-77.6-55.5-107.2-70.3c-31.4-14.8-59.2-22.2-96.1-27.7
	c-11.1-1.8-20.3-3.7-27.7-5.5c-3.7,0-5.5-1.8-7.4-1.8c1.8-1.8,3.7-5.5,7.4-9.2c5.5-7.4,14.8-18.5,24-25.9l0,0
	c40.7-35.1,85-48.1,144.2-37c14.8,1.8,35.1,9.2,44.4,12.9c11.1,3.7,25.9,12.9,40.7,22.2c14.8,9.2,27.7,18.5,35.1,25.9l0,0
	c5.5,5.5,11.1,9.2,14.8,12.9c5.5,3.7,9.2,5.5,14.8,3.7c5.5,0,9.2-1.8,14.8-5.5c5.5-3.7,11.1-7.4,16.6-12.9l0,0
	c40.7-37,105.4-61,159-61c72.1,0,138.7,57.3,159,136.8l0,0c3.7,14.8,7.4,37,7.4,51.8l0,0l0,0c0,7.4,0,12.9,0,18.5
	C381.8,2600.1,380,2603.8,378.1,2605.7z"/>
</svg>
