<?xml version="1.0" encoding="utf-8"?>
<!-- Generator: Adobe Illustrator 18.1.1, SVG Export Plug-In . SVG Version: 6.00 Build 0)  -->
<svg version="1.1" id="Layer_1" xmlns="http://www.w3.org/2000/svg" xmlns:xlink="http://www.w3.org/1999/xlink" x="0px" y="0px"
	 viewBox="-400 1392.7 50 50" enable-background="new -400 1392.7 50 50" xml:space="preserve">
<g>
	<defs>
		<rect id="SVGID_1_" x="-400" y="1392.7" width="50" height="50"/>
	</defs>
	<clipPath id="SVGID_2_">
		<use xlink:href="#SVGID_1_"  overflow="visible"/>
	</clipPath>
	<g clip-path="url(#SVGID_2_)">
		<path fill="#FFA5BA" d="M-353.7,1426.1c-2-0.7-3.7-0.5-5.1,0c0.2-1.4,0.7-2.9,1.8-3.9c0.7-0.6,0.7-1.7,0.1-2.4
			c-0.6-0.7-1.7-0.7-2.4-0.1c-1.9,1.8-2.7,4.3-2.9,6.4c-0.5-0.2-1.1-0.4-1.7-0.5l3-15.4c0.1-0.5,0-1-0.4-1.4
			c-0.3-0.4-0.8-0.6-1.3-0.6h-0.3c0.1-0.8,0.2-1.6,0.2-2.3c0-3.1-1.4-5.5-3.7-6.3c-2.2-0.8-4-0.5-5.5,0.1c0.2-1.5,0.8-3.2,2-4.4
			c0.7-0.6,0.7-1.7,0.1-2.4c-0.6-0.7-1.7-0.7-2.4-0.1c-2.1,1.9-2.8,4.6-3.1,6.9c-1.1-0.5-2.6-0.8-4.2-0.5c-1.7-2.5-4.1-3.6-6.4-3
			c-2.3,0.5-3.7,1.7-4.5,3.1c-0.6-1.4-1.1-3.1-0.7-4.7c0.2-0.9-0.3-1.8-1.2-2c-0.9-0.2-1.8,0.3-2,1.2c-0.7,2.7,0.1,5.4,1.1,7.4
			c-1.6,0.2-3.3,1-4.8,2.9c-0.9,1.2-1.2,2.7-0.9,4.2c-0.3,0.1-0.5,0.3-0.7,0.5c-0.3,0.4-0.4,0.9-0.4,1.4l6,31
			c0.2,0.8,0.8,1.3,1.6,1.3h23.8c0.8,0,1.5-0.6,1.6-1.3l0.1-0.3c0.4,0.3,0.9,0.6,1.4,0.8c2,0.7,3.8,0.4,4.8,0.2
			c0.5,0.1,1.2,0.3,2.1,0.3c0.8,0,1.7-0.1,2.6-0.5c3.7-1.4,5.6-6,5.6-9.7C-350.2,1429.1-351.5,1426.9-353.7,1426.1z M-364.6,1411.7
			c-0.8,7.4-7,12.4-15.6,12.4c-8.6,0-14.8-5-15.6-12.4H-364.6z M-374.9,1404.4c0.3,0.5,0.8,0.9,1.5,0.9c0.6,0,1.2-0.3,1.5-0.9
			c0-0.1,0.5-0.7,1.2-1.2c1-0.6,2.1-0.7,3.4-0.2c1.3,0.5,1.5,2.4,1.5,3.2c0,0.7-0.1,1.5-0.3,2.3h-11.1c0.4-1.9,0.1-3.9-0.5-5.7
			c0.6,0,1.1,0.2,1.6,0.5C-375.4,1403.7-375,1404.3-374.9,1404.4z M-395.2,1406.3c0.9-1.1,1.8-1.7,3-1.7h0c0.9,0,1.6,0.3,1.7,0.4
			c0.5,0.3,1.2,0.3,1.7-0.1c0.5-0.3,0.8-0.9,0.8-1.5c0-0.1-0.2-3,3.1-3.7c1.4-0.3,2.5,1.2,3,1.8c1.3,1.9,1.9,4.9,1.2,6.9h-14.6
			C-395.6,1407.7-395.7,1406.9-395.2,1406.3z M-390.9,1439.3l-3.3-17.2c0.2,0.2,0.4,0.4,0.7,0.6c3.4,3,8.2,4.6,13.3,4.6
			c5.2,0,9.9-1.6,13.3-4.6c0.1-0.1,0.2-0.1,0.2-0.2l-0.7,3.5c0,0-0.1,0-0.1,0c-2.2,0.8-3.5,3-3.6,6c0,1.8,0.5,3.9,1.4,5.7l-0.3,1.6
			H-390.9z M-356.9,1438.6c-1.5,0.5-2.9,0-3,0c-0.4-0.2-0.8-0.2-1.2,0c0,0-1.5,0.5-3,0c-2.1-0.8-3.5-4-3.5-6.5
			c0-0.7,0.1-2.5,1.3-2.9c0.5-0.2,1-0.3,1.5-0.3c1.7,0,2.6,1.3,2.8,1.6c0.3,0.5,0.8,0.9,1.5,0.9c0.6,0,1.2-0.3,1.5-0.9
			c0.2-0.4,1.5-2.3,4.3-1.3c1.2,0.4,1.3,2.2,1.3,2.9C-353.5,1434.6-354.8,1437.9-356.9,1438.6z"/>
	</g>
</g>
</svg>
