<svg xmlns="http://www.w3.org/2000/svg" viewBox="0 0 6365 333" width="6365" height="333"><path d="M167.5 63.8c21.35-41.35 63.225-52.25 99.762-41.325C303.8 33.4 335 66.15 335 112.1c0 46-29.65 89.575-65.413 125.213C233.825 272.95 191.95 300.65 167.5 314.9c-24.45-14.25-66.325-41.95-102.088-77.587C29.65 201.675 0 158.1 0 112.1c0-45.95 31.2-78.7 67.737-89.625C104.275 11.55 146.15 22.45 167.5 63.8M502.5 63.34c21.516-41.052 63.397-51.747 99.897-40.675C638.898 33.736 670 66.555 670 112.492c0 45.987-29.564 89.553-65.295 125.159-35.731 35.605-77.611 63.232-102.205 77.38-24.594-14.148-66.474-41.775-102.205-77.38C364.564 202.045 335 158.479 335 112.492c0-45.937 31.102-78.756 67.603-89.827 36.5-11.072 78.381-.377 99.897 40.675M837.5 61.707c22.106-39.993 64.006-49.96 100.375-38.37C974.244 34.928 1005 67.994 1005 113.884c0 45.939-29.257 89.475-64.876 124.968-35.62 35.492-77.519 62.859-102.624 76.642-25.105-13.783-67.004-41.15-102.624-76.642C699.257 203.359 670 159.823 670 113.884c0-45.89 30.756-78.956 67.125-90.547 36.369-11.59 78.269-1.623 100.375 38.37M1172.5 58.37c23.312-37.831 65.252-46.309 101.352-33.657 36.1 12.651 66.148 46.221 66.148 92.017 0 45.842-28.63 89.315-64.021 124.576-35.391 35.261-77.331 62.097-103.479 75.134-26.148-13.037-68.088-39.873-103.479-75.134C1033.63 206.045 1005 162.572 1005 116.73c0-45.796 30.048-79.366 66.148-92.017 36.1-12.652 78.04-4.174 101.352 33.657M1507.5 52.624c25.389-34.107 67.397-40.022 103.034-25.543C1646.172 41.559 1675 75.996 1675 121.629c0 45.675-27.55 89.04-62.548 123.902-34.998 34.863-77.006 60.786-104.952 72.54-27.946-11.754-69.954-37.677-104.952-72.54C1367.55 210.669 1340 167.304 1340 121.629c0-45.633 28.828-80.07 64.466-94.548 35.637-14.479 77.645-8.564 103.034 25.543M1842.5 44.204c28.432-28.649 70.54-30.81 105.499-13.654 34.96 17.157 62.001 52.864 62.001 98.258 0 45.43-25.967 88.637-60.39 122.916-34.423 34.278-76.53 58.862-107.11 68.735-30.58-9.873-72.687-34.457-107.11-68.735-34.423-34.279-60.39-77.486-60.39-122.916 0-45.394 27.041-81.101 62.001-98.258 34.959-17.156 77.067-14.995 105.499 13.654M2177.5 34.627c31.893-22.442 74.114-20.332 108.303-.13C2319.992 54.699 2345 91.851 2345 136.974c0 45.151-24.167 88.179-57.935 121.793-33.768 33.614-75.99 56.675-109.565 64.409-33.575-7.734-75.797-30.795-109.565-64.409-33.768-33.614-57.935-76.642-57.935-121.793 0-45.123 25.008-82.275 59.197-102.477 34.189-20.202 76.41-22.312 108.303.13M2512.5 26.133c34.963-16.937 77.285-11.038 110.789 11.865C2656.794 60.9 2680 99.335 2680 144.217c0 44.903-22.571 87.772-55.758 120.797-33.187 33.025-75.51 54.735-111.742 60.572-36.232-5.837-78.555-27.547-111.742-60.572C2367.571 231.989 2345 189.12 2345 144.217c0-44.882 23.206-83.317 56.711-106.219 33.504-22.903 75.826-28.802 110.789-11.865M2847.5 19.444c37.38-12.602 79.782-3.72 112.748 21.31 32.966 25.03 54.752 64.474 54.752 109.167 0 44.708-21.313 87.451-54.044 120.012-32.729 32.562-75.131 53.208-113.456 57.551-38.325-4.343-80.727-24.989-113.456-57.551-32.731-32.561-54.044-75.304-54.044-120.012 0-44.693 21.786-84.137 54.752-109.167s75.368-33.912 112.748-21.31M3182.5 14.319c39.232-9.28 81.695 1.887 114.248 28.547 32.554 26.66 53.252 66.877 53.252 111.425 0 44.559-20.35 87.205-52.73 119.411-32.379 32.206-74.842 52.037-114.77 55.236-39.928-3.199-82.391-23.03-114.77-55.236-32.38-32.206-52.73-74.852-52.73-119.411 0-44.548 20.698-84.765 53.252-111.425 32.553-26.66 75.016-37.827 114.248-28.547M3517.5 10.391c40.652-6.735 83.161 6.185 115.398 34.094C3665.136 72.394 3685 113.203 3685 157.64c0 44.445-19.612 87.018-51.723 118.951-32.111 31.934-74.62 51.14-115.777 53.461-41.157-2.321-83.666-21.527-115.777-53.461C3369.612 244.658 3350 202.085 3350 157.64c0-44.437 19.864-85.246 52.102-113.155 32.237-27.909 74.746-40.829 115.398-34.094M3852.5 7.371c41.743-4.777 84.289 9.489 116.282 38.358C4000.777 74.598 4020 115.864 4020 160.215c0 44.357-19.044 86.873-50.949 118.597-31.904 31.724-74.45 50.45-116.551 52.097-42.101-1.647-84.647-20.373-116.551-52.097-31.905-31.724-50.949-74.24-50.949-118.597 0-44.351 19.223-85.617 51.218-114.486 31.993-28.869 74.539-43.135 116.282-38.358M4187.5 5.055c42.58-3.276 85.153 12.023 116.96 41.629C4336.268 76.29 4355 117.905 4355 162.19c0 44.289-18.609 86.762-50.356 118.326-31.745 31.563-74.318 49.921-117.144 51.05-42.826-1.129-85.399-19.487-117.144-51.05C4038.609 248.952 4020 206.479 4020 162.19c0-44.285 18.732-85.9 50.54-115.506 31.807-29.606 74.38-44.905 116.96-41.629M4522.5 3.296c43.216-2.136 85.81 13.948 117.475 44.113 31.666 30.165 50.025 72.045 50.025 116.28 0 44.238-18.278 86.678-49.905 118.12-31.625 31.442-74.219 49.52-117.595 50.256-43.376-.736-85.97-18.814-117.595-50.256-31.627-31.442-49.905-73.882-49.905-118.12 0-44.235 18.359-86.115 50.025-116.28C4436.69 17.244 4479.284 1.16 4522.5 3.296M4857.5 1.991c43.687-1.29 86.297 15.376 117.857 45.955 31.561 30.58 49.643 72.658 49.643 116.856 0 44.2-18.033 86.616-49.57 117.967-31.536 31.351-74.146 49.221-117.93 49.666-43.784-.445-86.394-18.315-117.93-49.666-31.537-31.351-49.57-73.767-49.57-117.967 0-44.198 18.082-86.276 49.643-116.856 31.56-30.579 74.17-47.245 117.857-45.955M5192.5 1.062c44.023-.688 86.644 16.392 118.129 47.267C5342.116 79.205 5360 121.423 5360 165.595c0 44.173-17.859 86.571-49.332 117.857-31.473 31.287-74.093 49.01-118.168 49.247-44.075-.237-86.695-17.96-118.168-49.247-31.473-31.286-49.332-73.684-49.332-117.857 0-44.172 17.884-86.39 49.371-117.266C5105.856 17.454 5148.477.374 5192.5 1.062M5527.5.449c44.245-.291 86.872 17.063 118.309 48.133 31.437 31.07 49.191 73.38 49.191 117.535s-17.743 86.542-49.175 117.786c-31.431 31.244-74.058 48.869-118.325 48.97-44.267-.101-86.894-17.726-118.325-48.97-31.432-31.244-49.175-73.631-49.175-117.786s17.754-86.465 49.191-117.535C5440.628 17.512 5483.255.158 5527.5.449M5862.5.107c44.368-.069 87 17.437 118.409 48.616C6012.318 79.902 6030 122.264 6030 166.409c0 44.145-17.679 86.525-49.087 117.745-31.408 31.221-74.04 48.792-118.413 48.816-44.373-.024-87.005-17.595-118.413-48.816-31.408-31.22-49.087-73.6-49.087-117.745 0-44.145 17.682-86.507 49.091-117.686C5775.5 17.544 5818.132.038 5862.5.107M6197.5 0c44.407 0 87.04 17.554 118.44 48.767C6347.341 79.98 6365 122.358 6365 166.5c0 44.142-17.659 86.52-49.06 117.733-31.4 31.213-74.033 48.767-118.44 48.767s-87.04-17.554-118.44-48.767C6047.659 253.02 6030 210.642 6030 166.5c0-44.142 17.659-86.52 49.06-117.733C6110.46 17.554 6153.093 0 6197.5 0" fill="#ffa5ba"/></svg>