<svg xmlns="http://www.w3.org/2000/svg" viewBox="0 0 104146 344" width="104146" height="344"><path d="M173 71.4c-27.6-38.9-70.85-49.025-107.2-37.563C29.45 45.3 0 78.35 0 125.8c0 47.5 26.175 91.9 60.888 125.825C95.6 285.55 138.85 309 173 314.6c34.15-5.6 77.4-29.05 112.113-62.975C319.825 217.7 346 173.3 346 125.8c0-47.45-29.45-80.5-65.8-91.963C243.85 22.375 200.6 32.5 173 71.4zM519 71.395c-27.601-38.897-70.851-49.02-107.201-37.556C375.449 45.302 346 78.353 346 125.803c0 47.5 26.174 91.9 60.887 125.825 34.712 33.925 77.962 57.374 112.113 62.974 34.151-5.6 77.401-29.049 112.113-62.974C665.826 217.703 692 173.303 692 125.803c0-47.45-29.449-80.501-65.799-91.964-36.35-11.464-79.6-1.341-107.201 37.556zM865 71.381c-27.605-38.89-70.855-49.007-107.204-37.539C721.447 45.31 692 78.363 692 125.812c0 47.5 26.173 91.899 60.885 125.824S830.847 309.009 865 314.608c34.153-5.599 77.403-29.047 112.115-62.972 34.712-33.925 60.885-78.324 60.885-125.824 0-47.449-29.447-80.502-65.796-91.97C935.855 22.374 892.605 32.491 865 71.381zM1211 71.357c-27.611-38.876-70.861-48.985-107.209-37.51C1067.443 45.322 1038 78.379 1038 125.828c0 47.498 26.17 91.898 60.881 125.822 34.712 33.924 77.962 57.371 112.119 62.968 34.157-5.597 77.407-29.044 112.119-62.968C1357.83 217.726 1384 173.326 1384 125.828c0-47.449-29.443-80.506-65.791-91.981-36.348-11.475-79.598-1.366-107.209 37.51zM1557 71.323c-27.62-38.858-70.87-48.953-107.216-37.468C1413.438 45.34 1384 78.402 1384 125.85c0 47.498 26.166 91.897 60.877 125.82 34.71 33.923 77.96 57.368 112.123 62.962 34.163-5.594 77.413-29.039 112.123-62.962 34.711-33.923 60.877-78.322 60.877-125.82 0-47.448-29.438-80.51-65.784-91.995-36.346-11.485-79.596-1.39-107.216 37.468zM1903 71.279c-27.631-38.834-70.882-48.911-107.226-37.413C1759.431 45.363 1730 78.432 1730 125.879c0 47.496 26.162 91.895 60.87 125.817 34.709 33.923 77.96 57.363 112.13 62.954 34.17-5.591 77.421-29.031 112.13-62.954 34.708-33.922 60.87-78.321 60.87-125.817 0-47.447-29.431-80.516-65.774-92.013-36.344-11.498-79.595-1.421-107.226 37.413zM2249 71.223c-27.645-38.803-70.897-48.858-107.237-37.345C2105.422 45.392 2076 78.469 2076 125.914c0 47.496 26.155 91.894 60.862 125.815 34.707 33.921 77.959 57.358 112.138 62.944 34.179-5.586 77.431-29.023 112.138-62.944C2395.845 217.808 2422 173.41 2422 125.914c0-47.445-29.422-80.522-65.763-92.036-36.34-11.513-79.592-1.458-107.237 37.345zM2595 71.157c-27.662-38.768-70.915-48.796-107.252-37.263-36.336 11.533-65.748 44.62-65.748 92.063 0 47.494 26.148 91.892 60.853 125.811 34.704 33.919 77.957 57.351 112.147 62.932 34.19-5.581 77.443-29.013 112.147-62.932 34.705-33.919 60.853-78.317 60.853-125.811 0-47.443-29.412-80.53-65.748-92.063-36.337-11.533-79.59-1.505-107.252 37.263zM2941 71.078c-27.682-38.724-70.936-48.722-107.268-37.166C2797.399 45.468 2768 78.566 2768 126.008c0 47.492 26.139 91.889 60.841 125.806 34.703 33.918 77.956 57.344 112.159 62.918 34.203-5.574 77.456-29 112.159-62.918C3087.861 217.897 3114 173.5 3114 126.008c0-47.442-29.399-80.54-65.732-92.096-36.332-11.556-79.586-1.558-107.268 37.166zM3287 70.988c-27.705-38.676-70.96-48.637-107.287-37.055C3143.385 45.515 3114 78.627 3114 126.067c0 47.489 26.129 91.885 60.829 125.8 34.699 33.916 77.953 57.335 112.171 62.903 34.218-5.568 77.472-28.987 112.171-62.903 34.7-33.915 60.829-78.311 60.829-125.8 0-47.44-29.385-80.552-65.713-92.134-36.327-11.582-79.582-1.621-107.287 37.055zM3633 70.885c-27.732-38.619-70.987-48.541-107.309-36.928C3489.369 45.569 3460 78.696 3460 126.133c0 47.486 26.118 91.882 60.814 125.795s77.952 57.324 112.186 62.884c34.234-5.56 77.49-28.971 112.186-62.884 34.696-33.913 60.814-78.309 60.814-125.795 0-47.437-29.369-80.564-65.691-92.176-36.322-11.613-79.577-1.691-107.309 36.928zM3979 70.769c-27.761-38.556-71.018-48.431-107.334-36.785C3835.351 45.63 3806 78.774 3806 126.208c0 47.483 26.105 91.878 60.797 125.788 34.693 33.91 77.95 57.313 112.203 62.864 34.253-5.551 77.51-28.954 112.203-62.864 34.692-33.91 60.797-78.305 60.797-125.788 0-47.434-29.351-80.578-65.666-92.224-36.316-11.646-79.573-1.771-107.334 36.785zM4325 70.64c-27.794-38.486-71.053-48.31-107.361-36.626C4181.331 45.697 4152 78.861 4152 126.292c0 47.479 26.091 91.873 60.779 125.78s77.946 57.3 112.221 62.841c34.275-5.541 77.533-28.934 112.221-62.841S4498 173.771 4498 126.292c0-47.431-29.331-80.595-65.639-92.278-36.308-11.684-79.567-1.86-107.361 36.626zM4671 70.497c-27.831-38.408-71.091-48.176-107.391-36.45C4527.308 45.772 4498 78.958 4498 126.384c0 47.476 26.075 91.868 60.758 125.772 34.684 33.904 77.944 57.287 112.242 62.816 34.298-5.529 77.558-28.912 112.242-62.816C4817.925 218.252 4844 173.86 4844 126.384c0-47.426-29.308-80.612-65.609-92.337-36.3-11.726-79.56-1.958-107.391 36.45zM5017 70.34c-27.871-38.323-71.133-48.028-107.425-36.257S4844 79.064 4844 126.486c0 47.472 26.057 91.863 60.736 125.763 34.678 33.9 77.94 57.271 112.264 62.788 34.324-5.517 77.586-28.888 112.264-62.788 34.679-33.9 60.736-78.291 60.736-125.763 0-47.422-29.283-80.632-65.575-92.403S5044.871 32.017 5017 70.34zM5363 70.167c-27.915-38.228-71.179-47.865-107.461-36.044C5219.256 45.944 5190 79.18 5190 126.598c0 47.467 26.038 91.856 60.711 125.752s77.937 57.254 112.289 62.758c34.352-5.504 77.616-28.862 112.289-62.758S5536 174.065 5536 126.598c0-47.418-29.256-80.654-65.539-92.475-36.282-11.821-79.546-2.184-107.461 36.044zM5709 69.979c-27.964-38.126-71.229-47.688-107.501-35.812C5565.227 46.043 5536 79.306 5536 126.72c0 47.462 26.017 91.849 60.684 125.741 34.667 33.891 77.933 57.236 112.316 62.724 34.383-5.488 77.649-28.833 112.316-62.724C5855.983 218.569 5882 174.182 5882 126.72c0-47.414-29.227-80.677-65.499-92.553-36.272-11.876-79.537-2.314-107.501 35.812zM6055 69.775c-28.016-38.015-71.284-47.497-107.544-35.561C5911.195 46.15 5882 79.444 5882 126.852c0 47.457 25.994 91.842 60.655 125.729 34.66 33.887 77.928 57.216 112.345 62.688 34.417-5.472 77.685-28.801 112.345-62.688 34.661-33.887 60.655-78.272 60.655-125.729 0-47.408-29.195-80.702-65.456-92.638-36.26-11.936-79.528-2.454-107.544 35.561zM6401 69.553c-28.072-37.894-71.343-47.288-107.591-35.288-36.249 12-65.409 45.328-65.409 92.73 0 47.451 25.97 91.835 60.623 125.716 34.654 33.882 77.924 57.194 112.377 62.649 34.453-5.455 77.723-28.767 112.377-62.649C6548.03 218.83 6574 174.446 6574 126.995c0-47.402-29.16-80.73-65.409-92.73-36.248-12-79.519-2.606-107.591 35.288zM6747 69.315c-28.133-37.764-71.406-47.064-107.642-34.994C6603.123 46.39 6574 79.753 6574 127.149c0 47.445 25.943 91.827 60.589 125.703 34.646 33.875 77.919 57.17 112.411 62.607 34.492-5.437 77.765-28.732 112.411-62.607 34.646-33.876 60.589-78.258 60.589-125.703 0-47.396-29.123-80.759-65.358-92.828-36.236-12.07-79.509-2.77-107.642 34.994zM7093 69.058c-28.199-37.624-71.475-46.822-107.696-34.678C6949.082 46.524 6920 79.926 6920 127.315c0 47.438 25.915 91.818 60.552 125.688 34.638 33.869 77.914 57.145 112.448 62.561 34.534-5.416 77.81-28.692 112.448-62.561 34.637-33.87 60.552-78.25 60.552-125.688 0-47.389-29.082-80.791-65.304-92.935-36.221-12.144-79.497-2.946-107.696 34.678zM7439 68.782c-28.27-37.473-71.548-46.562-107.755-34.338-36.206 12.224-65.245 45.668-65.245 93.05 0 47.43 25.884 91.807 60.513 125.671 34.629 33.863 77.908 57.118 112.487 62.513 34.579-5.395 77.858-28.65 112.487-62.513 34.629-33.864 60.513-78.241 60.513-125.671 0-47.382-29.039-80.826-65.245-93.05-36.207-12.224-79.485-3.135-107.755 34.338zM7785 68.487c-28.345-37.313-71.627-46.285-107.817-33.975C7640.993 46.823 7612 80.31 7612 127.685c0 47.422 25.851 91.797 60.471 125.653 34.619 33.857 77.901 57.09 112.529 62.461 34.628-5.371 77.91-28.604 112.529-62.461 34.62-33.856 60.471-78.231 60.471-125.653 0-47.375-28.993-80.862-65.183-93.173-36.19-12.31-79.472-3.338-107.817 33.975zM8131 68.172c-28.426-37.141-71.711-45.989-107.884-33.587C7986.943 46.987 7958 80.523 7958 127.889c0 47.414 25.816 91.786 60.426 125.635 34.609 33.849 77.894 57.059 112.574 62.405 34.68-5.346 77.965-28.556 112.574-62.405 34.61-33.849 60.426-78.221 60.426-125.635 0-47.366-28.943-80.902-65.116-93.304-36.173-12.402-79.458-3.554-107.884 33.587zM8477 67.835c-28.512-36.958-71.801-45.672-107.955-33.172-36.155 12.5-65.045 46.086-65.045 93.444 0 47.405 25.779 91.774 60.377 125.615 34.599 33.841 77.888 57.026 112.623 62.346 34.735-5.32 78.024-28.505 112.623-62.346 34.598-33.841 60.377-78.21 60.377-125.615 0-47.358-28.89-80.944-65.045-93.444-36.154-12.5-79.443-3.786-107.955 33.172zM8823 67.476c-28.604-36.762-71.897-45.334-108.031-32.73C8678.834 47.351 8650 80.991 8650 128.339c0 47.395 25.739 91.761 60.326 125.594s77.88 56.99 112.674 62.283c34.794-5.293 78.087-28.45 112.674-62.283S8996 175.734 8996 128.339c0-47.348-28.834-80.988-64.969-93.593-36.134-12.604-79.427-4.032-108.031 32.73zM9169 67.095c-28.701-36.555-71.999-44.976-108.112-32.26C9024.774 47.55 8996 81.247 8996 128.586c0 47.385 25.696 91.748 60.271 125.571 34.575 33.824 77.873 56.953 112.729 62.216 34.856-5.263 78.154-28.392 112.729-62.216 34.575-33.823 60.271-78.186 60.271-125.571 0-47.339-28.774-81.036-64.888-93.751-36.113-12.716-79.411-4.295-108.112 32.26zM9515 66.69c-28.805-36.334-72.107-44.595-108.198-31.761C9370.71 47.762 9342 81.52 9342 128.848c0 47.375 25.651 91.734 60.214 125.548 34.561 33.814 77.863 56.913 112.786 62.144 34.923-5.231 78.225-28.33 112.786-62.144 34.563-33.814 60.214-78.173 60.214-125.548 0-47.328-28.71-81.086-64.802-93.919-36.091-12.834-79.393-4.573-108.198 31.761zM9861 66.26c-28.915-36.1-72.221-44.19-108.289-31.232C9716.643 47.987 9688 81.809 9688 129.126c0 47.363 25.604 91.718 60.152 125.522s77.855 56.872 112.848 62.068c34.993-5.196 78.3-28.264 112.848-62.068S10034 176.489 10034 129.126c0-47.317-28.643-81.139-64.711-94.098C9933.221 22.07 9889.915 30.16 9861 66.26zM10207 65.805c-29.031-35.852-72.343-43.762-108.386-30.671-36.043 13.091-64.614 46.981-64.614 94.286 0 47.352 25.553 91.703 60.087 125.496 34.534 33.793 77.845 56.827 112.913 61.988 35.068-5.161 78.379-28.195 112.913-61.988 34.534-33.793 60.087-78.144 60.087-125.496 0-47.305-28.571-81.195-64.614-94.286-36.043-13.091-79.355-5.181-108.386 30.671zM10553 65.323c-29.154-35.589-72.471-43.309-108.488-30.078-36.016 13.231-64.512 47.194-64.512 94.487 0 47.338 25.5 91.685 60.018 125.467s77.835 56.78 112.982 61.903c35.147-5.123 78.464-28.121 112.982-61.903S10726 177.07 10726 129.732c0-47.293-28.496-81.256-64.512-94.487-36.017-13.231-79.334-5.511-108.488 30.078zM10899 64.815c-29.285-35.312-72.607-42.831-108.595-29.452-35.989 13.379-64.405 47.419-64.405 94.698 0 47.325 25.443 91.667 59.945 125.437 34.502 33.77 77.825 56.73 113.055 61.814 35.23-5.084 78.553-28.044 113.055-61.814 34.502-33.77 59.945-78.112 59.945-125.437 0-47.279-28.416-81.319-64.405-94.698-35.988-13.379-79.31-5.86-108.595 29.452zM11245 64.278c-29.422-35.02-72.75-42.326-108.709-28.791-35.959 13.536-64.291 47.656-64.291 94.921 0 47.311 25.383 91.649 59.868 125.406 34.485 33.757 77.814 56.677 113.132 61.718 35.318-5.041 78.647-27.961 113.132-61.718 34.485-33.757 59.868-78.095 59.868-125.406 0-47.265-28.332-81.385-64.291-94.921-35.959-13.535-79.287-6.229-108.709 28.791zM11591 63.713c-29.566-34.712-72.901-41.795-108.829-28.095-35.928 13.7-64.171 47.905-64.171 95.156 0 47.295 25.321 91.628 59.788 125.372 34.466 33.744 77.801 56.622 113.212 61.619 35.411-4.997 78.746-27.875 113.212-61.619 34.467-33.744 59.788-78.077 59.788-125.372 0-47.251-28.243-81.456-64.171-95.156-35.928-13.7-79.263-6.617-108.829 28.095zM11937 63.118c-29.719-34.388-73.059-41.235-108.955-27.362-35.895 13.873-64.045 48.168-64.045 95.403 0 47.28 25.254 91.607 59.702 125.337 34.448 33.73 77.789 56.564 113.298 61.514 35.509-4.95 78.85-27.784 113.298-61.514 34.448-33.73 59.702-78.057 59.702-125.337 0-47.235-28.15-81.53-64.045-95.403-35.896-13.873-79.236-7.026-108.955 27.362zM12283 62.493c-29.879-34.048-73.226-40.647-109.087-26.592-35.862 14.055-63.913 48.443-63.913 95.663 0 47.263 25.185 91.585 59.613 125.3 34.428 33.716 77.776 56.502 113.387 61.404 35.611-4.902 78.959-27.688 113.387-61.404 34.428-33.715 59.613-78.037 59.613-125.3 0-47.22-28.051-81.608-63.913-95.663-35.861-14.055-79.208-7.456-109.087 26.592zM12629 61.836c-30.047-33.689-73.401-40.029-109.226-25.783-35.826 14.246-63.774 48.733-63.774 95.935 0 47.246 25.112 91.563 59.519 125.262 34.407 33.7 77.762 56.438 113.481 61.288 35.719-4.85 79.074-27.588 113.481-61.288 34.407-33.699 59.519-78.016 59.519-125.262 0-47.202-27.948-81.689-63.774-95.935-35.825-14.246-79.179-7.906-109.226 25.783zM12975 61.148c-30.222-33.314-73.585-39.382-109.372-24.936-35.788 14.447-63.628 49.037-63.628 96.221 0 47.228 25.036 91.538 59.421 125.222s77.747 56.37 113.579 61.166c35.832-4.796 79.194-27.482 113.579-61.166 34.385-33.684 59.421-77.994 59.421-125.222 0-47.184-27.84-81.774-63.628-96.221-35.787-14.446-79.15-8.378-109.372 24.936zM13321 60.429c-30.407-32.923-73.777-38.706-109.525-24.05-35.748 14.656-63.475 49.354-63.475 96.52 0 47.208 24.956 91.513 59.318 125.179 34.362 33.667 77.732 56.3 113.682 61.04 35.95-4.74 79.32-27.373 113.682-61.04 34.362-33.666 59.318-77.971 59.318-125.179 0-47.166-27.727-81.864-63.475-96.52-35.748-14.656-79.118-8.873-109.525 24.05zM13667 59.677c-30.599-32.513-73.977-37.998-109.684-23.124-35.707 14.875-63.316 49.686-63.316 96.833 0 47.188 24.872 91.485 59.21 125.134s77.717 56.227 113.79 60.907c36.073-4.68 79.452-27.258 113.79-60.907 34.338-33.649 59.21-77.946 59.21-125.134 0-47.147-27.609-81.958-63.316-96.833-35.707-14.874-79.085-9.389-109.684 23.124zM14013 58.893c-30.799-32.086-74.187-37.261-109.85-22.158-35.664 15.102-63.15 50.032-63.15 97.158 0 47.167 24.785 91.458 59.098 125.089 34.313 33.63 77.7 56.149 113.902 60.768 36.202-4.619 79.589-27.138 113.902-60.768 34.313-33.631 59.098-77.922 59.098-125.089 0-47.126-27.486-82.056-63.15-97.158-35.663-15.103-79.051-9.928-109.85 22.158zM14359 58.077c-31.008-31.641-74.404-36.493-110.023-21.153-35.619 15.34-62.977 50.392-62.977 97.497 0 47.145 24.694 91.429 58.981 125.04 34.287 33.612 77.683 56.07 114.019 60.625 36.336-4.555 79.732-27.013 114.019-60.625 34.287-33.611 58.981-77.895 58.981-125.04 0-47.105-27.358-82.157-62.977-97.497-35.619-15.34-79.015-10.488-110.023 21.153zM14705 57.23c-31.225-31.18-74.63-35.697-110.203-20.11-35.572 15.587-62.797 50.766-62.797 97.849 0 47.123 24.6 91.399 58.86 124.991 34.26 33.591 77.665 55.986 114.14 60.475 36.475-4.489 79.88-26.884 114.14-60.475 34.26-33.592 58.86-77.868 58.86-124.991 0-47.083-27.225-82.262-62.797-97.849-35.573-15.587-78.978-11.07-110.203 20.11zM15051 56.352c-31.45-30.702-74.865-34.871-110.389-19.028-35.524 15.842-62.611 51.153-62.611 98.213 0 47.1 24.502 91.369 58.734 124.939 34.232 33.571 77.647 55.901 114.266 60.32 36.619-4.419 80.034-26.749 114.266-60.32 34.232-33.57 58.734-77.839 58.734-124.939 0-47.06-27.087-82.371-62.611-98.213-35.524-15.843-78.939-11.674-110.389 19.028zM15397 55.444c-31.682-30.207-75.107-34.017-110.581-17.91-35.474 16.106-62.419 51.554-62.419 98.591 0 47.075 24.402 91.336 58.604 124.885 34.203 33.55 77.628 55.812 114.396 60.16 36.768-4.348 80.193-26.61 114.396-60.16 34.202-33.549 58.604-77.81 58.604-124.885 0-47.037-26.945-82.485-62.419-98.591-35.474-16.107-78.899-12.297-110.581 17.91zM15743 54.508c-31.921-29.697-75.357-33.136-110.779-16.757-35.423 16.379-62.221 51.967-62.221 98.979 0 47.051 24.297 91.304 58.47 124.831s77.608 55.72 114.53 59.995c36.922-4.275 80.357-26.468 114.53-59.995s58.47-77.78 58.47-124.831c0-47.012-26.798-82.6-62.221-98.979-35.422-16.379-78.858-12.94-110.779 16.757zM16089 53.545c-32.168-29.172-75.613-32.231-110.983-15.571-35.371 16.659-62.017 52.392-62.017 99.379 0 47.025 24.19 91.27 58.333 124.774 34.142 33.505 77.587 55.626 114.667 59.825 37.08-4.199 80.525-26.32 114.667-59.825 34.143-33.504 58.333-77.749 58.333-124.774 0-46.987-26.646-82.72-62.017-99.379-35.37-16.66-78.815-13.601-110.983 15.571zM16435 52.557c-32.42-28.634-75.877-31.301-111.193-14.354-35.316 16.946-61.807 52.828-61.807 99.789 0 46.999 24.081 91.235 58.191 124.716 34.111 33.482 77.567 55.529 114.809 59.651 37.242-4.122 80.698-26.169 114.809-59.651 34.11-33.481 58.191-77.717 58.191-124.716 0-46.961-26.491-82.843-61.807-99.789-35.316-16.947-78.773-14.28-111.193 14.354zM16781 51.547c-32.679-28.084-76.146-30.351-111.407-13.11-35.26 17.24-61.593 53.273-61.593 100.209 0 46.972 23.968 91.199 58.047 124.656 34.078 33.458 77.546 55.43 114.953 59.473 37.407-4.043 80.875-26.015 114.953-59.473 34.079-33.457 58.047-77.684 58.047-124.656 0-46.936-26.333-82.969-61.593-100.209-35.261-17.241-78.728-14.974-111.407 13.11zM17127 50.517c-32.942-27.523-76.421-29.382-111.625-11.842-35.204 17.541-61.375 53.729-61.375 100.637 0 46.945 23.854 91.163 57.899 124.596 34.046 33.434 77.525 55.329 115.101 59.291 37.576-3.962 81.055-25.857 115.101-59.291 34.045-33.433 57.899-77.651 57.899-124.596 0-46.908-26.171-83.096-61.375-100.637-35.204-17.54-78.683-15.681-111.625 11.842zM17473 49.47c-33.21-26.952-76.7-28.398-111.847-10.552-35.146 17.845-61.153 54.19-61.153 101.072 0 46.916 23.738 91.125 57.75 124.534 34.011 33.409 77.502 55.226 115.25 59.106 37.748-3.88 81.239-25.697 115.25-59.106 34.012-33.409 57.75-77.618 57.75-124.534 0-46.882-26.007-83.227-61.153-101.072-35.147-17.846-78.637-16.4-111.847 10.552zM17819 48.409c-33.481-26.374-76.983-27.4-112.072-9.245-35.088 18.153-60.928 54.658-60.928 101.512 0 46.889 23.62 91.088 57.598 124.472 33.978 33.384 77.48 55.122 115.402 58.919 37.922-3.797 81.424-25.535 115.402-58.919 33.978-33.384 57.598-77.583 57.598-124.472 0-46.854-25.84-83.359-60.928-101.512-35.089-18.155-78.591-17.129-112.072 9.245zM18165 47.338c-33.755-25.791-77.269-26.392-112.299-7.926-35.029 18.465-60.701 55.131-60.701 101.958 0 46.859 23.501 91.05 57.444 124.408 33.944 33.359 77.458 55.017 115.556 58.73 38.098-3.713 81.612-25.371 115.556-58.73 33.943-33.358 57.444-77.549 57.444-124.408 0-46.827-25.672-83.493-60.701-101.958-35.03-18.466-78.544-17.865-112.299 7.926zM18511 46.259c-34.031-25.203-77.557-25.377-112.527-6.597-34.971 18.78-60.473 55.607-60.473 102.406 0 46.831 23.381 91.012 57.29 124.345s77.435 54.911 115.71 58.539c38.275-3.628 81.801-25.206 115.71-58.539 33.909-33.333 57.29-77.514 57.29-124.345 0-46.799-25.502-83.626-60.473-102.406-34.97-18.78-78.496-18.606-112.527 6.597zM18857 45.175c-34.309-24.612-77.846-24.358-112.757-5.262-34.911 19.095-60.243 56.086-60.243 102.856 0 46.802 23.26 90.974 57.135 124.281 33.875 33.308 77.412 54.805 115.865 58.348 38.453-3.543 81.99-25.04 115.865-58.348 33.875-33.307 57.135-77.479 57.135-124.281 0-46.77-25.332-83.761-60.243-102.856-34.911-19.096-78.448-19.35-112.757 5.262zM19203 44.091c-34.586-24.022-78.136-23.338-112.987-3.927S19030 96.728 19030 143.471c0 46.773 23.14 90.935 56.98 124.217 33.84 33.282 77.389 54.699 116.02 58.157 38.631-3.458 82.18-24.875 116.02-58.157 33.84-33.282 56.98-77.444 56.98-124.217 0-46.743-25.162-83.896-60.013-103.307s-78.401-20.095-112.987 3.927zM19549 43.008c-34.863-23.432-78.424-22.319-113.216-2.593-34.792 19.726-59.784 57.042-59.784 103.756 0 46.745 23.019 90.897 56.825 124.154 33.805 33.257 77.367 54.593 116.175 57.966 38.808-3.373 82.37-24.709 116.175-57.966 33.806-33.257 56.825-77.409 56.825-124.154 0-46.714-24.992-84.03-59.784-103.756s-78.353-20.839-113.216 2.593zM19895 41.93c-35.139-22.844-78.712-21.305-113.444-1.266-34.733 20.04-59.556 57.518-59.556 104.205 0 46.715 22.899 90.859 56.671 124.09 33.771 33.231 77.344 54.487 116.329 57.776 38.985-3.289 82.558-24.545 116.329-57.776 33.772-33.231 56.671-77.375 56.671-124.09 0-46.687-24.823-84.165-59.556-104.205-34.732-20.039-78.305-21.578-113.444 1.266zM20241 40.86c-35.412-22.261-78.997-20.299-113.671.052-34.674 20.351-59.329 57.99-59.329 104.649 0 46.687 22.781 90.821 56.518 124.027 33.736 33.206 77.321 54.383 116.482 57.587 39.161-3.204 82.746-24.381 116.482-57.587 33.737-33.206 56.518-77.34 56.518-124.027 0-46.659-24.655-84.298-59.329-104.649s-78.259-22.313-113.671-.052zM20587 39.8c-35.684-21.684-79.28-19.302-113.896 1.358-34.616 20.659-59.104 58.458-59.104 105.089 0 46.659 22.663 90.784 56.366 123.965s77.299 54.278 116.634 57.4c39.335-3.122 82.931-24.219 116.634-57.4S20760 192.906 20760 146.247c0-46.631-24.488-84.43-59.104-105.089-34.616-20.66-78.212-23.042-113.896-1.358zM20933 38.752c-35.952-21.113-79.56-18.316-114.118 2.649-34.558 20.964-58.882 58.92-58.882 105.524 0 46.631 22.546 90.747 56.216 123.903 33.669 33.157 77.277 54.176 116.784 57.215 39.507-3.039 83.115-24.058 116.784-57.215 33.67-33.156 56.216-77.272 56.216-123.903 0-46.604-24.324-84.56-58.882-105.524-34.558-20.965-78.166-23.762-114.118-2.649zM21279 37.719c-36.216-20.55-79.835-17.345-114.337 3.921-34.502 21.265-58.663 59.377-58.663 105.954 0 46.604 22.431 90.71 56.068 123.842 33.636 33.132 77.256 54.075 116.932 57.033 39.676-2.958 83.296-23.901 116.932-57.033 33.637-33.132 56.068-77.238 56.068-123.842 0-46.577-24.161-84.689-58.663-105.954-34.502-21.266-78.121-24.471-114.337-3.921zM21625 36.701c-36.477-19.996-80.107-16.387-114.552 5.175-34.446 21.561-58.448 59.826-58.448 106.377 0 46.576 22.318 90.674 55.922 123.782 33.604 33.108 77.235 53.974 117.078 56.853 39.843-2.879 83.474-23.745 117.078-56.853 33.604-33.108 55.922-77.206 55.922-123.782 0-46.551-24.002-84.816-58.448-106.377-34.445-21.562-78.075-25.171-114.552-5.175zM21971 35.7c-36.732-19.45-80.374-15.445-114.764 6.408-34.391 21.853-58.236 60.267-58.236 106.792 0 46.55 22.207 90.639 55.779 123.723 33.572 33.085 77.214 53.877 117.221 56.677 40.007-2.8 83.649-23.592 117.221-56.677 33.572-33.084 55.779-77.173 55.779-123.723 0-46.525-23.844-84.939-58.236-106.792-34.39-21.853-78.032-25.858-114.764-6.408zM22317 34.718c-36.984-18.915-80.636-14.522-114.973 7.617S22144 103.036 22144 149.536c0 46.523 22.098 90.604 55.639 123.665 33.54 33.062 77.192 53.781 117.361 56.503 40.169-2.722 83.821-23.441 117.361-56.503 33.541-33.061 55.639-77.142 55.639-123.665 0-46.5-23.69-85.062-58.027-107.201-34.337-22.139-77.989-26.532-114.973-7.617zM22663 33.755c-37.23-18.391-80.893-13.616-115.177 8.803-34.284 22.419-57.823 61.126-57.823 107.601 0 46.498 21.991 90.57 55.501 123.609 33.509 33.038 77.172 53.686 117.499 56.333 40.327-2.647 83.99-23.295 117.499-56.333 33.51-33.039 55.501-77.111 55.501-123.609 0-46.475-23.539-85.182-57.823-107.601-34.284-22.419-77.947-27.194-115.177-8.803zM23009 32.811c-37.471-17.876-81.145-12.728-115.377 9.966-34.232 22.693-57.623 61.542-57.623 107.992 0 46.473 21.886 90.537 55.366 123.554 33.479 33.016 77.153 53.593 117.634 56.166 40.481-2.573 84.155-23.15 117.634-56.166 33.48-33.017 55.366-77.081 55.366-123.554 0-46.45-23.391-85.299-57.623-107.992-34.232-22.694-77.906-27.842-115.377-9.966zM23355 31.889c-37.707-17.374-81.391-11.861-115.572 11.102-34.182 22.962-57.428 61.949-57.428 108.375 0 46.449 21.783 90.504 55.234 123.499 33.45 32.995 77.133 53.503 117.766 56.004 40.633-2.501 84.316-23.009 117.766-56.004 33.451-32.995 55.234-77.05 55.234-123.499 0-46.426-23.246-85.413-57.428-108.375-34.181-22.963-77.865-28.476-115.572-11.102zM23701 30.987c-37.938-16.882-81.631-11.012-115.763 12.213-34.133 23.224-57.237 62.347-57.237 108.75 0 46.424 21.683 90.472 55.105 123.446 33.421 32.973 77.114 53.414 117.895 55.845 40.781-2.431 84.474-22.872 117.895-55.845 33.422-32.974 55.105-77.022 55.105-123.446 0-46.403-23.104-85.526-57.237-108.75-34.132-23.225-77.825-29.095-115.763-12.213zM24047 30.106c-38.164-16.402-81.866-10.184-115.95 13.298-34.084 23.48-57.05 62.736-57.05 109.116 0 46.401 21.585 90.441 54.979 123.394 33.393 32.953 77.096 53.328 118.021 55.689 40.925-2.361 84.628-22.736 118.021-55.689 33.394-32.953 54.979-76.993 54.979-123.394 0-46.38-22.966-85.636-57.05-109.116-34.084-23.482-77.786-29.7-115.95-13.298zM24393 29.246c-38.383-15.934-82.096-9.375-116.132 14.357-34.037 23.731-56.868 63.115-56.868 109.473 0 46.378 21.49 90.411 54.856 123.344 33.365 32.932 77.078 53.244 118.144 55.537 41.066-2.293 84.779-22.605 118.144-55.537 33.366-32.933 54.856-76.966 54.856-123.344 0-46.358-22.831-85.742-56.868-109.473-34.036-23.732-77.749-30.291-116.132-14.357zM24739 28.407c-38.598-15.476-82.32-8.586-116.31 15.39-33.991 23.975-56.69 63.486-56.69 109.822 0 46.356 21.396 90.381 54.736 123.294 33.338 32.913 77.06 53.162 118.264 55.39 41.204-2.228 84.926-22.477 118.264-55.39 33.34-32.913 54.736-76.938 54.736-123.294 0-46.336-22.699-85.847-56.69-109.822-33.99-23.976-77.712-30.866-116.31-15.39zM25085 27.589c-38.807-15.031-82.538-7.816-116.483 16.398-33.946 24.213-56.517 63.846-56.517 110.161 0 46.334 21.306 90.353 54.619 123.246 33.312 32.894 77.043 53.082 118.381 55.246 41.338-2.164 85.069-22.352 118.381-55.246 33.313-32.893 54.619-76.912 54.619-123.246 0-46.315-22.571-85.948-56.517-110.161-33.945-24.214-77.676-31.429-116.483-16.398zM25431 26.792c-39.011-14.597-82.75-7.067-116.652 17.379S25258 108.37 25258 154.664c0 46.313 21.217 90.324 54.505 123.199 33.287 32.875 77.026 53.004 118.495 55.105 41.469-2.101 85.208-22.23 118.495-55.105 33.288-32.875 54.505-76.886 54.505-123.199 0-46.294-22.446-86.047-56.348-110.493-33.902-24.446-77.641-31.976-116.652-17.379zM25777 26.015c-39.21-14.173-82.958-6.336-116.817 18.336-33.859 24.672-56.183 64.542-56.183 110.816 0 46.292 21.131 90.297 54.393 123.153 33.263 32.857 77.01 52.928 118.607 54.968 41.597-2.04 85.344-22.111 118.607-54.968 33.262-32.856 54.393-76.861 54.393-123.153 0-46.274-22.324-86.144-56.183-110.816-33.859-24.672-77.607-32.509-116.817-18.336zM26123 25.258c-39.404-13.761-83.16-5.624-116.977 19.269-33.818 24.892-56.023 64.875-56.023 111.13 0 46.272 21.046 90.27 54.285 123.108 33.238 32.839 76.994 52.854 118.715 54.835 41.721-1.981 85.477-21.996 118.715-54.835 33.239-32.838 54.285-76.836 54.285-123.108 0-46.255-22.205-86.238-56.023-111.13-33.817-24.893-77.573-33.03-116.977-19.269zM26469 24.521c-39.592-13.36-83.356-4.931-117.133 20.177-33.778 25.106-55.867 65.2-55.867 111.436 0 46.252 20.964 90.244 54.18 123.065 33.214 32.821 76.978 52.781 118.82 54.704 41.842-1.923 85.606-21.883 118.82-54.704 33.216-32.821 54.18-76.813 54.18-123.065 0-46.236-22.089-86.33-55.867-111.436-33.777-25.108-77.541-33.537-117.133-20.177zM26815 23.803c-39.776-12.968-83.548-4.255-117.285 21.061-33.739 25.315-55.715 65.517-55.715 111.734 0 46.234 20.885 90.219 54.077 123.023 33.191 32.805 76.963 52.711 118.923 54.578 41.96-1.867 85.732-21.773 118.923-54.578 33.192-32.804 54.077-76.789 54.077-123.023 0-46.217-21.976-86.419-55.715-111.734-33.737-25.316-77.509-34.029-117.285-21.061zM27161 23.104c-39.955-12.588-83.734-3.598-117.434 21.922-33.699 25.519-55.566 65.826-55.566 112.025 0 46.214 20.807 90.194 53.977 122.982 33.169 32.788 76.949 52.642 119.023 54.454 42.074-1.812 85.854-21.666 119.023-54.454 33.17-32.788 53.977-76.768 53.977-122.982 0-46.199-21.867-86.506-55.566-112.025-33.7-25.52-77.479-34.51-117.434-21.922zM27507 22.423c-40.129-12.216-83.916-2.957-117.578 22.761C27355.76 70.9 27334 111.31 27334 157.491c0 46.197 20.731 90.17 53.879 122.942 33.148 32.772 76.935 52.575 119.121 54.334 42.186-1.759 85.973-21.562 119.121-54.334 33.148-32.772 53.879-76.745 53.879-122.942 0-46.181-21.76-86.591-55.422-112.307-33.662-25.718-77.449-34.977-117.578-22.761zM27853 21.76c-40.298-11.855-84.093-2.333-117.718 23.577-33.626 25.91-55.282 66.419-55.282 112.583 0 46.179 20.658 90.146 53.785 122.903 33.126 32.756 76.92 52.51 119.215 54.217 42.295-1.707 86.089-21.461 119.215-54.217 33.127-32.757 53.785-76.724 53.785-122.903 0-46.164-21.656-86.673-55.282-112.583-33.625-25.91-77.42-35.432-117.718-23.577zM28199 21.115c-40.464-11.504-84.265-1.727-117.855 24.371-33.591 26.098-55.145 66.704-55.145 112.851 0 46.162 20.586 90.124 53.692 122.865s76.907 52.447 119.308 54.104c42.401-1.657 86.202-21.363 119.308-54.104 33.106-32.741 53.692-76.703 53.692-122.865 0-46.147-21.554-86.753-55.145-112.851-33.59-26.098-77.391-35.875-117.855-24.371zM28545 20.487c-40.624-11.162-84.433-1.136-117.988 25.145-33.556 26.28-55.012 66.981-55.012 113.112 0 46.145 20.516 90.101 53.602 122.828 33.086 32.726 76.894 52.385 119.398 53.992 42.504-1.607 86.312-21.266 119.398-53.992 33.086-32.727 53.602-76.683 53.602-122.828 0-46.131-21.456-86.832-55.012-113.112-33.555-26.281-77.364-36.307-117.988-25.145zM28891 19.876c-40.781-10.829-84.596-.561-118.118 25.898-33.522 26.458-54.882 67.25-54.882 113.365 0 46.129 20.448 90.08 53.515 122.792 33.066 32.712 76.881 52.326 119.485 53.885 42.604-1.559 86.419-21.173 119.485-53.885 33.067-32.712 53.515-76.663 53.515-122.792 0-46.115-21.36-86.907-54.882-113.365-33.522-26.459-77.337-36.727-118.118-25.898zM29237 19.28c-40.933-10.504-84.754-.001-118.244 26.632-33.49 26.631-54.756 67.513-54.756 113.612 0 46.114 20.382 90.06 53.43 122.757 33.047 32.698 76.868 52.268 119.57 53.78 42.702-1.512 86.523-21.082 119.57-53.78 33.048-32.697 53.43-76.643 53.43-122.757 0-46.099-21.266-86.981-54.756-113.612-33.49-26.633-77.311-37.136-118.244-26.632zM29583 18.701c-41.081-10.189-84.909.544-118.366 27.345-33.459 26.8-54.634 67.769-54.634 113.853 0 46.098 20.318 90.039 53.347 122.723 33.028 32.685 76.856 52.211 119.653 53.678 42.797-1.467 86.625-20.993 119.653-53.678 33.029-32.684 53.347-76.625 53.347-122.723 0-46.084-21.175-87.053-54.634-113.853-33.457-26.801-77.285-37.534-118.366-27.345zM29929 18.137c-41.225-9.882-85.06 1.074-118.486 28.039-33.427 26.965-54.514 68.019-54.514 114.088 0 46.083 20.255 90.019 53.266 122.69 33.011 32.671 76.845 52.155 119.734 53.578 42.889-1.423 86.723-20.907 119.734-53.578 33.011-32.671 53.266-76.607 53.266-122.69 0-46.069-21.087-87.123-54.514-114.088-33.426-26.965-77.261-37.921-118.486-28.039zM30275 17.587c-41.366-9.582-85.206 1.592-118.602 28.717-33.397 27.124-54.398 68.26-54.398 114.316 0 46.068 20.194 89.999 53.188 122.657 32.993 32.658 76.833 52.102 119.812 53.481 42.979-1.379 86.819-20.823 119.812-53.481 32.994-32.658 53.188-76.589 53.188-122.657 0-46.056-21.001-87.192-54.398-114.316-33.396-27.125-77.236-38.299-118.602-28.717zM30621 17.053c-41.503-9.291-85.349 2.094-118.716 29.375-33.367 27.28-54.284 68.496-54.284 114.538 0 46.054 20.134 89.98 53.111 122.626 32.976 32.645 76.822 52.049 119.889 53.386 43.067-1.337 86.913-20.741 119.889-53.386 32.977-32.646 53.111-76.572 53.111-122.626 0-46.042-20.917-87.258-54.284-114.538-33.367-27.281-77.213-38.666-118.716-29.375zM30967 16.532c-41.636-9.007-85.488 2.584-118.826 30.016-33.339 27.432-54.174 68.727-54.174 114.755 0 46.04 20.076 89.962 53.037 122.595 32.959 32.633 76.81 51.998 119.963 53.295 43.153-1.297 87.004-20.662 119.963-53.295 32.961-32.633 53.037-76.555 53.037-122.595 0-46.028-20.835-87.323-54.174-114.755-33.338-27.432-77.19-39.023-118.826-30.016zM31313 16.025c-41.766-8.731-85.623 3.061-118.933 30.641-33.312 27.579-54.067 68.95-54.067 114.965 0 46.026 20.02 89.944 52.964 122.565 32.943 32.622 76.8 51.949 120.036 53.206 43.236-1.257 87.093-20.584 120.036-53.206 32.944-32.621 52.964-76.539 52.964-122.565 0-46.015-20.755-87.386-54.067-114.965-33.31-27.58-77.167-39.372-118.933-30.641zM31659 15.531c-41.892-8.461-85.755 3.526-119.038 31.249-33.284 27.723-53.962 69.168-53.962 115.17 0 46.014 19.965 89.927 52.893 122.537 32.928 32.609 76.79 51.9 120.107 53.118 43.317-1.218 87.179-20.509 120.107-53.118 32.928-32.61 52.893-76.523 52.893-122.537 0-46.002-20.678-87.447-53.962-115.17-33.283-27.723-77.146-39.71-119.038-31.249zM32005 15.05c-42.015-8.199-85.883 3.978-119.14 31.841-33.258 27.863-53.86 69.381-53.86 115.37 0 46.001 19.912 89.91 52.825 122.508 32.911 32.599 76.779 51.853 120.175 53.034 43.396-1.181 87.264-20.435 120.175-53.034 32.913-32.598 52.825-76.507 52.825-122.508 0-45.989-20.602-87.507-53.86-115.37-33.257-27.863-77.125-40.04-119.14-31.841zM32351 14.582c-42.135-7.944-86.008 4.418-119.239 32.418-33.232 27.999-53.761 69.587-53.761 115.564 0 45.988 19.86 89.894 52.758 122.481 32.896 32.587 76.77 51.807 120.242 52.951 43.472-1.144 87.346-20.364 120.242-52.951 32.898-32.587 52.758-76.493 52.758-122.481 0-45.977-20.529-87.565-53.761-115.564-33.231-28-77.104-40.362-119.239-32.418zM32697 14.126c-42.251-7.696-86.129 4.847-119.336 32.98-33.207 28.131-53.664 69.787-53.664 115.754 0 45.975 19.809 89.876 52.692 122.453 32.883 32.577 76.761 51.762 120.308 52.87 43.547-1.108 87.425-20.293 120.308-52.87 32.883-32.577 52.692-76.478 52.692-122.453 0-45.967-20.457-87.623-53.664-115.754-33.207-28.133-77.085-40.676-119.336-32.98zM33043 13.682c-42.365-7.454-86.248 5.265-119.43 33.526-33.183 28.261-53.57 69.984-53.57 115.939 0 45.964 19.76 89.861 52.629 122.427 32.868 32.566 76.751 51.719 120.371 52.792 43.62-1.073 87.503-20.226 120.371-52.792 32.869-32.566 52.629-76.463 52.629-122.427 0-45.955-20.387-87.678-53.57-115.939-33.182-28.261-77.065-40.98-119.43-33.526zM33389 13.25c-42.476-7.219-86.363 5.671-119.522 34.059-33.159 28.386-53.478 70.174-53.478 116.118 0 45.952 19.712 89.846 52.567 122.402 32.854 32.556 76.742 51.676 120.433 52.715 43.691-1.039 87.579-20.159 120.433-52.715 32.855-32.556 52.567-76.45 52.567-122.402 0-45.944-20.319-87.732-53.478-116.118-33.159-28.388-77.046-41.278-119.522-34.059zM33735 12.828c-42.583-6.989-86.476 6.068-119.611 34.578-33.136 28.51-53.389 70.361-53.389 116.293 0 45.942 19.665 89.831 52.507 122.378 32.84 32.546 76.733 51.635 120.493 52.641 43.76-1.006 87.653-20.095 120.493-52.641 32.842-32.547 52.507-76.436 52.507-122.378 0-45.932-20.253-87.783-53.389-116.293-33.135-28.51-77.028-41.567-119.611-34.578zM34081 12.418c-42.688-6.766-86.585 6.454-119.698 35.083-33.113 28.629-53.302 70.542-53.302 116.464 0 45.93 19.619 89.817 52.448 122.353 32.828 32.536 76.724 51.595 120.552 52.569 43.828-.974 87.724-20.033 120.552-52.569 32.829-32.536 52.448-76.423 52.448-122.353 0-45.922-20.189-87.835-53.302-116.464-33.113-28.629-77.01-41.849-119.698-35.083zM34427 12.018c-42.791-6.548-86.692 6.83-119.782 35.576-33.092 28.745-53.218 70.718-53.218 116.63 0 45.919 19.575 89.802 52.391 122.329 32.815 32.527 76.716 51.556 120.609 52.498 43.893-.942 87.794-19.971 120.609-52.498 32.816-32.527 52.391-76.41 52.391-122.329 0-45.912-20.126-87.885-53.218-116.63-33.09-28.746-76.991-42.124-119.782-35.576zM34773 11.629c-42.89-6.336-86.796 7.196-119.865 36.055-33.07 28.859-53.135 70.89-53.135 116.791 0 45.91 19.532 89.789 52.335 122.307s76.708 51.518 120.665 52.43c43.957-.912 87.862-19.912 120.665-52.43 32.803-32.518 52.335-76.397 52.335-122.307 0-45.901-20.065-87.932-53.135-116.791-33.069-28.859-76.975-42.391-119.865-36.055zM35119 11.25c-42.987-6.129-86.897 7.552-119.945 36.522-33.05 28.969-53.055 71.057-53.055 116.949 0 45.899 19.489 89.775 52.281 122.284 32.79 32.509 76.7 51.481 120.719 52.363 44.019-.882 87.929-19.854 120.719-52.363 32.792-32.509 52.281-76.385 52.281-122.284 0-45.892-20.005-87.98-53.055-116.949-33.048-28.97-76.958-42.651-119.945-36.522zM35465 10.88c-43.082-5.928-86.995 7.9-120.024 36.978-33.029 29.076-52.976 71.22-52.976 117.102 0 45.889 19.448 89.762 52.228 122.262 32.778 32.501 76.692 51.445 120.772 52.298 44.08-.853 87.994-19.797 120.772-52.298 32.78-32.5 52.228-76.373 52.228-122.262 0-45.882-19.947-88.026-52.976-117.102-33.029-29.078-76.942-42.906-120.024-36.978zM35811 10.52c-43.174-5.731-87.091 8.239-120.1 37.421-33.009 29.181-52.9 71.379-52.9 117.252 0 45.88 19.408 89.749 52.176 122.241 32.767 32.492 76.685 51.409 120.824 52.234 44.139-.825 88.057-19.742 120.824-52.234 32.768-32.492 52.176-76.361 52.176-122.241 0-45.873-19.891-88.071-52.9-117.252-33.009-29.182-76.926-43.152-120.1-37.421zM36157 10.17c-43.263-5.541-87.185 8.568-120.174 37.852-32.99 29.283-52.826 71.534-52.826 117.398 0 45.87 19.369 89.737 52.126 122.22 32.756 32.484 76.678 51.375 120.874 52.173 44.196-.798 88.118-19.689 120.874-52.173 32.757-32.483 52.126-76.35 52.126-122.22 0-45.864-19.836-88.115-52.826-117.398-32.989-29.284-76.911-43.393-120.174-37.852zM36503 9.828c-43.351-5.354-87.276 8.89-120.247 38.273-32.971 29.383-52.753 71.685-52.753 117.54 0 45.861 19.331 89.725 52.077 122.2 32.745 32.476 76.671 51.341 120.923 52.112 44.252-.771 88.178-19.636 120.923-52.112 32.746-32.475 52.077-76.339 52.077-122.2 0-45.855-19.782-88.157-52.753-117.54-32.971-29.383-76.896-43.627-120.247-38.273zM36849 9.495c-43.436-5.173-87.365 9.203-120.317 38.683-32.953 29.48-52.683 71.832-52.683 117.678 0 45.853 19.294 89.713 52.03 122.181 32.734 32.467 76.663 51.308 120.97 52.053 44.307-.745 88.236-19.586 120.97-52.053 32.736-32.468 52.03-76.328 52.03-122.181 0-45.846-19.73-88.198-52.683-117.678-32.952-29.48-76.881-43.856-120.317-38.683zM37195 9.171c-43.519-4.996-87.451 9.508-120.386 39.082S37022 120.228 37022 166.066c0 45.844 19.258 89.701 51.983 122.161 32.724 32.46 76.657 51.277 121.017 51.997 44.36-.72 88.293-19.537 121.017-51.997 32.725-32.46 51.983-76.317 51.983-122.161 0-45.838-19.679-88.239-52.614-117.813-32.935-29.574-76.867-44.078-120.386-39.082zM37541 8.856c-43.6-4.825-87.535 9.804-120.453 39.47C37387.63 77.992 37368 120.44 37368 166.27c0 45.835 19.223 89.691 51.938 122.143 32.714 32.453 76.65 51.246 121.062 51.94 44.412-.694 88.348-19.487 121.062-51.94 32.715-32.452 51.938-76.308 51.938-122.143 0-45.83-19.63-88.278-52.547-117.944-32.918-29.666-76.853-44.295-120.453-39.47zM37887 8.549c-43.678-4.658-87.617 10.093-120.518 39.849-32.901 29.755-52.482 72.249-52.482 118.071 0 45.827 19.189 89.68 51.894 122.125 32.704 32.445 76.644 51.216 121.106 51.886 44.462-.67 88.402-19.441 121.106-51.886 32.705-32.445 51.894-76.298 51.894-122.125 0-45.822-19.581-88.316-52.482-118.071-32.901-29.756-76.84-44.507-120.518-39.849zM38233 8.249c-43.755-4.494-87.697 10.375-120.581 40.218-32.885 29.842-52.419 72.382-52.419 118.195 0 45.82 19.156 89.67 51.851 122.108s76.637 51.186 121.149 51.833c44.512-.647 88.454-19.395 121.149-51.833 32.695-32.438 51.851-76.288 51.851-122.108 0-45.813-19.534-88.353-52.419-118.195-32.884-29.843-76.826-44.712-120.581-40.218zM38579 7.958c-43.829-4.336-87.775 10.649-120.643 40.577-32.869 29.927-52.357 72.51-52.357 118.316 0 45.812 19.123 89.659 51.81 122.09 32.685 32.432 76.631 51.158 121.19 51.782 44.559-.624 88.505-19.35 121.19-51.782 32.687-32.431 51.81-76.278 51.81-122.09 0-45.806-19.488-88.389-52.357-118.316-32.868-29.928-76.814-44.913-120.643-40.577zM38925 7.674c-43.902-4.181-87.851 10.916-120.703 40.926-32.853 30.01-52.297 72.636-52.297 118.435 0 45.804 19.092 89.649 51.769 122.073 32.676 32.425 76.625 51.13 121.231 51.732 44.606-.602 88.555-19.307 121.231-51.732 32.677-32.424 51.769-76.269 51.769-122.073 0-45.799-19.444-88.425-52.297-118.435-32.852-30.01-76.801-45.107-120.703-40.926zM39271 7.397c-43.973-4.03-87.925 11.176-120.762 41.267-32.838 30.09-52.238 72.758-52.238 118.55 0 45.796 19.061 89.639 51.729 122.057 32.668 32.418 76.62 51.103 121.271 51.683 44.651-.58 88.603-19.265 121.271-51.683 32.668-32.418 51.729-76.261 51.729-122.057 0-45.792-19.4-88.46-52.238-118.55-32.837-30.091-76.789-45.297-120.762-41.267zM39617 7.128c-44.042-3.883-87.996 11.429-120.819 41.599-32.823 30.168-52.181 72.876-52.181 118.661 0 45.789 19.031 89.63 51.691 122.041 32.659 32.412 76.614 51.077 121.309 51.636 44.695-.559 88.65-19.224 121.309-51.636 32.66-32.411 51.691-76.252 51.691-122.041 0-45.785-19.358-88.493-52.181-118.661-32.823-30.17-76.777-45.482-120.819-41.599zM39963 6.866c-44.109-3.741-88.066 11.676-120.874 41.921-32.809 30.245-52.126 72.992-52.126 118.77 0 45.783 19.002 89.621 51.653 122.027 32.651 32.405 76.609 51.05 121.347 51.589 44.738-.539 88.696-19.184 121.347-51.589 32.651-32.406 51.653-76.244 51.653-122.027 0-45.778-19.317-88.525-52.126-118.77-32.808-30.245-76.765-45.662-120.874-41.921zM40309 6.611c-44.174-3.602-88.134 11.916-120.928 42.236-32.795 30.319-52.072 73.104-52.072 118.875 0 45.776 18.974 89.612 51.617 122.012 32.642 32.399 76.603 51.025 121.383 51.544 44.78-.519 88.741-19.145 121.383-51.544 32.643-32.4 51.617-76.236 51.617-122.012 0-45.771-19.277-88.556-52.072-118.875-32.794-30.32-76.754-45.838-120.928-42.236zM40655 6.362c-44.237-3.466-88.201 12.15-120.981 42.542-32.781 30.391-52.019 73.214-52.019 118.979 0 45.769 18.946 89.603 51.581 121.997 32.635 32.393 76.598 51.001 121.419 51.5 44.821-.499 88.784-19.107 121.419-51.5 32.635-32.394 51.581-76.228 51.581-121.997 0-45.765-19.238-88.588-52.019-118.979-32.78-30.392-76.744-46.008-120.981-42.542zM41001 6.121c-44.299-3.335-88.265 12.377-121.032 42.839-32.768 30.462-51.968 73.321-51.968 119.08 0 45.762 18.919 89.594 51.547 121.982 32.626 32.388 76.592 50.978 121.453 51.458 44.861-.48 88.827-19.07 121.453-51.458 32.628-32.388 51.547-76.22 51.547-121.982 0-45.759-19.2-88.618-51.968-119.08-32.767-30.462-76.733-46.174-121.032-42.839zM41347 5.885c-44.359-3.206-88.328 12.599-121.082 43.13-32.755 30.53-51.918 73.424-51.918 119.177 0 45.756 18.893 89.586 51.513 121.968 32.619 32.383 76.588 50.955 121.487 51.417 44.899-.462 88.868-19.034 121.487-51.417 32.62-32.382 51.513-76.212 51.513-121.968 0-45.753-19.163-88.647-51.918-119.177-32.754-30.531-76.723-46.336-121.082-43.13zM41693 5.657c-44.418-3.082-88.389 12.813-121.13 43.411-32.743 30.596-51.87 73.525-51.87 119.272 0 45.75 18.868 89.578 51.48 121.955 32.612 32.377 76.583 50.932 121.52 51.376 44.937-.444 88.908-18.999 121.52-51.376 32.612-32.377 51.48-76.205 51.48-121.955 0-45.747-19.127-88.676-51.87-119.272-32.741-30.598-76.712-46.493-121.13-43.411zM42039 5.434c-44.475-2.961-88.448 13.023-121.178 43.685-32.73 30.662-51.822 73.624-51.822 119.365 0 45.745 18.843 89.57 51.449 121.942 32.604 32.372 76.578 50.91 121.551 51.336 44.973-.426 88.947-18.964 121.551-51.336 32.606-32.372 51.449-76.197 51.449-121.942 0-45.741-19.092-88.703-51.822-119.365-32.73-30.662-76.703-46.646-121.178-43.685zM42385 5.217c-44.53-2.842-88.506 13.227-121.223 43.952-32.719 30.725-51.777 73.72-51.777 119.455 0 45.739 18.819 89.562 51.418 121.929 32.597 32.367 76.573 50.889 121.582 51.299 45.009-.41 88.985-18.932 121.582-51.299 32.599-32.367 51.418-76.19 51.418-121.929 0-45.735-19.058-88.73-51.777-119.455-32.717-30.725-76.693-46.794-121.223-43.952zM42731 5.007c-44.584-2.728-88.562 13.424-121.268 44.211-32.707 30.786-51.732 73.813-51.732 119.542 0 45.734 18.795 89.555 51.387 121.917 32.591 32.362 76.569 50.869 121.613 51.261 45.044-.392 89.022-18.899 121.613-51.261 32.592-32.362 51.387-76.183 51.387-121.917 0-45.729-19.025-88.756-51.732-119.542-32.706-30.787-76.684-46.939-121.268-44.211zM43077 4.802c-44.637-2.616-88.617 13.617-121.312 44.464-32.695 30.845-51.688 73.902-51.688 119.627 0 45.728 18.773 89.547 51.358 121.905 32.585 32.357 76.565 50.848 121.642 51.225 45.077-.377 89.057-18.868 121.642-51.225 32.585-32.358 51.358-76.177 51.358-121.905 0-45.725-18.993-88.782-51.688-119.627-32.695-30.847-76.675-47.08-121.312-44.464zM43423 4.603c-44.688-2.508-88.67 13.804-121.354 44.709-32.684 30.903-51.646 73.99-51.646 119.71 0 45.722 18.751 89.54 51.33 121.893 32.578 32.352 76.56 50.829 121.67 51.19 45.11-.361 89.092-18.838 121.67-51.19 32.579-32.353 51.33-76.171 51.33-121.893 0-45.72-18.962-88.807-51.646-119.71-32.684-30.905-76.666-47.217-121.354-44.709zM43769 4.409c-44.737-2.402-88.722 13.987-121.395 44.948-32.674 30.959-51.605 74.076-51.605 119.79 0 45.717 18.729 89.534 51.302 121.881 32.572 32.348 76.556 50.811 121.698 51.156 45.142-.345 89.126-18.808 121.698-51.156 32.573-32.347 51.302-76.164 51.302-121.881 0-45.714-18.931-88.831-51.605-119.79-32.673-30.961-76.658-47.35-121.395-44.948zM44115 4.221c-44.785-2.3-88.772 14.164-121.435 45.179S43942 123.559 43942 169.269c0 45.712 18.708 89.527 51.275 121.87 32.566 32.343 76.553 50.792 121.725 51.123 45.172-.331 89.159-18.78 121.725-51.123 32.567-32.343 51.275-76.158 51.275-121.87 0-45.71-18.902-88.854-51.565-119.869S44159.785 1.921 44115 4.221zM44461 4.039c-44.832-2.201-88.821 14.335-121.473 45.403-32.654 31.068-51.527 74.24-51.527 119.945 0 45.707 18.688 89.52 51.249 121.86 32.56 32.339 76.549 50.773 121.751 51.09 45.202-.317 89.191-18.751 121.751-51.09 32.561-32.34 51.249-76.153 51.249-121.86 0-45.705-18.873-88.877-51.527-119.945-32.652-31.068-76.641-47.604-121.473-45.403zM44807 3.861c-44.877-2.104-88.868 14.502-121.511 45.623-32.644 31.119-51.489 74.318-51.489 120.018 0 45.702 18.668 89.514 51.223 121.849 32.555 32.335 76.546 50.756 121.777 51.059 45.231-.303 89.222-18.724 121.777-51.059 32.555-32.335 51.223-76.147 51.223-121.849 0-45.7-18.845-88.899-51.489-120.018-32.643-31.121-76.634-47.727-121.511-45.623zM45153 3.689c-44.921-2.01-88.914 14.664-121.547 45.834-32.635 31.17-51.453 74.395-51.453 120.09 0 45.698 18.649 89.508 51.199 121.839 32.549 32.331 76.541 50.74 121.801 51.029 45.26-.289 89.252-18.698 121.801-51.029 32.55-32.331 51.199-76.141 51.199-121.839 0-45.695-18.818-88.92-51.453-120.09-32.633-31.17-76.626-47.844-121.547-45.834zM45499 3.522c-44.964-1.919-88.959 14.821-121.583 46.04-32.625 31.218-51.417 74.468-51.417 120.159 0 45.694 18.63 89.503 51.175 121.83 32.543 32.327 76.538 50.723 121.825 50.999 45.287-.276 89.282-18.672 121.825-50.999 32.545-32.327 51.175-76.136 51.175-121.83 0-45.691-18.792-88.941-51.417-120.159-32.624-31.219-76.619-47.959-121.583-46.04zM45845 3.359c-45.006-1.83-89.002 14.975-121.617 46.241-32.617 31.265-51.383 74.539-51.383 120.226 0 45.69 18.612 89.497 51.152 121.82 32.538 32.323 76.534 50.707 121.848 50.971 45.314-.264 89.31-18.648 121.848-50.971 32.54-32.323 51.152-76.13 51.152-121.82 0-45.687-18.766-88.961-51.383-120.226-32.615-31.266-76.611-48.071-121.617-46.241zM46191 3.202c-45.046-1.745-89.044 15.122-121.651 46.434-32.607 31.311-51.349 74.609-51.349 120.292 0 45.685 18.595 89.491 51.129 121.811 32.533 32.319 76.531 50.691 121.871 50.943 45.34-.252 89.338-18.624 121.871-50.943 32.534-32.32 51.129-76.126 51.129-121.811 0-45.683-18.742-88.981-51.349-120.292-32.607-31.312-76.605-48.179-121.651-46.434zM46537 3.049c-45.085-1.661-89.085 15.266-121.683 46.623-32.599 31.355-51.317 74.676-51.317 120.355 0 45.681 18.578 89.486 51.107 121.802 32.529 32.315 76.528 50.676 121.893 50.915 45.365-.239 89.364-18.6 121.893-50.915 32.529-32.316 51.107-76.121 51.107-121.802 0-45.679-18.718-89-51.317-120.355-32.598-31.357-76.598-48.284-121.683-46.623zM46883 2.901c-45.123-1.58-89.124 15.405-121.714 46.805-32.591 31.399-51.286 74.742-51.286 120.417 0 45.677 18.561 89.48 51.086 121.793 32.524 32.312 76.525 50.662 121.914 50.889 45.389-.227 89.39-18.577 121.914-50.889 32.525-32.313 51.086-76.116 51.086-121.793 0-45.675-18.695-89.018-51.286-120.417-32.59-31.4-76.591-48.385-121.714-46.805zM47229 2.758c-45.16-1.503-89.162 15.54-121.745 46.981-32.583 31.441-51.255 74.805-51.255 120.477 0 45.673 18.546 89.475 51.066 121.784 32.519 32.309 76.521 50.648 121.934 50.864 45.413-.216 89.415-18.555 121.934-50.864 32.52-32.309 51.066-76.111 51.066-121.784 0-45.672-18.672-89.036-51.255-120.477-32.583-31.441-76.585-48.484-121.745-46.981zM47575 2.619c-45.195-1.427-89.199 15.671-121.774 47.152-32.576 31.481-51.226 74.867-51.226 120.534 0 45.67 18.53 89.471 51.046 121.777 32.514 32.305 76.519 50.634 121.954 50.84 45.435-.206 89.44-18.535 121.954-50.84 32.516-32.306 51.046-76.107 51.046-121.777 0-45.667-18.65-89.053-51.226-120.534-32.575-31.481-76.579-48.579-121.774-47.152zM47921 2.484c-45.229-1.353-89.235 15.798-121.803 47.318-32.568 31.52-51.197 74.926-51.197 120.59 0 45.667 18.515 89.466 51.026 121.769 32.511 32.302 76.517 50.621 121.974 50.816 45.457-.195 89.463-18.514 121.974-50.816 32.511-32.303 51.026-76.102 51.026-121.769 0-45.664-18.629-89.07-51.197-120.59-32.568-31.52-76.574-48.671-121.803-47.318zM48267 2.354c-45.263-1.282-89.27 15.92-121.83 47.479-32.561 31.557-51.17 74.983-51.17 120.644 0 45.662 18.501 89.461 51.008 121.76 32.506 32.3 76.513 50.609 121.992 50.794 45.479-.185 89.486-18.494 121.992-50.794 32.507-32.299 51.008-76.098 51.008-121.76 0-45.661-18.609-89.087-51.17-120.644-32.56-31.559-76.567-48.761-121.83-47.479zM48613 2.228c-45.295-1.214-89.304 16.038-121.857 47.634-32.554 31.594-51.143 75.038-51.143 120.696 0 45.659 18.487 89.457 50.99 121.753 32.502 32.297 76.511 50.597 122.01 50.771 45.499-.174 89.508-18.474 122.01-50.771 32.503-32.296 50.99-76.094 50.99-121.753 0-45.658-18.589-89.102-51.143-120.696-32.553-31.596-76.562-48.848-121.857-47.634zM48959 2.107c-45.326-1.148-89.336 16.152-121.883 47.783-32.547 31.63-51.117 75.092-51.117 120.747 0 45.656 18.473 89.452 50.972 121.746s76.509 50.584 122.028 50.75c45.519-.166 89.529-18.456 122.028-50.75 32.499-32.294 50.972-76.09 50.972-121.746 0-45.655-18.57-89.117-51.117-120.747-32.547-31.631-76.557-48.931-121.883-47.783zM49305 1.989c-45.356-1.084-89.367 16.263-121.908 47.928-32.541 31.664-51.092 75.144-51.092 120.796 0 45.653 18.46 89.448 50.956 121.739 32.494 32.291 76.505 50.573 122.044 50.729 45.539-.156 89.55-18.438 122.044-50.729 32.496-32.291 50.956-76.086 50.956-121.739 0-45.652-18.551-89.132-51.092-120.796-32.541-31.665-76.552-49.012-121.908-47.928zM49651 1.875c-45.385-1.021-89.398 16.37-121.932 48.069-32.535 31.697-51.068 75.194-51.068 120.842 0 45.65 18.447 89.445 50.939 121.733 32.491 32.288 76.504 50.562 122.061 50.709 45.557-.147 89.57-18.421 122.061-50.709 32.492-32.288 50.939-76.083 50.939-121.733 0-45.648-18.533-89.145-51.068-120.842-32.534-31.699-76.547-49.09-121.932-48.069zM49997 1.766c-45.413-.962-89.427 16.473-121.955 48.203-32.529 31.729-51.045 75.243-51.045 120.888 0 45.647 18.435 89.441 50.924 121.726 32.487 32.286 76.501 50.551 122.076 50.69 45.575-.139 89.589-18.404 122.076-50.69 32.489-32.285 50.924-76.079 50.924-121.726 0-45.645-18.516-89.159-51.045-120.888-32.528-31.73-76.542-49.165-121.955-48.203zM50343 1.66c-45.44-.904-89.455 16.573-121.977 48.333-32.523 31.76-51.023 75.29-51.023 120.933 0 45.644 18.424 89.436 50.909 121.719 32.484 32.284 76.498 50.541 122.091 50.671 45.593-.13 89.607-18.387 122.091-50.671 32.485-32.283 50.909-76.075 50.909-121.719 0-45.643-18.5-89.173-51.023-120.933C50432.455 18.233 50388.44.756 50343 1.66zM50689 1.558c-45.466-.849-89.482 16.669-121.999 48.459-32.517 31.789-51.001 75.334-51.001 120.975 0 45.641 18.412 89.433 50.894 121.713 32.481 32.281 76.497 50.531 122.106 50.653 45.609-.122 89.625-18.372 122.106-50.653 32.482-32.28 50.894-76.072 50.894-121.713 0-45.641-18.484-89.186-51.001-120.975-32.517-31.79-76.533-49.308-121.999-48.459zM51035 1.46c-45.491-.795-89.508 16.761-122.02 48.58-32.512 31.818-50.98 75.377-50.98 121.015 0 45.639 18.401 89.43 50.88 121.708 32.478 32.278 76.495 50.521 122.12 50.636 45.625-.115 89.642-18.358 122.12-50.636 32.479-32.278 50.88-76.069 50.88-121.708 0-45.638-18.468-89.197-50.98-121.015-32.512-31.819-76.529-49.375-122.02-48.58zM51381 1.366c-45.516-.744-89.534 16.849-122.04 48.696-32.507 31.845-50.96 75.419-50.96 121.054 0 45.636 18.391 89.426 50.866 121.703 32.475 32.276 76.493 50.511 122.134 50.619 45.641-.108 89.659-18.343 122.134-50.619 32.475-32.277 50.866-76.067 50.866-121.703 0-45.635-18.453-89.209-50.96-121.054-32.506-31.847-76.524-49.44-122.04-48.696zM51727 1.275c-45.539-.695-89.558 16.935-122.059 48.808-32.502 31.871-50.941 75.459-50.941 121.092 0 45.634 18.381 89.423 50.853 121.697s76.491 50.503 122.147 50.603c45.656-.1 89.675-18.329 122.147-50.603 32.472-32.274 50.853-76.063 50.853-121.697 0-45.633-18.439-89.221-50.941-121.092C51816.558 18.21 51772.539.58 51727 1.275zM52073 1.188c-45.561-.647-89.581 17.017-122.077 48.915C51918.426 82 51900 125.6 51900 171.231c0 45.632 18.371 89.42 50.841 121.692 32.469 32.272 76.489 50.495 122.159 50.588 45.67-.093 89.69-18.316 122.159-50.588 32.47-32.272 50.841-76.06 50.841-121.692 0-45.631-18.426-89.231-50.923-121.128-32.496-31.898-76.516-49.562-122.077-48.915zM52419 1.105c-45.582-.602-89.603 17.095-122.095 49.017-32.493 31.922-50.905 75.535-50.905 121.163 0 45.63 18.362 89.417 50.829 121.687 32.466 32.27 76.487 50.487 122.171 50.573 45.684-.086 89.705-18.303 122.171-50.573 32.467-32.27 50.829-76.057 50.829-121.687 0-45.628-18.412-89.241-50.905-121.163C52508.603 18.2 52464.582.503 52419 1.105zM52765 1.025c-45.603-.559-89.625 17.17-122.112 49.116-32.488 31.944-50.888 75.57-50.888 121.196 0 45.627 18.353 89.414 50.818 121.682 32.463 32.269 76.485 50.479 122.182 50.559 45.697-.08 89.719-18.29 122.182-50.559 32.465-32.268 50.818-76.055 50.818-121.682 0-45.626-18.4-89.252-50.888-121.196-32.487-31.946-76.509-49.675-122.112-49.116zM53111 .948c-45.623-.517-89.645 17.242-122.128 49.21-32.484 31.968-50.872 75.604-50.872 121.229s18.344 89.411 50.807 121.677c32.461 32.267 76.484 50.471 122.193 50.546 45.709-.075 89.732-18.279 122.193-50.546 32.463-32.266 50.807-76.052 50.807-121.677s-18.388-89.261-50.872-121.229C53200.645 18.19 53156.623.431 53111 .948zM53457 .875c-45.641-.477-89.665 17.311-122.144 49.3-32.48 31.989-50.856 75.636-50.856 121.259 0 45.623 18.336 89.409 50.796 121.674 32.459 32.264 76.482 50.463 122.204 50.532 45.722-.069 89.745-18.268 122.204-50.532 32.46-32.265 50.796-76.051 50.796-121.674 0-45.623-18.376-89.27-50.856-121.259-32.479-31.989-76.503-49.777-122.144-49.3zM53803 .805c-45.659-.439-89.683 17.377-122.159 49.387-32.476 32.008-50.841 75.667-50.841 121.287 0 45.622 18.328 89.407 50.786 121.67 32.457 32.263 76.481 50.457 122.214 50.52 45.733-.063 89.757-18.257 122.214-50.52 32.458-32.263 50.786-76.048 50.786-121.67 0-45.62-18.365-89.279-50.841-121.287-32.476-32.01-76.5-49.826-122.159-49.387zM54149 .738c-45.676-.402-89.701 17.44-122.173 49.469-32.472 32.028-50.827 75.696-50.827 121.316 0 45.619 18.321 89.404 50.777 121.665 32.454 32.261 76.479 50.45 122.223 50.508 45.744-.058 89.769-18.247 122.223-50.508 32.456-32.261 50.777-76.046 50.777-121.665 0-45.62-18.355-89.288-50.827-121.316C54238.701 18.178 54194.676.336 54149 .738zM54495 .674c-45.693-.367-89.718 17.5-122.186 49.548-32.469 32.047-50.814 75.724-50.814 121.342 0 45.618 18.314 89.402 50.767 121.661 32.453 32.26 76.479 50.444 122.233 50.497 45.754-.053 89.78-18.237 122.233-50.497 32.453-32.259 50.767-76.043 50.767-121.661 0-45.618-18.345-89.295-50.814-121.342C54584.718 18.174 54540.693.307 54495 .674zM54841 .614c-45.708-.335-89.734 17.556-122.199 49.622-32.466 32.064-50.801 75.751-50.801 121.367s18.307 89.399 50.759 121.658c32.45 32.258 76.477 50.438 122.241 50.486 45.764-.048 89.791-18.228 122.241-50.486 32.452-32.259 50.759-76.042 50.759-121.658s-18.335-89.303-50.801-121.367C54930.734 18.17 54886.708.279 54841 .614zM55187 .557c-45.723-.304-89.749 17.61-122.211 49.692-32.463 32.081-50.789 75.776-50.789 121.391 0 45.615 18.301 89.397 50.751 121.655 32.448 32.257 76.475 50.432 122.249 50.476 45.774-.044 89.801-18.219 122.249-50.476 32.45-32.258 50.751-76.04 50.751-121.655 0-45.615-18.326-89.31-50.789-121.391C55276.749 18.167 55232.723.253 55187 .557zM55533 .502c-45.736-.273-89.764 17.662-122.223 49.76-32.459 32.096-50.777 75.8-50.777 121.413s18.295 89.396 50.743 121.651c32.447 32.256 76.474 50.428 122.257 50.467 45.783-.039 89.81-18.211 122.257-50.467 32.448-32.255 50.743-76.038 50.743-121.651s-18.318-89.317-50.777-121.413C55622.764 18.164 55578.736.229 55533 .502zM55879 .451c-45.75-.246-89.778 17.71-122.233 49.822-32.457 32.112-50.767 75.823-50.767 121.435 0 45.612 18.289 89.394 50.736 121.649 32.445 32.254 76.473 50.422 122.264 50.457 45.791-.035 89.819-18.203 122.264-50.457 32.447-32.255 50.736-76.037 50.736-121.649 0-45.612-18.31-89.323-50.767-121.435C55968.778 18.161 55924.75.205 55879 .451zM56225 .403c-45.762-.22-89.79 17.755-122.244 49.882-32.454 32.125-50.756 75.844-50.756 121.454 0 45.611 18.284 89.392 50.729 121.646 32.444 32.253 76.472 50.417 122.271 50.449 45.799-.032 89.827-18.196 122.271-50.449 32.445-32.254 50.729-76.035 50.729-121.646 0-45.61-18.302-89.329-50.756-121.454C56314.79 18.158 56270.762.183 56225 .403zM56571 .358c-45.773-.195-89.803 17.797-122.253 49.937-32.452 32.139-50.747 75.864-50.747 121.473 0 45.61 18.279 89.391 50.722 121.643 32.443 32.253 76.472 50.414 122.278 50.442 45.806-.028 89.835-18.189 122.278-50.442 32.443-32.252 50.722-76.033 50.722-121.643 0-45.609-18.295-89.334-50.747-121.473-32.45-32.14-76.48-50.132-122.253-49.937zM56917 .316c-45.784-.172-89.814 17.837-122.262 49.989-32.449 32.151-50.738 75.883-50.738 121.491 0 45.608 18.274 89.389 50.716 121.64 32.441 32.252 76.471 50.409 122.284 50.434 45.813-.025 89.843-18.182 122.284-50.434 32.442-32.251 50.716-76.032 50.716-121.64 0-45.608-18.289-89.34-50.738-121.491C57006.814 18.153 56962.784.144 56917 .316zM57263 .276c-45.794-.15-89.824 17.874-122.271 50.038-32.447 32.163-50.729 75.9-50.729 121.507 0 45.608 18.27 89.388 50.71 121.639 32.44 32.25 76.47 50.405 122.29 50.426 45.82-.021 89.85-18.176 122.29-50.426 32.44-32.251 50.71-76.031 50.71-121.639 0-45.607-18.282-89.344-50.729-121.507C57352.824 18.15 57308.794.126 57263 .276zM57609 .239c-45.804-.13-89.834 17.909-122.278 50.084-32.445 32.173-50.722 75.916-50.722 121.522 0 45.606 18.266 89.387 50.705 121.636 32.439 32.25 76.469 50.402 122.295 50.42 45.826-.018 89.856-18.17 122.295-50.42 32.439-32.249 50.705-76.03 50.705-121.636 0-45.606-18.277-89.349-50.722-121.522C57698.834 18.148 57654.804.109 57609 .239zM57955 .205c-45.812-.111-89.843 17.941-122.285 50.125-32.444 32.184-50.715 75.932-50.715 121.537 0 45.606 18.262 89.385 50.7 121.634 32.438 32.249 76.469 50.398 122.3 50.414 45.831-.016 89.862-18.165 122.3-50.414s50.7-76.028 50.7-121.634c0-45.605-18.271-89.353-50.715-121.537C58044.843 18.146 58000.812.094 57955 .205zM58301 .174c-45.82-.095-89.852 17.97-122.292 50.164-32.442 32.192-50.708 75.945-50.708 121.549 0 45.605 18.258 89.384 50.696 121.633 32.436 32.248 76.468 50.395 122.304 50.408 45.836-.013 89.868-18.16 122.304-50.408 32.438-32.249 50.696-76.028 50.696-121.633 0-45.604-18.266-89.357-50.708-121.549C58390.852 18.144 58346.82.079 58301 .174zM58647 .146c-45.828-.08-89.859 17.997-122.298 50.198-32.44 32.201-50.702 75.958-50.702 121.562s18.255 89.383 50.692 121.63c32.436 32.248 76.467 50.393 122.308 50.404 45.841-.011 89.872-18.156 122.308-50.404 32.437-32.247 50.692-76.026 50.692-121.63s-18.262-89.361-50.702-121.562C58736.859 18.143 58692.828.066 58647 .146zM58993 .12c-45.834-.065-89.866 18.021-122.304 50.23-32.438 32.208-50.696 75.969-50.696 121.572 0 45.604 18.252 89.383 50.688 121.629 32.435 32.247 76.467 50.39 122.312 50.4 45.845-.01 89.877-18.153 122.312-50.4 32.436-32.246 50.688-76.025 50.688-121.629 0-45.603-18.258-89.364-50.696-121.572-32.438-32.209-76.47-50.295-122.304-50.23zM59339 .097c-45.84-.053-89.872 18.043-122.309 50.259-32.437 32.214-50.691 75.979-50.691 121.581 0 45.603 18.25 89.382 50.685 121.628 32.434 32.246 76.466 50.388 122.315 50.395 45.849-.007 89.881-18.149 122.315-50.395 32.435-32.246 50.685-76.025 50.685-121.628 0-45.602-18.254-89.367-50.691-121.581C59428.872 18.14 59384.84.044 59339 .097zM59685 .076c-45.846-.041-89.878 18.063-122.313 50.284-32.436 32.221-50.687 75.989-50.687 121.591 0 45.602 18.247 89.38 50.682 121.626 32.433 32.246 76.465 50.386 122.318 50.392 45.853-.006 89.885-18.146 122.318-50.392 32.435-32.246 50.682-76.024 50.682-121.626 0-45.602-18.251-89.37-50.687-121.591C59774.878 18.139 59730.846.035 59685 .076zM60031 .058c-45.85-.032-89.883 18.079-122.317 50.307-32.435 32.226-50.683 75.996-50.683 121.597 0 45.602 18.245 89.381 50.679 121.626 32.433 32.245 76.466 50.384 122.321 50.388 45.855-.004 89.888-18.143 122.321-50.388 32.434-32.245 50.679-76.024 50.679-121.626 0-45.601-18.248-89.371-50.683-121.597C60120.883 18.137 60076.85.026 60031 .058zM60377 .042c-45.854-.023-89.887 18.095-122.32 50.326-32.434 32.231-50.68 76.003-50.68 121.605 0 45.601 18.244 89.379 50.677 121.624 32.432 32.245 76.465 50.382 122.323 50.386 45.858-.004 89.891-18.141 122.323-50.386 32.433-32.245 50.677-76.023 50.677-121.624 0-45.602-18.246-89.374-50.68-121.605-32.433-32.231-76.466-50.349-122.32-50.326zM60723 .029c-45.857-.016-89.89 18.107-122.323 50.342-32.433 32.235-50.677 76.009-50.677 121.61s18.242 89.379 50.675 121.624c32.432 32.244 76.465 50.381 122.325 50.383 45.86-.002 89.893-18.139 122.325-50.383 32.433-32.245 50.675-76.023 50.675-121.624s-18.244-89.375-50.677-121.61S60768.857.013 60723 .029zM61069 .019c-45.86-.01-89.893 18.116-122.325 50.355-32.433 32.237-50.675 76.013-50.675 121.614 0 45.6 18.241 89.379 50.674 121.623 32.431 32.244 76.464 50.38 122.326 50.381 45.862-.001 89.895-18.137 122.326-50.381 32.433-32.244 50.674-76.023 50.674-121.623 0-45.601-18.242-89.377-50.675-121.614C61158.893 18.135 61114.86.009 61069 .019zM61415 .01c-45.862-.005-89.895 18.125-122.327 50.366-32.432 32.24-50.673 76.017-50.673 121.617 0 45.601 18.24 89.379 50.672 121.623s76.465 50.379 122.328 50.38c45.863-.001 89.896-18.136 122.328-50.38S61588 217.594 61588 171.993c0-45.6-18.241-89.377-50.673-121.617C61504.895 18.135 61460.862.005 61415 .01zM61761 .005c-45.864-.003-89.897 18.129-122.328 50.372-32.432 32.242-50.672 76.02-50.672 121.62 0 45.6 18.24 89.378 50.672 121.622 32.431 32.244 76.464 50.379 122.328 50.379 45.864 0 89.897-18.135 122.328-50.379 32.432-32.244 50.672-76.022 50.672-121.622 0-45.6-18.24-89.378-50.672-121.62C61850.897 18.134 61806.864.002 61761 .005zM62107 .001c-45.865 0-89.898 18.133-122.329 50.377-32.432 32.242-50.671 76.021-50.671 121.621 0 45.6 18.239 89.378 50.671 121.622 32.431 32.244 76.464 50.378 122.329 50.379 45.865-.001 89.898-18.135 122.329-50.379 32.432-32.244 50.671-76.022 50.671-121.622 0-45.6-18.239-89.379-50.671-121.621C62196.898 18.134 62152.865.001 62107 .001zM62453 0c-45.865 0-89.898 18.134-122.329 50.378C62298.239 82.621 62280 126.4 62280 172c0 45.6 18.239 89.378 50.671 121.622C62363.102 325.866 62407.135 344 62453 344c45.865 0 89.898-18.134 122.329-50.378C62607.761 261.378 62626 217.6 62626 172c0-45.6-18.239-89.379-50.671-121.622C62542.898 18.134 62498.865 0 62453 0zM62799 0c-45.865 0-89.898 18.134-122.329 50.378C62644.239 82.621 62626 126.4 62626 172c0 45.6 18.239 89.378 50.671 121.622C62709.102 325.866 62753.135 344 62799 344c45.865 0 89.898-18.134 122.329-50.378C62953.761 261.378 62972 217.6 62972 172c0-45.6-18.239-89.379-50.671-121.622C62888.898 18.134 62844.865 0 62799 0zM63145 0c-45.865 0-89.898 18.134-122.329 50.378C62990.239 82.621 62972 126.4 62972 172c0 45.6 18.239 89.378 50.671 121.622C63055.102 325.866 63099.135 344 63145 344c45.865 0 89.898-18.134 122.329-50.378C63299.761 261.378 63318 217.6 63318 172c0-45.6-18.239-89.379-50.671-121.622C63234.898 18.134 63190.865 0 63145 0zM63491 0c-45.865 0-89.898 18.134-122.329 50.378C63336.239 82.621 63318 126.4 63318 172c0 45.6 18.239 89.378 50.671 121.622C63401.102 325.866 63445.135 344 63491 344c45.865 0 89.898-18.134 122.329-50.378C63645.761 261.378 63664 217.6 63664 172c0-45.6-18.239-89.379-50.671-121.622C63580.898 18.134 63536.865 0 63491 0zM63837 0c-45.865 0-89.898 18.134-122.329 50.378C63682.239 82.621 63664 126.4 63664 172c0 45.6 18.239 89.378 50.671 121.622C63747.102 325.866 63791.135 344 63837 344c45.865 0 89.898-18.134 122.329-50.378C63991.761 261.378 64010 217.6 64010 172c0-45.6-18.239-89.379-50.671-121.622C63926.898 18.134 63882.865 0 63837 0zM64183 0c-45.865 0-89.898 18.134-122.329 50.378C64028.239 82.621 64010 126.4 64010 172c0 45.6 18.239 89.378 50.671 121.622C64093.102 325.866 64137.135 344 64183 344c45.865 0 89.898-18.134 122.329-50.378C64337.761 261.378 64356 217.6 64356 172c0-45.6-18.239-89.379-50.671-121.622C64272.898 18.134 64228.865 0 64183 0zM64529 0c-45.865 0-89.898 18.134-122.329 50.378C64374.239 82.621 64356 126.4 64356 172c0 45.6 18.239 89.378 50.671 121.622C64439.102 325.866 64483.135 344 64529 344c45.865 0 89.898-18.134 122.329-50.378C64683.761 261.378 64702 217.6 64702 172c0-45.6-18.239-89.379-50.671-121.622C64618.898 18.134 64574.865 0 64529 0zM64875 0c-45.865 0-89.898 18.134-122.329 50.378C64720.239 82.621 64702 126.4 64702 172c0 45.6 18.239 89.378 50.671 121.622C64785.102 325.866 64829.135 344 64875 344c45.865 0 89.898-18.134 122.329-50.378C65029.761 261.378 65048 217.6 65048 172c0-45.6-18.239-89.379-50.671-121.622C64964.898 18.134 64920.865 0 64875 0zM65221 0c-45.865 0-89.898 18.134-122.329 50.378C65066.239 82.621 65048 126.4 65048 172c0 45.6 18.239 89.378 50.671 121.622C65131.102 325.866 65175.135 344 65221 344c45.865 0 89.898-18.134 122.329-50.378C65375.761 261.378 65394 217.6 65394 172c0-45.6-18.239-89.379-50.671-121.622C65310.898 18.134 65266.865 0 65221 0zM65567 0c-45.865 0-89.898 18.134-122.329 50.378C65412.239 82.621 65394 126.4 65394 172c0 45.6 18.239 89.378 50.671 121.622C65477.102 325.866 65521.135 344 65567 344c45.865 0 89.898-18.134 122.329-50.378C65721.761 261.378 65740 217.6 65740 172c0-45.6-18.239-89.379-50.671-121.622C65656.898 18.134 65612.865 0 65567 0zM65913 0c-45.865 0-89.898 18.134-122.329 50.378C65758.239 82.621 65740 126.4 65740 172c0 45.6 18.239 89.378 50.671 121.622C65823.102 325.866 65867.135 344 65913 344c45.865 0 89.898-18.134 122.329-50.378C66067.761 261.378 66086 217.6 66086 172c0-45.6-18.239-89.379-50.671-121.622C66002.898 18.134 65958.865 0 65913 0zM66259 0c-45.865 0-89.898 18.134-122.329 50.378C66104.239 82.621 66086 126.4 66086 172c0 45.6 18.239 89.378 50.671 121.622C66169.102 325.866 66213.135 344 66259 344c45.865 0 89.898-18.134 122.329-50.378C66413.761 261.378 66432 217.6 66432 172c0-45.6-18.239-89.379-50.671-121.622C66348.898 18.134 66304.865 0 66259 0zM66605 0c-45.865 0-89.898 18.134-122.329 50.378C66450.239 82.621 66432 126.4 66432 172c0 45.6 18.239 89.378 50.671 121.622C66515.102 325.866 66559.135 344 66605 344c45.865 0 89.898-18.134 122.329-50.378C66759.761 261.378 66778 217.6 66778 172c0-45.6-18.239-89.379-50.671-121.622C66694.898 18.134 66650.865 0 66605 0zM66951 0c-45.865 0-89.898 18.134-122.329 50.378C66796.239 82.621 66778 126.4 66778 172c0 45.6 18.239 89.378 50.671 121.622C66861.102 325.866 66905.135 344 66951 344c45.865 0 89.898-18.134 122.329-50.378C67105.761 261.378 67124 217.6 67124 172c0-45.6-18.239-89.379-50.671-121.622C67040.898 18.134 66996.865 0 66951 0zM67297 0c-45.865 0-89.898 18.134-122.329 50.378C67142.239 82.621 67124 126.4 67124 172c0 45.6 18.239 89.378 50.671 121.622C67207.102 325.866 67251.135 344 67297 344c45.865 0 89.898-18.134 122.329-50.378C67451.761 261.378 67470 217.6 67470 172c0-45.6-18.239-89.379-50.671-121.622C67386.898 18.134 67342.865 0 67297 0zM67643 0c-45.865 0-89.898 18.134-122.329 50.378C67488.239 82.621 67470 126.4 67470 172c0 45.6 18.239 89.378 50.671 121.622C67553.102 325.866 67597.135 344 67643 344c45.865 0 89.898-18.134 122.329-50.378C67797.761 261.378 67816 217.6 67816 172c0-45.6-18.239-89.379-50.671-121.622C67732.898 18.134 67688.865 0 67643 0zM67989 0c-45.865 0-89.898 18.134-122.329 50.378C67834.239 82.621 67816 126.4 67816 172c0 45.6 18.239 89.378 50.671 121.622C67899.102 325.866 67943.135 344 67989 344c45.865 0 89.898-18.134 122.329-50.378C68143.761 261.378 68162 217.6 68162 172c0-45.6-18.239-89.379-50.671-121.622C68078.898 18.134 68034.865 0 67989 0zM68335 0c-45.865 0-89.898 18.134-122.329 50.378C68180.239 82.621 68162 126.4 68162 172c0 45.6 18.239 89.378 50.671 121.622C68245.102 325.866 68289.135 344 68335 344c45.865 0 89.898-18.134 122.329-50.378C68489.761 261.378 68508 217.6 68508 172c0-45.6-18.239-89.379-50.671-121.622C68424.898 18.134 68380.865 0 68335 0zM68681 0c-45.865 0-89.898 18.134-122.329 50.378C68526.239 82.621 68508 126.4 68508 172c0 45.6 18.239 89.378 50.671 121.622C68591.102 325.866 68635.135 344 68681 344c45.865 0 89.898-18.134 122.329-50.378C68835.761 261.378 68854 217.6 68854 172c0-45.6-18.239-89.379-50.671-121.622C68770.898 18.134 68726.865 0 68681 0zM69027 0c-45.865 0-89.898 18.134-122.329 50.378C68872.239 82.621 68854 126.4 68854 172c0 45.6 18.239 89.378 50.671 121.622C68937.102 325.866 68981.135 344 69027 344c45.865 0 89.898-18.134 122.329-50.378C69181.761 261.378 69200 217.6 69200 172c0-45.6-18.239-89.379-50.671-121.622C69116.898 18.134 69072.865 0 69027 0zM69373 0c-45.865 0-89.898 18.134-122.329 50.378C69218.239 82.621 69200 126.4 69200 172c0 45.6 18.239 89.378 50.671 121.622C69283.102 325.866 69327.135 344 69373 344c45.865 0 89.898-18.134 122.329-50.378C69527.761 261.378 69546 217.6 69546 172c0-45.6-18.239-89.379-50.671-121.622C69462.898 18.134 69418.865 0 69373 0zM69719 0c-45.865 0-89.898 18.134-122.329 50.378C69564.239 82.621 69546 126.4 69546 172c0 45.6 18.239 89.378 50.671 121.622C69629.102 325.866 69673.135 344 69719 344c45.865 0 89.898-18.134 122.329-50.378C69873.761 261.378 69892 217.6 69892 172c0-45.6-18.239-89.379-50.671-121.622C69808.898 18.134 69764.865 0 69719 0zM70065 0c-45.865 0-89.898 18.134-122.329 50.378C69910.239 82.621 69892 126.4 69892 172c0 45.6 18.239 89.378 50.671 121.622C69975.102 325.866 70019.135 344 70065 344c45.865 0 89.898-18.134 122.329-50.378C70219.761 261.378 70238 217.6 70238 172c0-45.6-18.239-89.379-50.671-121.622C70154.898 18.134 70110.865 0 70065 0zM70411 0c-45.865 0-89.898 18.134-122.329 50.378C70256.239 82.621 70238 126.4 70238 172c0 45.6 18.239 89.378 50.671 121.622C70321.102 325.866 70365.135 344 70411 344c45.865 0 89.898-18.134 122.329-50.378C70565.761 261.378 70584 217.6 70584 172c0-45.6-18.239-89.379-50.671-121.622C70500.898 18.134 70456.865 0 70411 0zM70757 0c-45.865 0-89.898 18.134-122.329 50.378C70602.239 82.621 70584 126.4 70584 172c0 45.6 18.239 89.378 50.671 121.622C70667.102 325.866 70711.135 344 70757 344c45.865 0 89.898-18.134 122.329-50.378C70911.761 261.378 70930 217.6 70930 172c0-45.6-18.239-89.379-50.671-121.622C70846.898 18.134 70802.865 0 70757 0zM71103 0c-45.865 0-89.898 18.134-122.329 50.378C70948.239 82.621 70930 126.4 70930 172c0 45.6 18.239 89.378 50.671 121.622C71013.102 325.866 71057.135 344 71103 344c45.865 0 89.898-18.134 122.329-50.378C71257.761 261.378 71276 217.6 71276 172c0-45.6-18.239-89.379-50.671-121.622C71192.898 18.134 71148.865 0 71103 0zM71449 0c-45.865 0-89.898 18.134-122.329 50.378C71294.239 82.621 71276 126.4 71276 172c0 45.6 18.239 89.378 50.671 121.622C71359.102 325.866 71403.135 344 71449 344c45.865 0 89.898-18.134 122.329-50.378C71603.761 261.378 71622 217.6 71622 172c0-45.6-18.239-89.379-50.671-121.622C71538.898 18.134 71494.865 0 71449 0zM71795 0c-45.865 0-89.898 18.134-122.329 50.378C71640.239 82.621 71622 126.4 71622 172c0 45.6 18.239 89.378 50.671 121.622C71705.102 325.866 71749.135 344 71795 344c45.865 0 89.898-18.134 122.329-50.378C71949.761 261.378 71968 217.6 71968 172c0-45.6-18.239-89.379-50.671-121.622C71884.898 18.134 71840.865 0 71795 0zM72141 0c-45.865 0-89.898 18.134-122.329 50.378C71986.239 82.621 71968 126.4 71968 172c0 45.6 18.239 89.378 50.671 121.622C72051.102 325.866 72095.135 344 72141 344c45.865 0 89.898-18.134 122.329-50.378C72295.761 261.378 72314 217.6 72314 172c0-45.6-18.239-89.379-50.671-121.622C72230.898 18.134 72186.865 0 72141 0zM72487 0c-45.865 0-89.898 18.134-122.329 50.378C72332.239 82.621 72314 126.4 72314 172c0 45.6 18.239 89.378 50.671 121.622C72397.102 325.866 72441.135 344 72487 344c45.865 0 89.898-18.134 122.329-50.378C72641.761 261.378 72660 217.6 72660 172c0-45.6-18.239-89.379-50.671-121.622C72576.898 18.134 72532.865 0 72487 0zM72833 0c-45.865 0-89.898 18.134-122.329 50.378C72678.239 82.621 72660 126.4 72660 172c0 45.6 18.239 89.378 50.671 121.622C72743.102 325.866 72787.135 344 72833 344c45.865 0 89.898-18.134 122.329-50.378C72987.761 261.378 73006 217.6 73006 172c0-45.6-18.239-89.379-50.671-121.622C72922.898 18.134 72878.865 0 72833 0zM73179 0c-45.865 0-89.898 18.134-122.329 50.378C73024.239 82.621 73006 126.4 73006 172c0 45.6 18.239 89.378 50.671 121.622C73089.102 325.866 73133.135 344 73179 344c45.865 0 89.898-18.134 122.329-50.378C73333.761 261.378 73352 217.6 73352 172c0-45.6-18.239-89.379-50.671-121.622C73268.898 18.134 73224.865 0 73179 0zM73525 0c-45.865 0-89.898 18.134-122.329 50.378C73370.239 82.621 73352 126.4 73352 172c0 45.6 18.239 89.378 50.671 121.622C73435.102 325.866 73479.135 344 73525 344c45.865 0 89.898-18.134 122.329-50.378C73679.761 261.378 73698 217.6 73698 172c0-45.6-18.239-89.379-50.671-121.622C73614.898 18.134 73570.865 0 73525 0zM73871 0c-45.865 0-89.898 18.134-122.329 50.378C73716.239 82.621 73698 126.4 73698 172c0 45.6 18.239 89.378 50.671 121.622C73781.102 325.866 73825.135 344 73871 344c45.865 0 89.898-18.134 122.329-50.378C74025.761 261.378 74044 217.6 74044 172c0-45.6-18.239-89.379-50.671-121.622C73960.898 18.134 73916.865 0 73871 0zM74217 0c-45.865 0-89.898 18.134-122.329 50.378C74062.239 82.621 74044 126.4 74044 172c0 45.6 18.239 89.378 50.671 121.622C74127.102 325.866 74171.135 344 74217 344c45.865 0 89.898-18.134 122.329-50.378C74371.761 261.378 74390 217.6 74390 172c0-45.6-18.239-89.379-50.671-121.622C74306.898 18.134 74262.865 0 74217 0zM74563 0c-45.865 0-89.898 18.134-122.329 50.378C74408.239 82.621 74390 126.4 74390 172c0 45.6 18.239 89.378 50.671 121.622C74473.102 325.866 74517.135 344 74563 344c45.865 0 89.898-18.134 122.329-50.378C74717.761 261.378 74736 217.6 74736 172c0-45.6-18.239-89.379-50.671-121.622C74652.898 18.134 74608.865 0 74563 0zM74909 0c-45.865 0-89.898 18.134-122.329 50.378C74754.239 82.621 74736 126.4 74736 172c0 45.6 18.239 89.378 50.671 121.622C74819.102 325.866 74863.135 344 74909 344c45.865 0 89.898-18.134 122.329-50.378C75063.761 261.378 75082 217.6 75082 172c0-45.6-18.239-89.379-50.671-121.622C74998.898 18.134 74954.865 0 74909 0zM75255 0c-45.865 0-89.898 18.134-122.329 50.378C75100.239 82.621 75082 126.4 75082 172c0 45.6 18.239 89.378 50.671 121.622C75165.102 325.866 75209.135 344 75255 344c45.865 0 89.898-18.134 122.329-50.378C75409.761 261.378 75428 217.6 75428 172c0-45.6-18.239-89.379-50.671-121.622C75344.898 18.134 75300.865 0 75255 0zM75601 0c-45.865 0-89.898 18.134-122.329 50.378C75446.239 82.621 75428 126.4 75428 172c0 45.6 18.239 89.378 50.671 121.622C75511.102 325.866 75555.135 344 75601 344c45.865 0 89.898-18.134 122.329-50.378C75755.761 261.378 75774 217.6 75774 172c0-45.6-18.239-89.379-50.671-121.622C75690.898 18.134 75646.865 0 75601 0zM75947 0c-45.865 0-89.898 18.134-122.329 50.378C75792.239 82.621 75774 126.4 75774 172c0 45.6 18.239 89.378 50.671 121.622C75857.102 325.866 75901.135 344 75947 344c45.865 0 89.898-18.134 122.329-50.378C76101.761 261.378 76120 217.6 76120 172c0-45.6-18.239-89.379-50.671-121.622C76036.898 18.134 75992.865 0 75947 0zM76293 0c-45.865 0-89.898 18.134-122.329 50.378C76138.239 82.621 76120 126.4 76120 172c0 45.6 18.239 89.378 50.671 121.622C76203.102 325.866 76247.135 344 76293 344c45.865 0 89.898-18.134 122.329-50.378C76447.761 261.378 76466 217.6 76466 172c0-45.6-18.239-89.379-50.671-121.622C76382.898 18.134 76338.865 0 76293 0zM76639 0c-45.865 0-89.898 18.134-122.329 50.378C76484.239 82.621 76466 126.4 76466 172c0 45.6 18.239 89.378 50.671 121.622C76549.102 325.866 76593.135 344 76639 344c45.865 0 89.898-18.134 122.329-50.378C76793.761 261.378 76812 217.6 76812 172c0-45.6-18.239-89.379-50.671-121.622C76728.898 18.134 76684.865 0 76639 0zM76985 0c-45.865 0-89.898 18.134-122.329 50.378C76830.239 82.621 76812 126.4 76812 172c0 45.6 18.239 89.378 50.671 121.622C76895.102 325.866 76939.135 344 76985 344c45.865 0 89.898-18.134 122.329-50.378C77139.761 261.378 77158 217.6 77158 172c0-45.6-18.239-89.379-50.671-121.622C77074.898 18.134 77030.865 0 76985 0zM77331 0c-45.865 0-89.898 18.134-122.329 50.378C77176.239 82.621 77158 126.4 77158 172c0 45.6 18.239 89.378 50.671 121.622C77241.102 325.866 77285.135 344 77331 344c45.865 0 89.898-18.134 122.329-50.378C77485.761 261.378 77504 217.6 77504 172c0-45.6-18.239-89.379-50.671-121.622C77420.898 18.134 77376.865 0 77331 0zM77677 0c-45.865 0-89.898 18.134-122.329 50.378C77522.239 82.621 77504 126.4 77504 172c0 45.6 18.239 89.378 50.671 121.622C77587.102 325.866 77631.135 344 77677 344c45.865 0 89.898-18.134 122.329-50.378C77831.761 261.378 77850 217.6 77850 172c0-45.6-18.239-89.379-50.671-121.622C77766.898 18.134 77722.865 0 77677 0zM78023 0c-45.865 0-89.898 18.134-122.329 50.378C77868.239 82.621 77850 126.4 77850 172c0 45.6 18.239 89.378 50.671 121.622C77933.102 325.866 77977.135 344 78023 344c45.865 0 89.898-18.134 122.329-50.378C78177.761 261.378 78196 217.6 78196 172c0-45.6-18.239-89.379-50.671-121.622C78112.898 18.134 78068.865 0 78023 0zM78369 0c-45.865 0-89.898 18.134-122.329 50.378C78214.239 82.621 78196 126.4 78196 172c0 45.6 18.239 89.378 50.671 121.622C78279.102 325.866 78323.135 344 78369 344c45.865 0 89.898-18.134 122.329-50.378C78523.761 261.378 78542 217.6 78542 172c0-45.6-18.239-89.379-50.671-121.622C78458.898 18.134 78414.865 0 78369 0zM78715 0c-45.865 0-89.898 18.134-122.329 50.378C78560.239 82.621 78542 126.4 78542 172c0 45.6 18.239 89.378 50.671 121.622C78625.102 325.866 78669.135 344 78715 344c45.865 0 89.898-18.134 122.329-50.378C78869.761 261.378 78888 217.6 78888 172c0-45.6-18.239-89.379-50.671-121.622C78804.898 18.134 78760.865 0 78715 0zM79061 0c-45.865 0-89.898 18.134-122.329 50.378C78906.239 82.621 78888 126.4 78888 172c0 45.6 18.239 89.378 50.671 121.622C78971.102 325.866 79015.135 344 79061 344c45.865 0 89.898-18.134 122.329-50.378C79215.761 261.378 79234 217.6 79234 172c0-45.6-18.239-89.379-50.671-121.622C79150.898 18.134 79106.865 0 79061 0zM79407 0c-45.865 0-89.898 18.134-122.329 50.378C79252.239 82.621 79234 126.4 79234 172c0 45.6 18.239 89.378 50.671 121.622C79317.102 325.866 79361.135 344 79407 344c45.865 0 89.898-18.134 122.329-50.378C79561.761 261.378 79580 217.6 79580 172c0-45.6-18.239-89.379-50.671-121.622C79496.898 18.134 79452.865 0 79407 0zM79753 0c-45.865 0-89.898 18.134-122.329 50.378C79598.239 82.621 79580 126.4 79580 172c0 45.6 18.239 89.378 50.671 121.622C79663.102 325.866 79707.135 344 79753 344c45.865 0 89.898-18.134 122.329-50.378C79907.761 261.378 79926 217.6 79926 172c0-45.6-18.239-89.379-50.671-121.622C79842.898 18.134 79798.865 0 79753 0zM80099 0c-45.865 0-89.898 18.134-122.329 50.378C79944.239 82.621 79926 126.4 79926 172c0 45.6 18.239 89.378 50.671 121.622C80009.102 325.866 80053.135 344 80099 344c45.865 0 89.898-18.134 122.329-50.378C80253.761 261.378 80272 217.6 80272 172c0-45.6-18.239-89.379-50.671-121.622C80188.898 18.134 80144.865 0 80099 0zM80445 0c-45.865 0-89.898 18.134-122.329 50.378C80290.239 82.621 80272 126.4 80272 172c0 45.6 18.239 89.378 50.671 121.622C80355.102 325.866 80399.135 344 80445 344c45.865 0 89.898-18.134 122.329-50.378C80599.761 261.378 80618 217.6 80618 172c0-45.6-18.239-89.379-50.671-121.622C80534.898 18.134 80490.865 0 80445 0zM80791 0c-45.865 0-89.898 18.134-122.329 50.378C80636.239 82.621 80618 126.4 80618 172c0 45.6 18.239 89.378 50.671 121.622C80701.102 325.866 80745.135 344 80791 344c45.865 0 89.898-18.134 122.329-50.378C80945.761 261.378 80964 217.6 80964 172c0-45.6-18.239-89.379-50.671-121.622C80880.898 18.134 80836.865 0 80791 0zM81137 0c-45.865 0-89.898 18.134-122.329 50.378C80982.239 82.621 80964 126.4 80964 172c0 45.6 18.239 89.378 50.671 121.622C81047.102 325.866 81091.135 344 81137 344c45.865 0 89.898-18.134 122.329-50.378C81291.761 261.378 81310 217.6 81310 172c0-45.6-18.239-89.379-50.671-121.622C81226.898 18.134 81182.865 0 81137 0zM81483 0c-45.865 0-89.898 18.134-122.329 50.378C81328.239 82.621 81310 126.4 81310 172c0 45.6 18.239 89.378 50.671 121.622C81393.102 325.866 81437.135 344 81483 344c45.865 0 89.898-18.134 122.329-50.378C81637.761 261.378 81656 217.6 81656 172c0-45.6-18.239-89.379-50.671-121.622C81572.898 18.134 81528.865 0 81483 0zM81829 0c-45.865 0-89.898 18.134-122.329 50.378C81674.239 82.621 81656 126.4 81656 172c0 45.6 18.239 89.378 50.671 121.622C81739.102 325.866 81783.135 344 81829 344c45.865 0 89.898-18.134 122.329-50.378C81983.761 261.378 82002 217.6 82002 172c0-45.6-18.239-89.379-50.671-121.622C81918.898 18.134 81874.865 0 81829 0zM82175 0c-45.865 0-89.898 18.134-122.329 50.378C82020.239 82.621 82002 126.4 82002 172c0 45.6 18.239 89.378 50.671 121.622C82085.102 325.866 82129.135 344 82175 344c45.865 0 89.898-18.134 122.329-50.378C82329.761 261.378 82348 217.6 82348 172c0-45.6-18.239-89.379-50.671-121.622C82264.898 18.134 82220.865 0 82175 0zM82521 0c-45.865 0-89.898 18.134-122.329 50.378C82366.239 82.621 82348 126.4 82348 172c0 45.6 18.239 89.378 50.671 121.622C82431.102 325.866 82475.135 344 82521 344c45.865 0 89.898-18.134 122.329-50.378C82675.761 261.378 82694 217.6 82694 172c0-45.6-18.239-89.379-50.671-121.622C82610.898 18.134 82566.865 0 82521 0zM82867 0c-45.865 0-89.898 18.134-122.329 50.378C82712.239 82.621 82694 126.4 82694 172c0 45.6 18.239 89.378 50.671 121.622C82777.102 325.866 82821.135 344 82867 344c45.865 0 89.898-18.134 122.329-50.378C83021.761 261.378 83040 217.6 83040 172c0-45.6-18.239-89.379-50.671-121.622C82956.898 18.134 82912.865 0 82867 0zM83213 0c-45.865 0-89.898 18.134-122.329 50.378C83058.239 82.621 83040 126.4 83040 172c0 45.6 18.239 89.378 50.671 121.622C83123.102 325.866 83167.135 344 83213 344c45.865 0 89.898-18.134 122.329-50.378C83367.761 261.378 83386 217.6 83386 172c0-45.6-18.239-89.379-50.671-121.622C83302.898 18.134 83258.865 0 83213 0zM83559 0c-45.865 0-89.898 18.134-122.329 50.378C83404.239 82.621 83386 126.4 83386 172c0 45.6 18.239 89.378 50.671 121.622C83469.102 325.866 83513.135 344 83559 344c45.865 0 89.898-18.134 122.329-50.378C83713.761 261.378 83732 217.6 83732 172c0-45.6-18.239-89.379-50.671-121.622C83648.898 18.134 83604.865 0 83559 0zM83905 0c-45.865 0-89.898 18.134-122.329 50.378C83750.239 82.621 83732 126.4 83732 172c0 45.6 18.239 89.378 50.671 121.622C83815.102 325.866 83859.135 344 83905 344c45.865 0 89.898-18.134 122.329-50.378C84059.761 261.378 84078 217.6 84078 172c0-45.6-18.239-89.379-50.671-121.622C83994.898 18.134 83950.865 0 83905 0zM84251 0c-45.865 0-89.898 18.134-122.329 50.378C84096.239 82.621 84078 126.4 84078 172c0 45.6 18.239 89.378 50.671 121.622C84161.102 325.866 84205.135 344 84251 344c45.865 0 89.898-18.134 122.329-50.378C84405.761 261.378 84424 217.6 84424 172c0-45.6-18.239-89.379-50.671-121.622C84340.898 18.134 84296.865 0 84251 0zM84597 0c-45.865 0-89.898 18.134-122.329 50.378C84442.239 82.621 84424 126.4 84424 172c0 45.6 18.239 89.378 50.671 121.622C84507.102 325.866 84551.135 344 84597 344c45.865 0 89.898-18.134 122.329-50.378C84751.761 261.378 84770 217.6 84770 172c0-45.6-18.239-89.379-50.671-121.622C84686.898 18.134 84642.865 0 84597 0zM84943 0c-45.865 0-89.898 18.134-122.329 50.378C84788.239 82.621 84770 126.4 84770 172c0 45.6 18.239 89.378 50.671 121.622C84853.102 325.866 84897.135 344 84943 344c45.865 0 89.898-18.134 122.329-50.378C85097.761 261.378 85116 217.6 85116 172c0-45.6-18.239-89.379-50.671-121.622C85032.898 18.134 84988.865 0 84943 0zM85289 0c-45.865 0-89.898 18.134-122.329 50.378C85134.239 82.621 85116 126.4 85116 172c0 45.6 18.239 89.378 50.671 121.622C85199.102 325.866 85243.135 344 85289 344c45.865 0 89.898-18.134 122.329-50.378C85443.761 261.378 85462 217.6 85462 172c0-45.6-18.239-89.379-50.671-121.622C85378.898 18.134 85334.865 0 85289 0zM85635 0c-45.865 0-89.898 18.134-122.329 50.378C85480.239 82.621 85462 126.4 85462 172c0 45.6 18.239 89.378 50.671 121.622C85545.102 325.866 85589.135 344 85635 344c45.865 0 89.898-18.134 122.329-50.378C85789.761 261.378 85808 217.6 85808 172c0-45.6-18.239-89.379-50.671-121.622C85724.898 18.134 85680.865 0 85635 0zM85981 0c-45.865 0-89.898 18.134-122.329 50.378C85826.239 82.621 85808 126.4 85808 172c0 45.6 18.239 89.378 50.671 121.622C85891.102 325.866 85935.135 344 85981 344c45.865 0 89.898-18.134 122.329-50.378C86135.761 261.378 86154 217.6 86154 172c0-45.6-18.239-89.379-50.671-121.622C86070.898 18.134 86026.865 0 85981 0zM86327 0c-45.865 0-89.898 18.134-122.329 50.378C86172.239 82.621 86154 126.4 86154 172c0 45.6 18.239 89.378 50.671 121.622C86237.102 325.866 86281.135 344 86327 344c45.865 0 89.898-18.134 122.329-50.378C86481.761 261.378 86500 217.6 86500 172c0-45.6-18.239-89.379-50.671-121.622C86416.898 18.134 86372.865 0 86327 0zM86673 0c-45.865 0-89.898 18.134-122.329 50.378C86518.239 82.621 86500 126.4 86500 172c0 45.6 18.239 89.378 50.671 121.622C86583.102 325.866 86627.135 344 86673 344c45.865 0 89.898-18.134 122.329-50.378C86827.761 261.378 86846 217.6 86846 172c0-45.6-18.239-89.379-50.671-121.622C86762.898 18.134 86718.865 0 86673 0zM87019 0c-45.865 0-89.898 18.134-122.329 50.378C86864.239 82.621 86846 126.4 86846 172c0 45.6 18.239 89.378 50.671 121.622C86929.102 325.866 86973.135 344 87019 344c45.865 0 89.898-18.134 122.329-50.378C87173.761 261.378 87192 217.6 87192 172c0-45.6-18.239-89.379-50.671-121.622C87108.898 18.134 87064.865 0 87019 0zM87365 0c-45.865 0-89.898 18.134-122.329 50.378C87210.239 82.621 87192 126.4 87192 172c0 45.6 18.239 89.378 50.671 121.622C87275.102 325.866 87319.135 344 87365 344c45.865 0 89.898-18.134 122.329-50.378C87519.761 261.378 87538 217.6 87538 172c0-45.6-18.239-89.379-50.671-121.622C87454.898 18.134 87410.865 0 87365 0zM87711 0c-45.865 0-89.898 18.134-122.329 50.378C87556.239 82.621 87538 126.4 87538 172c0 45.6 18.239 89.378 50.671 121.622C87621.102 325.866 87665.135 344 87711 344c45.865 0 89.898-18.134 122.329-50.378C87865.761 261.378 87884 217.6 87884 172c0-45.6-18.239-89.379-50.671-121.622C87800.898 18.134 87756.865 0 87711 0zM88057 0c-45.865 0-89.898 18.134-122.329 50.378C87902.239 82.621 87884 126.4 87884 172c0 45.6 18.239 89.378 50.671 121.622C87967.102 325.866 88011.135 344 88057 344c45.865 0 89.898-18.134 122.329-50.378C88211.761 261.378 88230 217.6 88230 172c0-45.6-18.239-89.379-50.671-121.622C88146.898 18.134 88102.865 0 88057 0zM88403 0c-45.865 0-89.898 18.134-122.329 50.378C88248.239 82.621 88230 126.4 88230 172c0 45.6 18.239 89.378 50.671 121.622C88313.102 325.866 88357.135 344 88403 344c45.865 0 89.898-18.134 122.329-50.378C88557.761 261.378 88576 217.6 88576 172c0-45.6-18.239-89.379-50.671-121.622C88492.898 18.134 88448.865 0 88403 0zM88749 0c-45.865 0-89.898 18.134-122.329 50.378C88594.239 82.621 88576 126.4 88576 172c0 45.6 18.239 89.378 50.671 121.622C88659.102 325.866 88703.135 344 88749 344c45.865 0 89.898-18.134 122.329-50.378C88903.761 261.378 88922 217.6 88922 172c0-45.6-18.239-89.379-50.671-121.622C88838.898 18.134 88794.865 0 88749 0zM89095 0c-45.865 0-89.898 18.134-122.329 50.378C88940.239 82.621 88922 126.4 88922 172c0 45.6 18.239 89.378 50.671 121.622C89005.102 325.866 89049.135 344 89095 344c45.865 0 89.898-18.134 122.329-50.378C89249.761 261.378 89268 217.6 89268 172c0-45.6-18.239-89.379-50.671-121.622C89184.898 18.134 89140.865 0 89095 0zM89441 0c-45.865 0-89.898 18.134-122.329 50.378C89286.239 82.621 89268 126.4 89268 172c0 45.6 18.239 89.378 50.671 121.622C89351.102 325.866 89395.135 344 89441 344c45.865 0 89.898-18.134 122.329-50.378C89595.761 261.378 89614 217.6 89614 172c0-45.6-18.239-89.379-50.671-121.622C89530.898 18.134 89486.865 0 89441 0zM89787 0c-45.865 0-89.898 18.134-122.329 50.378C89632.239 82.621 89614 126.4 89614 172c0 45.6 18.239 89.378 50.671 121.622C89697.102 325.866 89741.135 344 89787 344c45.865 0 89.898-18.134 122.329-50.378C89941.761 261.378 89960 217.6 89960 172c0-45.6-18.239-89.379-50.671-121.622C89876.898 18.134 89832.865 0 89787 0zM90133 0c-45.865 0-89.898 18.134-122.329 50.378C89978.239 82.621 89960 126.4 89960 172c0 45.6 18.239 89.378 50.671 121.622C90043.102 325.866 90087.135 344 90133 344c45.865 0 89.898-18.134 122.329-50.378C90287.761 261.378 90306 217.6 90306 172c0-45.6-18.239-89.379-50.671-121.622C90222.898 18.134 90178.865 0 90133 0zM90479 0c-45.865 0-89.898 18.134-122.329 50.378C90324.239 82.621 90306 126.4 90306 172c0 45.6 18.239 89.378 50.671 121.622C90389.102 325.866 90433.135 344 90479 344c45.865 0 89.898-18.134 122.329-50.378C90633.761 261.378 90652 217.6 90652 172c0-45.6-18.239-89.379-50.671-121.622C90568.898 18.134 90524.865 0 90479 0zM90825 0c-45.865 0-89.898 18.134-122.329 50.378C90670.239 82.621 90652 126.4 90652 172c0 45.6 18.239 89.378 50.671 121.622C90735.102 325.866 90779.135 344 90825 344c45.865 0 89.898-18.134 122.329-50.378C90979.761 261.378 90998 217.6 90998 172c0-45.6-18.239-89.379-50.671-121.622C90914.898 18.134 90870.865 0 90825 0zM91171 0c-45.865 0-89.898 18.134-122.329 50.378C91016.239 82.621 90998 126.4 90998 172c0 45.6 18.239 89.378 50.671 121.622C91081.102 325.866 91125.135 344 91171 344c45.865 0 89.898-18.134 122.329-50.378C91325.761 261.378 91344 217.6 91344 172c0-45.6-18.239-89.379-50.671-121.622C91260.898 18.134 91216.865 0 91171 0zM91517 0c-45.865 0-89.898 18.134-122.329 50.378C91362.239 82.621 91344 126.4 91344 172c0 45.6 18.239 89.378 50.671 121.622C91427.102 325.866 91471.135 344 91517 344c45.865 0 89.898-18.134 122.329-50.378C91671.761 261.378 91690 217.6 91690 172c0-45.6-18.239-89.379-50.671-121.622C91606.898 18.134 91562.865 0 91517 0zM91863 0c-45.865 0-89.898 18.134-122.329 50.378C91708.239 82.621 91690 126.4 91690 172c0 45.6 18.239 89.378 50.671 121.622C91773.102 325.866 91817.135 344 91863 344c45.865 0 89.898-18.134 122.329-50.378C92017.761 261.378 92036 217.6 92036 172c0-45.6-18.239-89.379-50.671-121.622C91952.898 18.134 91908.865 0 91863 0zM92209 0c-45.865 0-89.898 18.134-122.329 50.378C92054.239 82.621 92036 126.4 92036 172c0 45.6 18.239 89.378 50.671 121.622C92119.102 325.866 92163.135 344 92209 344c45.865 0 89.898-18.134 122.329-50.378C92363.761 261.378 92382 217.6 92382 172c0-45.6-18.239-89.379-50.671-121.622C92298.898 18.134 92254.865 0 92209 0zM92555 0c-45.865 0-89.898 18.134-122.329 50.378C92400.239 82.621 92382 126.4 92382 172c0 45.6 18.239 89.378 50.671 121.622C92465.102 325.866 92509.135 344 92555 344c45.865 0 89.898-18.134 122.329-50.378C92709.761 261.378 92728 217.6 92728 172c0-45.6-18.239-89.379-50.671-121.622C92644.898 18.134 92600.865 0 92555 0zM92901 0c-45.865 0-89.898 18.134-122.329 50.378C92746.239 82.621 92728 126.4 92728 172c0 45.6 18.239 89.378 50.671 121.622C92811.102 325.866 92855.135 344 92901 344c45.865 0 89.898-18.134 122.329-50.378C93055.761 261.378 93074 217.6 93074 172c0-45.6-18.239-89.379-50.671-121.622C92990.898 18.134 92946.865 0 92901 0zM93247 0c-45.865 0-89.898 18.134-122.329 50.378C93092.239 82.621 93074 126.4 93074 172c0 45.6 18.239 89.378 50.671 121.622C93157.102 325.866 93201.135 344 93247 344c45.865 0 89.898-18.134 122.329-50.378C93401.761 261.378 93420 217.6 93420 172c0-45.6-18.239-89.379-50.671-121.622C93336.898 18.134 93292.865 0 93247 0zM93593 0c-45.865 0-89.898 18.134-122.329 50.378C93438.239 82.621 93420 126.4 93420 172c0 45.6 18.239 89.378 50.671 121.622C93503.102 325.866 93547.135 344 93593 344c45.865 0 89.898-18.134 122.329-50.378C93747.761 261.378 93766 217.6 93766 172c0-45.6-18.239-89.379-50.671-121.622C93682.898 18.134 93638.865 0 93593 0zM93939 0c-45.865 0-89.898 18.134-122.329 50.378C93784.239 82.621 93766 126.4 93766 172c0 45.6 18.239 89.378 50.671 121.622C93849.102 325.866 93893.135 344 93939 344c45.865 0 89.898-18.134 122.329-50.378C94093.761 261.378 94112 217.6 94112 172c0-45.6-18.239-89.379-50.671-121.622C94028.898 18.134 93984.865 0 93939 0zM94285 0c-45.865 0-89.898 18.134-122.329 50.378C94130.239 82.621 94112 126.4 94112 172c0 45.6 18.239 89.378 50.671 121.622C94195.102 325.866 94239.135 344 94285 344c45.865 0 89.898-18.134 122.329-50.378C94439.761 261.378 94458 217.6 94458 172c0-45.6-18.239-89.379-50.671-121.622C94374.898 18.134 94330.865 0 94285 0zM94631 0c-45.865 0-89.898 18.134-122.329 50.378C94476.239 82.621 94458 126.4 94458 172c0 45.6 18.239 89.378 50.671 121.622C94541.102 325.866 94585.135 344 94631 344c45.865 0 89.898-18.134 122.329-50.378C94785.761 261.378 94804 217.6 94804 172c0-45.6-18.239-89.379-50.671-121.622C94720.898 18.134 94676.865 0 94631 0zM94977 0c-45.865 0-89.898 18.134-122.329 50.378C94822.239 82.621 94804 126.4 94804 172c0 45.6 18.239 89.378 50.671 121.622C94887.102 325.866 94931.135 344 94977 344c45.865 0 89.898-18.134 122.329-50.378C95131.761 261.378 95150 217.6 95150 172c0-45.6-18.239-89.379-50.671-121.622C95066.898 18.134 95022.865 0 94977 0zM95323 0c-45.865 0-89.898 18.134-122.329 50.378C95168.239 82.621 95150 126.4 95150 172c0 45.6 18.239 89.378 50.671 121.622C95233.102 325.866 95277.135 344 95323 344c45.865 0 89.898-18.134 122.329-50.378C95477.761 261.378 95496 217.6 95496 172c0-45.6-18.239-89.379-50.671-121.622C95412.898 18.134 95368.865 0 95323 0zM95669 0c-45.865 0-89.898 18.134-122.329 50.378C95514.239 82.621 95496 126.4 95496 172c0 45.6 18.239 89.378 50.671 121.622C95579.102 325.866 95623.135 344 95669 344c45.865 0 89.898-18.134 122.329-50.378C95823.761 261.378 95842 217.6 95842 172c0-45.6-18.239-89.379-50.671-121.622C95758.898 18.134 95714.865 0 95669 0zM96015 0c-45.865 0-89.898 18.134-122.329 50.378C95860.239 82.621 95842 126.4 95842 172c0 45.6 18.239 89.378 50.671 121.622C95925.102 325.866 95969.135 344 96015 344c45.865 0 89.898-18.134 122.329-50.378C96169.761 261.378 96188 217.6 96188 172c0-45.6-18.239-89.379-50.671-121.622C96104.898 18.134 96060.865 0 96015 0zM96361 0c-45.865 0-89.898 18.134-122.329 50.378C96206.239 82.621 96188 126.4 96188 172c0 45.6 18.239 89.378 50.671 121.622C96271.102 325.866 96315.135 344 96361 344c45.865 0 89.898-18.134 122.329-50.378C96515.761 261.378 96534 217.6 96534 172c0-45.6-18.239-89.379-50.671-121.622C96450.898 18.134 96406.865 0 96361 0zM96707 0c-45.865 0-89.898 18.134-122.329 50.378C96552.239 82.621 96534 126.4 96534 172c0 45.6 18.239 89.378 50.671 121.622C96617.102 325.866 96661.135 344 96707 344c45.865 0 89.898-18.134 122.329-50.378C96861.761 261.378 96880 217.6 96880 172c0-45.6-18.239-89.379-50.671-121.622C96796.898 18.134 96752.865 0 96707 0zM97053 0c-45.865 0-89.898 18.134-122.329 50.378C96898.239 82.621 96880 126.4 96880 172c0 45.6 18.239 89.378 50.671 121.622C96963.102 325.866 97007.135 344 97053 344c45.865 0 89.898-18.134 122.329-50.378C97207.761 261.378 97226 217.6 97226 172c0-45.6-18.239-89.379-50.671-121.622C97142.898 18.134 97098.865 0 97053 0zM97399 0c-45.865 0-89.898 18.134-122.329 50.378C97244.239 82.621 97226 126.4 97226 172c0 45.6 18.239 89.378 50.671 121.622C97309.102 325.866 97353.135 344 97399 344c45.865 0 89.898-18.134 122.329-50.378C97553.761 261.378 97572 217.6 97572 172c0-45.6-18.239-89.379-50.671-121.622C97488.898 18.134 97444.865 0 97399 0zM97745 0c-45.865 0-89.898 18.134-122.329 50.378C97590.239 82.621 97572 126.4 97572 172c0 45.6 18.239 89.378 50.671 121.622C97655.102 325.866 97699.135 344 97745 344c45.865 0 89.898-18.134 122.329-50.378C97899.761 261.378 97918 217.6 97918 172c0-45.6-18.239-89.379-50.671-121.622C97834.898 18.134 97790.865 0 97745 0zM98091 0c-45.865 0-89.898 18.134-122.329 50.378C97936.239 82.621 97918 126.4 97918 172c0 45.6 18.239 89.378 50.671 121.622C98001.102 325.866 98045.135 344 98091 344c45.865 0 89.898-18.134 122.329-50.378C98245.761 261.378 98264 217.6 98264 172c0-45.6-18.239-89.379-50.671-121.622C98180.898 18.134 98136.865 0 98091 0zM98437 0c-45.865 0-89.898 18.134-122.329 50.378C98282.239 82.621 98264 126.4 98264 172c0 45.6 18.239 89.378 50.671 121.622C98347.102 325.866 98391.135 344 98437 344c45.865 0 89.898-18.134 122.329-50.378C98591.761 261.378 98610 217.6 98610 172c0-45.6-18.239-89.379-50.671-121.622C98526.898 18.134 98482.865 0 98437 0zM98783 0c-45.865 0-89.898 18.134-122.329 50.378C98628.239 82.621 98610 126.4 98610 172c0 45.6 18.239 89.378 50.671 121.622C98693.102 325.866 98737.135 344 98783 344c45.865 0 89.898-18.134 122.329-50.378C98937.761 261.378 98956 217.6 98956 172c0-45.6-18.239-89.379-50.671-121.622C98872.898 18.134 98828.865 0 98783 0zM99129 0c-45.865 0-89.898 18.134-122.329 50.378C98974.239 82.621 98956 126.4 98956 172c0 45.6 18.239 89.378 50.671 121.622C99039.102 325.866 99083.135 344 99129 344c45.865 0 89.898-18.134 122.329-50.378C99283.761 261.378 99302 217.6 99302 172c0-45.6-18.239-89.379-50.671-121.622C99218.898 18.134 99174.865 0 99129 0zM99475 0c-45.865 0-89.898 18.134-122.329 50.378C99320.239 82.621 99302 126.4 99302 172c0 45.6 18.239 89.378 50.671 121.622C99385.102 325.866 99429.135 344 99475 344c45.865 0 89.898-18.134 122.329-50.378C99629.761 261.378 99648 217.6 99648 172c0-45.6-18.239-89.379-50.671-121.622C99564.898 18.134 99520.865 0 99475 0zM99821 0c-45.865 0-89.898 18.134-122.329 50.378C99666.239 82.621 99648 126.4 99648 172c0 45.6 18.239 89.378 50.671 121.622C99731.102 325.866 99775.135 344 99821 344c45.865 0 89.898-18.134 122.329-50.378C99975.761 261.378 99994 217.6 99994 172c0-45.6-18.239-89.379-50.671-121.622C99910.898 18.134 99866.865 0 99821 0zM100167 0c-45.865 0-89.898 18.134-122.329 50.378C100012.239 82.621 99994 126.4 99994 172c0 45.6 18.239 89.378 50.671 121.622 32.431 32.244 76.464 50.378 122.329 50.378 45.865 0 89.898-18.134 122.329-50.378 32.432-32.244 50.671-76.022 50.671-121.622 0-45.6-18.239-89.379-50.671-121.622C100256.898 18.134 100212.865 0 100167 0zM100513 0c-45.865 0-89.898 18.134-122.329 50.378C100358.239 82.621 100340 126.4 100340 172c0 45.6 18.239 89.378 50.671 121.622 32.431 32.244 76.464 50.378 122.329 50.378 45.865 0 89.898-18.134 122.329-50.378 32.432-32.244 50.671-76.022 50.671-121.622 0-45.6-18.239-89.379-50.671-121.622C100602.898 18.134 100558.865 0 100513 0zM100859 0c-45.865 0-89.898 18.134-122.329 50.378C100704.239 82.621 100686 126.4 100686 172c0 45.6 18.239 89.378 50.671 121.622 32.431 32.244 76.464 50.378 122.329 50.378 45.865 0 89.898-18.134 122.329-50.378 32.432-32.244 50.671-76.022 50.671-121.622 0-45.6-18.239-89.379-50.671-121.622C100948.898 18.134 100904.865 0 100859 0zM101205 0c-45.865 0-89.898 18.134-122.329 50.378C101050.239 82.621 101032 126.4 101032 172c0 45.6 18.239 89.378 50.671 121.622 32.431 32.244 76.464 50.378 122.329 50.378 45.865 0 89.898-18.134 122.329-50.378 32.432-32.244 50.671-76.022 50.671-121.622 0-45.6-18.239-89.379-50.671-121.622C101294.898 18.134 101250.865 0 101205 0zM101551 0c-45.865 0-89.898 18.134-122.329 50.378C101396.239 82.621 101378 126.4 101378 172c0 45.6 18.239 89.378 50.671 121.622 32.431 32.244 76.464 50.378 122.329 50.378 45.865 0 89.898-18.134 122.329-50.378 32.432-32.244 50.671-76.022 50.671-121.622 0-45.6-18.239-89.379-50.671-121.622C101640.898 18.134 101596.865 0 101551 0zM101897 0c-45.865 0-89.898 18.134-122.329 50.378C101742.239 82.621 101724 126.4 101724 172c0 45.6 18.239 89.378 50.671 121.622 32.431 32.244 76.464 50.378 122.329 50.378 45.865 0 89.898-18.134 122.329-50.378 32.432-32.244 50.671-76.022 50.671-121.622 0-45.6-18.239-89.379-50.671-121.622C101986.898 18.134 101942.865 0 101897 0zM102243 0c-45.865 0-89.898 18.134-122.329 50.378C102088.239 82.621 102070 126.4 102070 172c0 45.6 18.239 89.378 50.671 121.622 32.431 32.244 76.464 50.378 122.329 50.378 45.865 0 89.898-18.134 122.329-50.378 32.432-32.244 50.671-76.022 50.671-121.622 0-45.6-18.239-89.379-50.671-121.622C102332.898 18.134 102288.865 0 102243 0zM102589 0c-45.865 0-89.898 18.134-122.329 50.378C102434.239 82.621 102416 126.4 102416 172c0 45.6 18.239 89.378 50.671 121.622 32.431 32.244 76.464 50.378 122.329 50.378 45.865 0 89.898-18.134 122.329-50.378 32.432-32.244 50.671-76.022 50.671-121.622 0-45.6-18.239-89.379-50.671-121.622C102678.898 18.134 102634.865 0 102589 0zM102935 0c-45.865 0-89.898 18.134-122.329 50.378C102780.239 82.621 102762 126.4 102762 172c0 45.6 18.239 89.378 50.671 121.622 32.431 32.244 76.464 50.378 122.329 50.378 45.865 0 89.898-18.134 122.329-50.378 32.432-32.244 50.671-76.022 50.671-121.622 0-45.6-18.239-89.379-50.671-121.622C103024.898 18.134 102980.865 0 102935 0zM103281 0c-45.865 0-89.898 18.134-122.329 50.378C103126.239 82.621 103108 126.4 103108 172c0 45.6 18.239 89.378 50.671 121.622 32.431 32.244 76.464 50.378 122.329 50.378 45.865 0 89.898-18.134 122.329-50.378 32.432-32.244 50.671-76.022 50.671-121.622 0-45.6-18.239-89.379-50.671-121.622C103370.898 18.134 103326.865 0 103281 0zM103627 0c-45.865 0-89.898 18.134-122.329 50.378C103472.239 82.621 103454 126.4 103454 172c0 45.6 18.239 89.378 50.671 121.622 32.431 32.244 76.464 50.378 122.329 50.378 45.865 0 89.898-18.134 122.329-50.378 32.432-32.244 50.671-76.022 50.671-121.622 0-45.6-18.239-89.379-50.671-121.622C103716.898 18.134 103672.865 0 103627 0zM103973 0c-45.865 0-89.898 18.134-122.329 50.378C103818.239 82.621 103800 126.4 103800 172c0 45.6 18.239 89.378 50.671 121.622 32.431 32.244 76.464 50.378 122.329 50.378 45.865 0 89.898-18.134 122.329-50.378 32.432-32.244 50.671-76.022 50.671-121.622 0-45.6-18.239-89.379-50.671-121.622C104062.898 18.134 104018.865 0 103973 0z" fill="#ffa5ba"/></svg>